<svg width="116" height="116" viewBox="0 0 116 116" fill="none" xmlns="http://www.w3.org/2000/svg">
<path fill-rule="evenodd" clip-rule="evenodd" d="M58.0003 90.7559C56.9913 90.7559 56.0343 90.3077 55.3883 89.5325L38.3884 69.1325C37.1862 67.6899 37.3811 65.546 38.8237 64.3439C40.2662 63.1418 42.4101 63.3367 43.6123 64.7792L54.6003 77.9649L54.6003 26.1559C54.6003 24.2781 56.1225 22.7559 58.0003 22.7559C59.8781 22.7559 61.4003 24.2781 61.4003 26.1559L61.4003 77.9649L72.3884 64.7792C73.5905 63.3367 75.7344 63.1418 77.1769 64.3439C78.6195 65.546 78.8144 67.6899 77.6123 69.1325L60.6123 89.5325C59.9663 90.3077 59.0094 90.7559 58.0003 90.7559Z" fill="#F7F7F7"/>
<rect x="4" y="4" width="108" height="108" rx="54" stroke="#F7F7F7" stroke-width="8"/>
</svg>
