<svg width="41" height="29" viewBox="0 0 41 29" fill="none" xmlns="http://www.w3.org/2000/svg">
<path fill-rule="evenodd" clip-rule="evenodd" d="M40.7498 14.5899C40.7408 15.2014 40.4832 15.783 40.0363 16.2006L27.2762 28.1258C26.3683 28.9742 24.9445 28.9261 24.0961 28.0182C23.2476 27.1103 23.2957 25.6865 24.2036 24.838L32.7973 16.8067L2.49999 16.8066C1.25735 16.8066 0.249996 15.7993 0.25 14.5566C0.250002 13.314 1.25736 12.3066 2.5 12.3066L33.0345 12.3067L25.0811 4.42211C24.1986 3.54725 24.1924 2.12265 25.0673 1.24016C25.9421 0.357667 27.3667 0.351477 28.2492 1.22633L40.0841 12.9588C40.5185 13.3894 40.7588 13.9783 40.7498 14.5899Z" fill="#F7F7F7"/>
</svg>
