<svg width="374" height="275" viewBox="0 0 374 275" fill="none" xmlns="http://www.w3.org/2000/svg">
<g clip-path="url(#clip0_3085_5907)">
<path d="M340.05 82.3971L359.399 71.0774L351.577 51.3152L330.486 56.1958C326.968 50.9042 322.682 46.3147 317.832 42.5129L323.314 21.6033L303.845 13.1607L292.762 30.9364C286.477 29.6692 279.971 29.4294 273.447 30.2857L262.91 12.1846L243.203 20.0278L247.831 40.1668C242.366 43.9172 237.652 48.5067 233.81 53.7127L213.573 48.3697L205.154 67.8922L222.966 79.0577C221.89 85.2569 221.804 91.6617 222.778 98.0493L204.18 108.924L212.002 128.686L233.263 123.771C236.85 128.772 241.153 133.087 245.969 136.666L240.265 158.398L259.734 166.84L271.722 147.626C277.392 148.568 283.233 148.688 289.073 147.9L300.669 167.817L320.376 159.973L315.236 137.642C320.018 134.269 324.202 130.261 327.72 125.758L349.989 131.631L358.408 112.109L339.333 100.156C340.443 94.3674 340.699 88.3908 340.016 82.3971H340.05ZM296.092 126.545C275.496 134.731 252.083 124.593 243.92 103.94C235.757 83.2876 245.867 59.8092 266.462 51.6234C287.058 43.4377 310.471 53.5757 318.634 74.2284C326.798 94.8812 316.688 118.36 296.092 126.545Z" fill="#D0E5FB"/>
<mask id="path-2-inside-1_3085_5907" fill="white">
<path fill-rule="evenodd" clip-rule="evenodd" d="M206.504 89.5891L189.255 113.085V113.119C193.439 120.311 196.547 128.206 198.34 136.597L227.236 140.998V169.717L197.333 174.272C195.198 182.133 191.902 189.513 187.65 196.226L205.65 220.749L185.396 241.06L160.343 222.565C153.7 226.452 146.459 229.415 138.774 231.247L134.146 261.832H105.507L100.844 231.059C93.1253 229.124 85.8331 226.058 79.1899 222.051L54.6152 240.186L34.3611 219.876L52.2927 195.439C48.0232 188.554 44.7785 180.985 42.7463 172.919L13.6289 168.484V139.765L42.3705 135.381C44.3174 126.87 47.5963 118.873 52.0194 111.629L35.215 88.7328L55.4691 68.4226L78.2165 85.2222C85.6111 80.6156 93.8084 77.2077 102.535 75.2212L106.719 47.6328H135.358L139.593 75.6151C148.218 77.7728 156.261 81.3519 163.519 86.0613L186.25 69.2788L206.504 89.5891ZM119.544 190.284C139.35 190.284 155.407 174.183 155.407 154.322C155.407 134.46 139.35 118.359 119.544 118.359C99.7369 118.359 83.6805 134.46 83.6805 154.322C83.6805 174.183 99.7369 190.284 119.544 190.284Z"/>
</mask>
<path fill-rule="evenodd" clip-rule="evenodd" d="M206.504 89.5891L189.255 113.085V113.119C193.439 120.311 196.547 128.206 198.34 136.597L227.236 140.998V169.717L197.333 174.272C195.198 182.133 191.902 189.513 187.65 196.226L205.65 220.749L185.396 241.06L160.343 222.565C153.7 226.452 146.459 229.415 138.774 231.247L134.146 261.832H105.507L100.844 231.059C93.1253 229.124 85.8331 226.058 79.1899 222.051L54.6152 240.186L34.3611 219.876L52.2927 195.439C48.0232 188.554 44.7785 180.985 42.7463 172.919L13.6289 168.484V139.765L42.3705 135.381C44.3174 126.87 47.5963 118.873 52.0194 111.629L35.215 88.7328L55.4691 68.4226L78.2165 85.2222C85.6111 80.6156 93.8084 77.2077 102.535 75.2212L106.719 47.6328H135.358L139.593 75.6151C148.218 77.7728 156.261 81.3519 163.519 86.0613L186.25 69.2788L206.504 89.5891ZM119.544 190.284C139.35 190.284 155.407 174.183 155.407 154.322C155.407 134.46 139.35 118.359 119.544 118.359C99.7369 118.359 83.6805 134.46 83.6805 154.322C83.6805 174.183 99.7369 190.284 119.544 190.284Z" fill="#FAFAFA"/>
<path d="M189.255 113.085L186.031 110.717L185.255 111.774V113.085H189.255ZM206.504 89.5891L209.728 91.9562L211.757 89.1923L209.336 86.7646L206.504 89.5891ZM189.255 113.119H185.255V114.198L185.798 115.13L189.255 113.119ZM198.34 136.597L194.429 137.433L195.006 140.135L197.738 140.552L198.34 136.597ZM227.236 140.998H231.236V137.561L227.838 137.044L227.236 140.998ZM227.236 169.717L227.838 173.671L231.236 173.154V169.717H227.236ZM197.333 174.272L196.731 170.318L194.155 170.71L193.473 173.224L197.333 174.272ZM187.65 196.226L184.271 194.086L182.81 196.392L184.425 198.593L187.65 196.226ZM205.65 220.749L208.482 223.574L210.903 221.146L208.874 218.383L205.65 220.749ZM185.396 241.06L183.02 244.278L185.794 246.325L188.228 243.884L185.396 241.06ZM160.343 222.565L162.718 219.347L160.598 217.781L158.323 219.112L160.343 222.565ZM138.774 231.247L137.846 227.356L135.222 227.982L134.819 230.649L138.774 231.247ZM134.146 261.832V265.832H137.586L138.101 262.431L134.146 261.832ZM105.507 261.832L101.552 262.431L102.067 265.832H105.507V261.832ZM100.844 231.059L104.799 230.46L104.4 227.826L101.817 227.179L100.844 231.059ZM79.1899 222.051L81.256 218.626L78.9663 217.245L76.8148 218.832L79.1899 222.051ZM54.6152 240.186L51.7829 243.011L54.2169 245.452L56.9903 243.405L54.6152 240.186ZM34.3611 219.876L31.1362 217.51L29.1083 220.273L31.5288 222.701L34.3611 219.876ZM52.2927 195.439L55.5176 197.805L57.116 195.627L55.692 193.33L52.2927 195.439ZM42.7463 172.919L46.625 171.942L45.9758 169.365L43.3486 168.965L42.7463 172.919ZM13.6289 168.484H9.62891V171.921L13.0265 172.438L13.6289 168.484ZM13.6289 139.765L13.0258 135.811L9.62891 136.329V139.765H13.6289ZM42.3705 135.381L42.9737 139.336L45.6632 138.925L46.2698 136.273L42.3705 135.381ZM52.0194 111.629L55.4333 113.713L56.831 111.424L55.2441 109.262L52.0194 111.629ZM35.215 88.7328L32.3827 85.9083L29.9619 88.3358L31.9903 91.0995L35.215 88.7328ZM55.4691 68.4226L57.8454 65.2049L55.0716 63.1564L52.6367 65.5981L55.4691 68.4226ZM78.2165 85.2222L75.8402 88.4398L78.0256 90.0538L80.3315 88.6173L78.2165 85.2222ZM102.535 75.2212L103.423 79.1214L106.081 78.5163L106.49 75.821L102.535 75.2212ZM106.719 47.6328V43.6328H103.28L102.764 47.033L106.719 47.6328ZM135.358 47.6328L139.313 47.0342L138.798 43.6328H135.358V47.6328ZM139.593 75.6151L135.639 76.2137L136.037 78.8486L138.623 79.4955L139.593 75.6151ZM163.519 86.0613L161.342 89.4168L163.666 90.9249L165.895 89.2792L163.519 86.0613ZM186.25 69.2788L189.082 66.4543L186.647 64.013L183.874 66.0609L186.25 69.2788ZM192.48 115.452L209.728 91.9562L203.279 87.222L186.031 110.717L192.48 115.452ZM193.255 113.119V113.085H185.255V113.119H193.255ZM202.252 135.761C200.368 126.946 197.104 118.656 192.713 111.107L185.798 115.13C189.775 121.967 192.726 129.466 194.429 137.433L202.252 135.761ZM227.838 137.044L198.943 132.643L197.738 140.552L226.634 144.953L227.838 137.044ZM231.236 169.717V140.998H223.236V169.717H231.236ZM197.935 178.227L227.838 173.671L226.633 165.763L196.731 170.318L197.935 178.227ZM191.029 198.367C195.491 191.323 198.951 183.575 201.193 175.321L193.473 173.224C191.445 180.69 188.314 187.703 184.271 194.086L191.029 198.367ZM208.874 218.383L190.874 193.86L184.425 198.593L202.425 223.116L208.874 218.383ZM188.228 243.884L208.482 223.574L202.817 217.925L182.563 238.235L188.228 243.884ZM157.967 225.783L183.02 244.278L187.771 237.842L162.718 219.347L157.967 225.783ZM139.701 235.138C147.783 233.211 155.39 230.097 162.363 226.017L158.323 219.112C152.009 222.807 145.135 225.618 137.846 227.356L139.701 235.138ZM138.101 262.431L142.729 231.846L134.819 230.649L130.191 261.234L138.101 262.431ZM105.507 265.832H134.146V257.832H105.507V265.832ZM96.8895 231.658L101.552 262.431L109.461 261.233L104.799 230.46L96.8895 231.658ZM77.1238 225.476C84.1026 229.686 91.7627 232.906 99.8717 234.939L101.817 227.179C94.4878 225.341 87.5636 222.431 81.256 218.626L77.1238 225.476ZM56.9903 243.405L81.565 225.269L76.8148 218.832L52.2401 236.968L56.9903 243.405ZM31.5288 222.701L51.7829 243.011L57.4475 237.362L37.1935 217.052L31.5288 222.701ZM49.0677 193.072L31.1362 217.51L37.5861 222.242L55.5176 197.805L49.0677 193.072ZM38.8675 173.897C41.0017 182.367 44.4097 190.317 48.8933 197.547L55.692 193.33C51.6368 186.792 48.5553 179.603 46.625 171.942L38.8675 173.897ZM13.0265 172.438L42.1439 176.874L43.3486 168.965L14.2313 164.53L13.0265 172.438ZM9.62891 139.765V168.484H17.6289V139.765H9.62891ZM41.7674 131.427L13.0258 135.811L14.2321 143.72L42.9737 139.336L41.7674 131.427ZM48.6055 109.544C43.9577 117.156 40.5146 125.556 38.4713 134.489L46.2698 136.273C48.1202 128.184 51.2349 120.589 55.4333 113.713L48.6055 109.544ZM31.9903 91.0995L48.7947 113.996L55.2441 109.262L38.4397 86.3661L31.9903 91.0995ZM52.6367 65.5981L32.3827 85.9083L38.0474 91.5573L58.3014 71.2471L52.6367 65.5981ZM80.5928 82.0046L57.8454 65.2049L53.0928 71.6402L75.8402 88.4398L80.5928 82.0046ZM101.647 71.321C92.4827 73.4071 83.8711 76.9868 76.1014 81.8271L80.3315 88.6173C87.351 84.2443 95.134 81.0083 103.423 79.1214L101.647 71.321ZM102.764 47.033L98.5802 74.6214L106.49 75.821L110.674 48.2326L102.764 47.033ZM135.358 43.6328H106.719V51.6328H135.358V43.6328ZM143.548 75.0165L139.313 47.0342L131.403 48.2314L135.639 76.2137L143.548 75.0165ZM165.696 82.7058C158.082 77.7652 149.633 74.0036 140.564 71.7347L138.623 79.4955C146.803 81.542 154.44 84.9387 161.342 89.4168L165.696 82.7058ZM183.874 66.0609L161.143 82.8434L165.895 89.2792L188.625 72.4967L183.874 66.0609ZM209.336 86.7646L189.082 66.4543L183.417 72.1033L203.671 92.4136L209.336 86.7646ZM151.407 154.322C151.407 171.984 137.131 186.284 119.544 186.284V194.284C141.57 194.284 159.407 176.382 159.407 154.322H151.407ZM119.544 122.359C137.131 122.359 151.407 136.659 151.407 154.322H159.407C159.407 132.261 141.57 114.359 119.544 114.359V122.359ZM87.6805 154.322C87.6805 136.659 101.957 122.359 119.544 122.359V114.359C97.5174 114.359 79.6805 132.261 79.6805 154.322H87.6805ZM119.544 186.284C101.957 186.284 87.6805 171.984 87.6805 154.322H79.6805C79.6805 176.382 97.5174 194.284 119.544 194.284V186.284Z" fill="#0074EB" mask="url(#path-2-inside-1_3085_5907)"/>
</g>
<defs>
<clipPath id="clip0_3085_5907">
<rect width="345.737" height="249.631" fill="white" transform="translate(13.6621 12.1846)"/>
</clipPath>
</defs>
</svg>
