<svg width="500" height="500" viewBox="0 0 500 500" fill="none" xmlns="http://www.w3.org/2000/svg">
<g filter="url(#filter0_d_2464_6132)">
<mask id="path-1-outside-1_2464_6132" maskUnits="userSpaceOnUse" x="102.966" y="89.6219" width="294" height="321" fill="black">
<rect fill="white" x="102.966" y="89.6219" width="294" height="321"/>
<path fill-rule="evenodd" clip-rule="evenodd" d="M221.434 117.546C222.128 117.552 222.82 117.566 223.51 117.587C222.816 117.537 222.124 117.528 221.434 117.546ZM369.342 362.47C370.074 362.389 370.798 362.082 371.138 361.622C371.894 360.604 371.583 359.762 370.738 358.965C369.426 357.725 368.114 356.463 366.892 355.134C366.379 354.564 365.91 353.955 365.442 353.348C364.855 352.586 364.269 351.825 363.601 351.148C362.465 349.998 361.323 348.853 360.181 347.709C355.803 343.322 351.426 338.936 347.371 334.229C345.626 332.192 343.736 330.299 341.844 328.403L341.842 328.401L341.842 328.401C339.951 326.506 338.055 324.606 336.299 322.559C333.859 319.721 331.211 317.07 328.558 314.414C325.869 311.722 323.176 309.025 320.691 306.127C318.784 303.902 316.689 301.854 314.592 299.804C312.118 297.385 309.64 294.963 307.462 292.242C305.657 289.987 303.538 287.982 301.416 285.974L301.416 285.974L301.416 285.974L301.415 285.973C300.142 284.768 298.867 283.562 297.658 282.299C295.542 280.087 293.505 277.806 291.449 275.502L291.447 275.499C290.436 274.367 289.419 273.228 288.387 272.09C290.343 269.876 292.411 267.55 294.501 265.203C294.582 265.107 294.669 265.014 294.755 264.92C294.928 264.733 295.101 264.546 295.234 264.339C296.271 262.647 297.379 261.006 298.488 259.364C299.686 257.59 300.885 255.816 301.993 253.975C304.906 249.104 307.196 243.966 309.174 238.717C311.087 233.624 312.732 228.398 313.11 222.906C313.902 221.845 313.844 220.649 313.788 219.475V219.475V219.475C313.748 218.639 313.709 217.815 313.977 217.06C314.688 215.067 314.733 213.118 314.644 211.147C314.563 209.475 314.621 207.794 314.679 206.112L314.679 206.11V206.107V206.107C314.796 202.71 314.914 199.309 313.888 195.978C314.262 194.247 313.87 192.596 313.479 190.952L313.478 190.952C313.289 190.156 313.1 189.361 312.999 188.559C312.984 188.449 312.971 188.337 312.958 188.225C312.927 187.957 312.899 187.685 312.872 187.41L312.871 187.404L312.871 187.404C312.747 186.182 312.619 184.926 312.198 183.886C311.525 182.263 311.031 180.592 310.539 178.925C310.218 177.84 309.898 176.758 309.53 175.693C308.899 173.91 308.152 172.175 307.404 170.437L307.404 170.437L307.404 170.437L307.404 170.437L307.403 170.435C307.018 169.541 306.632 168.645 306.262 167.743C303.26 160.368 298.792 153.769 293.745 147.79C289.32 142.564 284.407 137.625 278.871 133.374C276.288 131.385 273.599 129.628 270.887 127.856L270.887 127.856L270.689 127.727C267.865 125.889 264.886 124.361 261.773 123.01C260.821 122.596 259.883 122.156 258.946 121.717L258.946 121.717C256.626 120.63 254.315 119.547 251.813 118.869C250.644 118.547 249.49 118.184 248.338 117.821C245.918 117.059 243.501 116.298 240.941 115.923C240.363 115.834 239.755 115.799 239.15 115.765C237.962 115.699 236.785 115.632 235.872 115.148C234.615 114.473 233.445 114.508 232.278 114.543C231.876 114.555 231.474 114.567 231.07 114.55C230.303 114.521 229.583 114.311 228.86 114.1C227.926 113.827 226.986 113.552 225.934 113.664C223.377 113.93 220.731 113.952 218.174 113.664C216.656 113.511 215.235 113.802 213.82 114.092C212.79 114.303 211.763 114.513 210.704 114.55C210.379 114.561 210.053 114.57 209.726 114.579L209.726 114.579L209.724 114.579C207.274 114.645 204.777 114.713 202.522 115.436C201.854 115.648 201.181 115.708 200.518 115.767L200.518 115.767C199.725 115.838 198.947 115.908 198.209 116.233C196.142 117.145 193.989 117.793 191.831 118.443C189.742 119.072 187.649 119.702 185.625 120.574C180.289 122.855 175.198 125.49 170.284 128.546C167.861 130.052 165.504 131.602 163.459 133.684C162.903 134.237 162.174 134.628 161.45 135.017L161.449 135.017C160.638 135.452 159.831 135.885 159.279 136.54C158.686 137.229 158.012 137.8 157.339 138.369C156.65 138.951 155.962 139.533 155.366 140.239C154.389 141.398 153.364 142.519 152.34 143.639L152.337 143.641C151.054 145.044 149.771 146.446 148.585 147.923C148.308 148.26 147.984 148.55 147.673 148.827L147.673 148.828C147.311 149.152 146.967 149.459 146.74 149.805C144.249 153.526 141.937 157.357 139.669 161.21C137.001 165.75 134.934 170.577 133.177 175.56C131.932 179.081 130.776 182.624 130.198 186.367C130.108 186.942 130.074 187.55 130.04 188.155L130.04 188.155C129.972 189.343 129.906 190.521 129.42 191.416C128.881 192.419 128.885 193.351 128.889 194.268L128.889 194.268C128.892 194.788 128.894 195.302 128.797 195.823C128.717 196.258 128.62 196.695 128.523 197.132L128.523 197.132C128.27 198.274 128.015 199.419 128.064 200.539C128.147 202.344 128.091 204.151 128.036 205.959L128.036 205.96C127.928 209.476 127.82 212.996 128.731 216.506C129.029 217.648 129.084 218.834 129.14 220.037C129.188 221.075 129.236 222.126 129.442 223.172C129.533 223.634 129.623 224.097 129.714 224.561L129.714 224.561C130.504 228.617 131.294 232.674 132.71 236.569C134.089 240.378 135.534 244.187 137.179 247.886C138.447 250.72 139.847 253.555 141.581 256.124L141.657 256.235L141.657 256.235C144.389 260.273 147.148 264.35 150.408 267.949C155.277 273.308 160.413 278.446 166.482 282.52C167.326 283.093 168.217 283.6 169.11 284.108C170.219 284.738 171.33 285.37 172.352 286.13C177.844 290.205 184.158 292.685 190.494 294.877C194.807 296.361 199.321 297.424 203.923 298.155C204.718 298.281 205.511 298.416 206.304 298.55L206.305 298.55C209.681 299.122 213.05 299.692 216.507 299.638C217.946 299.614 219.39 299.638 220.837 299.662C223.28 299.704 225.727 299.745 228.157 299.55C231.826 299.262 235.516 298.841 239.185 298.133C242.186 297.535 245.099 296.76 248.011 295.94C253.703 294.346 259.128 292.153 264.464 289.319C264.734 289.609 265.005 289.886 265.27 290.158C265.854 290.757 266.413 291.329 266.887 291.954C267.64 292.954 268.362 293.983 269.084 295.014L269.085 295.014L269.085 295.015L269.085 295.015L269.087 295.018C270.414 296.909 271.743 298.805 273.268 300.524C275.312 302.855 277.252 305.274 279.191 307.692L279.193 307.695L279.195 307.698C280.608 309.459 282.021 311.222 283.473 312.948C286.354 316.391 289.141 319.895 291.926 323.398L292.716 324.391C292.999 324.747 293.283 325.103 293.567 325.46C294.414 326.52 295.319 327.533 296.226 328.547L296.228 328.549L296.23 328.551C297.084 329.506 297.939 330.463 298.747 331.461C299.414 332.278 300.026 333.138 300.637 333.996L300.637 333.997C301.532 335.256 302.425 336.511 303.483 337.617C305.366 339.601 307.003 341.777 308.637 343.95L308.638 343.951C309.995 345.754 311.351 347.556 312.843 349.243C314.551 351.167 316.123 353.196 317.69 355.221L317.691 355.221L317.691 355.221L317.691 355.222L317.693 355.224C319.41 357.441 321.122 359.652 323.003 361.711C325.191 364.103 327.163 366.638 329.134 369.173L329.138 369.178L329.139 369.178C330.451 370.866 331.765 372.555 333.142 374.201C334.877 376.277 336.641 378.33 338.406 380.383L338.417 380.397C339.679 381.865 340.941 383.333 342.191 384.808C342.425 385.1 342.581 385.458 342.738 385.814L342.738 385.814L342.775 385.9L342.801 385.957C342.817 385.995 342.834 386.033 342.851 386.071C342.896 386.169 342.942 386.265 342.991 386.358C343.645 386.358 344.296 386.363 344.944 386.368H344.949H344.953H344.958H344.97C346.276 386.378 347.573 386.388 348.861 386.358C351.84 386.292 354.619 385.517 357.242 384.055C362.645 381.044 366.914 376.947 369.804 371.477C370.582 370.015 371.294 368.465 371.805 366.893C372.094 366.029 372.116 364.922 371.827 364.058C371.48 363.039 370.478 363.089 369.566 363.134L369.563 363.134C369.507 363.137 369.451 363.14 369.396 363.142C369.382 362.905 369.364 362.681 369.342 362.47Z"/>
</mask>
<path fill-rule="evenodd" clip-rule="evenodd" d="M221.434 117.546C222.128 117.552 222.82 117.566 223.51 117.587C222.816 117.537 222.124 117.528 221.434 117.546ZM369.342 362.47C370.074 362.389 370.798 362.082 371.138 361.622C371.894 360.604 371.583 359.762 370.738 358.965C369.426 357.725 368.114 356.463 366.892 355.134C366.379 354.564 365.91 353.955 365.442 353.348C364.855 352.586 364.269 351.825 363.601 351.148C362.465 349.998 361.323 348.853 360.181 347.709C355.803 343.322 351.426 338.936 347.371 334.229C345.626 332.192 343.736 330.299 341.844 328.403L341.842 328.401L341.842 328.401C339.951 326.506 338.055 324.606 336.299 322.559C333.859 319.721 331.211 317.07 328.558 314.414C325.869 311.722 323.176 309.025 320.691 306.127C318.784 303.902 316.689 301.854 314.592 299.804C312.118 297.385 309.64 294.963 307.462 292.242C305.657 289.987 303.538 287.982 301.416 285.974L301.416 285.974L301.416 285.974L301.415 285.973C300.142 284.768 298.867 283.562 297.658 282.299C295.542 280.087 293.505 277.806 291.449 275.502L291.447 275.499C290.436 274.367 289.419 273.228 288.387 272.09C290.343 269.876 292.411 267.55 294.501 265.203C294.582 265.107 294.669 265.014 294.755 264.92C294.928 264.733 295.101 264.546 295.234 264.339C296.271 262.647 297.379 261.006 298.488 259.364C299.686 257.59 300.885 255.816 301.993 253.975C304.906 249.104 307.196 243.966 309.174 238.717C311.087 233.624 312.732 228.398 313.11 222.906C313.902 221.845 313.844 220.649 313.788 219.475V219.475V219.475C313.748 218.639 313.709 217.815 313.977 217.06C314.688 215.067 314.733 213.118 314.644 211.147C314.563 209.475 314.621 207.794 314.679 206.112L314.679 206.11V206.107V206.107C314.796 202.71 314.914 199.309 313.888 195.978C314.262 194.247 313.87 192.596 313.479 190.952L313.478 190.952C313.289 190.156 313.1 189.361 312.999 188.559C312.984 188.449 312.971 188.337 312.958 188.225C312.927 187.957 312.899 187.685 312.872 187.41L312.871 187.404L312.871 187.404C312.747 186.182 312.619 184.926 312.198 183.886C311.525 182.263 311.031 180.592 310.539 178.925C310.218 177.84 309.898 176.758 309.53 175.693C308.899 173.91 308.152 172.175 307.404 170.437L307.404 170.437L307.404 170.437L307.404 170.437L307.403 170.435C307.018 169.541 306.632 168.645 306.262 167.743C303.26 160.368 298.792 153.769 293.745 147.79C289.32 142.564 284.407 137.625 278.871 133.374C276.288 131.385 273.599 129.628 270.887 127.856L270.887 127.856L270.689 127.727C267.865 125.889 264.886 124.361 261.773 123.01C260.821 122.596 259.883 122.156 258.946 121.717L258.946 121.717C256.626 120.63 254.315 119.547 251.813 118.869C250.644 118.547 249.49 118.184 248.338 117.821C245.918 117.059 243.501 116.298 240.941 115.923C240.363 115.834 239.755 115.799 239.15 115.765C237.962 115.699 236.785 115.632 235.872 115.148C234.615 114.473 233.445 114.508 232.278 114.543C231.876 114.555 231.474 114.567 231.07 114.55C230.303 114.521 229.583 114.311 228.86 114.1C227.926 113.827 226.986 113.552 225.934 113.664C223.377 113.93 220.731 113.952 218.174 113.664C216.656 113.511 215.235 113.802 213.82 114.092C212.79 114.303 211.763 114.513 210.704 114.55C210.379 114.561 210.053 114.57 209.726 114.579L209.726 114.579L209.724 114.579C207.274 114.645 204.777 114.713 202.522 115.436C201.854 115.648 201.181 115.708 200.518 115.767L200.518 115.767C199.725 115.838 198.947 115.908 198.209 116.233C196.142 117.145 193.989 117.793 191.831 118.443C189.742 119.072 187.649 119.702 185.625 120.574C180.289 122.855 175.198 125.49 170.284 128.546C167.861 130.052 165.504 131.602 163.459 133.684C162.903 134.237 162.174 134.628 161.45 135.017L161.449 135.017C160.638 135.452 159.831 135.885 159.279 136.54C158.686 137.229 158.012 137.8 157.339 138.369C156.65 138.951 155.962 139.533 155.366 140.239C154.389 141.398 153.364 142.519 152.34 143.639L152.337 143.641C151.054 145.044 149.771 146.446 148.585 147.923C148.308 148.26 147.984 148.55 147.673 148.827L147.673 148.828C147.311 149.152 146.967 149.459 146.74 149.805C144.249 153.526 141.937 157.357 139.669 161.21C137.001 165.75 134.934 170.577 133.177 175.56C131.932 179.081 130.776 182.624 130.198 186.367C130.108 186.942 130.074 187.55 130.04 188.155L130.04 188.155C129.972 189.343 129.906 190.521 129.42 191.416C128.881 192.419 128.885 193.351 128.889 194.268L128.889 194.268C128.892 194.788 128.894 195.302 128.797 195.823C128.717 196.258 128.62 196.695 128.523 197.132L128.523 197.132C128.27 198.274 128.015 199.419 128.064 200.539C128.147 202.344 128.091 204.151 128.036 205.959L128.036 205.96C127.928 209.476 127.82 212.996 128.731 216.506C129.029 217.648 129.084 218.834 129.14 220.037C129.188 221.075 129.236 222.126 129.442 223.172C129.533 223.634 129.623 224.097 129.714 224.561L129.714 224.561C130.504 228.617 131.294 232.674 132.71 236.569C134.089 240.378 135.534 244.187 137.179 247.886C138.447 250.72 139.847 253.555 141.581 256.124L141.657 256.235L141.657 256.235C144.389 260.273 147.148 264.35 150.408 267.949C155.277 273.308 160.413 278.446 166.482 282.52C167.326 283.093 168.217 283.6 169.11 284.108C170.219 284.738 171.33 285.37 172.352 286.13C177.844 290.205 184.158 292.685 190.494 294.877C194.807 296.361 199.321 297.424 203.923 298.155C204.718 298.281 205.511 298.416 206.304 298.55L206.305 298.55C209.681 299.122 213.05 299.692 216.507 299.638C217.946 299.614 219.39 299.638 220.837 299.662C223.28 299.704 225.727 299.745 228.157 299.55C231.826 299.262 235.516 298.841 239.185 298.133C242.186 297.535 245.099 296.76 248.011 295.94C253.703 294.346 259.128 292.153 264.464 289.319C264.734 289.609 265.005 289.886 265.27 290.158C265.854 290.757 266.413 291.329 266.887 291.954C267.64 292.954 268.362 293.983 269.084 295.014L269.085 295.014L269.085 295.015L269.085 295.015L269.087 295.018C270.414 296.909 271.743 298.805 273.268 300.524C275.312 302.855 277.252 305.274 279.191 307.692L279.193 307.695L279.195 307.698C280.608 309.459 282.021 311.222 283.473 312.948C286.354 316.391 289.141 319.895 291.926 323.398L292.716 324.391C292.999 324.747 293.283 325.103 293.567 325.46C294.414 326.52 295.319 327.533 296.226 328.547L296.228 328.549L296.23 328.551C297.084 329.506 297.939 330.463 298.747 331.461C299.414 332.278 300.026 333.138 300.637 333.996L300.637 333.997C301.532 335.256 302.425 336.511 303.483 337.617C305.366 339.601 307.003 341.777 308.637 343.95L308.638 343.951C309.995 345.754 311.351 347.556 312.843 349.243C314.551 351.167 316.123 353.196 317.69 355.221L317.691 355.221L317.691 355.221L317.691 355.222L317.693 355.224C319.41 357.441 321.122 359.652 323.003 361.711C325.191 364.103 327.163 366.638 329.134 369.173L329.138 369.178L329.139 369.178C330.451 370.866 331.765 372.555 333.142 374.201C334.877 376.277 336.641 378.33 338.406 380.383L338.417 380.397C339.679 381.865 340.941 383.333 342.191 384.808C342.425 385.1 342.581 385.458 342.738 385.814L342.738 385.814L342.775 385.9L342.801 385.957C342.817 385.995 342.834 386.033 342.851 386.071C342.896 386.169 342.942 386.265 342.991 386.358C343.645 386.358 344.296 386.363 344.944 386.368H344.949H344.953H344.958H344.97C346.276 386.378 347.573 386.388 348.861 386.358C351.84 386.292 354.619 385.517 357.242 384.055C362.645 381.044 366.914 376.947 369.804 371.477C370.582 370.015 371.294 368.465 371.805 366.893C372.094 366.029 372.116 364.922 371.827 364.058C371.48 363.039 370.478 363.089 369.566 363.134L369.563 363.134C369.507 363.137 369.451 363.14 369.396 363.142C369.382 362.905 369.364 362.681 369.342 362.47Z" fill="white"/>
<path d="M221.434 117.546L220.789 93.5552C207.703 93.9071 197.313 104.68 197.435 117.77C197.557 130.86 208.146 141.438 221.237 141.546L221.434 117.546ZM223.51 117.587L222.774 141.576C235.834 141.977 246.815 131.857 247.479 118.807C248.144 105.758 238.247 94.5751 225.214 93.6475L223.51 117.587ZM369.342 362.47L366.731 338.612C353.591 340.05 344.087 351.842 345.474 364.988L369.342 362.47ZM371.138 361.622L351.865 347.32C351.858 347.33 351.851 347.339 351.844 347.349L371.138 361.622ZM370.738 358.965L354.25 376.405C354.256 376.41 354.261 376.415 354.267 376.421L370.738 358.965ZM366.892 355.134L349.054 371.191C349.113 371.256 349.172 371.321 349.232 371.386L366.892 355.134ZM365.442 353.348L384.455 338.702L384.454 338.701L365.442 353.348ZM363.601 351.148L380.693 334.299C380.686 334.293 380.68 334.286 380.674 334.28L363.601 351.148ZM360.181 347.709L343.192 364.661L343.192 364.661L360.181 347.709ZM347.371 334.229L329.144 349.843C329.159 349.86 329.174 349.878 329.189 349.895L347.371 334.229ZM341.844 328.403L358.83 311.448C358.825 311.443 358.82 311.438 358.814 311.432L341.844 328.403ZM341.842 328.401L324.856 345.356C324.861 345.361 324.866 345.366 324.872 345.372L341.842 328.401ZM336.299 322.559L354.518 306.937C354.511 306.928 354.503 306.919 354.495 306.91L336.299 322.559ZM328.558 314.414L311.577 331.375L311.577 331.375L328.558 314.414ZM320.691 306.127L338.912 290.507L338.912 290.507L320.691 306.127ZM314.592 299.804L331.37 282.643L331.37 282.643L314.592 299.804ZM307.462 292.242L326.198 277.243L326.197 277.241L307.462 292.242ZM301.416 285.974L284.446 302.945C284.602 303.101 284.76 303.255 284.92 303.406L301.416 285.974ZM301.415 285.973L318.386 269.003C318.23 268.847 318.072 268.693 317.912 268.541L301.415 285.973ZM297.658 282.299L280.317 298.891L280.325 298.899L297.658 282.299ZM291.449 275.502L273.492 291.426C273.509 291.445 273.526 291.464 273.544 291.483L291.449 275.502ZM291.447 275.499L309.403 259.576C309.386 259.556 309.369 259.537 309.352 259.518L291.447 275.499ZM288.387 272.09L270.4 256.2C262.301 265.367 262.393 279.159 270.613 288.218L288.387 272.09ZM294.501 265.203L312.426 281.162C312.55 281.023 312.672 280.882 312.793 280.74L294.501 265.203ZM294.755 264.92L277.135 248.624L277.132 248.628L294.755 264.92ZM295.234 264.339L315.4 277.353C315.502 277.195 315.602 277.035 315.7 276.875L295.234 264.339ZM298.488 259.364L278.599 245.931L278.599 245.932L298.488 259.364ZM301.993 253.975L322.551 266.36C322.565 266.337 322.579 266.313 322.593 266.29L301.993 253.975ZM309.174 238.717L331.631 247.184C331.635 247.174 331.639 247.163 331.643 247.152L309.174 238.717ZM313.11 222.906L293.881 208.545C291.12 212.241 289.483 216.655 289.166 221.258L313.11 222.906ZM313.788 219.475H289.788C289.788 219.858 289.797 220.241 289.816 220.624L313.788 219.475ZM313.788 219.475H337.788C337.788 219.092 337.779 218.709 337.761 218.327L313.788 219.475ZM313.977 217.06L291.374 208.991C291.369 209.004 291.365 209.017 291.36 209.03L313.977 217.06ZM314.644 211.147L338.619 210.066C338.618 210.039 338.617 210.012 338.616 209.985L314.644 211.147ZM314.679 206.112L338.665 206.94C338.666 206.886 338.668 206.832 338.67 206.778L314.679 206.112ZM314.679 206.11L338.67 206.776C338.676 206.554 338.679 206.332 338.679 206.11H314.679ZM314.679 206.107L290.693 205.279C290.684 205.555 290.679 205.831 290.679 206.107H314.679ZM313.888 195.978L290.431 190.902C289.56 194.926 289.739 199.105 290.95 203.04L313.888 195.978ZM313.479 190.952L336.827 185.398C336.664 184.711 336.47 184.032 336.247 183.362L313.479 190.952ZM313.478 190.952L290.13 196.506C290.293 197.192 290.487 197.872 290.71 198.541L313.478 190.952ZM312.999 188.559L336.809 185.545C336.806 185.525 336.804 185.506 336.801 185.486L312.999 188.559ZM312.958 188.225L336.802 185.489L336.8 185.476L312.958 188.225ZM312.872 187.41L336.748 184.983C336.746 184.96 336.744 184.937 336.741 184.914L312.872 187.41ZM312.871 187.404L288.954 189.398C288.968 189.566 288.984 189.733 289.001 189.901L312.871 187.404ZM312.871 187.404L336.788 185.411C336.776 185.266 336.763 185.122 336.748 184.977L312.871 187.404ZM312.198 183.886L334.444 174.88C334.418 174.816 334.392 174.753 334.366 174.69L312.198 183.886ZM310.539 178.925L333.555 172.126L333.555 172.126L310.539 178.925ZM309.53 175.693L332.214 167.853C332.194 167.797 332.175 167.742 332.155 167.686L309.53 175.693ZM307.404 170.437L284.635 178.027C284.85 178.671 285.092 179.306 285.361 179.931L307.404 170.437ZM307.404 170.437L330.172 162.848C329.873 161.951 329.522 161.073 329.119 160.218L307.404 170.437ZM307.404 170.437L285.385 179.987C285.483 180.211 285.584 180.434 285.688 180.656L307.404 170.437ZM307.403 170.435L285.36 179.928C285.368 179.947 285.376 179.966 285.385 179.985L307.403 170.435ZM306.262 167.743L284.033 176.79C284.04 176.809 284.048 176.828 284.056 176.847L306.262 167.743ZM293.745 147.79L312.085 132.309C312.077 132.301 312.07 132.292 312.062 132.283L293.745 147.79ZM278.871 133.374L264.228 152.389C264.236 152.395 264.244 152.401 264.252 152.408L278.871 133.374ZM270.887 127.856L284.014 107.764C283.726 107.576 283.435 107.395 283.14 107.219L270.887 127.856ZM270.887 127.856L257.76 147.948C258.048 148.136 258.339 148.317 258.634 148.492L270.887 127.856ZM270.689 127.727L283.815 107.634C283.804 107.627 283.793 107.62 283.782 107.613L270.689 127.727ZM261.773 123.01L252.209 145.022L252.219 145.026L261.773 123.01ZM258.946 121.717L248.649 143.396C248.686 143.413 248.723 143.431 248.761 143.449L258.946 121.717ZM258.946 121.717L269.243 100.038C269.206 100.021 269.168 100.003 269.131 99.9853L258.946 121.717ZM251.813 118.869L245.45 142.01C245.478 142.017 245.506 142.025 245.534 142.033L251.813 118.869ZM248.338 117.821L255.545 94.9288L255.545 94.9288L248.338 117.821ZM240.941 115.923L237.26 139.639C237.327 139.65 237.395 139.66 237.463 139.67L240.941 115.923ZM239.15 115.765L237.803 139.728L237.803 139.728L239.15 115.765ZM235.872 115.148L224.512 136.289C224.551 136.311 224.591 136.332 224.63 136.352L235.872 115.148ZM232.278 114.543L231.557 90.554H231.557L232.278 114.543ZM231.07 114.55L232.079 90.5715C232.045 90.5701 232.011 90.5687 231.977 90.5674L231.07 114.55ZM228.86 114.1L222.128 137.136L222.129 137.136L228.86 114.1ZM225.934 113.664L228.415 137.536C228.437 137.534 228.459 137.531 228.48 137.529L225.934 113.664ZM218.174 113.664L220.86 89.8152C220.771 89.8052 220.682 89.7957 220.593 89.7866L218.174 113.664ZM213.82 114.092L209.005 90.5796L209.005 90.5796L213.82 114.092ZM210.704 114.55L211.475 138.538C211.5 138.537 211.525 138.536 211.55 138.535L210.704 114.55ZM209.726 114.579L210.369 138.57L210.381 138.57L209.726 114.579ZM209.726 114.579L209.083 90.5871L209.075 90.5873L209.726 114.579ZM209.724 114.579L209.073 90.5874L209.07 90.5875L209.724 114.579ZM202.522 115.436L209.774 138.314C209.798 138.307 209.822 138.299 209.847 138.291L202.522 115.436ZM200.518 115.767L202.461 139.689C202.526 139.683 202.59 139.678 202.655 139.672L200.518 115.767ZM200.518 115.767L198.574 91.8463C198.509 91.8515 198.445 91.857 198.38 91.8628L200.518 115.767ZM198.209 116.233L207.891 138.194L207.891 138.194L198.209 116.233ZM191.831 118.443L184.911 95.462L184.911 95.4621L191.831 118.443ZM185.625 120.574L195.059 142.642C195.079 142.633 195.099 142.625 195.119 142.616L185.625 120.574ZM170.284 128.546L182.951 148.931L182.96 148.926L170.284 128.546ZM163.459 133.684L180.396 150.688C180.457 150.627 180.517 150.566 180.578 150.505L163.459 133.684ZM161.45 135.017L150.104 113.868C150 113.923 149.897 113.98 149.794 114.037L161.45 135.017ZM161.449 135.017L172.794 156.166C172.898 156.11 173.002 156.054 173.105 155.997L161.449 135.017ZM159.279 136.54L177.47 152.196C177.524 152.132 177.578 152.069 177.632 152.005L159.279 136.54ZM157.339 138.369L172.835 156.696L172.835 156.695L157.339 138.369ZM155.366 140.239L137.03 124.753C137.024 124.761 137.017 124.769 137.01 124.777L155.366 140.239ZM152.34 143.639L169.89 160.009C169.942 159.952 169.995 159.896 170.047 159.838L152.34 143.639ZM152.337 143.641L134.787 127.271C134.734 127.327 134.682 127.384 134.63 127.441L152.337 143.641ZM148.585 147.923L167.13 163.157C167.186 163.089 167.241 163.021 167.297 162.952L148.585 147.923ZM147.673 148.827L131.674 130.938C131.626 130.982 131.577 131.025 131.529 131.069L147.673 148.827ZM147.673 148.828L163.674 166.716C163.722 166.673 163.77 166.63 163.817 166.586L147.673 148.828ZM146.74 149.805L166.684 163.155C166.72 163.101 166.756 163.048 166.791 162.994L146.74 149.805ZM139.669 161.21L118.986 149.037C118.983 149.041 118.981 149.045 118.978 149.05L139.669 161.21ZM133.177 175.56L155.804 183.561C155.807 183.554 155.81 183.546 155.812 183.539L133.177 175.56ZM130.198 186.367L153.91 190.076C153.912 190.06 153.915 190.045 153.917 190.03L130.198 186.367ZM130.04 188.155L106.078 186.8L106.078 186.802L130.04 188.155ZM130.04 188.155L154.001 189.509L154.001 189.508L130.04 188.155ZM129.42 191.416L108.33 179.961C108.313 179.992 108.296 180.024 108.279 180.056L129.42 191.416ZM128.889 194.268L104.889 194.38L104.889 194.38L128.889 194.268ZM128.889 194.268L152.889 194.159L152.889 194.156L128.889 194.268ZM128.797 195.823L105.199 191.448C105.197 191.46 105.195 191.471 105.193 191.483L128.797 195.823ZM128.523 197.132L105.094 191.927C105.089 191.951 105.084 191.974 105.079 191.998L128.523 197.132ZM128.523 197.132L151.952 202.335C151.958 202.312 151.963 202.289 151.968 202.266L128.523 197.132ZM128.064 200.539L104.086 201.571C104.087 201.595 104.088 201.619 104.089 201.643L128.064 200.539ZM128.036 205.959L152.024 206.705L152.025 206.695L128.036 205.959ZM128.036 205.96L104.048 205.214L104.047 205.225L128.036 205.96ZM128.731 216.506L105.499 222.531C105.503 222.547 105.507 222.562 105.511 222.577L128.731 216.506ZM129.14 220.037L153.114 218.929L153.114 218.929L129.14 220.037ZM129.442 223.172L152.99 218.536L152.99 218.535L129.442 223.172ZM129.714 224.561L106.156 229.148C106.168 229.211 106.181 229.275 106.194 229.338L129.714 224.561ZM129.714 224.561L153.271 219.973C153.259 219.91 153.246 219.846 153.233 219.783L129.714 224.561ZM132.71 236.569L155.278 228.402C155.274 228.39 155.269 228.379 155.265 228.367L132.71 236.569ZM137.179 247.886L115.251 257.641C115.257 257.654 115.263 257.667 115.269 257.681L137.179 247.886ZM141.581 256.124L121.69 269.552C121.695 269.559 121.7 269.567 121.705 269.574L141.581 256.124ZM141.657 256.235L161.722 243.067C161.66 242.972 161.597 242.878 161.534 242.784L141.657 256.235ZM141.657 256.235L121.592 269.403C121.654 269.497 121.716 269.591 121.779 269.684L141.657 256.235ZM150.408 267.949L132.622 284.063C132.63 284.071 132.637 284.08 132.645 284.088L150.408 267.949ZM166.482 282.52L179.973 262.671C179.935 262.645 179.897 262.62 179.859 262.594L166.482 282.52ZM169.11 284.108L180.971 263.243L180.97 263.243L169.11 284.108ZM172.352 286.13L158.026 305.385C158.034 305.391 158.043 305.398 158.051 305.404L172.352 286.13ZM190.494 294.877L182.647 317.558C182.66 317.563 182.674 317.567 182.687 317.572L190.494 294.877ZM203.923 298.155L207.69 274.452L207.687 274.452L203.923 298.155ZM206.304 298.55L211.011 275.016C210.779 274.969 210.546 274.926 210.313 274.887L206.304 298.55ZM206.305 298.55L201.598 322.084C201.83 322.13 202.063 322.173 202.297 322.213L206.305 298.55ZM216.507 299.638L216.88 323.636C216.893 323.635 216.906 323.635 216.919 323.635L216.507 299.638ZM220.837 299.662L220.433 323.659L220.433 323.659L220.837 299.662ZM228.157 299.55L226.279 275.623C226.266 275.625 226.253 275.626 226.24 275.627L228.157 299.55ZM239.185 298.133L243.737 321.697C243.782 321.688 243.828 321.679 243.874 321.67L239.185 298.133ZM248.011 295.94L241.537 272.83C241.529 272.832 241.52 272.835 241.512 272.837L248.011 295.94ZM264.464 289.319L282.018 272.953C274.613 265.01 262.796 263.029 253.205 268.124L264.464 289.319ZM265.27 290.158L248.092 306.918L248.092 306.919L265.27 290.158ZM266.887 291.954L286.06 277.518C286.041 277.493 286.022 277.468 286.003 277.443L266.887 291.954ZM269.084 295.014L249.434 308.794C249.581 309.003 249.731 309.21 249.884 309.414L269.084 295.014ZM269.087 295.018L288.737 281.237C288.59 281.028 288.44 280.822 288.287 280.618L269.087 295.018ZM273.268 300.524L291.311 284.699C291.282 284.666 291.253 284.633 291.224 284.6L273.268 300.524ZM279.191 307.692L298.024 292.815C297.987 292.769 297.951 292.723 297.915 292.678L279.191 307.692ZM279.193 307.695L260.361 322.572C260.38 322.597 260.399 322.621 260.419 322.645L279.193 307.695ZM279.195 307.698L260.421 322.648C260.438 322.669 260.455 322.69 260.472 322.712L279.195 307.698ZM283.473 312.948L301.88 297.547C301.867 297.531 301.853 297.515 301.839 297.499L283.473 312.948ZM291.926 323.398L273.142 338.336L273.143 338.337L291.926 323.398ZM292.716 324.391L273.932 339.33L273.935 339.333L292.716 324.391ZM293.567 325.46L274.796 340.415C274.802 340.423 274.809 340.431 274.816 340.439L293.567 325.46ZM296.226 328.547L314.52 313.012C314.388 312.856 314.254 312.702 314.117 312.55L296.226 328.547ZM296.228 328.549L277.934 344.084C278.097 344.276 278.263 344.465 278.431 344.651L296.228 328.549ZM296.23 328.551L314.122 312.555C314.09 312.52 314.059 312.485 314.027 312.449L296.23 328.551ZM298.747 331.461L280.095 346.563C280.115 346.589 280.136 346.614 280.156 346.639L298.747 331.461ZM300.637 333.996L320.369 320.335C320.311 320.252 320.253 320.168 320.193 320.085L300.637 333.996ZM300.637 333.997L280.904 347.658C280.962 347.742 281.021 347.825 281.08 347.908L300.637 333.997ZM303.483 337.617L320.892 321.097C320.871 321.075 320.85 321.053 320.829 321.031L303.483 337.617ZM308.637 343.95L289.459 358.379C289.497 358.429 289.535 358.479 289.573 358.529L308.637 343.95ZM308.638 343.951L327.816 329.522C327.779 329.472 327.741 329.422 327.703 329.372L308.638 343.951ZM312.843 349.243L294.866 365.144C294.877 365.156 294.888 365.168 294.899 365.181L312.843 349.243ZM317.69 355.221L298.714 369.915C298.89 370.141 299.07 370.365 299.253 370.585L317.69 355.221ZM317.691 355.221L336.562 340.393C336.42 340.212 336.275 340.034 336.128 339.857L317.691 355.221ZM317.691 355.222L336.624 340.472C336.604 340.446 336.583 340.42 336.563 340.394L317.691 355.222ZM317.693 355.224L336.669 340.53C336.655 340.512 336.64 340.493 336.626 340.475L317.693 355.224ZM323.003 361.711L305.286 377.9L305.295 377.91L323.003 361.711ZM329.134 369.173L310.189 383.906C310.202 383.923 310.214 383.939 310.227 383.955L329.134 369.173ZM329.138 369.178L348.161 354.545C348.123 354.495 348.084 354.445 348.045 354.396L329.138 369.178ZM329.139 369.178L310.116 383.811C310.141 383.845 310.168 383.879 310.194 383.912L329.139 369.178ZM333.142 374.201L351.558 358.812C351.555 358.808 351.552 358.804 351.549 358.8L333.142 374.201ZM338.406 380.383L320.205 396.027C320.212 396.036 320.22 396.045 320.228 396.054L338.406 380.383ZM338.417 380.397L356.619 364.754C356.611 364.744 356.603 364.735 356.595 364.726L338.417 380.397ZM342.191 384.808L360.904 369.781C360.773 369.618 360.639 369.456 360.503 369.296L342.191 384.808ZM342.738 385.814L320.755 395.445C320.918 395.817 321.09 396.184 321.271 396.547L342.738 385.814ZM342.738 385.814L364.715 376.17C364.554 375.803 364.383 375.44 364.204 375.081L342.738 385.814ZM342.775 385.9L320.798 395.544C320.807 395.563 320.815 395.583 320.824 395.602L342.775 385.9ZM342.801 385.957L320.849 395.659C320.855 395.672 320.86 395.685 320.866 395.697L342.801 385.957ZM342.851 386.071L321.006 396.009L321.01 396.018L342.851 386.071ZM342.991 386.358L321.734 397.501C325.878 405.406 334.066 410.358 342.991 410.358V386.358ZM344.944 386.368L344.761 410.368C344.822 410.368 344.883 410.368 344.944 410.368V386.368ZM344.97 386.368L345.15 362.369C345.09 362.369 345.03 362.368 344.97 362.368V386.368ZM348.861 386.358L348.326 362.364C348.321 362.365 348.316 362.365 348.311 362.365L348.861 386.358ZM357.242 384.055L368.923 405.021L368.928 405.018L357.242 384.055ZM369.804 371.477L348.619 360.199C348.608 360.221 348.596 360.242 348.584 360.264L369.804 371.477ZM371.805 366.893L349.046 359.276C349.024 359.341 349.003 359.406 348.981 359.471L371.805 366.893ZM371.827 364.058L394.587 356.442C394.572 356.399 394.558 356.356 394.543 356.313L371.827 364.058ZM369.566 363.134L370.725 387.106C370.734 387.105 370.743 387.105 370.752 387.105L369.566 363.134ZM369.563 363.134L368.403 339.162C368.393 339.163 368.383 339.163 368.374 339.164L369.563 363.134ZM369.396 363.142L345.436 364.522C346.191 377.638 357.353 387.71 370.478 387.118L369.396 363.142ZM221.237 141.546C221.751 141.55 222.263 141.56 222.774 141.576L224.247 93.5982C223.377 93.5715 222.506 93.5545 221.632 93.5473L221.237 141.546ZM222.08 141.538C222.121 141.537 222.018 141.541 221.807 141.526L225.214 93.6475C223.615 93.5336 222.128 93.5191 220.789 93.5552L222.08 141.538ZM371.952 386.327C375.82 385.904 384.406 384.042 390.432 375.896L351.844 347.349C354.836 343.304 358.366 341.297 360.391 340.369C362.617 339.349 364.776 338.826 366.731 338.612L371.952 386.327ZM390.411 375.925C393.813 371.34 396.815 364.073 395.057 355.428C393.542 347.979 389.198 343.386 387.209 341.509L354.267 376.421C353.122 375.341 349.357 371.568 348.02 364.993C346.44 357.223 349.219 350.886 351.865 347.32L390.411 375.925ZM387.226 341.525C385.958 340.327 385.168 339.552 384.551 338.882L349.232 371.386C351.061 373.374 352.894 375.123 354.25 376.405L387.226 341.525ZM384.729 339.077C384.874 339.238 384.936 339.319 384.879 339.248C384.853 339.215 384.809 339.16 384.736 339.066C384.66 338.968 384.577 338.861 384.455 338.702L346.428 367.993C346.803 368.479 347.824 369.824 349.054 371.191L384.729 339.077ZM384.454 338.701C384.024 338.143 382.562 336.196 380.693 334.299L346.509 367.996C346.333 367.818 346.202 367.674 346.118 367.579C346.076 367.532 346.044 367.494 346.023 367.47C346.002 367.445 345.991 367.431 345.99 367.43C345.989 367.429 345.997 367.439 346.016 367.462C346.034 367.485 346.061 367.519 346.098 367.567C346.136 367.615 346.18 367.672 346.236 367.744C346.264 367.78 346.293 367.818 346.325 367.86C346.358 367.902 346.391 367.946 346.429 367.994L384.454 338.701ZM380.674 334.28C379.488 333.08 378.304 331.894 377.169 330.756L343.192 364.661C344.341 365.813 345.441 366.915 346.528 368.016L380.674 334.28ZM377.169 330.756C372.69 326.267 368.94 322.494 365.553 318.563L329.189 349.895C333.913 355.377 338.917 360.377 343.192 364.661L377.169 330.756ZM365.598 318.615C363.159 315.769 360.616 313.237 358.83 311.448L324.857 345.357C326.857 347.36 328.092 348.615 329.144 349.843L365.598 318.615ZM358.814 311.432L358.813 311.431L324.872 345.372L324.873 345.373L358.814 311.432ZM358.813 311.431L358.813 311.431L324.872 345.372L324.872 345.372L358.813 311.431ZM358.829 311.447C356.833 309.447 355.585 308.181 354.518 306.937L318.079 338.181C320.524 341.032 323.068 343.565 324.856 345.356L358.829 311.447ZM354.495 306.91C351.374 303.281 348.085 300.003 345.539 297.454L311.577 331.375C314.336 334.137 316.343 336.162 318.102 338.208L354.495 306.91ZM345.539 297.454C342.743 294.655 340.704 292.596 338.912 290.507L302.47 321.747C305.648 325.454 308.995 328.79 311.577 331.375L345.539 297.454ZM338.912 290.507C336.203 287.346 333.341 284.57 331.37 282.643L297.814 316.965C300.038 319.139 301.365 320.458 302.47 321.747L338.912 290.507ZM331.37 282.643C328.725 280.057 327.312 278.635 326.198 277.243L288.727 307.241C291.969 311.291 295.511 314.713 297.814 316.965L331.37 282.643ZM326.197 277.241C323.18 273.474 319.822 270.349 317.913 268.542L284.92 303.406C287.254 305.615 288.133 306.499 288.728 307.243L326.197 277.241ZM318.387 269.004L318.387 269.003L284.446 302.945L284.446 302.945L318.387 269.004ZM318.387 269.003L318.386 269.003L284.445 302.944L284.446 302.945L318.387 269.003ZM318.386 269.003L318.386 269.003L284.445 302.944L284.445 302.944L318.386 269.003ZM317.912 268.541C316.565 267.267 315.723 266.464 314.991 265.699L280.325 298.899C282.01 300.659 283.718 302.269 284.919 303.405L317.912 268.541ZM314.998 265.707C313.218 263.846 311.457 261.877 309.354 259.52L273.544 291.483C275.554 293.735 277.865 296.329 280.317 298.891L314.998 265.707ZM309.405 259.578L309.403 259.576L273.49 291.423L273.492 291.426L309.405 259.578ZM309.352 259.518C308.351 258.397 307.27 257.185 306.16 255.962L270.613 288.218C271.569 289.272 272.52 290.337 273.542 291.481L309.352 259.518ZM306.373 287.98C308.297 285.802 310.339 283.506 312.426 281.162L276.576 249.244C274.483 251.594 272.389 253.949 270.4 256.2L306.373 287.98ZM312.793 280.74C312.619 280.945 312.483 281.096 312.419 281.167C312.363 281.228 312.321 281.273 312.378 281.212L277.132 248.628C277.104 248.658 276.671 249.121 276.209 249.666L312.793 280.74ZM312.375 281.216C312.402 281.186 312.836 280.722 313.301 280.175C313.798 279.59 314.579 278.624 315.4 277.353L275.069 251.325C275.756 250.261 276.384 249.492 276.718 249.099C277.019 248.744 277.281 248.467 277.135 248.624L312.375 281.216ZM315.7 276.875C316.412 275.713 317.219 274.511 318.377 272.797L278.599 245.932C277.54 247.5 276.13 249.581 274.768 251.804L315.7 276.875ZM318.376 272.797C319.518 271.108 321.068 268.821 322.551 266.36L281.435 241.591C280.701 242.81 279.855 244.073 278.599 245.931L318.376 272.797ZM322.593 266.29C326.463 259.816 329.333 253.282 331.631 247.184L286.717 230.251C285.059 234.65 283.348 238.391 281.394 241.661L322.593 266.29ZM331.643 247.152C333.778 241.466 336.43 233.604 337.053 224.554L289.166 221.258C289.033 223.192 288.395 225.782 286.706 230.283L331.643 247.152ZM332.339 237.267C335.702 232.764 337.062 228.092 337.554 224.426C337.971 221.317 337.77 218.52 337.761 218.326L289.816 220.624C289.863 221.604 289.718 219.992 289.98 218.04C290.317 215.53 291.31 211.987 293.881 208.545L332.339 237.267ZM337.788 219.475V219.475H289.788V219.475H337.788ZM337.788 219.475V219.475H289.788V219.475H337.788ZM337.761 218.327C337.731 217.697 337.784 218.425 337.742 219.341C337.692 220.41 337.502 222.531 336.594 225.089L291.36 209.03C290.184 212.343 289.879 215.254 289.792 217.133C289.713 218.859 289.806 220.417 289.816 220.623L337.761 218.327ZM336.58 225.128C338.885 218.671 338.75 212.952 338.619 210.066L290.668 212.228C290.716 213.284 290.492 211.462 291.374 208.991L336.58 225.128ZM338.616 209.985C338.591 209.475 338.601 208.792 338.665 206.94L290.693 205.284C290.641 206.795 290.535 209.475 290.672 212.308L338.616 209.985ZM338.67 206.778L338.67 206.776L290.688 205.444L290.688 205.445L338.67 206.778ZM338.679 206.11V206.107H290.679V206.11H338.679ZM338.679 206.107V206.107H290.679V206.107H338.679ZM338.665 206.935C338.759 204.188 339.23 196.726 336.825 188.915L290.95 203.04C290.709 202.256 290.724 201.849 290.742 202.211C290.751 202.396 290.758 202.709 290.751 203.235C290.744 203.79 290.724 204.388 290.693 205.279L338.665 206.935ZM337.345 201.053C339.053 193.159 337.02 186.211 336.827 185.398L290.13 196.506C290.182 196.726 290.211 196.849 290.237 196.958C290.26 197.058 290.266 197.089 290.264 197.078C290.261 197.066 290.199 196.768 290.142 196.295C290.022 195.301 289.902 193.344 290.431 190.902L337.345 201.053ZM336.247 183.362L336.247 183.362L290.71 198.541L290.71 198.541L336.247 183.362ZM336.827 185.398C336.803 185.295 336.784 185.215 336.765 185.138C336.748 185.064 336.734 185.005 336.723 184.957C336.7 184.857 336.693 184.823 336.694 184.828C336.696 184.836 336.71 184.906 336.73 185.022C336.751 185.139 336.78 185.317 336.809 185.545L289.189 191.573C289.48 193.874 289.993 195.93 290.13 196.506L336.827 185.398ZM336.801 185.486C336.802 185.496 336.803 185.501 336.803 185.502C336.803 185.502 336.803 185.498 336.802 185.489L289.115 190.961C289.138 191.167 289.165 191.392 289.196 191.632L336.801 185.486ZM336.8 185.476C336.791 185.397 336.78 185.289 336.748 184.983L288.995 189.838C289.019 190.08 289.063 190.517 289.116 190.974L336.8 185.476ZM336.741 184.914L336.741 184.908L289.001 189.901L289.002 189.907L336.741 184.914ZM336.788 185.411L336.788 185.411L288.954 189.397L288.954 189.398L336.788 185.411ZM336.748 184.977C336.713 184.63 336.398 179.705 334.444 174.88L289.952 192.893C289.26 191.184 289.033 189.882 288.976 189.546C288.941 189.334 288.929 189.225 288.937 189.292C288.947 189.376 288.96 189.493 288.994 189.831L336.748 184.977ZM334.366 174.69C334.261 174.436 334.106 173.989 333.555 172.126L287.522 185.724C287.956 187.194 288.789 190.091 290.03 193.083L334.366 174.69ZM333.555 172.126C333.261 171.129 332.79 169.521 332.214 167.853L286.847 183.532C287.007 183.995 287.175 184.552 287.522 185.725L333.555 172.126ZM332.155 167.686C331.213 165.025 330.142 162.559 329.446 160.944L285.361 179.931C286.162 181.79 286.585 182.795 286.905 183.7L332.155 167.686ZM330.172 162.848L330.172 162.848L284.635 178.027L284.635 178.027L330.172 162.848ZM330.172 162.848L330.172 162.848L284.635 178.026L284.635 178.027L330.172 162.848ZM329.119 160.218L329.119 160.218L285.688 180.656L285.688 180.656L329.119 160.218ZM329.422 160.887L329.421 160.885L285.385 179.985L285.385 179.987L329.422 160.887ZM329.445 160.942C329.046 160.015 328.745 159.313 328.468 158.638L284.056 176.847C284.519 177.978 284.989 179.066 285.36 179.928L329.445 160.942ZM328.491 158.695C324.255 148.286 318.186 139.538 312.085 132.309L275.405 163.271C279.397 168 282.266 172.451 284.033 176.79L328.491 158.695ZM312.062 132.283C306.814 126.084 300.686 119.867 293.489 114.339L264.252 152.408C268.128 155.384 271.826 159.044 275.427 163.297L312.062 132.283ZM293.514 114.358C290.073 111.709 286.602 109.455 284.014 107.764L257.76 147.948C260.595 149.8 262.503 151.06 264.228 152.389L293.514 114.358ZM283.14 107.219L283.139 107.219L258.634 148.492L258.634 148.492L283.14 107.219ZM284.013 107.763L283.815 107.634L257.563 147.819L257.76 147.948L284.013 107.763ZM283.782 107.613C279.586 104.881 275.366 102.746 271.328 100.994L252.219 145.026C254.406 145.975 256.145 146.896 257.596 147.84L283.782 107.613ZM271.338 100.998C270.749 100.742 270.118 100.448 269.131 99.9854L248.761 143.449C249.647 143.864 250.892 144.449 252.209 145.022L271.338 100.998ZM269.243 100.038L269.243 100.038L248.648 143.396L248.649 143.396L269.243 100.038ZM269.131 99.9853C267.112 99.0392 262.939 97.0183 258.092 95.7046L245.534 142.033C245.488 142.02 245.671 142.066 246.224 142.296C246.838 142.552 247.521 142.868 248.761 143.449L269.131 99.9853ZM258.176 95.7275C257.501 95.5419 256.767 95.3134 255.545 94.9288L241.13 140.713C242.214 141.054 243.786 141.552 245.45 142.01L258.176 95.7275ZM255.545 94.9288C253.408 94.2559 249.185 92.8747 244.419 92.1767L237.463 139.67C237.524 139.679 237.795 139.724 238.416 139.892C239.097 140.076 239.844 140.308 241.13 140.713L255.545 94.9288ZM244.622 92.2073C242.679 91.9056 240.872 91.8243 240.498 91.8032L237.803 139.728C237.966 139.737 238.047 139.741 238.115 139.746C238.177 139.749 238.177 139.75 238.14 139.747C238.103 139.744 238.004 139.736 237.862 139.72C237.72 139.704 237.514 139.679 237.26 139.639L244.622 92.2073ZM240.498 91.8032C239.666 91.7565 240.26 91.77 241.047 91.8908C241.908 92.0228 244.295 92.4494 247.114 93.944L224.63 136.352C228.362 138.331 231.795 139.033 233.769 139.336C235.67 139.627 237.446 139.707 237.803 139.728L240.498 91.8032ZM247.232 94.007C239.681 89.9497 232.433 90.5277 231.557 90.554L232.999 138.532C234.457 138.489 229.549 138.996 224.512 136.289L247.232 94.007ZM231.557 90.554C231.448 90.5573 231.402 90.5586 231.365 90.5596C231.334 90.5604 231.348 90.5598 231.389 90.5593C231.466 90.5584 231.72 90.5564 232.079 90.5715L230.06 138.529C231.472 138.588 232.736 138.54 232.999 138.532L231.557 90.554ZM231.977 90.5674C233.492 90.6247 234.645 90.8496 235.231 90.9819C235.717 91.0915 236.074 91.2039 235.591 91.0628L222.129 137.136C222.401 137.216 225.945 138.374 230.162 138.533L231.977 90.5674ZM235.591 91.0629C235.22 90.9544 229.853 89.11 223.387 89.8L228.48 137.529C226.142 137.778 224.25 137.553 223.108 137.343C222.178 137.172 221.47 136.944 222.128 137.136L235.591 91.0629ZM223.453 89.7931C222.403 89.9022 221.501 89.8874 220.86 89.8152L215.489 137.514C219.961 138.017 224.351 137.958 228.415 137.536L223.453 89.7931ZM220.593 89.7866C214.869 89.2069 209.924 90.3914 209.005 90.5796L218.636 137.604C219.028 137.523 219.151 137.499 219.236 137.483C219.295 137.472 219.166 137.498 218.92 137.528C218.413 137.591 217.27 137.696 215.756 137.542L220.593 89.7866ZM209.005 90.5796C208.727 90.6366 208.592 90.6639 208.479 90.6859C208.378 90.7054 208.381 90.7035 208.447 90.693C208.57 90.6731 209.092 90.5922 209.859 90.5652L211.55 138.535C214.943 138.416 217.925 137.749 218.636 137.604L209.005 90.5796ZM209.933 90.5627C209.677 90.5709 209.409 90.5782 209.072 90.5874L210.381 138.57C210.698 138.561 211.082 138.551 211.475 138.538L209.933 90.5627ZM209.084 90.5871L209.083 90.5871L210.369 138.57L210.369 138.57L209.084 90.5871ZM209.075 90.5873L209.073 90.5874L210.375 138.57L210.377 138.57L209.075 90.5873ZM209.07 90.5875C207.342 90.6346 201.289 90.629 195.198 92.581L209.847 138.291C209.294 138.468 208.867 138.561 208.62 138.606C208.377 138.651 208.262 138.659 208.33 138.653C208.401 138.646 208.581 138.632 208.94 138.616C209.115 138.608 209.316 138.601 209.559 138.593C209.807 138.585 210.063 138.578 210.378 138.57L209.07 90.5875ZM195.271 92.5577C196.518 92.1626 197.518 91.9886 198.046 91.9114C198.485 91.8472 198.818 91.8236 198.38 91.8628L202.655 139.672C202.951 139.646 206.213 139.443 209.774 138.314L195.271 92.5577ZM198.574 91.8462L198.574 91.8463L202.461 139.689L202.461 139.689L198.574 91.8462ZM198.38 91.8628C198.214 91.8776 193.459 92.0987 188.527 94.2729L207.891 138.194C205.976 139.038 204.356 139.394 203.445 139.552C202.689 139.683 202.086 139.723 202.655 139.672L198.38 91.8628ZM188.527 94.2728C188.034 94.4905 187.303 94.7419 184.911 95.462L198.751 141.424C200.675 140.844 204.25 139.799 207.891 138.194L188.527 94.2728ZM184.911 95.4621C183.034 96.0271 179.622 97.0278 176.131 98.5315L195.119 142.616C195.675 142.377 196.449 142.117 198.751 141.423L184.911 95.4621ZM176.192 98.5054C169.773 101.249 163.595 104.443 157.609 108.166L182.96 148.926C186.801 146.536 190.805 144.46 195.059 142.642L176.192 98.5054ZM157.618 108.161C155.059 109.751 150.556 112.572 146.34 116.863L180.578 150.505C180.457 150.628 180.49 150.568 180.859 150.299C181.272 149.998 181.86 149.609 182.951 148.931L157.618 108.161ZM146.522 116.68C147.92 115.286 149.173 114.453 149.729 114.103C150.215 113.797 150.6 113.602 150.104 113.868L172.795 156.166C172.854 156.134 176.9 154.17 180.396 150.688L146.522 116.68ZM149.794 114.037L149.794 114.037L173.105 155.997L173.105 155.997L149.794 114.037ZM150.104 113.868C149.878 113.989 148.508 114.705 147.088 115.638C145.571 116.635 143.204 118.372 140.926 121.075L177.632 152.005C175.906 154.054 174.218 155.247 173.446 155.754C172.77 156.198 172.209 156.48 172.794 156.166L150.104 113.868ZM141.088 120.885C141.583 120.31 141.979 119.938 142.115 119.814C142.183 119.751 142.21 119.729 142.161 119.772C142.101 119.823 142.026 119.887 141.843 120.042L172.835 156.695C173.295 156.306 175.438 154.557 177.47 152.196L141.088 120.885ZM141.843 120.041C141.385 120.428 139.136 122.26 137.03 124.753L173.701 155.724C173.169 156.355 172.736 156.764 172.58 156.907C172.502 156.98 172.468 157.008 172.514 156.968C172.572 156.918 172.646 156.855 172.835 156.696L141.843 120.041ZM137.01 124.777C136.403 125.498 135.712 126.258 134.632 127.439L170.047 159.838C171.016 158.779 172.376 157.298 173.722 155.7L137.01 124.777ZM134.79 127.268L134.787 127.271L169.887 160.012L169.89 160.009L134.79 127.268ZM134.63 127.441C133.434 128.748 131.624 130.714 129.873 132.894L167.297 162.952C167.919 162.177 168.673 161.34 170.044 159.842L134.63 127.441ZM130.04 132.689C130.66 131.934 131.191 131.403 131.46 131.142C131.695 130.916 131.883 130.752 131.674 130.938L163.672 166.717C163.768 166.631 165.492 165.151 167.13 163.157L130.04 132.689ZM131.529 131.069L131.529 131.069L163.817 166.586L163.818 166.586L131.529 131.069ZM131.673 130.939C131.6 131.004 130.88 131.639 130.135 132.388C129.354 133.174 128.01 134.608 126.688 136.616L166.791 162.994C165.697 164.657 164.638 165.764 164.177 166.228C163.751 166.656 163.384 166.975 163.674 166.716L131.673 130.939ZM126.795 136.456C123.913 140.762 121.321 145.069 118.986 149.037L160.353 173.383C162.553 169.645 164.586 166.289 166.684 163.155L126.795 136.456ZM118.978 149.05C115.3 155.308 112.634 161.646 110.542 167.581L155.812 183.539C157.233 179.508 158.703 176.191 160.361 173.37L118.978 149.05ZM110.55 167.559C109.238 171.271 107.422 176.6 106.479 182.703L153.917 190.03C154.13 188.648 154.627 186.891 155.804 183.561L110.55 167.559ZM106.486 182.657C106.181 184.611 106.099 186.43 106.078 186.8L154.001 189.509C154.011 189.346 154.015 189.266 154.019 189.198C154.023 189.137 154.024 189.138 154.02 189.176C154.017 189.215 154.009 189.316 153.993 189.461C153.976 189.606 153.95 189.816 153.91 190.076L106.486 182.657ZM106.078 186.802L106.078 186.803L154.001 189.508L154.001 189.507L106.078 186.802ZM106.078 186.802C106.03 187.639 106.044 187.032 106.169 186.229C106.302 185.367 106.744 182.881 108.33 179.961L150.51 202.87C152.582 199.056 153.3 195.534 153.605 193.562C153.901 191.649 153.982 189.86 154.001 189.509L106.078 186.802ZM108.279 180.056C104.537 187.019 104.886 193.68 104.889 194.38L152.889 194.156C152.884 193.022 153.224 197.82 150.561 202.776L108.279 180.056ZM104.889 194.38L104.889 194.381L152.889 194.156V194.155L104.889 194.38ZM104.889 194.378C104.891 194.733 104.885 194.418 104.903 194.009C104.924 193.522 104.985 192.607 105.199 191.448L152.395 200.197C152.97 197.096 152.89 194.334 152.889 194.159L104.889 194.378ZM105.193 191.483C105.206 191.415 105.209 191.404 105.191 191.486C105.183 191.525 105.172 191.578 105.155 191.653C105.138 191.731 105.12 191.814 105.094 191.927L151.952 202.336C152.033 201.974 152.229 201.105 152.402 200.162L105.193 191.483ZM105.079 191.998L105.079 191.999L151.968 202.266L151.968 202.265L105.079 191.998ZM105.094 191.93C104.982 192.434 103.878 196.737 104.086 201.571L152.042 199.508C152.108 201.058 151.95 202.179 151.891 202.561C151.858 202.77 151.834 202.879 151.845 202.826C151.86 202.754 151.882 202.651 151.952 202.335L105.094 191.93ZM104.089 201.643C104.123 202.375 104.107 203.262 104.047 205.224L152.025 206.695C152.075 205.041 152.171 202.313 152.038 199.436L104.089 201.643ZM104.048 205.214L104.048 205.214L152.024 206.705L152.024 206.705L104.048 205.214ZM104.047 205.225C103.956 208.213 103.589 215.164 105.499 222.531L151.962 210.481C152.054 210.836 152.007 210.857 151.981 210.235C151.95 209.489 151.966 208.598 152.025 206.695L104.047 205.225ZM105.511 222.577C105.243 221.551 105.162 220.807 105.142 220.597C105.13 220.485 105.13 220.453 105.136 220.555C105.143 220.673 105.15 220.819 105.165 221.146L153.114 218.929C153.079 218.179 152.995 214.432 151.95 210.435L105.511 222.577ZM105.165 221.145C105.2 221.906 105.288 224.73 105.894 227.808L152.99 218.535C153.051 218.844 153.089 219.096 153.112 219.272C153.135 219.448 153.145 219.563 153.148 219.595C153.15 219.625 153.148 219.6 153.141 219.484C153.138 219.427 153.134 219.356 153.13 219.262C153.125 219.165 153.12 219.063 153.114 218.929L105.165 221.145ZM105.894 227.808C105.98 228.242 106.065 228.681 106.156 229.148L153.271 219.973C153.182 219.514 153.087 219.027 152.99 218.536L105.894 227.808ZM106.194 229.338L106.194 229.338L153.233 219.783L153.233 219.783L106.194 229.338ZM106.156 229.148C106.886 232.896 107.989 238.815 110.156 244.772L155.265 228.367C154.598 226.533 154.121 224.338 153.271 219.973L106.156 229.148ZM110.143 244.737C111.589 248.732 113.26 253.165 115.251 257.641L159.107 238.13C157.808 235.209 156.589 232.025 155.278 228.402L110.143 244.737ZM115.269 257.681C116.739 260.967 118.802 265.275 121.69 269.552L161.473 242.695C160.892 241.835 160.155 240.473 159.089 238.09L115.269 257.681ZM121.705 269.574L121.78 269.685L161.534 242.784L161.458 242.673L121.705 269.574ZM121.592 269.403L121.592 269.403L161.722 243.067L161.722 243.067L121.592 269.403ZM121.779 269.684C124.343 273.474 128.028 278.993 132.622 284.063L168.194 251.835C166.267 249.708 164.435 247.073 161.535 242.786L121.779 269.684ZM132.645 284.088C137.908 289.881 144.596 296.734 153.106 302.447L179.859 262.594C176.229 260.157 172.646 256.735 168.171 251.81L132.645 284.088ZM152.992 302.37C154.764 303.574 156.501 304.547 157.251 304.973L180.97 263.243C180.489 262.969 180.251 262.833 180.051 262.714C179.873 262.608 179.874 262.603 179.973 262.671L152.992 302.37ZM157.25 304.973C157.541 305.138 157.738 305.25 157.922 305.356C158.096 305.457 158.203 305.521 158.27 305.562C158.413 305.649 158.288 305.58 158.026 305.385L186.678 266.875C184.275 265.087 181.861 263.749 180.971 263.243L157.25 304.973ZM158.051 305.404C166.687 311.812 175.995 315.257 182.647 317.558L198.342 272.197C192.32 270.113 189 268.598 186.653 266.856L158.051 305.404ZM182.687 317.572C188.522 319.579 194.415 320.946 200.159 321.858L207.687 274.452C204.226 273.902 201.093 273.143 198.301 272.183L182.687 317.572ZM200.156 321.857C200.81 321.961 201.483 322.075 202.296 322.213L210.313 274.887C209.54 274.756 208.626 274.601 207.69 274.452L200.156 321.857ZM201.598 322.084L201.598 322.084L211.011 275.016L211.011 275.016L201.598 322.084ZM202.297 322.213C205.32 322.725 210.856 323.729 216.88 323.636L216.133 275.641C215.245 275.655 214.042 275.518 210.312 274.887L202.297 322.213ZM216.919 323.635C217.881 323.618 218.918 323.634 220.433 323.659L221.241 275.666C219.863 275.643 218.01 275.609 216.095 275.642L216.919 323.635ZM220.433 323.659C222.678 323.697 226.292 323.776 230.074 323.473L226.24 275.627C225.163 275.713 223.881 275.71 221.241 275.666L220.433 323.659ZM230.035 323.476C234.24 323.146 238.889 322.633 243.737 321.697L234.633 274.568C232.143 275.049 229.411 275.378 226.279 275.623L230.035 323.476ZM243.874 321.67C247.806 320.887 251.434 319.909 254.511 319.043L241.512 272.837C238.763 273.61 236.566 274.183 234.496 274.595L243.874 321.67ZM254.485 319.051C261.905 316.972 268.93 314.122 275.723 310.514L253.205 268.124C249.325 270.184 245.5 271.72 241.537 272.83L254.485 319.051ZM246.909 305.685C247.395 306.206 247.853 306.674 248.092 306.918L282.448 273.398C282.308 273.254 282.223 273.166 282.144 273.085C282.072 273.01 282.035 272.971 282.018 272.953L246.909 305.685ZM248.092 306.919C248.249 307.08 248.331 307.164 248.401 307.237C248.465 307.303 248.471 307.311 248.445 307.282C248.401 307.234 248.13 306.939 247.771 306.465L286.003 277.443C284.472 275.426 282.831 273.79 282.447 273.397L248.092 306.919ZM247.714 306.391C248.181 307.011 248.672 307.706 249.434 308.794L288.735 281.235C288.052 280.261 287.098 278.896 286.06 277.518L247.714 306.391ZM249.884 309.414L249.885 309.414L288.285 280.615L288.284 280.614L249.884 309.414ZM249.885 309.414L249.885 309.415L288.285 280.615L288.285 280.615L249.885 309.414ZM249.885 309.415L249.885 309.415L288.285 280.615L288.285 280.615L249.885 309.415ZM249.885 309.415L249.887 309.418L288.287 280.618L288.285 280.615L249.885 309.415ZM249.438 308.798C250.628 310.496 252.727 313.533 255.312 316.449L291.224 284.6C290.76 284.077 290.199 283.323 288.737 281.237L249.438 308.798ZM255.225 316.35C256.861 318.215 258.473 320.219 260.467 322.706L297.915 292.678C296.031 290.329 293.763 287.494 291.311 284.699L255.225 316.35ZM260.358 322.569L260.361 322.572L298.026 292.818L298.024 292.815L260.358 322.569ZM260.419 322.645L260.421 322.648L297.97 292.747L297.968 292.745L260.419 322.645ZM260.472 322.712C261.855 324.437 263.443 326.419 265.106 328.397L301.839 297.499C300.599 296.024 299.361 294.482 297.919 292.684L260.472 322.712ZM265.066 328.348C267.723 331.524 270.326 334.795 273.142 338.336L310.71 308.459C307.956 304.996 304.984 301.257 301.88 297.547L265.066 328.348ZM273.143 338.337L273.932 339.33L311.499 309.451L310.709 308.458L273.143 338.337ZM273.935 339.333C274.221 339.692 274.508 340.053 274.796 340.415L312.338 310.505C312.058 310.154 311.778 309.802 311.496 309.448L273.935 339.333ZM274.816 340.439C276.148 342.107 277.503 343.613 278.335 344.544L314.117 312.55C313.136 311.452 312.679 310.932 312.318 310.48L274.816 340.439ZM277.933 344.082L277.934 344.084L314.522 313.014L314.52 313.012L277.933 344.082ZM278.431 344.651L278.433 344.653L314.027 312.449L314.025 312.447L278.431 344.651ZM278.338 344.547C279.256 345.575 279.717 346.097 280.095 346.563L317.4 316.358C316.161 314.829 314.912 313.438 314.122 312.555L278.338 344.547ZM280.156 346.639C280.156 346.639 280.174 346.661 280.214 346.713C280.254 346.765 280.311 346.84 280.39 346.947C280.565 347.185 280.755 347.452 281.08 347.908L320.193 320.085C319.66 319.335 318.593 317.819 317.338 316.282L280.156 346.639ZM280.904 347.657L280.904 347.658L320.37 320.336L320.369 320.335L280.904 347.657ZM281.08 347.908C281.798 348.918 283.674 351.628 286.136 354.203L320.829 321.031C321.088 321.302 321.176 321.432 321.044 321.26C320.982 321.18 320.889 321.054 320.743 320.853C320.59 320.643 320.429 320.416 320.194 320.086L281.08 347.908ZM286.073 354.137C286.856 354.962 287.689 356.026 289.459 358.379L327.816 329.521C326.316 327.528 323.875 324.241 320.892 321.097L286.073 354.137ZM289.573 358.529L289.573 358.53L327.703 329.372L327.702 329.371L289.573 358.529ZM289.46 358.38C290.721 360.056 292.639 362.626 294.866 365.144L330.82 333.343C330.063 332.486 329.269 331.453 327.816 329.522L289.46 358.38ZM294.899 365.181C295.981 366.4 297.065 367.785 298.714 369.915L336.666 340.527C335.18 338.607 333.121 335.934 330.787 333.306L294.899 365.181ZM299.253 370.585L299.253 370.585L336.128 339.856L336.128 339.856L299.253 370.585ZM299.253 370.585L299.253 370.586L336.128 339.857L336.128 339.856L299.253 370.585ZM298.819 370.049L298.82 370.05L336.563 340.394L336.562 340.393L298.819 370.049ZM298.759 369.972L298.761 369.974L336.626 340.475L336.624 340.472L298.759 369.972ZM298.718 369.919C300.333 372.004 302.634 374.998 305.286 377.9L340.721 345.522C339.609 344.305 338.487 342.878 336.669 340.53L298.718 369.919ZM305.295 377.91C306.728 379.477 308.123 381.25 310.189 383.906L348.079 354.439C346.202 352.025 343.654 348.728 340.712 345.512L305.295 377.91ZM310.227 383.955L310.231 383.96L348.045 354.396L348.042 354.391L310.227 383.955ZM310.115 383.811L310.116 383.811L348.161 354.545L348.161 354.545L310.115 383.811ZM310.194 383.912C311.463 385.545 313.038 387.573 314.735 389.602L351.549 358.8C350.492 357.538 349.439 356.188 348.083 354.444L310.194 383.912ZM314.725 389.59C316.585 391.815 318.458 393.995 320.205 396.027L356.607 364.74C354.825 362.666 353.169 360.739 351.558 358.812L314.725 389.59ZM320.228 396.054L320.239 396.067L356.595 364.726L356.584 364.713L320.228 396.054ZM320.216 396.039C321.487 397.519 322.692 398.922 323.878 400.321L360.503 369.296C359.189 367.744 357.871 366.211 356.619 364.754L320.216 396.039ZM323.477 399.835C322.259 398.318 321.521 396.982 321.165 396.292C320.845 395.671 320.622 395.142 320.755 395.445L364.72 376.183C364.697 376.13 364.318 375.244 363.821 374.281C363.29 373.251 362.357 371.59 360.904 369.781L323.477 399.835ZM321.271 396.547L321.271 396.547L364.204 375.081L364.204 375.081L321.271 396.547ZM320.761 395.458L320.798 395.544L364.752 376.256L364.715 376.17L320.761 395.458ZM320.824 395.602L320.849 395.659L364.752 376.256L364.727 376.198L320.824 395.602ZM320.866 395.697C320.903 395.781 320.951 395.888 321.006 396.009L364.697 376.132C364.718 376.178 364.732 376.21 364.735 376.217L320.866 395.697ZM321.01 396.018C321.159 396.345 321.406 396.875 321.734 397.501L364.248 375.216C364.478 375.655 364.633 375.992 364.693 376.123L321.01 396.018ZM342.991 410.358C343.538 410.358 344.097 410.363 344.761 410.368L345.127 362.369C344.494 362.364 343.751 362.358 342.991 362.358V410.358ZM344.944 410.368H344.949V362.368H344.944V410.368ZM344.949 410.368H344.953V362.368H344.949V410.368ZM344.953 410.368H344.958V362.368H344.953V410.368ZM344.958 410.368H344.97V362.368H344.958V410.368ZM344.789 410.368C346.033 410.377 347.696 410.391 349.41 410.352L348.311 362.365C347.45 362.384 346.52 362.379 345.15 362.369L344.789 410.368ZM349.396 410.353C356.406 410.196 362.997 408.323 368.923 405.021L345.562 363.089C345.838 362.936 346.26 362.744 346.804 362.594C347.352 362.443 347.877 362.374 348.326 362.364L349.396 410.353ZM368.928 405.018C377.91 400.011 385.725 392.718 391.024 382.69L348.584 360.264C348.103 361.175 347.38 362.076 345.557 363.092L368.928 405.018ZM390.989 382.755C392.187 380.504 393.552 377.625 394.628 374.315L348.981 359.471C349.017 359.361 349.02 359.374 348.955 359.521C348.891 359.666 348.784 359.889 348.619 360.199L390.989 382.755ZM394.564 374.51C396.385 369.071 396.649 362.604 394.587 356.442L349.068 371.675C348.222 369.147 348.015 366.912 348.034 365.205C348.054 363.478 348.313 361.464 349.046 359.276L394.564 374.51ZM394.543 356.313C391.433 347.192 384.139 341.897 377.124 340.016C374.357 339.274 372.029 339.149 370.774 339.122C369.547 339.095 368.452 339.16 368.379 339.163L370.752 387.105C371.135 387.086 370.508 387.127 369.736 387.11C368.937 387.093 367.051 387.011 364.693 386.378C362.201 385.71 358.83 384.332 355.613 381.506C352.301 378.595 350.234 375.096 349.111 371.804L394.543 356.313ZM368.406 339.162L368.403 339.162L370.723 387.106L370.725 387.106L368.406 339.162ZM368.374 339.164C368.346 339.165 368.331 339.166 368.319 339.166C368.309 339.167 368.308 339.167 368.314 339.166L370.478 387.118C370.594 387.112 370.7 387.107 370.752 387.105L368.374 339.164ZM345.474 364.988C345.455 364.803 345.443 364.647 345.436 364.522L393.356 361.762C393.322 361.163 393.273 360.558 393.209 359.951L345.474 364.988Z" fill="white" mask="url(#path-1-outside-1_2464_6132)"/>
</g>
<path d="M311.19 207.703C311.19 257.497 270.663 297.863 220.671 297.863C170.68 297.863 130.153 257.497 130.153 207.703C130.153 157.909 170.68 117.543 220.671 117.543C270.663 117.543 311.19 157.909 311.19 207.703Z" fill="#1751C1"/>
<path d="M345.199 384.227L264.495 286.837L284.671 272.152L369.255 361.812C369.772 364.904 369.41 372.478 363.823 378.043C358.236 383.608 349.079 384.484 345.199 384.227Z" fill="#1751C1"/>
<ellipse cx="220.672" cy="205.406" rx="62.8436" ry="62.5947" fill="#EBFEFF"/>
<path d="M171.078 194.315C171.591 198.265 172.498 202.967 173.854 207.982C180.375 229.083 195.833 237.983 220.015 245.605C243.095 252.88 261.039 236.511 267.125 227.417C264.569 236.511 251.422 254.844 219.284 255.426C193.305 255.896 179.577 229.142 173.854 207.982C172.595 203.908 171.669 199.378 171.078 194.315Z" fill="white"/>
<path fill-rule="evenodd" clip-rule="evenodd" d="M270.289 226.825C270.022 227.755 269.822 228.331 269.444 228.796C268.88 229.498 268.292 230.181 267.704 230.863L267.701 230.867C266.899 231.798 266.096 232.73 265.353 233.712C264.899 234.318 264.454 234.938 264.009 235.558L264.007 235.562C263.232 236.641 262.459 237.719 261.64 238.717C259.817 240.932 257.772 243.013 255.304 244.741C254.306 245.438 253.342 246.189 252.375 246.942C251.101 247.934 249.821 248.93 248.456 249.812C243.743 252.846 238.696 254.972 233.249 256.3C228.007 257.576 222.693 257.273 217.437 256.974L217.434 256.974C216.85 256.94 216.267 256.907 215.684 256.876C212.194 256.699 208.592 255.725 205.257 254.019C204.367 253.564 203.444 253.193 202.519 252.82C200.787 252.122 199.048 251.422 197.498 250.166C196.667 249.495 195.795 248.87 194.92 248.243C193.687 247.36 192.448 246.473 191.317 245.449C187.159 241.707 183.535 237.455 180.4 232.871C178.377 229.926 176.621 226.67 175.531 223.282C175.219 222.295 174.774 221.381 174.332 220.474C173.832 219.448 173.336 218.43 173.041 217.325C172.663 215.928 172.229 214.553 171.794 213.176C171.616 212.611 171.437 212.046 171.263 211.479C171.213 211.331 171.115 211.191 171.017 211.053C170.896 210.881 170.776 210.711 170.751 210.527C170.681 210.087 170.605 209.646 170.528 209.204L170.527 209.196C170.287 207.815 170.046 206.425 169.995 205.035C169.862 202.2 169.884 199.343 169.995 196.509C170.025 195.546 170.194 194.583 170.376 193.547C170.466 193.034 170.559 192.504 170.64 191.947H172.663C173.908 191.925 174.509 192.678 174.598 193.785C174.709 194.936 174.687 196.11 174.62 197.262C174.178 204.267 176.208 210.835 178.238 217.398C178.351 217.765 178.464 218.132 178.577 218.499C179.022 219.96 179.978 221.311 180.912 222.551C185.003 228.176 190.205 232.561 196.186 236.126C200.366 238.606 204.701 240.533 209.415 241.729C210.36 241.961 211.3 242.2 212.239 242.438C213.178 242.676 214.117 242.914 215.062 243.146C218.646 244.031 222.241 243.938 225.832 243.846C227.453 243.804 229.074 243.762 230.692 243.811C233.482 243.89 236.199 243.194 238.893 242.504C239.183 242.43 239.473 242.356 239.763 242.283C243.965 241.22 247.989 239.647 251.813 237.632C256.26 235.285 260.24 232.273 263.53 228.464C263.905 228.022 264.141 227.468 264.379 226.909C264.522 226.572 264.666 226.234 264.842 225.917C265.776 224.256 266.242 224.124 268.11 225.054C268.888 225.474 269.577 225.984 270.289 226.825ZM192.54 239.603L192.364 239.587C192.179 239.57 191.997 239.553 191.828 239.537L191.864 239.559C192.096 239.705 192.328 239.851 192.54 240.378C208.459 256.566 231.826 256.965 248.145 244.652C247.772 244.674 247.44 244.677 247.14 244.679C246.528 244.684 246.05 244.688 245.632 244.851C240.874 246.557 236.05 247.752 230.936 247.752C230.57 247.752 230.196 247.723 229.82 247.692C228.576 247.593 227.305 247.492 226.178 248.461C225.939 248.66 225.342 248.52 224.869 248.409L224.859 248.407C224.808 248.395 224.758 248.383 224.711 248.372C224.429 248.309 224.152 248.198 223.874 248.087C223.473 247.926 223.073 247.765 222.666 247.752C221.903 247.725 221.139 247.722 220.375 247.719C217.999 247.708 215.622 247.698 213.283 246.977C210.504 246.136 207.68 245.516 204.857 244.896C202.766 244.434 200.925 243.443 199.086 242.453C198.188 241.97 197.29 241.486 196.364 241.065C196.013 240.915 195.672 240.744 195.329 240.573C194.456 240.137 193.578 239.698 192.54 239.603Z" fill="#515151"/>
<path d="M214.645 179.367C213.152 177.613 211.507 175.68 211.772 172.814C211.105 171.175 211.238 169.913 211.727 168.362C211.994 167.566 212.35 166.817 212.705 166.071C213.119 165.199 213.532 164.333 213.795 163.402C213.832 163.267 213.871 163.132 213.91 162.995C214.109 162.3 214.314 161.584 214.24 160.9C214.106 159.637 212.283 158.929 211.305 159.748C210.66 160.28 210.127 161.01 209.637 161.741C207.036 165.594 207.147 169.957 207.303 174.319C207.87 175.157 208.123 176.105 208.38 177.066C208.707 178.293 209.041 179.541 210.038 180.609C210.505 181.11 210.951 181.656 211.4 182.205C212.061 183.013 212.729 183.829 213.484 184.528C216.908 187.695 220.887 189.71 225.712 189.644C226.231 189.644 226.75 189.649 227.268 189.654C228.306 189.664 229.343 189.673 230.381 189.644C236.495 189.467 240.742 186.344 244.01 181.406C246.055 178.328 246.144 174.962 246.233 171.463C246.321 167.063 244.107 163.692 241.876 160.295L241.764 160.125C241.12 159.15 239.296 159.106 238.363 159.859C237.451 160.59 237.229 161.453 237.962 162.494C238.452 163.181 238.918 163.911 239.341 164.642C241.431 168.274 243.321 171.861 241.542 176.29C239.474 181.472 235.672 184.816 230.381 185.658C224.4 186.61 218.998 184.551 215.04 179.834C214.911 179.679 214.778 179.524 214.645 179.367Z" fill="#515151"/>
<path fill-rule="evenodd" clip-rule="evenodd" d="M168.64 165.683C164.527 171.02 161.236 176.711 158.902 183.266C158.73 183.79 158.636 184.291 158.549 184.754C158.446 185.309 158.352 185.811 158.146 186.234C156.594 189.437 156.206 192.876 155.819 196.301C155.674 197.587 155.529 198.871 155.322 200.141C154.822 203.218 155.045 206.444 155.264 209.591L155.278 209.796C155.498 212.951 156.088 216.041 156.682 219.152L156.701 219.252C157.657 224.146 159.191 228.752 161.281 233.27C161.935 234.696 162.715 236.03 163.492 237.36C163.982 238.198 164.471 239.035 164.927 239.891C166.483 242.836 168.417 245.582 170.73 247.93C171.367 248.576 171.997 249.229 172.628 249.881L172.632 249.885C175.367 252.714 178.098 255.538 181.313 257.895C185.048 260.641 193.385 265.513 198.143 267.041C198.554 267.177 198.963 267.318 199.372 267.459C200.557 267.866 201.739 268.272 202.945 268.569C203.57 268.722 204.224 268.795 204.878 268.867C205.829 268.973 206.78 269.078 207.637 269.432C208.975 269.979 210.287 270.038 211.614 270.098C212.006 270.115 212.399 270.133 212.795 270.163C213.798 270.254 214.794 270.421 215.792 270.588L215.794 270.589C216.497 270.707 217.201 270.825 217.908 270.916C220.399 271.248 222.849 270.919 225.296 270.59C227.261 270.326 229.223 270.062 231.204 270.141C231.239 270.141 231.279 270.146 231.321 270.15C231.41 270.16 231.506 270.171 231.582 270.141C233.551 269.311 235.614 268.852 237.684 268.392C239.26 268.042 240.84 267.69 242.387 267.174C251.125 264.273 258.662 259.534 265.487 253.577C267.866 251.517 269.912 249.081 271.935 246.623C274.393 243.662 276.285 240.383 278.179 237.102L278.496 236.553C278.621 236.337 278.746 236.121 278.871 235.905C281.295 231.719 282.762 227.158 284.163 222.596C284.986 219.938 285.786 217.104 285.742 214.38C285.699 212.167 285.773 209.947 285.848 207.725C286.045 201.853 286.242 195.978 284.274 190.242C284.204 186.915 282.896 183.957 281.594 181.015C281.241 180.216 280.889 179.419 280.561 178.616C277.938 172.105 273.958 166.392 269.267 161.232C266.465 158.131 263.353 155.208 259.973 152.772C254.971 149.185 249.568 146.195 243.699 144.269C243.474 144.194 243.249 144.118 243.023 144.042C242.854 143.984 242.684 143.927 242.514 143.869C240.637 143.229 238.738 142.583 236.718 142.253C235.663 142.085 234.604 141.838 233.537 141.588C232.355 141.312 231.162 141.033 229.959 140.858C227.491 140.504 225.001 140.172 222.511 140.105L222.005 140.092C219.552 140.026 217.116 139.96 214.64 140.748C213.511 141.11 212.309 141.15 211.077 141.19C210.054 141.223 209.01 141.257 207.97 141.478C202.723 142.563 197.698 144.136 192.807 146.24C187.849 148.388 183.247 151.2 179.245 154.655C175.421 157.976 171.797 161.586 168.64 165.683ZM230.985 265.885C229.733 266.233 228.484 266.581 227.135 266.332C225.38 266.495 223.916 266.666 222.555 266.825C221.692 266.925 220.871 267.021 220.043 267.107C219.237 267.188 218.483 266.934 217.723 266.678C216.825 266.376 215.918 266.07 214.907 266.31C213.511 266.631 212.143 266.248 210.782 265.868C210.65 265.831 210.518 265.794 210.387 265.758C210.189 265.704 209.991 265.651 209.793 265.601C209.022 265.412 208.229 265.301 207.433 265.19C206.645 265.08 205.854 264.969 205.08 264.782C203.435 264.383 201.812 263.896 200.278 263.232C194.03 260.552 187.916 257.718 182.647 253.2C182.401 252.99 182.154 252.78 181.907 252.57L181.872 252.539L181.87 252.538C179.922 250.878 177.965 249.211 176.199 247.354C170.152 241.02 165.683 233.757 162.837 225.386C162.471 224.308 162.17 223.205 161.869 222.103L161.869 222.101C161.348 220.194 160.828 218.288 159.969 216.506C159.88 216.284 159.858 216.019 159.858 215.775C159.936 213.828 159.67 211.898 159.405 209.969C159.066 207.509 158.728 205.049 159.102 202.554C159.791 197.97 160.547 193.364 161.414 188.802C162.319 187.796 162.613 186.551 162.907 185.303C163.112 184.436 163.316 183.569 163.726 182.779C164.14 181.975 164.547 181.166 164.954 180.357C166.431 177.424 167.912 174.484 169.707 171.706C172.842 166.857 176.733 162.671 181.068 159.017C186.938 154.101 193.43 150.093 200.878 147.812L201.005 147.772C205.898 146.258 210.75 144.755 215.93 144.712C216.54 144.701 217.151 144.529 217.758 144.357C218.476 144.154 219.188 143.953 219.887 144.025C220.91 144.123 221.934 144.21 222.958 144.297C228.193 144.743 233.428 145.188 238.429 147.059C239.176 147.334 239.93 147.591 240.684 147.847C241.749 148.209 242.813 148.571 243.854 148.986C248.679 150.912 253.437 153.26 257.372 156.515C258.141 157.158 258.936 157.778 259.733 158.4C262.369 160.458 265.038 162.541 266.932 165.55C267.705 166.788 268.657 167.93 269.62 169.084L269.622 169.086C270.571 170.223 271.529 171.373 272.335 172.636C274.981 176.822 277.115 181.229 278.849 185.835C279.65 187.961 280.16 190.174 280.67 192.386C281.052 194.046 281.435 195.705 281.94 197.328C282.061 197.736 282.027 198.185 281.993 198.633C281.978 198.842 281.962 199.051 281.962 199.255C281.962 199.757 281.961 200.26 281.96 200.764L281.957 201.96C281.952 203.768 281.947 205.58 281.962 207.382C282.073 216.484 279.561 224.943 275.403 232.937C273.024 237.499 270.623 242.083 266.666 245.626C266.072 246.166 265.591 246.84 265.11 247.515C264.564 248.281 264.018 249.047 263.308 249.613C262.981 249.869 262.655 250.127 262.33 250.386C262.005 250.643 261.681 250.901 261.357 251.158L261.267 251.23C257.542 254.194 253.814 257.16 249.546 259.445C247.612 260.475 245.605 261.295 243.599 262.115C242.284 262.652 240.969 263.189 239.675 263.785C238.096 264.51 236.323 264.816 234.552 265.122C233.778 265.255 233.005 265.389 232.249 265.557C231.824 265.652 231.405 265.768 230.985 265.885Z" fill="#515151"/>
<path fill-rule="evenodd" clip-rule="evenodd" d="M337.589 372.496C336.922 371.698 336.9 370.923 337.945 370.126C342.436 368.111 345.727 365.121 349.062 362.021C351.079 360.065 352.353 357.652 353.631 355.229C354.437 353.702 355.246 352.17 356.243 350.749L366.337 360.803C366.474 360.94 366.61 361.086 366.747 361.233C367.052 361.56 367.362 361.894 367.715 362.154C368.604 362.796 370.516 362.464 371.139 361.622C371.895 360.604 371.584 359.762 370.739 358.965C369.427 357.725 368.115 356.463 366.893 355.134C366.38 354.564 365.911 353.955 365.443 353.348C364.856 352.586 364.27 351.825 363.602 351.148C362.466 349.998 361.324 348.853 360.181 347.709C355.804 343.322 351.427 338.936 347.372 334.229C345.627 332.192 343.737 330.299 341.845 328.403C339.952 326.507 338.056 324.607 336.3 322.559C333.86 319.721 331.212 317.07 328.559 314.414C325.87 311.722 323.177 309.025 320.692 306.127C318.785 303.902 316.69 301.854 314.593 299.804C312.119 297.385 309.641 294.963 307.463 292.242C305.658 289.987 303.539 287.982 301.417 285.974C300.143 284.769 298.868 283.562 297.659 282.299C295.543 280.087 293.506 277.806 291.45 275.502C290.438 274.368 289.421 273.229 288.388 272.09C290.344 269.875 292.412 267.55 294.502 265.203C294.583 265.107 294.67 265.013 294.756 264.92C294.929 264.733 295.102 264.546 295.235 264.339C296.272 262.647 297.38 261.006 298.489 259.364C299.687 257.59 300.886 255.816 301.994 253.975C304.907 249.103 307.197 243.966 309.175 238.717C311.087 233.624 312.733 228.398 313.111 222.906C313.903 221.845 313.845 220.649 313.789 219.475C313.749 218.639 313.71 217.815 313.978 217.06C314.689 215.066 314.734 213.118 314.645 211.147C314.564 209.475 314.622 207.793 314.68 206.11V206.107C314.797 202.71 314.915 199.309 313.889 195.977C314.263 194.247 313.871 192.596 313.479 190.952C313.29 190.155 313.101 189.361 313 188.559C312.985 188.448 312.972 188.337 312.959 188.225C312.928 187.957 312.9 187.685 312.873 187.41L312.872 187.404C312.748 186.182 312.62 184.926 312.199 183.886C311.526 182.263 311.032 180.591 310.54 178.925C310.219 177.84 309.899 176.758 309.531 175.693C308.9 173.909 308.153 172.174 307.405 170.437C307.019 169.542 306.633 168.646 306.263 167.743C303.261 160.368 298.793 153.769 293.746 147.79C289.321 142.564 284.408 137.625 278.872 133.373C276.289 131.384 273.6 129.628 270.887 127.856L270.69 127.726C267.866 125.888 264.887 124.36 261.774 123.01C260.822 122.596 259.884 122.156 258.947 121.717C256.627 120.63 254.316 119.547 251.814 118.868C250.645 118.547 249.491 118.184 248.339 117.821C245.919 117.059 243.502 116.298 240.942 115.923C240.364 115.833 239.756 115.799 239.151 115.765C237.963 115.698 236.786 115.632 235.873 115.148C234.616 114.473 233.446 114.508 232.279 114.543C231.877 114.555 231.475 114.567 231.071 114.55C230.304 114.521 229.584 114.311 228.861 114.099C227.927 113.827 226.987 113.552 225.935 113.664C223.378 113.93 220.732 113.952 218.175 113.664C216.657 113.511 215.236 113.802 213.821 114.091C212.791 114.302 211.764 114.513 210.705 114.55C210.38 114.561 210.053 114.57 209.725 114.578C207.275 114.645 204.778 114.713 202.523 115.436C201.855 115.648 201.182 115.708 200.519 115.767C199.726 115.838 198.948 115.908 198.21 116.233C196.143 117.145 193.99 117.793 191.832 118.443C189.743 119.072 187.65 119.702 185.626 120.574C180.29 122.855 175.199 125.49 170.285 128.546C167.862 130.052 165.505 131.602 163.46 133.683C162.904 134.237 162.175 134.628 161.45 135.017C160.639 135.452 159.832 135.885 159.28 136.54C158.687 137.229 158.013 137.8 157.34 138.368C156.651 138.951 155.963 139.532 155.367 140.238C154.39 141.398 153.365 142.519 152.341 143.638L152.338 143.641C151.055 145.044 149.772 146.446 148.586 147.923C148.309 148.26 147.985 148.55 147.674 148.827C147.312 149.152 146.968 149.459 146.741 149.805C144.25 153.525 141.938 157.357 139.67 161.21C137.002 165.749 134.935 170.577 133.178 175.56C131.933 179.081 130.777 182.624 130.199 186.366C130.109 186.942 130.075 187.55 130.041 188.155C129.973 189.343 129.907 190.521 129.421 191.416C128.882 192.419 128.886 193.351 128.89 194.268C128.893 194.787 128.895 195.302 128.798 195.822C128.718 196.258 128.621 196.694 128.524 197.132C128.271 198.274 128.016 199.418 128.065 200.539C128.148 202.344 128.092 204.151 128.037 205.959C127.929 209.476 127.821 212.996 128.732 216.506C129.03 217.647 129.085 218.834 129.141 220.037C129.189 221.075 129.237 222.126 129.443 223.172C129.534 223.634 129.624 224.097 129.715 224.561C130.505 228.617 131.295 232.674 132.711 236.569C134.09 240.378 135.535 244.187 137.18 247.885C138.447 250.72 139.848 253.555 141.582 256.123L141.658 256.235C144.39 260.273 147.148 264.35 150.409 267.949C155.278 273.308 160.414 278.446 166.483 282.52C167.327 283.093 168.218 283.6 169.111 284.108C170.22 284.738 171.331 285.369 172.353 286.13C177.845 290.205 184.159 292.685 190.495 294.877C194.808 296.361 199.322 297.424 203.924 298.155C204.719 298.281 205.512 298.415 206.305 298.55C209.682 299.122 213.051 299.692 216.508 299.638C217.947 299.614 219.391 299.638 220.838 299.662C223.281 299.703 225.728 299.745 228.158 299.55C231.827 299.262 235.517 298.841 239.186 298.132C242.187 297.535 245.1 296.76 248.012 295.94C253.704 294.346 259.129 292.153 264.465 289.319C264.735 289.609 265.006 289.886 265.271 290.158C265.855 290.757 266.414 291.329 266.888 291.954C267.641 292.954 268.363 293.984 269.086 295.015L269.088 295.018C270.415 296.909 271.744 298.805 273.269 300.524C275.313 302.855 277.253 305.274 279.192 307.692L279.194 307.695C280.608 309.458 282.022 311.221 283.474 312.948C286.355 316.39 289.142 319.895 291.927 323.397L292.717 324.39C293 324.747 293.284 325.103 293.568 325.46C294.414 326.519 295.32 327.533 296.227 328.547L296.229 328.549L296.231 328.551C297.085 329.506 297.94 330.463 298.748 331.461C299.415 332.278 300.027 333.138 300.638 333.996C301.533 335.255 302.426 336.511 303.484 337.617C305.367 339.602 307.004 341.778 308.639 343.951C309.996 345.754 311.352 347.556 312.844 349.243C314.553 351.167 316.124 353.197 317.692 355.222L317.694 355.224C319.411 357.441 321.123 359.651 323.004 361.711C325.192 364.102 327.164 366.638 329.135 369.173C330.449 370.862 331.764 372.553 333.143 374.201C334.878 376.277 336.642 378.33 338.407 380.383C339.672 381.856 340.938 383.328 342.192 384.808C342.426 385.1 342.583 385.458 342.739 385.814L342.776 385.9C342.801 385.957 342.827 386.014 342.852 386.071C342.897 386.168 342.943 386.265 342.992 386.358C343.65 386.358 344.306 386.363 344.959 386.368H344.971C346.277 386.378 347.574 386.388 348.862 386.358C351.841 386.292 354.62 385.517 357.243 384.055C362.646 381.044 366.915 376.947 369.805 371.477C370.583 370.015 371.295 368.465 371.806 366.893C372.095 366.029 372.117 364.922 371.828 364.058C371.481 363.039 370.479 363.089 369.567 363.134C369.428 363.141 369.292 363.147 369.16 363.15C368.99 363.15 368.831 363.204 368.667 363.259C368.596 363.283 368.523 363.307 368.449 363.327C366.781 368.465 364.069 372.916 359.934 376.46C359.57 376.773 359.155 377.038 358.739 377.304C358.213 377.64 357.688 377.976 357.266 378.408C354.175 381.531 350.262 382.306 346.082 382.616C343.236 379.206 340.413 375.839 337.589 372.496ZM154.016 148.881L154.018 148.878C154.28 148.529 154.543 148.179 154.811 147.834C157.234 145.442 159.258 143.427 161.236 141.434C163.609 139.053 166.32 137.113 169.035 135.171C169.653 134.729 170.271 134.286 170.886 133.838C175.221 130.694 179.868 128.125 184.692 125.888C189.472 123.674 194.453 121.88 199.633 120.706C200.012 120.619 200.395 120.54 200.779 120.462C202.038 120.204 203.31 119.944 204.502 119.333C205.099 119.036 205.782 119.101 206.476 119.168C207.436 119.259 208.415 119.353 209.215 118.492C209.31 118.379 209.598 118.41 209.832 118.436L209.88 118.441L209.949 118.448C212.145 118.548 214.318 118.276 216.491 118.003C219.114 117.674 221.738 117.346 224.401 117.673C225.653 117.835 226.893 118.032 228.139 118.231L228.791 118.334C229.031 118.372 229.273 118.41 229.514 118.448C230.092 118.537 230.666 118.558 231.244 118.579C232.246 118.615 233.259 118.652 234.317 119.046C235.364 119.422 236.583 119.553 237.818 119.684C238.47 119.754 239.126 119.824 239.764 119.931C243.61 120.574 247.278 121.792 250.902 123.098C253.704 124.117 256.527 125.18 259.218 126.442C264.065 128.701 268.511 131.602 272.958 134.569C279.383 138.865 284.719 144.357 289.766 150.027C295.902 156.936 300.46 165.019 304.062 173.5C305.596 177.088 306.908 180.875 307.641 184.794C307.82 185.739 308.082 186.668 308.345 187.602C308.704 188.877 309.066 190.161 309.22 191.504C309.319 192.299 309.381 193.111 309.443 193.924C309.564 195.491 309.684 197.059 310.065 198.502C311.146 202.646 310.885 206.809 310.629 210.901L310.626 210.938C310.609 211.208 310.593 211.476 310.576 211.745C310.556 212.066 310.537 212.387 310.518 212.709C310.278 216.748 310.032 220.89 308.508 224.766C308.667 226.839 307.959 228.706 307.249 230.578C306.663 232.126 306.074 233.677 305.974 235.351C305.892 236.441 305.343 237.508 304.81 238.541C304.618 238.914 304.427 239.284 304.262 239.647C301.838 245.007 299.371 250.366 295.858 255.149C295.475 255.681 295.067 256.201 294.66 256.722C293.692 257.955 292.726 259.188 292.1 260.575C291.669 261.535 290.938 262.246 290.214 262.95C289.336 263.805 288.47 264.649 288.165 265.911C286.829 266.829 285.764 268.022 284.695 269.221C283.416 270.655 282.129 272.098 280.361 273.086C278.984 273.853 277.812 274.971 276.635 276.093C275.875 276.818 275.112 277.545 274.292 278.18C272.269 279.752 270.156 281.236 267.955 282.565C266.842 283.234 265.673 283.825 264.504 284.416C263.2 285.075 261.894 285.736 260.663 286.506C258.685 287.742 256.529 288.513 254.384 289.281C253.492 289.601 252.601 289.92 251.725 290.271C249.773 291.055 247.716 291.656 245.665 292.255L245.188 292.394C244.735 292.527 244.283 292.66 243.832 292.796C242.492 293.211 241.132 293.477 239.785 293.741C239.121 293.871 238.461 294 237.807 294.146C230.759 295.763 223.534 296.361 216.33 295.697C210.883 295.187 205.391 294.634 200.033 292.951C199.097 292.656 198.159 292.369 197.222 292.083C194.71 291.315 192.2 290.548 189.739 289.629C185.115 287.879 176.355 283.583 172.687 281.081C168.751 278.401 165.083 275.5 161.481 272.4C157.968 269.344 154.789 265.956 151.876 262.457C147.252 256.876 143.472 250.631 140.426 244.01C138.181 239.116 136.402 234.045 134.979 228.841C134.946 228.72 134.913 228.6 134.879 228.48C134.852 228.382 134.824 228.283 134.796 228.185C134.492 227.112 134.194 226.059 134.157 224.899C134.09 223.592 133.712 222.197 133.312 221.001C132.893 219.75 132.882 218.481 132.871 217.241C132.861 216.111 132.852 215.005 132.534 213.959C131.8 211.568 131.822 209.242 131.933 206.895C131.96 206.233 131.924 205.573 131.887 204.912C131.802 203.342 131.716 201.768 132.467 200.163C132.907 199.211 132.875 198.161 132.843 197.075C132.808 195.913 132.771 194.709 133.312 193.542C133.643 192.801 133.693 191.938 133.744 191.039C133.792 190.19 133.843 189.309 134.134 188.47C134.731 186.712 135.219 184.915 135.707 183.114C136.129 181.558 136.552 180 137.047 178.461C138.381 174.297 140.048 170.378 142.005 166.547C144.784 161.121 147.919 155.895 152.054 151.333C152.759 150.553 153.387 149.717 154.016 148.881ZM326.525 358.309C326.311 358.118 326.096 357.926 325.895 357.725C324.402 355.712 322.91 353.871 321.457 352.079L321.454 352.075L321.453 352.073C320.094 350.397 318.769 348.763 317.513 347.073C316.31 345.465 314.991 343.946 313.671 342.427L313.67 342.425C312.283 340.828 310.895 339.231 309.642 337.529C308.688 336.237 307.64 335.025 306.591 333.812C304.978 331.947 303.363 330.078 302.083 327.918C301.325 326.658 300.279 325.574 299.224 324.479C298.516 323.744 297.803 323.004 297.17 322.204C295.857 320.532 294.509 318.889 293.159 317.246L293.157 317.243L293.155 317.241C290.574 314.096 287.988 310.946 285.653 307.588C284.415 305.797 282.908 304.19 281.411 302.592C281.186 302.353 280.962 302.114 280.739 301.875C278.514 299.498 276.593 296.9 274.671 294.3C273.942 293.315 273.214 292.33 272.469 291.356C271.697 290.346 270.749 289.459 269.732 288.507C269.256 288.06 268.763 287.599 268.267 287.104C272.963 284.987 276.753 281.956 280.558 278.913C282.086 277.692 283.616 276.468 285.208 275.301C285.809 275.936 286.416 276.542 287.016 277.141L287.02 277.144C288.594 278.716 290.115 280.234 291.322 282.077C291.683 282.617 292.165 283.072 292.652 283.531C292.825 283.694 292.999 283.858 293.168 284.026C294.12 284.982 295.097 285.919 296.074 286.857C298.083 288.786 300.095 290.717 301.905 292.818C306.596 298.265 311.688 303.292 316.824 308.297C317.164 308.628 317.373 309.09 317.582 309.552C317.988 310.448 318.394 311.345 319.758 311.287C320.126 312.553 321.023 313.393 321.919 314.232C322.213 314.508 322.507 314.783 322.782 315.073C323.545 315.881 324.343 316.666 325.134 317.445C325.449 317.755 325.762 318.064 326.073 318.373C326.492 318.799 326.921 319.219 327.35 319.638C328.035 320.308 328.72 320.978 329.363 321.673C330.286 322.678 331.199 323.696 332.112 324.715C333.552 326.322 334.995 327.931 336.478 329.49C337.451 330.511 338.464 331.492 339.475 332.47L339.476 332.472C341.074 334.018 342.665 335.559 344.081 337.241C344.481 337.714 344.961 338.099 345.435 338.477C346.068 338.984 346.688 339.48 347.083 340.164C347.436 340.777 347.912 341.273 348.388 341.77C348.84 342.242 349.293 342.714 349.64 343.286C350.187 344.19 351.009 344.918 351.852 345.664C352.207 345.978 352.565 346.295 352.908 346.63C349.106 355.887 343.703 363.438 333.854 367.181C331.453 364.922 329.496 362.397 327.784 359.651C327.464 359.15 326.995 358.73 326.525 358.309Z" fill="#515151"/>
<defs>
<filter id="filter0_d_2464_6132" x="95.958" y="85.6283" width="308.075" height="336.75" filterUnits="userSpaceOnUse" color-interpolation-filters="sRGB">
<feFlood flood-opacity="0" result="BackgroundImageFix"/>
<feColorMatrix in="SourceAlpha" type="matrix" values="0 0 0 0 0 0 0 0 0 0 0 0 0 0 0 0 0 0 127 0" result="hardAlpha"/>
<feOffset dy="4"/>
<feGaussianBlur stdDeviation="4"/>
<feComposite in2="hardAlpha" operator="out"/>
<feColorMatrix type="matrix" values="0 0 0 0 0 0 0 0 0 0 0 0 0 0 0 0 0 0 0.25 0"/>
<feBlend mode="normal" in2="BackgroundImageFix" result="effect1_dropShadow_2464_6132"/>
<feBlend mode="normal" in="SourceGraphic" in2="effect1_dropShadow_2464_6132" result="shape"/>
</filter>
</defs>
</svg>
