<svg width="500" height="500" viewBox="0 0 500 500" fill="none" xmlns="http://www.w3.org/2000/svg">
<g filter="url(#filter0_d_2464_6131)">
<mask id="path-1-outside-1_2464_6131" maskUnits="userSpaceOnUse" x="75.8281" y="54.032" width="348" height="392" fill="black">
<rect fill="white" x="75.8281" y="54.032" width="348" height="392"/>
<path fill-rule="evenodd" clip-rule="evenodd" d="M354.315 122.613C348.842 117.091 343.068 111.883 336.692 107.288C331.112 103.264 325.397 99.484 319.437 96.1268C315.831 94.0879 312.048 92.3588 308.259 90.6272L308.258 90.6268C306.676 89.904 305.093 89.1806 303.522 88.4342C303.357 88.3637 303.161 88.3553 302.96 88.3466C302.78 88.3389 302.597 88.331 302.428 88.2786C300.639 87.7122 298.85 87.1305 297.059 86.5482L297.055 86.547C293.574 85.4152 290.087 84.2812 286.58 83.2539C282.852 82.1645 279.057 81.1862 275.218 80.6304C274.57 80.5298 273.925 80.4008 273.281 80.272C272.217 80.059 271.155 79.8464 270.084 79.7633C269.689 79.7301 269.294 79.7029 268.901 79.6758C267.449 79.5759 266.001 79.4763 264.526 79.0741C263.326 78.7445 262.033 78.8135 260.731 78.8831C259.924 78.9262 259.114 78.9694 258.32 78.9184C257.042 78.838 255.772 78.6607 254.505 78.4837C253.67 78.3672 252.837 78.2508 252.003 78.1625C249.031 77.8407 246.089 78.1746 243.146 78.5086C241.006 78.7515 238.865 78.9945 236.713 78.9851C234.51 78.9851 232.306 79.2139 230.103 79.4427C229.159 79.5407 228.215 79.6388 227.271 79.7188C227.216 79.7279 227.15 79.7221 227.088 79.7167C226.998 79.7088 226.917 79.7017 226.891 79.741C226.072 80.7541 225.034 80.6694 223.981 80.5835C223.255 80.5242 222.521 80.4643 221.846 80.7638C220.217 81.4975 218.342 81.8532 216.534 82.0088C215.125 82.1349 213.796 82.5068 212.465 82.8789C211.919 83.0317 211.372 83.1847 210.819 83.3206C209.622 83.6188 208.442 83.9805 207.264 84.3419C206.597 84.5464 205.931 84.7508 205.261 84.9436C203.409 85.4669 201.611 86.1364 199.822 86.8027C198.571 87.2687 197.323 87.7335 196.065 88.1452C192.51 89.3193 189.147 90.8751 185.784 92.4309L185.782 92.4317C185.006 92.7904 184.231 93.1493 183.453 93.5033C178.811 95.6148 174.543 98.3523 170.269 101.093C169.323 101.7 168.377 102.307 167.426 102.908C163.118 105.62 159.077 108.6 155.126 111.69C152.212 113.981 149.541 116.56 146.873 119.138C145.761 120.212 144.648 121.287 143.519 122.34C143.232 122.611 142.965 122.918 142.698 123.224C142.178 123.822 141.661 124.417 140.997 124.741C140.49 124.984 140.307 125.498 140.129 125.997C139.883 126.686 139.647 127.347 138.586 127.231C138.109 128.585 137.123 129.501 136.134 130.418C135.547 130.963 134.961 131.507 134.479 132.144C133.701 133.18 132.975 134.256 132.249 135.33C131.184 136.908 130.12 138.484 128.898 139.926C126.092 143.224 123.912 146.916 121.731 150.608C121.119 151.645 120.506 152.682 119.88 153.711C119.233 154.777 118.733 155.934 118.232 157.091C117.679 158.369 117.126 159.647 116.376 160.803C114.858 163.16 113.697 165.672 112.626 168.207L112.581 168.313C111.725 170.346 110.85 172.424 110.148 174.565C108.987 178.1 107.849 181.658 106.8 185.237C105.326 190.262 104.054 195.286 103.139 200.444C103.019 201.106 102.945 201.791 102.871 202.47C102.74 203.684 102.61 204.879 102.224 205.892C101.812 206.966 101.779 207.977 101.747 208.977C101.729 209.55 101.71 210.119 101.621 210.694C101.539 211.22 101.44 211.746 101.341 212.272C101.142 213.324 100.944 214.377 100.884 215.43C100.807 217.122 100.826 218.825 100.845 220.531C100.853 221.291 100.862 222.051 100.862 222.811V230.192C100.862 231.06 100.859 231.926 100.857 232.79L100.857 232.793C100.852 234.519 100.847 236.241 100.862 237.974C100.884 240.353 100.929 242.687 101.532 245.066C101.904 246.564 101.998 248.151 102.092 249.742C102.139 250.535 102.186 251.33 102.268 252.114C102.42 253.544 102.76 254.943 103.1 256.339C103.611 258.437 104.121 260.53 103.987 262.719C104.761 264.156 105.092 265.733 105.422 267.308C105.787 269.047 106.151 270.784 107.112 272.324C108.05 278.727 110.728 284.597 113.451 290.311L114.689 292.92C119.912 303.944 120.116 304.373 128.184 315.723C128.825 317.827 130.236 319.382 131.648 320.937C132.399 321.765 133.151 322.593 133.787 323.505C135.45 325.904 137.523 328.027 139.585 330.138C139.93 330.49 140.275 330.844 140.617 331.197C142.719 333.383 144.884 335.515 147.048 337.646C148.031 338.615 149.016 339.585 149.992 340.557C150.058 340.622 150.122 340.688 150.187 340.755L150.238 340.809L150.297 340.87L150.366 340.942C150.413 340.992 150.46 341.042 150.507 341.092C150.88 341.488 151.252 341.882 151.666 342.203C153.562 343.653 155.467 345.095 157.372 346.538L157.383 346.545C159.826 348.395 162.271 350.246 164.702 352.119C167.076 353.952 167.95 353.964 170.042 351.826C172.37 353.283 174.741 354.675 177.155 356.002C175.871 356.69 174.578 357.362 173.276 358.01L172.157 358.563C167.576 360.83 162.989 363.099 158.097 364.702C156.382 365.272 154.753 366.11 153.129 366.945L153.128 366.946C152.28 367.382 151.432 367.819 150.574 368.215C147.561 369.594 145.954 371.817 146.088 375.241C146.123 376.107 146.124 376.975 146.125 377.843C146.128 380.249 146.131 382.654 146.869 385.023C147.337 386.524 147.737 388.049 148.136 389.574L148.137 389.575C148.595 391.324 149.054 393.073 149.615 394.784C151.557 400.72 153.61 406.612 155.686 412.504C156.422 414.537 157.263 416.555 158.099 418.558C158.277 418.985 158.456 419.414 158.633 419.84C158.99 420.663 159.548 421.241 160.619 421.286C164.057 421.397 167.561 421.464 170.798 420.352C177.048 418.24 183.231 415.861 189.191 412.97C192.231 411.487 195.197 409.877 198.157 408.27L199.124 407.746L200.034 407.254C203.882 405.174 207.723 403.098 211.468 400.831C211.873 400.591 212.254 400.331 212.634 400.072L212.635 400.071C213.451 399.515 214.258 398.964 215.263 398.63C216.156 398.334 216.61 396.929 216.462 395.812C217.566 395.286 218.547 394.834 219.379 394.467C220.828 398.072 223.149 401.223 226.536 403.521C229.147 405.3 232.094 406.634 235.487 406.412C236.7 406.342 237.922 406.36 239.142 406.377H239.146L239.151 406.377C239.88 406.387 240.609 406.398 241.335 406.389C241.57 406.384 241.813 406.389 242.058 406.393C242.857 406.408 243.677 406.424 244.326 406.1C244.815 405.857 245.158 405.29 245.519 404.692C245.685 404.418 245.855 404.136 246.045 403.877C246.692 404.582 247.324 405.275 247.946 405.957C249.148 407.274 250.315 408.554 251.492 409.813C252.072 410.436 252.786 410.792 253.657 411.147C255.472 411.897 257.307 411.85 259.143 411.802C260.083 411.778 261.023 411.754 261.96 411.837C264.639 412.059 266.737 410.769 268.635 409.146C269.164 408.697 269.563 408.085 269.93 407.522C270.089 407.278 270.243 407.043 270.398 406.834C271.321 407.402 272.188 407.947 273.02 408.47L273.026 408.474C274.929 409.67 276.649 410.752 278.434 411.725C281.001 413.104 283.858 412.948 286.537 412.303C291.492 411.125 295.041 408.035 297.162 403.277C297.453 403.277 297.748 403.271 298.045 403.265L298.048 403.265C298.755 403.251 299.476 403.237 300.198 403.299C302.742 403.521 305.376 403.455 307.542 402.21C308.516 401.658 309.533 401.233 310.551 400.807C311.749 400.307 312.948 399.806 314.082 399.097C316.671 397.452 319.194 395.762 321.716 394.006L322.315 393.588C325.397 391.44 328.473 389.297 331.136 386.624C333.346 384.401 335.556 382.2 337.765 380.021C341.359 376.486 344.64 372.729 347.163 368.349C347.363 368.002 347.552 367.639 347.743 367.275C348.297 366.213 348.86 365.136 349.708 364.391C350.384 363.785 351.283 363.448 352.189 363.108C352.776 362.887 353.368 362.665 353.904 362.368C356.273 361.055 358.822 360.23 361.369 359.407L361.389 359.4L361.394 359.399L361.399 359.397C361.818 359.262 362.237 359.126 362.654 358.989L362.961 358.888C368.014 357.232 373.042 355.585 377.855 353.297C378.186 353.136 378.504 352.947 378.821 352.758C379.339 352.45 379.855 352.142 380.422 351.963C384.485 350.651 388.146 348.561 391.784 346.405C391.981 346.288 392.194 346.173 392.411 346.055L392.414 346.054C393.233 345.61 394.114 345.133 394.396 344.448C394.627 343.898 395.11 343.771 395.593 343.644C396.183 343.488 396.773 343.333 396.896 342.403C396.988 341.76 397.629 341.181 398.296 340.579C398.599 340.305 398.908 340.026 399.173 339.735C398.945 338.871 398.962 337.987 398.979 337.081C398.999 336.028 399.019 334.943 398.659 333.821C397.652 330.656 396.003 327.859 394.358 325.067L394.357 325.066C393.379 323.405 392.402 321.746 391.561 320.014C390.348 317.531 388.859 315.178 387.368 312.823L387.368 312.821C386.389 311.276 385.409 309.727 384.507 308.141C383.324 306.074 382.141 304.028 380.311 302.494C379.08 301.456 377.733 300.84 376.322 300.595C377.691 297.921 379.146 294.778 380.612 291.227C382.261 291.117 383.584 290.716 383.546 288.443C384.971 286.272 385.793 283.849 386.613 281.429L386.614 281.426C387.104 279.981 387.593 278.537 388.211 277.149C388.968 275.459 389.488 273.716 390.008 271.974C390.378 270.736 390.748 269.496 391.202 268.278C391.814 266.628 392.129 264.902 392.446 263.168C392.718 261.676 392.992 260.177 393.457 258.717C393.903 257.317 394.439 255.56 394.283 254.048C394.177 253.052 394.449 252.168 394.717 251.296C394.958 250.514 395.195 249.743 395.153 248.913C395.086 247.29 395.064 245.644 395.934 244.177C395.624 241.573 395.952 239.008 396.28 236.443V236.442C396.565 234.211 396.851 231.98 396.716 229.725C396.624 228.22 396.655 226.709 396.685 225.198V225.196C396.744 222.267 396.803 219.333 395.979 216.43C395.676 215.404 395.734 214.345 395.793 213.267C395.865 211.964 395.938 210.632 395.376 209.293C394.943 208.283 394.96 207.178 394.977 206.05C394.996 204.794 395.016 203.508 394.416 202.29C394.168 201.775 394.176 201.202 394.185 200.602C394.196 199.855 394.207 199.065 393.724 198.288C393.223 197.508 393.14 196.421 393.057 195.351C393.022 194.896 392.987 194.444 392.921 194.019C392.523 191.407 391.732 188.898 390.942 186.39C390.09 183.69 389.239 180.991 388.881 178.167C387.422 175.914 386.549 173.408 385.674 170.897C384.847 168.527 384.02 166.152 382.698 163.982C382.456 163.588 382.22 163.19 381.988 162.789C373.977 144.193 363.764 131.199 354.315 122.613ZM325.428 104.831C309.881 95.1098 292.369 88.2202 273.62 84.888C274.138 84.9502 274.656 85.006 275.173 85.0548C277.89 85.3047 280.479 86.0021 283.058 86.6965C284.378 87.0521 285.696 87.4069 287.026 87.7005C290.108 88.3867 293.175 89.5275 296.216 90.6585L296.219 90.6594C296.921 90.9206 297.622 91.1813 298.321 91.4357C302.011 92.7819 305.619 94.3747 309.204 95.9573L309.638 96.1491C314.078 98.1193 318.323 100.564 322.543 102.994L322.741 103.108C323.663 103.634 324.553 104.219 325.428 104.831ZM268.044 84.0075C267.126 83.8329 266.213 83.6469 265.307 83.454C263.092 82.9882 260.912 82.9698 258.739 82.9515C258.344 82.9481 257.949 82.9448 257.554 82.9388C261.086 83.1716 264.584 83.5293 268.044 84.0075ZM254.184 82.7552C253.401 82.6568 252.629 82.5008 251.857 82.3449C251.348 82.2421 250.84 82.1394 250.329 82.0533C248.748 81.8069 247.227 82.1 245.707 82.3928C245.217 82.4872 244.727 82.5816 244.235 82.6579C245.403 82.6305 246.574 82.6167 247.748 82.6167C249.905 82.6167 252.05 82.6632 254.184 82.7552ZM240.481 82.7933C240.311 82.7868 240.141 82.7798 239.971 82.7728C238.439 82.7097 236.917 82.6471 235.463 82.9204C234.037 83.1894 232.589 83.3578 231.145 83.5257C230.068 83.6509 228.994 83.7758 227.933 83.942C232.063 83.3849 236.249 82.9996 240.481 82.7933ZM265.671 378.48C265.891 378.83 266.099 379.188 266.298 379.553L265.599 380.137L265.671 378.48Z"/>
</mask>
<path fill-rule="evenodd" clip-rule="evenodd" d="M354.315 122.613C348.842 117.091 343.068 111.883 336.692 107.288C331.112 103.264 325.397 99.484 319.437 96.1268C315.831 94.0879 312.048 92.3588 308.259 90.6272L308.258 90.6268C306.676 89.904 305.093 89.1806 303.522 88.4342C303.357 88.3637 303.161 88.3553 302.96 88.3466C302.78 88.3389 302.597 88.331 302.428 88.2786C300.639 87.7122 298.85 87.1305 297.059 86.5482L297.055 86.547C293.574 85.4152 290.087 84.2812 286.58 83.2539C282.852 82.1645 279.057 81.1862 275.218 80.6304C274.57 80.5298 273.925 80.4008 273.281 80.272C272.217 80.059 271.155 79.8464 270.084 79.7633C269.689 79.7301 269.294 79.7029 268.901 79.6758C267.449 79.5759 266.001 79.4763 264.526 79.0741C263.326 78.7445 262.033 78.8135 260.731 78.8831C259.924 78.9262 259.114 78.9694 258.32 78.9184C257.042 78.838 255.772 78.6607 254.505 78.4837C253.67 78.3672 252.837 78.2508 252.003 78.1625C249.031 77.8407 246.089 78.1746 243.146 78.5086C241.006 78.7515 238.865 78.9945 236.713 78.9851C234.51 78.9851 232.306 79.2139 230.103 79.4427C229.159 79.5407 228.215 79.6388 227.271 79.7188C227.216 79.7279 227.15 79.7221 227.088 79.7167C226.998 79.7088 226.917 79.7017 226.891 79.741C226.072 80.7541 225.034 80.6694 223.981 80.5835C223.255 80.5242 222.521 80.4643 221.846 80.7638C220.217 81.4975 218.342 81.8532 216.534 82.0088C215.125 82.1349 213.796 82.5068 212.465 82.8789C211.919 83.0317 211.372 83.1847 210.819 83.3206C209.622 83.6188 208.442 83.9805 207.264 84.3419C206.597 84.5464 205.931 84.7508 205.261 84.9436C203.409 85.4669 201.611 86.1364 199.822 86.8027C198.571 87.2687 197.323 87.7335 196.065 88.1452C192.51 89.3193 189.147 90.8751 185.784 92.4309L185.782 92.4317C185.006 92.7904 184.231 93.1493 183.453 93.5033C178.811 95.6148 174.543 98.3523 170.269 101.093C169.323 101.7 168.377 102.307 167.426 102.908C163.118 105.62 159.077 108.6 155.126 111.69C152.212 113.981 149.541 116.56 146.873 119.138C145.761 120.212 144.648 121.287 143.519 122.34C143.232 122.611 142.965 122.918 142.698 123.224C142.178 123.822 141.661 124.417 140.997 124.741C140.49 124.984 140.307 125.498 140.129 125.997C139.883 126.686 139.647 127.347 138.586 127.231C138.109 128.585 137.123 129.501 136.134 130.418C135.547 130.963 134.961 131.507 134.479 132.144C133.701 133.18 132.975 134.256 132.249 135.33C131.184 136.908 130.12 138.484 128.898 139.926C126.092 143.224 123.912 146.916 121.731 150.608C121.119 151.645 120.506 152.682 119.88 153.711C119.233 154.777 118.733 155.934 118.232 157.091C117.679 158.369 117.126 159.647 116.376 160.803C114.858 163.16 113.697 165.672 112.626 168.207L112.581 168.313C111.725 170.346 110.85 172.424 110.148 174.565C108.987 178.1 107.849 181.658 106.8 185.237C105.326 190.262 104.054 195.286 103.139 200.444C103.019 201.106 102.945 201.791 102.871 202.47C102.74 203.684 102.61 204.879 102.224 205.892C101.812 206.966 101.779 207.977 101.747 208.977C101.729 209.55 101.71 210.119 101.621 210.694C101.539 211.22 101.44 211.746 101.341 212.272C101.142 213.324 100.944 214.377 100.884 215.43C100.807 217.122 100.826 218.825 100.845 220.531C100.853 221.291 100.862 222.051 100.862 222.811V230.192C100.862 231.06 100.859 231.926 100.857 232.79L100.857 232.793C100.852 234.519 100.847 236.241 100.862 237.974C100.884 240.353 100.929 242.687 101.532 245.066C101.904 246.564 101.998 248.151 102.092 249.742C102.139 250.535 102.186 251.33 102.268 252.114C102.42 253.544 102.76 254.943 103.1 256.339C103.611 258.437 104.121 260.53 103.987 262.719C104.761 264.156 105.092 265.733 105.422 267.308C105.787 269.047 106.151 270.784 107.112 272.324C108.05 278.727 110.728 284.597 113.451 290.311L114.689 292.92C119.912 303.944 120.116 304.373 128.184 315.723C128.825 317.827 130.236 319.382 131.648 320.937C132.399 321.765 133.151 322.593 133.787 323.505C135.45 325.904 137.523 328.027 139.585 330.138C139.93 330.49 140.275 330.844 140.617 331.197C142.719 333.383 144.884 335.515 147.048 337.646C148.031 338.615 149.016 339.585 149.992 340.557C150.058 340.622 150.122 340.688 150.187 340.755L150.238 340.809L150.297 340.87L150.366 340.942C150.413 340.992 150.46 341.042 150.507 341.092C150.88 341.488 151.252 341.882 151.666 342.203C153.562 343.653 155.467 345.095 157.372 346.538L157.383 346.545C159.826 348.395 162.271 350.246 164.702 352.119C167.076 353.952 167.95 353.964 170.042 351.826C172.37 353.283 174.741 354.675 177.155 356.002C175.871 356.69 174.578 357.362 173.276 358.01L172.157 358.563C167.576 360.83 162.989 363.099 158.097 364.702C156.382 365.272 154.753 366.11 153.129 366.945L153.128 366.946C152.28 367.382 151.432 367.819 150.574 368.215C147.561 369.594 145.954 371.817 146.088 375.241C146.123 376.107 146.124 376.975 146.125 377.843C146.128 380.249 146.131 382.654 146.869 385.023C147.337 386.524 147.737 388.049 148.136 389.574L148.137 389.575C148.595 391.324 149.054 393.073 149.615 394.784C151.557 400.72 153.61 406.612 155.686 412.504C156.422 414.537 157.263 416.555 158.099 418.558C158.277 418.985 158.456 419.414 158.633 419.84C158.99 420.663 159.548 421.241 160.619 421.286C164.057 421.397 167.561 421.464 170.798 420.352C177.048 418.24 183.231 415.861 189.191 412.97C192.231 411.487 195.197 409.877 198.157 408.27L199.124 407.746L200.034 407.254C203.882 405.174 207.723 403.098 211.468 400.831C211.873 400.591 212.254 400.331 212.634 400.072L212.635 400.071C213.451 399.515 214.258 398.964 215.263 398.63C216.156 398.334 216.61 396.929 216.462 395.812C217.566 395.286 218.547 394.834 219.379 394.467C220.828 398.072 223.149 401.223 226.536 403.521C229.147 405.3 232.094 406.634 235.487 406.412C236.7 406.342 237.922 406.36 239.142 406.377H239.146L239.151 406.377C239.88 406.387 240.609 406.398 241.335 406.389C241.57 406.384 241.813 406.389 242.058 406.393C242.857 406.408 243.677 406.424 244.326 406.1C244.815 405.857 245.158 405.29 245.519 404.692C245.685 404.418 245.855 404.136 246.045 403.877C246.692 404.582 247.324 405.275 247.946 405.957C249.148 407.274 250.315 408.554 251.492 409.813C252.072 410.436 252.786 410.792 253.657 411.147C255.472 411.897 257.307 411.85 259.143 411.802C260.083 411.778 261.023 411.754 261.96 411.837C264.639 412.059 266.737 410.769 268.635 409.146C269.164 408.697 269.563 408.085 269.93 407.522C270.089 407.278 270.243 407.043 270.398 406.834C271.321 407.402 272.188 407.947 273.02 408.47L273.026 408.474C274.929 409.67 276.649 410.752 278.434 411.725C281.001 413.104 283.858 412.948 286.537 412.303C291.492 411.125 295.041 408.035 297.162 403.277C297.453 403.277 297.748 403.271 298.045 403.265L298.048 403.265C298.755 403.251 299.476 403.237 300.198 403.299C302.742 403.521 305.376 403.455 307.542 402.21C308.516 401.658 309.533 401.233 310.551 400.807C311.749 400.307 312.948 399.806 314.082 399.097C316.671 397.452 319.194 395.762 321.716 394.006L322.315 393.588C325.397 391.44 328.473 389.297 331.136 386.624C333.346 384.401 335.556 382.2 337.765 380.021C341.359 376.486 344.64 372.729 347.163 368.349C347.363 368.002 347.552 367.639 347.743 367.275C348.297 366.213 348.86 365.136 349.708 364.391C350.384 363.785 351.283 363.448 352.189 363.108C352.776 362.887 353.368 362.665 353.904 362.368C356.273 361.055 358.822 360.23 361.369 359.407L361.389 359.4L361.394 359.399L361.399 359.397C361.818 359.262 362.237 359.126 362.654 358.989L362.961 358.888C368.014 357.232 373.042 355.585 377.855 353.297C378.186 353.136 378.504 352.947 378.821 352.758C379.339 352.45 379.855 352.142 380.422 351.963C384.485 350.651 388.146 348.561 391.784 346.405C391.981 346.288 392.194 346.173 392.411 346.055L392.414 346.054C393.233 345.61 394.114 345.133 394.396 344.448C394.627 343.898 395.11 343.771 395.593 343.644C396.183 343.488 396.773 343.333 396.896 342.403C396.988 341.76 397.629 341.181 398.296 340.579C398.599 340.305 398.908 340.026 399.173 339.735C398.945 338.871 398.962 337.987 398.979 337.081C398.999 336.028 399.019 334.943 398.659 333.821C397.652 330.656 396.003 327.859 394.358 325.067L394.357 325.066C393.379 323.405 392.402 321.746 391.561 320.014C390.348 317.531 388.859 315.178 387.368 312.823L387.368 312.821C386.389 311.276 385.409 309.727 384.507 308.141C383.324 306.074 382.141 304.028 380.311 302.494C379.08 301.456 377.733 300.84 376.322 300.595C377.691 297.921 379.146 294.778 380.612 291.227C382.261 291.117 383.584 290.716 383.546 288.443C384.971 286.272 385.793 283.849 386.613 281.429L386.614 281.426C387.104 279.981 387.593 278.537 388.211 277.149C388.968 275.459 389.488 273.716 390.008 271.974C390.378 270.736 390.748 269.496 391.202 268.278C391.814 266.628 392.129 264.902 392.446 263.168C392.718 261.676 392.992 260.177 393.457 258.717C393.903 257.317 394.439 255.56 394.283 254.048C394.177 253.052 394.449 252.168 394.717 251.296C394.958 250.514 395.195 249.743 395.153 248.913C395.086 247.29 395.064 245.644 395.934 244.177C395.624 241.573 395.952 239.008 396.28 236.443V236.442C396.565 234.211 396.851 231.98 396.716 229.725C396.624 228.22 396.655 226.709 396.685 225.198V225.196C396.744 222.267 396.803 219.333 395.979 216.43C395.676 215.404 395.734 214.345 395.793 213.267C395.865 211.964 395.938 210.632 395.376 209.293C394.943 208.283 394.96 207.178 394.977 206.05C394.996 204.794 395.016 203.508 394.416 202.29C394.168 201.775 394.176 201.202 394.185 200.602C394.196 199.855 394.207 199.065 393.724 198.288C393.223 197.508 393.14 196.421 393.057 195.351C393.022 194.896 392.987 194.444 392.921 194.019C392.523 191.407 391.732 188.898 390.942 186.39C390.09 183.69 389.239 180.991 388.881 178.167C387.422 175.914 386.549 173.408 385.674 170.897C384.847 168.527 384.02 166.152 382.698 163.982C382.456 163.588 382.22 163.19 381.988 162.789C373.977 144.193 363.764 131.199 354.315 122.613ZM325.428 104.831C309.881 95.1098 292.369 88.2202 273.62 84.888C274.138 84.9502 274.656 85.006 275.173 85.0548C277.89 85.3047 280.479 86.0021 283.058 86.6965C284.378 87.0521 285.696 87.4069 287.026 87.7005C290.108 88.3867 293.175 89.5275 296.216 90.6585L296.219 90.6594C296.921 90.9206 297.622 91.1813 298.321 91.4357C302.011 92.7819 305.619 94.3747 309.204 95.9573L309.638 96.1491C314.078 98.1193 318.323 100.564 322.543 102.994L322.741 103.108C323.663 103.634 324.553 104.219 325.428 104.831ZM268.044 84.0075C267.126 83.8329 266.213 83.6469 265.307 83.454C263.092 82.9882 260.912 82.9698 258.739 82.9515C258.344 82.9481 257.949 82.9448 257.554 82.9388C261.086 83.1716 264.584 83.5293 268.044 84.0075ZM254.184 82.7552C253.401 82.6568 252.629 82.5008 251.857 82.3449C251.348 82.2421 250.84 82.1394 250.329 82.0533C248.748 81.8069 247.227 82.1 245.707 82.3928C245.217 82.4872 244.727 82.5816 244.235 82.6579C245.403 82.6305 246.574 82.6167 247.748 82.6167C249.905 82.6167 252.05 82.6632 254.184 82.7552ZM240.481 82.7933C240.311 82.7868 240.141 82.7798 239.971 82.7728C238.439 82.7097 236.917 82.6471 235.463 82.9204C234.037 83.1894 232.589 83.3578 231.145 83.5257C230.068 83.6509 228.994 83.7758 227.933 83.942C232.063 83.3849 236.249 82.9996 240.481 82.7933ZM265.671 378.48C265.891 378.83 266.099 379.188 266.298 379.553L265.599 380.137L265.671 378.48Z" fill="white"/>
<path fill-rule="evenodd" clip-rule="evenodd" d="M354.315 122.613C348.842 117.091 343.068 111.883 336.692 107.288C331.112 103.264 325.397 99.484 319.437 96.1268C315.831 94.0879 312.048 92.3588 308.259 90.6272L308.258 90.6268C306.676 89.904 305.093 89.1806 303.522 88.4342C303.357 88.3637 303.161 88.3553 302.96 88.3466C302.78 88.3389 302.597 88.331 302.428 88.2786C300.639 87.7122 298.85 87.1305 297.059 86.5482L297.055 86.547C293.574 85.4152 290.087 84.2812 286.58 83.2539C282.852 82.1645 279.057 81.1862 275.218 80.6304C274.57 80.5298 273.925 80.4008 273.281 80.272C272.217 80.059 271.155 79.8464 270.084 79.7633C269.689 79.7301 269.294 79.7029 268.901 79.6758C267.449 79.5759 266.001 79.4763 264.526 79.0741C263.326 78.7445 262.033 78.8135 260.731 78.8831C259.924 78.9262 259.114 78.9694 258.32 78.9184C257.042 78.838 255.772 78.6607 254.505 78.4837C253.67 78.3672 252.837 78.2508 252.003 78.1625C249.031 77.8407 246.089 78.1746 243.146 78.5086C241.006 78.7515 238.865 78.9945 236.713 78.9851C234.51 78.9851 232.306 79.2139 230.103 79.4427C229.159 79.5407 228.215 79.6388 227.271 79.7188C227.216 79.7279 227.15 79.7221 227.088 79.7167C226.998 79.7088 226.917 79.7017 226.891 79.741C226.072 80.7541 225.034 80.6694 223.981 80.5835C223.255 80.5242 222.521 80.4643 221.846 80.7638C220.217 81.4975 218.342 81.8532 216.534 82.0088C215.125 82.1349 213.796 82.5068 212.465 82.8789C211.919 83.0317 211.372 83.1847 210.819 83.3206C209.622 83.6188 208.442 83.9805 207.264 84.3419C206.597 84.5464 205.931 84.7508 205.261 84.9436C203.409 85.4669 201.611 86.1364 199.822 86.8027C198.571 87.2687 197.323 87.7335 196.065 88.1452C192.51 89.3193 189.147 90.8751 185.784 92.4309L185.782 92.4317C185.006 92.7904 184.231 93.1493 183.453 93.5033C178.811 95.6148 174.543 98.3523 170.269 101.093C169.323 101.7 168.377 102.307 167.426 102.908C163.118 105.62 159.077 108.6 155.126 111.69C152.212 113.981 149.541 116.56 146.873 119.138C145.761 120.212 144.648 121.287 143.519 122.34C143.232 122.611 142.965 122.918 142.698 123.224C142.178 123.822 141.661 124.417 140.997 124.741C140.49 124.984 140.307 125.498 140.129 125.997C139.883 126.686 139.647 127.347 138.586 127.231C138.109 128.585 137.123 129.501 136.134 130.418C135.547 130.963 134.961 131.507 134.479 132.144C133.701 133.18 132.975 134.256 132.249 135.33C131.184 136.908 130.12 138.484 128.898 139.926C126.092 143.224 123.912 146.916 121.731 150.608C121.119 151.645 120.506 152.682 119.88 153.711C119.233 154.777 118.733 155.934 118.232 157.091C117.679 158.369 117.126 159.647 116.376 160.803C114.858 163.16 113.697 165.672 112.626 168.207L112.581 168.313C111.725 170.346 110.85 172.424 110.148 174.565C108.987 178.1 107.849 181.658 106.8 185.237C105.326 190.262 104.054 195.286 103.139 200.444C103.019 201.106 102.945 201.791 102.871 202.47C102.74 203.684 102.61 204.879 102.224 205.892C101.812 206.966 101.779 207.977 101.747 208.977C101.729 209.55 101.71 210.119 101.621 210.694C101.539 211.22 101.44 211.746 101.341 212.272C101.142 213.324 100.944 214.377 100.884 215.43C100.807 217.122 100.826 218.825 100.845 220.531C100.853 221.291 100.862 222.051 100.862 222.811V230.192C100.862 231.06 100.859 231.926 100.857 232.79L100.857 232.793C100.852 234.519 100.847 236.241 100.862 237.974C100.884 240.353 100.929 242.687 101.532 245.066C101.904 246.564 101.998 248.151 102.092 249.742C102.139 250.535 102.186 251.33 102.268 252.114C102.42 253.544 102.76 254.943 103.1 256.339C103.611 258.437 104.121 260.53 103.987 262.719C104.761 264.156 105.092 265.733 105.422 267.308C105.787 269.047 106.151 270.784 107.112 272.324C108.05 278.727 110.728 284.597 113.451 290.311L114.689 292.92C119.912 303.944 120.116 304.373 128.184 315.723C128.825 317.827 130.236 319.382 131.648 320.937C132.399 321.765 133.151 322.593 133.787 323.505C135.45 325.904 137.523 328.027 139.585 330.138C139.93 330.49 140.275 330.844 140.617 331.197C142.719 333.383 144.884 335.515 147.048 337.646C148.031 338.615 149.016 339.585 149.992 340.557C150.058 340.622 150.122 340.688 150.187 340.755L150.238 340.809L150.297 340.87L150.366 340.942C150.413 340.992 150.46 341.042 150.507 341.092C150.88 341.488 151.252 341.882 151.666 342.203C153.562 343.653 155.467 345.095 157.372 346.538L157.383 346.545C159.826 348.395 162.271 350.246 164.702 352.119C167.076 353.952 167.95 353.964 170.042 351.826C172.37 353.283 174.741 354.675 177.155 356.002C175.871 356.69 174.578 357.362 173.276 358.01L172.157 358.563C167.576 360.83 162.989 363.099 158.097 364.702C156.382 365.272 154.753 366.11 153.129 366.945L153.128 366.946C152.28 367.382 151.432 367.819 150.574 368.215C147.561 369.594 145.954 371.817 146.088 375.241C146.123 376.107 146.124 376.975 146.125 377.843C146.128 380.249 146.131 382.654 146.869 385.023C147.337 386.524 147.737 388.049 148.136 389.574L148.137 389.575C148.595 391.324 149.054 393.073 149.615 394.784C151.557 400.72 153.61 406.612 155.686 412.504C156.422 414.537 157.263 416.555 158.099 418.558C158.277 418.985 158.456 419.414 158.633 419.84C158.99 420.663 159.548 421.241 160.619 421.286C164.057 421.397 167.561 421.464 170.798 420.352C177.048 418.24 183.231 415.861 189.191 412.97C192.231 411.487 195.197 409.877 198.157 408.27L199.124 407.746L200.034 407.254C203.882 405.174 207.723 403.098 211.468 400.831C211.873 400.591 212.254 400.331 212.634 400.072L212.635 400.071C213.451 399.515 214.258 398.964 215.263 398.63C216.156 398.334 216.61 396.929 216.462 395.812C217.566 395.286 218.547 394.834 219.379 394.467C220.828 398.072 223.149 401.223 226.536 403.521C229.147 405.3 232.094 406.634 235.487 406.412C236.7 406.342 237.922 406.36 239.142 406.377H239.146L239.151 406.377C239.88 406.387 240.609 406.398 241.335 406.389C241.57 406.384 241.813 406.389 242.058 406.393C242.857 406.408 243.677 406.424 244.326 406.1C244.815 405.857 245.158 405.29 245.519 404.692C245.685 404.418 245.855 404.136 246.045 403.877C246.692 404.582 247.324 405.275 247.946 405.957C249.148 407.274 250.315 408.554 251.492 409.813C252.072 410.436 252.786 410.792 253.657 411.147C255.472 411.897 257.307 411.85 259.143 411.802C260.083 411.778 261.023 411.754 261.96 411.837C264.639 412.059 266.737 410.769 268.635 409.146C269.164 408.697 269.563 408.085 269.93 407.522C270.089 407.278 270.243 407.043 270.398 406.834C271.321 407.402 272.188 407.947 273.02 408.47L273.026 408.474C274.929 409.67 276.649 410.752 278.434 411.725C281.001 413.104 283.858 412.948 286.537 412.303C291.492 411.125 295.041 408.035 297.162 403.277C297.453 403.277 297.748 403.271 298.045 403.265L298.048 403.265C298.755 403.251 299.476 403.237 300.198 403.299C302.742 403.521 305.376 403.455 307.542 402.21C308.516 401.658 309.533 401.233 310.551 400.807C311.749 400.307 312.948 399.806 314.082 399.097C316.671 397.452 319.194 395.762 321.716 394.006L322.315 393.588C325.397 391.44 328.473 389.297 331.136 386.624C333.346 384.401 335.556 382.2 337.765 380.021C341.359 376.486 344.64 372.729 347.163 368.349C347.363 368.002 347.552 367.639 347.743 367.275C348.297 366.213 348.86 365.136 349.708 364.391C350.384 363.785 351.283 363.448 352.189 363.108C352.776 362.887 353.368 362.665 353.904 362.368C356.273 361.055 358.822 360.23 361.369 359.407L361.389 359.4L361.394 359.399L361.399 359.397C361.818 359.262 362.237 359.126 362.654 358.989L362.961 358.888C368.014 357.232 373.042 355.585 377.855 353.297C378.186 353.136 378.504 352.947 378.821 352.758C379.339 352.45 379.855 352.142 380.422 351.963C384.485 350.651 388.146 348.561 391.784 346.405C391.981 346.288 392.194 346.173 392.411 346.055L392.414 346.054C393.233 345.61 394.114 345.133 394.396 344.448C394.627 343.898 395.11 343.771 395.593 343.644C396.183 343.488 396.773 343.333 396.896 342.403C396.988 341.76 397.629 341.181 398.296 340.579C398.599 340.305 398.908 340.026 399.173 339.735C398.945 338.871 398.962 337.987 398.979 337.081C398.999 336.028 399.019 334.943 398.659 333.821C397.652 330.656 396.003 327.859 394.358 325.067L394.357 325.066C393.379 323.405 392.402 321.746 391.561 320.014C390.348 317.531 388.859 315.178 387.368 312.823L387.368 312.821C386.389 311.276 385.409 309.727 384.507 308.141C383.324 306.074 382.141 304.028 380.311 302.494C379.08 301.456 377.733 300.84 376.322 300.595C377.691 297.921 379.146 294.778 380.612 291.227C382.261 291.117 383.584 290.716 383.546 288.443C384.971 286.272 385.793 283.849 386.613 281.429L386.614 281.426C387.104 279.981 387.593 278.537 388.211 277.149C388.968 275.459 389.488 273.716 390.008 271.974C390.378 270.736 390.748 269.496 391.202 268.278C391.814 266.628 392.129 264.902 392.446 263.168C392.718 261.676 392.992 260.177 393.457 258.717C393.903 257.317 394.439 255.56 394.283 254.048C394.177 253.052 394.449 252.168 394.717 251.296C394.958 250.514 395.195 249.743 395.153 248.913C395.086 247.29 395.064 245.644 395.934 244.177C395.624 241.573 395.952 239.008 396.28 236.443V236.442C396.565 234.211 396.851 231.98 396.716 229.725C396.624 228.22 396.655 226.709 396.685 225.198V225.196C396.744 222.267 396.803 219.333 395.979 216.43C395.676 215.404 395.734 214.345 395.793 213.267C395.865 211.964 395.938 210.632 395.376 209.293C394.943 208.283 394.96 207.178 394.977 206.05C394.996 204.794 395.016 203.508 394.416 202.29C394.168 201.775 394.176 201.202 394.185 200.602C394.196 199.855 394.207 199.065 393.724 198.288C393.223 197.508 393.14 196.421 393.057 195.351C393.022 194.896 392.987 194.444 392.921 194.019C392.523 191.407 391.732 188.898 390.942 186.39C390.09 183.69 389.239 180.991 388.881 178.167C387.422 175.914 386.549 173.408 385.674 170.897C384.847 168.527 384.02 166.152 382.698 163.982C382.456 163.588 382.22 163.19 381.988 162.789C373.977 144.193 363.764 131.199 354.315 122.613ZM325.428 104.831C309.881 95.1098 292.369 88.2202 273.62 84.888C274.138 84.9502 274.656 85.006 275.173 85.0548C277.89 85.3047 280.479 86.0021 283.058 86.6965C284.378 87.0521 285.696 87.4069 287.026 87.7005C290.108 88.3867 293.175 89.5275 296.216 90.6585L296.219 90.6594C296.921 90.9206 297.622 91.1813 298.321 91.4357C302.011 92.7819 305.619 94.3747 309.204 95.9573L309.638 96.1491C314.078 98.1193 318.323 100.564 322.543 102.994L322.741 103.108C323.663 103.634 324.553 104.219 325.428 104.831ZM268.044 84.0075C267.126 83.8329 266.213 83.6469 265.307 83.454C263.092 82.9882 260.912 82.9698 258.739 82.9515C258.344 82.9481 257.949 82.9448 257.554 82.9388C261.086 83.1716 264.584 83.5293 268.044 84.0075ZM254.184 82.7552C253.401 82.6568 252.629 82.5008 251.857 82.3449C251.348 82.2421 250.84 82.1394 250.329 82.0533C248.748 81.8069 247.227 82.1 245.707 82.3928C245.217 82.4872 244.727 82.5816 244.235 82.6579C245.403 82.6305 246.574 82.6167 247.748 82.6167C249.905 82.6167 252.05 82.6632 254.184 82.7552ZM240.481 82.7933C240.311 82.7868 240.141 82.7798 239.971 82.7728C238.439 82.7097 236.917 82.6471 235.463 82.9204C234.037 83.1894 232.589 83.3578 231.145 83.5257C230.068 83.6509 228.994 83.7758 227.933 83.942C232.063 83.3849 236.249 82.9996 240.481 82.7933ZM265.671 378.48C265.891 378.83 266.099 379.188 266.298 379.553L265.599 380.137L265.671 378.48Z" stroke="white" stroke-width="48" stroke-linejoin="round" mask="url(#path-1-outside-1_2464_6131)"/>
</g>
<ellipse cx="247.748" cy="228.649" rx="146.302" ry="145.72" fill="#ACD7FF"/>
<path d="M221.199 287.209C239.877 274.058 260.244 281.195 268.093 286.407L252.998 294.626L244.948 300.038C253.2 314.071 246.156 323.492 231.866 326.299C217.577 329.105 197.853 303.647 221.199 287.209Z" fill="#BE774F"/>
<path d="M304.894 311.352L308.532 297.581H317.992L326.24 300.722L335.214 310.386L342.006 314.493L373.297 302.655H378.39L397.31 338.411C384.697 348.848 361.169 356.612 350.981 359.189C342.734 373.201 323.571 392.529 312.656 398.086C303.924 402.531 298.507 400.421 296.889 398.811C297.455 400.582 296.695 405.044 289.127 408.716C281.56 412.388 273.361 407.186 270.208 404.126C268.995 405.897 265.356 409.634 260.505 410.407C255.925 411.137 249.544 404.747 246.463 400.913C245.873 401.453 243.905 402.38 239.16 403.884C228.487 407.267 219.27 393.254 218.299 382.14C217.329 371.027 224.606 363.779 231.155 364.021C236.394 364.214 242.717 369.738 245.224 372.476L252.258 368.128L259.292 370.302L265.841 374.892L265.599 380.449L273.118 374.168L279.182 372.96L288.642 374.892L289.855 372.235L293.494 364.262L297.375 361.846L302.226 361.363L312.171 365.47L311.201 354.357L309.745 346.142L307.32 339.378L309.745 329.955L306.835 319.083L304.894 311.352Z" fill="#BE774F"/>
<path d="M197.124 298.548C205.058 286.486 216.264 284.857 220.875 285.55C212.001 295.949 200.517 323.244 230.01 325.844C253.604 327.923 250.106 307.82 245.408 297.508L256.892 292.049L270.464 285.031L287.428 281.391L298.651 282.691L305.176 288.93L308.569 300.108L304.915 308.947L305.437 315.186L310.135 327.923L308.047 334.942L307.003 342.221L313.006 359.378L311.44 364.577C308.308 362.758 300.791 359.742 295.78 362.238C290.769 364.733 288.298 372.116 287.689 375.496C286.124 374.023 281.948 371.128 277.772 371.336C273.596 371.544 269.072 375.582 267.332 377.575C264.896 374.196 258.458 367.697 252.194 368.737C245.93 369.777 244.19 372.809 244.103 374.196C241.058 370.123 232.933 362.862 224.79 366.397C216.647 369.933 219.135 386.241 221.397 393.953C215.55 396.032 186.771 411.283 173.113 418.649L161.107 419.168L148.579 376.795L150.667 369.777L177.549 358.079C181.638 355.739 190.912 350.124 195.297 346.38C199.682 342.637 194.514 329.05 191.382 322.724C189.99 319.692 189.19 310.61 197.124 298.548Z" fill="#FFECE1"/>
<path d="M189.978 101.707L181.071 98.7991C123.053 131.099 106.984 182.318 106.202 203.89L114.266 208.799L123.225 209.245H138.457L140.697 213.261L146.522 220.4L158.169 226.201L168.473 227.986L177.881 222.631L183.257 213.707L191.769 198.536L205.209 188.719L219.993 184.703L226.265 174.44L217.753 161.5L211.929 144.098L204.761 112.863L189.978 101.707Z" fill="#8ADB64"/>
<path d="M318.103 144.99L333.335 109.739C346.327 113.755 375.716 134.281 389.335 184.257C402.954 234.233 385.452 284.506 374.999 303.396L337.815 312.767L340.055 294.472L343.639 278.854L344.087 270.376L347.223 265.022L350.807 256.544L353.943 248.958L351.703 241.818L348.119 237.356L342.743 232.448L336.919 230.217L327.959 229.771L317.207 232.002L311.384 235.125L302.424 236.91L292.12 236.464L285.848 234.233L282.712 228.432V220.846L284.952 208.799L290.328 202.105L300.184 189.165L303.768 180.687L304.216 167.747L308.248 155.253L318.103 144.99Z" fill="#8ADB64"/>
<path d="M166.755 289.56L170.422 284.893L173.884 282.256L181.421 279.416H189.364L197.715 285.299L206.27 290.168L199.956 296.457L194.049 302.746L191.605 313.904L192.827 329.526L193.234 336.626H186.92L182.439 332.366L179.791 327.497L172.866 324.657L168.385 322.831L165.126 316.542L162.885 310.05V305.384L163.089 299.703L165.126 296.051L166.755 289.56Z" fill="#8ADB64"/>
<path d="M147.095 308.732C111.959 242.347 130.04 182.456 143.473 160.808C125.724 203.742 145.133 259.274 157.057 281.673C147.639 287.084 146.492 301.967 147.095 308.732Z" fill="white"/>
<path d="M302.055 169.733C301.691 170.8 301.317 171.898 301.535 173.365C301.701 174.483 301.412 175.387 301.141 176.23C300.976 176.746 300.818 177.239 300.776 177.745C300.663 179.779 299.922 181.532 299.172 183.304C299.028 183.643 298.884 183.983 298.745 184.326C296.544 189.697 292.823 194.051 289.13 198.371L288.744 198.822C287.003 200.859 285.662 203.1 284.32 205.343C283.787 206.234 283.254 207.126 282.695 208.005C280.63 211.281 280.006 214.927 279.381 218.578C279.208 219.584 279.036 220.59 278.834 221.589C278.577 222.881 278.897 224.08 279.216 225.276C279.479 226.262 279.742 227.247 279.682 228.281C279.657 228.631 279.844 228.988 280.033 229.351C280.193 229.656 280.355 229.967 280.396 230.282C280.779 233.226 282.943 234.939 284.961 236.536L285.262 236.774C286.914 238.086 288.99 239.02 291.445 238.775C293.901 238.531 296.401 238.62 298.856 238.753C301.155 238.864 303.298 238.219 305.374 237.508C310.263 235.863 315.084 233.973 319.794 231.838C321.215 231.191 322.767 230.843 324.319 230.496L324.322 230.496C324.793 230.39 325.264 230.285 325.732 230.171C327.045 229.844 328.28 230.186 329.517 230.528C330.466 230.791 331.417 231.054 332.406 231.016C333.79 231.985 335.35 232.622 336.912 233.259C338.825 234.041 340.741 234.823 342.339 236.218C343.656 237.374 345.04 238.442 346.446 239.487C347.607 240.376 350.643 243.755 351.045 244.956L351.09 245.094C351.35 245.888 351.655 246.818 351.402 247.491C350.598 249.625 349.571 251.67 348.522 253.694C347.974 254.731 347.359 255.74 346.746 256.746C345.586 258.65 344.432 260.544 343.745 262.609C341.826 268.323 339.995 274.104 338.946 280.084C338.845 280.691 338.685 281.291 338.526 281.892C338.405 282.347 338.284 282.803 338.187 283.264C338.113 283.624 338.145 284.005 338.176 284.383C338.239 285.148 338.302 285.907 337.495 286.487L337.351 287.756C337.065 290.287 336.778 292.818 336.491 295.447H340.442C340.535 295.046 340.644 294.644 340.754 294.241C340.959 293.485 341.166 292.726 341.268 291.957C341.385 291.094 341.425 290.203 341.466 289.314C341.541 287.662 341.617 286.013 342.183 284.553C342.73 283.153 342.979 281.679 343.227 280.211C343.586 278.089 343.943 275.979 345.196 274.126C345.781 268.942 348.044 264.339 350.302 259.743L350.312 259.723L350.322 259.703C350.556 259.227 350.79 258.751 351.022 258.274C351.454 257.399 351.962 256.566 352.471 255.732C353.463 254.105 354.456 252.476 354.884 250.536C355.576 247.424 355.933 244.289 354.415 241.399C352.83 238.353 350.196 236.218 347.362 234.24C342.652 230.971 337.852 228.037 332.093 226.814C328.946 226.147 322.495 226.191 318.723 227.436C316.468 228.172 314.312 229.133 312.155 230.093C310.469 230.844 308.782 231.595 307.048 232.239C302.539 233.906 298.142 235.085 293.32 234.907C288.945 234.729 285.664 232.372 284.325 228.059C284.255 227.818 284.183 227.578 284.111 227.338C283.904 226.651 283.698 225.967 283.566 225.257C283.506 224.927 283.518 224.552 283.529 224.185C283.548 223.587 283.566 223.009 283.276 222.678C282.662 221.972 282.965 221.506 283.273 221.033C283.469 220.731 283.667 220.427 283.633 220.055C283.298 216.142 285.106 212.651 286.959 209.45C289.302 205.426 292.182 201.668 295.195 198.089C298.075 194.687 300.463 191.085 302.428 187.061C304.191 183.437 304.995 179.724 305.396 175.833C305.422 175.588 305.389 175.303 305.357 175.027C305.306 174.578 305.256 174.15 305.464 173.944C306.292 173.119 306.236 172.193 306.181 171.268C306.154 170.822 306.127 170.376 306.2 169.942C306.282 169.451 306.4 168.963 306.518 168.477C306.721 167.643 306.923 166.813 306.937 165.984C306.959 162.938 308.097 160.137 309.459 157.691C310.888 155.157 312.495 152.578 314.705 150.465C316.49 148.753 318.142 146.797 319.415 144.663L319.5 144.519C321.681 140.854 323.853 137.205 325.308 133.101C326.211 130.536 327.177 127.992 328.144 125.445C328.92 123.4 329.696 121.354 330.442 119.295C330.722 118.52 330.946 117.721 331.17 116.923C331.73 114.929 332.288 112.939 333.723 111.335C334.05 111.543 334.377 111.74 334.701 111.935C335.415 112.366 336.114 112.787 336.759 113.292C337.381 113.774 337.952 114.315 338.524 114.859C338.876 115.192 339.228 115.527 339.594 115.848C340.62 116.738 341.692 117.627 342.786 118.472C343.107 118.719 343.488 118.943 343.868 119.165C344.647 119.622 345.418 120.074 345.643 120.718C345.958 121.645 346.604 122.014 347.238 122.376C347.593 122.579 347.944 122.779 348.232 123.074C349.895 124.757 351.469 126.52 353.041 128.281C354.087 129.452 355.131 130.622 356.201 131.767C359.639 135.436 362.652 139.416 365.509 143.506C368.411 147.686 371.335 151.933 373.746 156.424C376.871 162.227 379.617 168.23 382.318 174.255C383.344 176.523 384.371 178.946 384.884 181.325C385.207 182.829 385.697 184.274 386.187 185.719C386.784 187.479 387.381 189.24 387.675 191.107C388.002 193.173 388.567 195.199 389.132 197.228C389.608 198.935 390.084 200.643 390.42 202.38C391.135 206.026 391.67 209.761 391.849 213.407C391.928 215.044 392.129 216.67 392.331 218.296C392.645 220.821 392.958 223.346 392.809 225.902C392.753 226.882 392.741 227.86 392.729 228.838C392.702 230.989 392.675 233.143 392.184 235.329C391.854 236.814 391.833 238.359 391.813 239.924C391.79 241.64 391.768 243.38 391.336 245.089C391.045 246.246 390.967 247.46 390.889 248.671C390.806 249.973 390.723 251.272 390.376 252.493C390.181 253.168 390.113 253.867 390.047 254.55C389.969 255.352 389.894 256.132 389.617 256.828C388.55 259.535 387.908 262.361 387.271 265.163C387.081 265.997 386.892 266.83 386.693 267.656C385.418 272.94 383.402 277.952 381.392 282.946L380.978 283.975C379.951 286.532 379.349 288.8 379.728 291.579C381.759 291.512 383.59 291.423 383.545 288.755C384.97 286.584 385.792 284.161 386.612 281.741L386.613 281.738C387.103 280.293 387.593 278.849 388.211 277.461C388.967 275.771 389.488 274.028 390.008 272.286C390.377 271.048 390.748 269.808 391.202 268.59C391.814 266.941 392.129 265.214 392.445 263.48C392.718 261.988 392.992 260.49 393.456 259.03C393.903 257.629 394.438 255.872 394.282 254.361C394.176 253.364 394.449 252.479 394.717 251.608C394.957 250.826 395.195 250.055 395.153 249.225C395.086 247.602 395.063 245.956 395.934 244.489C395.623 241.885 395.952 239.319 396.28 236.754C396.565 234.523 396.85 232.292 396.715 230.038C396.624 228.531 396.654 227.02 396.685 225.507C396.744 222.579 396.803 219.645 395.979 216.742C395.675 215.716 395.734 214.657 395.793 213.579C395.865 212.276 395.938 210.944 395.376 209.605C394.943 208.595 394.96 207.49 394.977 206.362C394.996 205.106 395.016 203.82 394.416 202.602C394.167 202.087 394.176 201.515 394.184 200.914C394.195 200.167 394.207 199.377 393.724 198.6C393.223 197.82 393.139 196.734 393.057 195.663C393.022 195.208 392.987 194.756 392.92 194.331C392.523 191.719 391.732 189.21 390.941 186.702C390.09 184.002 389.239 181.303 388.88 178.479C387.422 176.226 386.548 173.72 385.673 171.209C384.847 168.839 384.019 166.464 382.697 164.294C380.576 160.826 378.835 157.091 377.206 153.356C376.024 150.619 374.362 148.168 372.711 145.732C372.055 144.764 371.399 143.797 370.777 142.817C367.384 137.481 363.366 132.457 359.036 127.832C352.161 120.495 344.928 113.536 336.692 107.6C331.111 103.576 325.397 99.7962 319.437 96.439C315.831 94.3999 312.047 92.6706 308.257 90.9389C306.675 90.216 305.093 89.4927 303.522 88.7463C303.356 88.6759 303.16 88.6674 302.959 88.6588C302.78 88.651 302.596 88.6432 302.428 88.5907C300.637 88.024 298.847 87.4418 297.055 86.8591C293.574 85.7273 290.086 84.5934 286.579 83.566C282.851 82.4766 279.057 81.4983 275.217 80.9425C274.569 80.8419 273.924 80.7129 273.28 80.584C272.216 80.371 271.154 80.1585 270.083 80.0754C269.688 80.0422 269.294 80.0151 268.9 79.988C267.448 79.888 266 79.7884 264.525 79.3862C263.326 79.0566 262.033 79.1257 260.73 79.1952C259.924 79.2383 259.114 79.2816 258.32 79.2306C257.041 79.1501 255.771 78.9728 254.504 78.7959C253.669 78.6793 252.836 78.5629 252.003 78.4746C249.031 78.1529 246.088 78.4868 243.146 78.8208C241.005 79.0637 238.865 79.3066 236.712 79.2973C234.509 79.2973 232.306 79.526 230.103 79.7548C229.159 79.8529 228.214 79.9509 227.27 80.031C227.215 80.0401 227.149 80.0342 227.087 80.0288C226.998 80.0209 226.917 80.0138 226.891 80.0532C226.072 81.0662 225.034 80.9815 223.981 80.8956C223.254 80.8363 222.52 80.7764 221.846 81.0759C220.216 81.8096 218.341 82.1653 216.533 82.321C215.125 82.447 213.795 82.8189 212.464 83.191C211.918 83.3438 211.371 83.4968 210.819 83.6327C209.621 83.9309 208.442 84.2926 207.263 84.6541C206.597 84.8585 205.93 85.0629 205.261 85.2557C203.409 85.779 201.611 86.4485 199.822 87.1149C198.57 87.5809 197.323 88.0456 196.064 88.4573C192.509 89.6315 189.146 91.1872 185.783 92.743C185.007 93.102 184.231 93.4611 183.452 93.8155C178.81 95.927 174.542 98.6644 170.269 101.405C169.323 102.012 168.376 102.62 167.425 103.22C163.117 105.933 159.077 108.912 155.126 112.002C152.211 114.293 149.541 116.872 146.872 119.45C145.76 120.524 144.648 121.599 143.519 122.652C143.231 122.923 142.964 123.23 142.698 123.537C142.178 124.134 141.66 124.73 140.996 125.053C140.49 125.296 140.306 125.81 140.128 126.309C139.882 126.998 139.647 127.659 138.585 127.543C138.109 128.897 137.122 129.813 136.133 130.731C135.547 131.275 134.96 131.819 134.478 132.457C133.701 133.492 132.974 134.568 132.249 135.642C131.183 137.221 130.12 138.796 128.898 140.238C126.092 143.536 123.912 147.228 121.731 150.921C121.118 151.957 120.506 152.994 119.88 154.023C119.233 155.089 118.732 156.246 118.231 157.403C117.678 158.682 117.125 159.96 116.375 161.115C114.857 163.472 113.696 165.984 112.625 168.519L112.58 168.625C111.724 170.658 110.849 172.736 110.147 174.877C108.987 178.412 107.848 181.97 106.799 185.549C105.326 190.574 104.053 195.599 103.138 200.757C103.018 201.418 102.944 202.103 102.871 202.782C102.739 203.996 102.61 205.191 102.223 206.204C101.812 207.278 101.779 208.289 101.747 209.289C101.728 209.862 101.71 210.431 101.62 211.006C101.539 211.532 101.439 212.058 101.34 212.585C101.142 213.637 100.943 214.69 100.884 215.742C100.807 217.434 100.826 219.137 100.845 220.844C100.853 221.603 100.861 222.363 100.861 223.123V230.504C100.861 231.372 100.859 232.238 100.857 233.102C100.852 234.829 100.847 236.553 100.861 238.286C100.884 240.665 100.928 242.999 101.531 245.378C101.903 246.876 101.998 248.464 102.092 250.054C102.139 250.847 102.186 251.642 102.268 252.426C102.419 253.857 102.76 255.255 103.1 256.651C103.611 258.749 104.121 260.842 103.987 263.031C104.761 264.468 105.091 266.045 105.422 267.62C105.787 269.359 106.151 271.096 107.112 272.636C108.049 279.039 110.728 284.909 113.451 290.623L114.689 293.233C119.912 304.256 120.115 304.685 128.183 316.035C128.824 318.139 130.235 319.694 131.647 321.249C132.399 322.077 133.15 322.905 133.786 323.817C135.45 326.217 137.523 328.339 139.585 330.45C139.93 330.803 140.275 331.156 140.617 331.509C142.719 333.695 144.884 335.828 147.047 337.958C148.031 338.927 149.015 339.897 149.992 340.87C150.057 340.935 150.122 341 150.186 341.067C150.294 341.178 150.4 341.291 150.507 341.404C150.88 341.8 151.252 342.194 151.666 342.515C153.562 343.965 155.466 345.407 157.372 346.85L157.382 346.857C159.826 348.707 162.271 350.558 164.702 352.431C167.09 354.276 167.961 354.276 170.081 352.097C170.182 351.997 170.237 351.84 170.317 351.611C170.334 351.562 170.352 351.511 170.371 351.456C170.403 351.367 170.439 351.27 170.483 351.163C170.318 350.999 170.151 350.818 169.979 350.631C169.591 350.211 169.176 349.761 168.698 349.407C167.305 348.364 165.889 347.347 164.474 346.329L164.471 346.327C161.872 344.458 159.271 342.587 156.8 340.558C153.162 337.557 149.724 334.266 146.353 330.954C144.739 329.38 143.283 327.661 141.833 325.95C141.399 325.437 140.965 324.925 140.527 324.417C139.746 323.508 138.941 322.612 138.136 321.716C136.069 319.415 134 317.112 132.313 314.568C128.161 308.298 124.032 302.028 120.639 295.292C117.714 289.511 115.147 283.575 112.938 277.483C112.302 275.736 111.812 273.947 111.322 272.159C110.951 270.807 110.58 269.453 110.147 268.123C109.299 265.477 108.496 262.765 108.049 260.097C107.858 258.981 107.581 257.874 107.303 256.765C106.707 254.384 106.109 251.994 106.353 249.492C105.507 248.493 105.54 247.352 105.574 246.208C105.588 245.721 105.602 245.233 105.549 244.756C105.47 244.079 105.345 243.406 105.22 242.734C105.03 241.705 104.839 240.678 104.812 239.642C104.701 235.507 104.678 231.349 104.812 227.214C104.852 225.971 104.827 224.729 104.802 223.486C104.742 220.549 104.682 217.612 105.482 214.675C105.75 213.711 105.77 212.696 105.792 211.661C105.817 210.452 105.842 209.215 106.263 208.005C106.595 207.037 106.664 205.977 106.733 204.918C106.803 203.837 106.873 202.757 107.223 201.779C107.695 200.473 107.933 199.128 108.169 197.795L108.169 197.792C108.29 197.107 108.411 196.426 108.563 195.754C109.331 192.352 110.372 189.059 111.413 185.764C112.004 183.891 112.596 182.018 113.138 180.124C113.998 177.106 115.261 174.272 116.524 171.441C117.065 170.228 117.607 169.012 118.116 167.785C120.661 161.649 124.098 155.935 127.625 150.332C131.777 143.751 136.331 137.348 141.688 131.678C146.376 126.743 151.063 121.829 156.398 117.494C161.532 113.336 166.666 109.267 172.247 105.755C175.841 103.487 179.501 101.352 183.229 99.3293C183.996 98.9167 184.762 98.4965 185.528 98.0759C188.685 96.3435 191.853 94.6052 195.194 93.3708C200.261 91.5032 205.439 89.7913 210.663 88.2572C213.349 87.4731 216.071 86.8841 218.792 86.2951C220.932 85.8321 223.072 85.3688 225.194 84.8111C227.119 84.3058 229.128 84.0723 231.144 83.8379C232.589 83.67 234.037 83.5016 235.462 83.2325C236.916 82.9592 238.438 83.0219 239.97 83.0849C240.931 83.1245 241.896 83.1642 242.851 83.1213C243.811 83.0701 244.758 82.8876 245.707 82.7049C247.226 82.4121 248.748 82.119 250.329 82.3654C250.84 82.4516 251.348 82.5543 251.856 82.657C252.791 82.8459 253.727 83.0349 254.681 83.1213C256.035 83.2408 257.385 83.2522 258.739 83.2636C260.911 83.2819 263.092 83.3003 265.306 83.7661C268.543 84.4553 271.869 85.0556 275.173 85.3669C277.889 85.6169 280.479 86.3142 283.057 87.0086C284.378 87.3642 285.695 87.719 287.026 88.0126C290.108 88.6988 293.175 89.8397 296.216 90.9707L296.218 90.9716C296.92 91.2327 297.621 91.4934 298.32 91.7478C302.011 93.0941 305.618 94.6868 309.203 96.2694L309.638 96.4612C314.077 98.4314 318.322 100.876 322.543 103.306L322.741 103.42C324.43 104.384 326.014 105.548 327.595 106.709C328.311 107.235 329.026 107.761 329.75 108.267C329.612 108.428 329.471 108.563 329.344 108.686C329.12 108.901 328.936 109.077 328.879 109.29C327.881 113.384 326.436 117.359 324.997 121.319C324.795 121.875 324.593 122.43 324.392 122.985C322.718 127.61 320.91 132.168 318.745 136.592C317.227 139.705 315.33 142.528 313.098 145.152C312.844 145.44 312.631 145.837 312.425 146.221C312.108 146.814 311.808 147.374 311.401 147.442C310.357 147.592 310.062 148.265 309.778 148.91C309.643 149.217 309.511 149.518 309.303 149.754C306.446 152.978 304.414 156.713 303.477 160.937C303.356 161.503 303.332 162.105 303.308 162.7C303.27 163.649 303.232 164.579 302.807 165.317C302.361 166.088 302.385 166.82 302.409 167.532C302.425 168.032 302.441 168.522 302.294 169.008C302.219 169.251 302.137 169.491 302.055 169.733Z" fill="#515151"/>
<path fill-rule="evenodd" clip-rule="evenodd" d="M205.465 287.192C204.482 287.979 203.492 288.77 202.383 289.422C201.494 290.424 200.557 291.359 199.624 292.29C197.7 294.212 195.79 296.119 194.347 298.56C193.493 299.935 192.694 301.346 191.897 302.753L191.894 302.758C191.442 303.556 190.99 304.353 190.53 305.141C189.522 306.867 189.192 308.715 188.865 310.544C188.729 311.306 188.593 312.066 188.409 312.811C187.427 316.769 188.276 321.015 189.302 324.817C189.881 326.935 190.525 329.047 191.169 331.164C191.892 333.537 192.616 335.916 193.253 338.313C193.331 338.6 193.41 338.888 193.49 339.176L193.491 339.182C193.822 340.383 194.154 341.586 194.369 342.804C194.428 343.132 194.114 343.562 193.856 343.917L193.842 343.936C193.808 343.983 193.775 344.028 193.744 344.071C193.626 344.234 193.51 344.399 193.395 344.565C193.275 344.739 193.155 344.914 193.036 345.089C192.43 345.978 191.823 346.867 191.066 347.606C189.816 348.829 188.432 349.941 186.936 350.808C182.427 353.409 177.918 356.01 173.275 358.322C172.902 358.507 172.529 358.691 172.156 358.876C167.575 361.142 162.988 363.411 158.096 365.015C156.381 365.584 154.753 366.422 153.129 367.258C152.28 367.694 151.432 368.131 150.574 368.527C147.56 369.906 145.953 372.129 146.087 375.553C146.123 376.419 146.124 377.287 146.125 378.155C146.128 380.561 146.13 382.966 146.869 385.336C147.336 386.836 147.736 388.361 148.136 389.886C148.595 391.635 149.054 393.385 149.614 395.096C151.556 401.032 153.61 406.924 155.686 412.816C156.421 414.849 157.263 416.867 158.098 418.87C158.277 419.298 158.455 419.726 158.632 420.153C158.989 420.975 159.547 421.553 160.619 421.598C164.056 421.709 167.561 421.776 170.798 420.664C177.048 418.552 183.231 416.173 189.191 413.283C192.23 411.799 195.197 410.189 198.157 408.583L199.124 408.058L200.034 407.566C203.882 405.486 207.723 403.41 211.468 401.143C211.872 400.903 212.254 400.643 212.634 400.383C213.45 399.827 214.258 399.276 215.263 398.942C216.401 398.564 216.825 396.385 216.2 395.296C215.597 394.251 214.772 394.073 213.254 394.807C212.903 394.974 212.549 395.138 212.194 395.302C210.904 395.897 209.61 396.495 208.454 397.297C204.699 399.941 200.673 402.118 196.65 404.293C195.126 405.117 193.601 405.941 192.093 406.791C188.618 408.73 184.942 410.254 181.262 411.78L181.257 411.782C180.045 412.285 178.833 412.787 177.628 413.305C175.322 414.287 172.958 415.043 170.593 415.798C168.838 416.359 167.082 416.92 165.351 417.574C163.565 418.241 162.538 417.64 161.668 415.595C160.574 413.06 159.57 410.481 158.677 407.88C158.143 406.302 157.599 404.727 157.055 403.151C154.892 396.89 152.728 390.623 151.177 384.157C151.153 384.056 151.128 383.955 151.103 383.853C151.086 383.783 151.069 383.713 151.051 383.642C150.985 383.378 150.918 383.114 150.851 382.85C150.317 380.759 149.783 378.669 150.061 376.442C150.261 374.886 150.797 373.441 152.07 372.641C153.677 371.64 155.507 370.906 157.315 370.284C161.512 368.839 165.574 366.993 169.614 365.148C175.418 362.48 181.088 359.501 186.601 356.255C190.173 354.143 193.61 351.808 196.289 348.629C197.986 346.606 198.901 344.115 198.454 341.381C198.403 341.053 198.247 340.739 198.094 340.431C197.915 340.071 197.74 339.717 197.74 339.358C197.74 336.093 196.698 333.078 195.658 330.07C195.345 329.165 195.033 328.261 194.749 327.352C194.206 325.602 193.83 323.822 193.455 322.043C193.105 320.387 192.756 318.732 192.271 317.102C192.093 316.546 192.115 315.613 192.45 315.279C193.096 314.665 193.054 313.99 193.012 313.323C192.992 313 192.972 312.679 193.03 312.367C193.164 311.655 193.32 310.944 193.521 310.232C195.039 304.763 198.454 300.472 202.07 296.27C204.223 293.794 206.884 291.916 209.528 290.051C210.065 289.672 210.602 289.293 211.133 288.911C212.418 287.999 213.967 287.433 215.495 286.875C215.904 286.725 216.312 286.576 216.714 286.421C217.121 286.255 217.609 286.293 218.152 286.335C218.413 286.355 218.686 286.376 218.968 286.376C214.258 291.112 210.374 296.003 209.124 302.473C208.254 306.942 208.254 311.366 209.771 315.79C211.267 320.193 214.347 323.328 217.964 325.773C221.312 328.063 225.174 329.575 229.482 328.997C230.107 328.908 230.776 328.952 231.424 328.997C236.223 329.375 240.419 327.619 244.192 324.973C247.205 322.861 249.348 319.792 250.464 316.324C250.569 315.99 250.683 315.652 250.799 315.309L250.8 315.306C251.401 313.529 252.037 311.647 251.513 309.765C251.37 309.251 251.233 308.735 251.096 308.218C250.312 305.268 249.522 302.294 247.585 299.627C248.411 299.171 249.225 298.709 250.035 298.248L250.037 298.247C251.677 297.314 253.3 296.392 254.973 295.558C255.896 295.107 256.787 294.581 257.677 294.055C259.198 293.157 260.714 292.262 262.362 291.757C264.021 291.244 265.546 290.495 267.068 289.746C268.452 289.065 269.834 288.386 271.313 287.888C271.735 287.746 272.157 287.603 272.579 287.46C278.085 285.591 283.558 283.735 289.55 283.797C293.434 283.842 296.827 284.642 299.996 286.932C302.965 289.066 305.309 293.291 305.487 296.915C305.607 299.294 304.998 301.504 304.387 303.717C304.085 304.814 303.782 305.911 303.568 307.031C303.099 309.499 303.144 313.589 303.635 315.924C303.973 317.552 304.667 319.032 305.364 320.518C306.096 322.077 306.83 323.643 307.162 325.395L307.165 325.415C307.588 327.674 307.94 329.559 307.072 331.798C305.956 334.666 304.84 337.623 305.443 340.847C305.488 341.1 305.473 341.363 305.458 341.622C305.45 341.751 305.443 341.878 305.443 342.003C305.465 344.578 305.486 344.626 306.886 347.721L307.005 347.984C307.498 349.091 307.955 350.215 308.41 351.335L308.411 351.338L308.412 351.342L308.415 351.35C308.68 352.002 308.945 352.653 309.215 353.298C309.577 354.146 309.756 355.04 309.937 355.941C310.135 356.928 310.334 357.925 310.778 358.878C311.224 359.812 311.291 361.302 310.443 362.569C307.117 360.635 303.679 359.856 299.996 360.012C294.974 360.212 291.224 362.391 289.081 366.949C288.545 368.09 288.148 369.31 287.752 370.531C287.553 371.141 287.355 371.751 287.139 372.352C281.134 369.283 273.746 368.55 268.322 374.73C267.581 374.076 266.896 373.354 266.212 372.632C264.712 371.048 263.212 369.464 261.112 368.594C258.321 367.438 255.42 366.927 252.384 366.993C249.214 367.06 246.402 367.905 244.08 370.061C243.755 369.743 243.431 369.435 243.112 369.131C242.249 368.309 241.421 367.52 240.687 366.66C237.964 363.436 234.504 362.235 230.352 362.324C226.156 362.413 223.209 364.503 221.156 367.816C218.41 372.263 217.227 377.265 217.227 381.734C217.227 384.224 217.45 386.692 217.852 389.204C218.812 395.096 221.49 400.41 226.535 403.834C229.147 405.612 232.093 406.946 235.486 406.724C236.7 406.654 237.922 406.672 239.143 406.689H239.146C239.877 406.699 240.607 406.71 241.335 406.702C241.57 406.696 241.813 406.701 242.058 406.706C242.857 406.721 243.676 406.736 244.326 406.413C244.815 406.169 245.158 405.602 245.519 405.004C245.685 404.73 245.855 404.448 246.044 404.189C246.692 404.895 247.323 405.587 247.946 406.269C249.147 407.587 250.314 408.866 251.491 410.126C252.071 410.748 252.786 411.104 253.656 411.459C255.472 412.209 257.307 412.162 259.142 412.114C260.082 412.09 261.022 412.066 261.96 412.149C264.639 412.371 266.737 411.082 268.634 409.458C269.163 409.009 269.562 408.397 269.929 407.835C270.089 407.59 270.242 407.355 270.398 407.146C271.323 407.715 272.192 408.262 273.026 408.786C274.929 409.982 276.649 411.064 278.433 412.038C281 413.416 283.858 413.26 286.536 412.616C291.492 411.437 295.041 408.347 297.161 403.589C297.452 403.589 297.747 403.583 298.045 403.577L298.048 403.577C298.754 403.563 299.476 403.549 300.197 403.611C302.742 403.834 305.376 403.767 307.541 402.522C308.516 401.97 309.533 401.545 310.551 401.12C311.748 400.619 312.947 400.118 314.081 399.409C316.671 397.764 319.193 396.074 321.715 394.318L322.314 393.9C325.397 391.752 328.473 389.609 331.135 386.936C333.345 384.713 335.555 382.512 337.765 380.333C341.359 376.798 344.64 373.041 347.162 368.661C347.362 368.314 347.552 367.951 347.742 367.587C348.297 366.525 348.86 365.448 349.707 364.703C350.384 364.097 351.282 363.76 352.188 363.42C352.776 363.199 353.368 362.978 353.904 362.68C356.273 361.367 358.822 360.543 361.369 359.719C361.797 359.58 362.226 359.442 362.654 359.301L362.961 359.2C368.014 357.544 373.042 355.897 377.855 353.609C378.186 353.448 378.504 353.259 378.821 353.07C379.339 352.762 379.854 352.454 380.422 352.275C384.485 350.963 388.145 348.873 391.784 346.717C391.981 346.6 392.195 346.484 392.413 346.366C393.232 345.922 394.113 345.445 394.395 344.76C394.626 344.211 395.11 344.083 395.592 343.956C396.183 343.8 396.773 343.645 396.895 342.715C396.988 342.073 397.629 341.493 398.296 340.891C398.599 340.617 398.908 340.338 399.172 340.047C398.945 339.182 398.962 338.299 398.979 337.392C398.998 336.34 399.019 335.256 398.659 334.133C397.651 330.968 396.003 328.171 394.358 325.379C393.379 323.718 392.401 322.059 391.561 320.326C390.348 317.843 388.858 315.489 387.367 313.133C386.389 311.587 385.409 310.039 384.507 308.454C383.324 306.386 382.141 304.34 380.31 302.806C377.833 300.716 374.886 300.339 371.895 301.25C370.532 301.684 369.23 302.312 367.93 302.939C367.165 303.309 366.4 303.678 365.623 304.007C360.98 305.986 356.337 307.964 351.627 309.765L351.516 309.807C348.695 310.883 345.851 311.968 342.877 312.078L342.686 312.084C341.286 312.131 339.538 312.189 338.301 310.744C335.801 307.831 333.211 305.03 330.577 302.251C326.738 298.182 321.782 296.559 316.314 296.248C315.435 296.198 314.556 296.211 313.677 296.224C312.993 296.235 312.31 296.245 311.626 296.225C309.974 296.181 309.483 295.67 309.327 293.958C309.157 292.1 308.364 290.523 307.367 288.541L307.206 288.221C306.081 285.98 304.259 284.434 302.471 282.917L302.407 282.863C300.487 281.218 297.943 280.017 295.465 280.017C294.289 280.017 293.112 279.99 291.935 279.962C288.287 279.876 284.629 279.789 280.933 280.529C279.429 280.827 277.962 281.253 276.497 281.679C274.57 282.239 272.646 282.798 270.643 283.063C269.215 284.931 267.54 283.508 266.737 282.774C264.954 281.125 262.77 280.407 260.633 279.703C260.148 279.544 259.666 279.386 259.192 279.217C254.777 277.645 250.093 277.302 245.429 276.96L245.418 276.959C245.088 276.935 244.758 276.911 244.429 276.887C244.216 276.871 244.003 276.855 243.79 276.838C243.27 276.805 242.733 276.996 242.199 277.187C241.656 277.38 241.115 277.572 240.598 277.527C237.24 277.237 234.219 278.3 231.202 279.362C229.827 279.846 228.453 280.329 227.049 280.684C225.062 283.263 222.473 282.797 219.749 282.263C216.66 281.667 213.872 282.756 211.07 283.851L210.622 284.026C210.435 284.098 210.249 284.17 210.062 284.242C208.315 284.914 206.897 286.048 205.465 287.192ZM333.774 312.241C334.35 312.863 334.926 313.484 335.488 314.123C338.524 316.057 341.426 317.036 344.439 316.369C347.609 315.679 350.801 314.946 353.859 313.745C358.547 311.877 363.234 310.01 367.81 307.898C369.774 306.986 371.806 306.23 373.859 305.563C375.913 304.896 376.917 305.297 378.033 306.853C378.438 307.415 378.864 307.967 379.291 308.519C380.228 309.733 381.167 310.948 381.873 312.278C382.329 313.125 382.82 313.954 383.308 314.778C383.87 315.727 384.43 316.673 384.931 317.636C386.049 319.775 387.272 321.857 388.495 323.938C390.69 327.675 392.885 331.411 394.462 335.467C395.355 337.735 395.154 338.113 393.369 339.824C390.467 342.581 387.007 344.382 383.435 346.005C382.002 346.654 380.592 347.349 379.181 348.046C377.252 348.998 375.322 349.951 373.324 350.785C367.52 353.209 361.649 355.299 355.645 357.077C355.352 357.165 355.098 357.357 354.763 357.61C354.587 357.744 354.388 357.895 354.149 358.056C354.06 357.613 354 357.278 353.949 356.99L353.918 356.818C353.909 356.772 353.901 356.727 353.893 356.683L353.874 356.581C353.862 356.516 353.849 356.452 353.837 356.388C353.613 355.321 353.1 354.654 351.85 354.543C350.689 354.432 349.729 354.721 349.216 355.699C348.362 357.283 347.583 358.905 346.805 360.527C346.545 361.068 346.286 361.608 346.024 362.147C344.617 365.111 342.671 367.686 340.711 370.279C340.525 370.525 340.339 370.771 340.153 371.018C337.074 375.086 333.405 378.548 329.736 382.009L329.015 382.69C323.992 387.448 318.457 391.605 312.363 395.074C309.483 396.719 306.604 398.031 303.479 399.098C302.584 399.399 301.751 399.441 300.896 399.484C300.107 399.523 299.3 399.564 298.411 399.809V394.607C298.411 389.604 296.269 382.512 292.831 378.288C290.599 375.531 291.179 372.774 292.474 370.395C293.836 367.905 295.554 365.37 298.836 364.481C298.907 364.461 298.979 364.44 299.051 364.418C299.206 364.371 299.362 364.319 299.519 364.268C300.262 364.023 301.01 363.777 301.693 363.947C306.001 364.992 310.153 366.415 313.322 369.772C314.233 370.741 314.51 371.881 314.812 373.122L314.815 373.131C314.838 373.226 314.861 373.322 314.885 373.419C315.596 376.236 315.589 379.083 315.583 381.985C315.58 383.457 315.576 384.944 315.666 386.447C315.895 386.447 316.114 386.454 316.327 386.46C316.8 386.474 317.237 386.486 317.653 386.425C318.769 386.292 319.506 385.736 319.506 384.491C319.506 383.392 319.541 382.288 319.576 381.183V381.179C319.656 378.64 319.736 376.096 319.394 373.619C318.97 370.551 318.256 367.305 315.622 365.104C314.952 364.548 314.751 363.925 314.796 363.103C314.84 361.813 314.863 360.501 314.796 359.212C314.617 355.521 313.791 351.986 312.318 348.584C312.19 348.292 312.08 347.984 311.969 347.675C311.752 347.069 311.534 346.461 311.18 345.961C310.644 345.227 310.331 344.538 310.019 343.693C308.97 340.958 309.081 338.513 310.421 335.889C311.247 334.288 311.939 332.51 311.693 330.576C311.601 329.873 311.625 329.16 311.649 328.444L311.649 328.44C311.66 328.115 311.671 327.789 311.671 327.463C311.671 323.038 310.599 320.059 308.255 315.657C307.296 313.834 306.626 311.811 307.34 309.343C307.53 308.689 307.739 308.036 307.949 307.381L307.95 307.378C308.826 304.647 309.714 301.874 309.282 298.827C309.936 298.65 310.215 299.028 310.476 299.38C310.643 299.605 310.802 299.82 311.046 299.872C311.76 300.027 312.541 300.138 313.278 300.116C320.689 299.783 326.358 303.184 330.711 308.743C331.676 309.976 332.726 311.109 333.774 312.241ZM253.567 282.085C255.888 282.552 258.054 283.197 260.152 284.175C261.491 284.953 262.473 285.353 264.036 285.931C263.6 286.169 263.29 286.344 263.046 286.482C262.767 286.64 262.575 286.748 262.384 286.843C259.858 288.146 257.337 289.443 254.816 290.74L254.813 290.742C253.215 291.564 251.618 292.386 250.019 293.209C249.104 293.681 248.188 294.152 247.272 294.625L246.911 294.815C246.654 294.95 246.393 295.088 246.117 295.233C245.699 295.452 245.248 295.688 244.727 295.959C244.408 295.641 244.063 295.31 243.703 294.965C242.828 294.128 241.869 293.209 241 292.201C240.206 291.289 239.265 291.412 238.394 291.525C238.31 291.536 238.226 291.547 238.143 291.556C236.87 291.712 236.245 293.557 237.093 294.536C237.702 295.243 238.367 295.885 239.034 296.527C239.394 296.874 239.755 297.223 240.107 297.582C242.719 300.25 244.884 303.207 246.178 306.742C246.333 307.168 246.532 307.595 246.73 308.021C247.162 308.949 247.593 309.874 247.562 310.788C247.518 312.389 246.781 314.056 246.089 315.568C245.04 317.88 243.5 320.015 241.402 321.371C239.102 322.861 236.535 324.328 233.901 324.839C229.549 325.706 225.196 324.773 221.334 322.416C217.696 320.193 215.843 318.303 214.191 314.167C212.941 311.055 212.026 307.987 213.142 304.229C214.459 299.694 216.58 295.936 219.705 292.535C223.298 288.644 227.45 285.665 232.428 283.708C235.419 282.53 238.366 281.44 241.625 281.418C241.88 281.413 242.139 281.431 242.4 281.449C243.255 281.508 244.124 281.568 244.928 280.818C245.086 280.661 245.514 280.839 246.001 281.041C246.41 281.211 246.861 281.398 247.228 281.418C247.441 281.432 247.655 281.445 247.868 281.458L247.901 281.46C249.789 281.574 251.651 281.688 253.567 282.085ZM221.452 385.389C221.184 384.878 220.904 384.344 221.111 383.713C221.557 378.021 222.584 373.285 225.821 369.328C227.026 367.86 228.656 366.704 230.508 366.237C232.607 365.704 234.437 367.082 235.866 368.194C240.643 371.885 243.076 377.043 244.616 382.801C245.458 385.96 245.365 389.106 245.273 392.236C245.25 393.005 245.227 393.773 245.219 394.54C245.196 396.786 244.013 399.031 242.741 400.832C241.96 401.921 240.04 402.477 238.544 402.7C233.723 403.389 227.116 400.032 224.682 395.051C224.507 394.692 224.327 394.335 224.147 393.979C222.96 391.623 221.787 389.292 221.825 386.492C221.835 386.118 221.647 385.76 221.452 385.389ZM249.217 385.458L249.215 383.982C249.215 383.373 249.214 382.765 249.214 382.156C248.133 379.495 247.414 377.155 246.694 374.813L246.58 374.441C247.291 374.041 247.816 373.537 248.329 373.044C248.929 372.469 249.511 371.91 250.353 371.551C254.527 369.75 257.942 371.64 260.933 373.752C265.331 376.843 267.563 381.489 268.857 386.759C269.601 389.805 269.536 392.75 269.47 395.729L269.46 396.185C269.371 399.632 267.92 402.833 266.045 405.612C265.152 406.924 263.031 407.724 261.335 408.102C259.705 408.458 257.92 408.28 256.156 407.546C255.174 407.146 254.326 406.746 253.679 406.012C253.345 405.63 253.054 405.188 252.766 404.749C252.283 404.014 251.805 403.287 251.134 402.855C250.706 402.58 250.531 402.096 250.359 401.619C250.099 400.902 249.845 400.201 248.745 400.254C248.678 400.276 248.232 398.809 248.478 398.587C249.336 397.821 249.277 396.912 249.22 396.021C249.206 395.8 249.192 395.58 249.192 395.363C249.225 392.061 249.221 388.759 249.217 385.458ZM291.33 384.448C291.656 385.406 291.982 386.364 292.541 387.203C293.188 388.648 293.545 389.693 293.724 390.805C293.88 391.894 294.081 392.917 294.416 394.007C295.086 396.163 294.416 398.475 293.746 400.632C292.34 405.123 288.635 407.257 284.639 408.947C283.88 409.258 282.809 408.992 281.759 408.48C280.488 407.854 279.317 407.101 278.148 406.348C277.49 405.924 276.832 405.501 276.157 405.101C275.528 404.728 274.9 404.363 274.196 403.954L273.455 403.524C273.2 403.375 272.933 403.22 272.652 403.055C272.659 402.97 272.662 402.879 272.664 402.784C272.667 402.615 272.663 402.431 272.659 402.239C272.643 401.467 272.624 400.551 273.009 399.832C273.432 399.004 273.415 398.232 273.399 397.468C273.392 397.144 273.384 396.821 273.411 396.497C273.488 395.62 273.469 394.721 273.45 393.824C273.442 393.425 273.433 393.025 273.433 392.628C273.433 392.41 273.428 392.191 273.421 391.971C273.415 391.791 273.407 391.611 273.4 391.43C273.362 390.527 273.323 389.621 273.478 388.76C273.6 388.009 273.33 387.396 273.064 386.79C272.841 386.282 272.62 385.779 272.63 385.202C272.674 384.091 272.585 383.09 271.982 381.978C271.829 381.698 271.976 381.345 272.137 380.955C272.423 380.264 272.757 379.457 271.558 378.732C271.673 378.602 271.787 378.472 271.9 378.343C273.507 376.505 275.013 374.783 277.474 374.264C277.624 374.232 277.778 374.194 277.935 374.155C278.547 374.004 279.186 373.846 279.683 374.041C280.129 374.214 280.579 374.38 281.03 374.546L281.036 374.548C284.248 375.731 287.491 376.926 289.036 380.511C290.341 381.543 290.835 382.995 291.33 384.448Z" fill="#515151"/>
<path fill-rule="evenodd" clip-rule="evenodd" d="M218.566 156.446C219.78 158.318 220.866 160.183 221.935 162.02C222.91 163.697 223.872 165.35 224.906 166.962C226.223 169.008 226.892 171.654 227.272 174.099C227.941 178.435 225.866 181.97 222.629 184.526C219.995 186.594 216.937 188.306 213.834 189.596C212.287 190.243 210.781 190.976 209.275 191.71C207.109 192.765 204.942 193.82 202.651 194.62C200.488 195.37 198.547 196.892 196.654 198.377L196.652 198.379C196.299 198.656 195.948 198.931 195.597 199.2C192.472 201.601 190.218 204.825 188.343 208.249C187.683 209.45 187.207 210.76 186.732 212.069C186.468 212.796 186.204 213.523 185.909 214.23C184.627 217.313 182.861 220.081 181.07 222.889C180.897 223.159 180.725 223.43 180.552 223.701C177.829 227.992 173.9 229.771 169.101 230.104C167.874 230.189 166.638 230.166 165.405 230.144C164.686 230.131 163.968 230.118 163.253 230.127C160.485 230.149 157.918 229.348 155.507 228.126C154.82 227.783 154.113 227.491 153.406 227.198C152.229 226.712 151.05 226.224 149.949 225.502C146.779 223.434 143.788 221.211 141.176 218.499C140.921 218.23 140.764 217.879 140.546 217.391C140.422 217.112 140.277 216.788 140.083 216.409C140.066 217.028 140.009 217.616 139.955 218.179C139.797 219.817 139.66 221.244 140.574 222.634C140.715 222.844 140.703 223.179 140.691 223.497C140.688 223.582 140.685 223.666 140.685 223.746C140.596 227.503 141.288 231.127 142.136 234.795C142.314 235.572 142.4 236.379 142.487 237.196C142.597 238.226 142.708 239.27 143.007 240.287C143.327 241.434 143.562 242.599 143.799 243.771C143.924 244.395 144.05 245.02 144.19 245.645C144.301 246.164 144.394 246.69 144.488 247.216C144.715 248.496 144.943 249.778 145.418 250.959C146.296 253.146 147.039 255.379 147.783 257.616C148.665 260.269 149.549 262.929 150.663 265.522C151.421 267.29 152.247 269.022 153.073 270.753C153.949 272.59 154.826 274.427 155.619 276.305C155.635 276.343 155.651 276.383 155.667 276.424C155.681 276.459 155.695 276.495 155.71 276.531C156.001 277.268 156.376 278.217 157.628 278.639C159.079 279.128 159.079 280.974 158.007 282.485C155.953 285.354 154.346 288.555 153.453 291.868C153.325 292.349 153.191 292.831 153.057 293.314C152.172 296.51 151.274 299.749 151.623 303.207C151.784 304.811 151.743 306.425 151.703 308.042C151.681 308.89 151.66 309.739 151.668 310.588C151.668 311.833 150.931 312.433 149.837 312.545C148.947 312.621 148.056 312.603 147.136 312.584C146.719 312.575 146.296 312.567 145.864 312.567C145.355 311.58 144.83 310.597 144.304 309.612C143.148 307.448 141.988 305.275 140.976 303.029C139.257 299.205 137.739 295.292 136.266 291.356C134.971 287.866 133.788 284.331 132.672 280.796C131.623 277.461 130.618 274.104 129.837 270.702C129.633 269.793 129.417 268.886 129.2 267.979C128.421 264.715 127.641 261.449 127.449 258.074C126.716 257.233 126.75 256.214 126.782 255.231C126.808 254.444 126.833 253.681 126.466 253.049C125.913 252.088 125.953 251.141 125.992 250.218C126.021 249.54 126.049 248.874 125.841 248.224C125.34 246.632 125.33 244.988 125.32 243.369C125.312 241.959 125.303 240.567 124.971 239.242C124.263 236.422 124.308 233.634 124.353 230.848C124.374 229.593 124.394 228.337 124.346 227.081C124.189 222.945 124.256 218.788 124.346 214.652C124.361 213.874 124.599 213.095 124.876 212.194C125.018 211.732 125.169 211.238 125.306 210.695C124.804 210.695 124.321 210.677 123.851 210.66C122.835 210.622 121.884 210.587 120.953 210.739C118.838 211.083 116.944 210.451 115.053 209.822C114.249 209.554 113.446 209.286 112.627 209.094C111.846 208.916 111.131 208.16 110.596 207.493C109.747 206.493 110.417 204.603 111.667 204.536C111.762 204.531 111.856 204.524 111.951 204.517C112.038 204.51 112.125 204.503 112.212 204.496C113.242 204.411 114.285 204.324 115.328 205.137C115.939 205.621 116.74 205.855 117.549 206.092C118.04 206.236 118.533 206.38 118.989 206.582C120.428 207.229 121.739 206.776 123.04 206.325C123.615 206.126 124.188 205.928 124.77 205.826C125.283 205.737 125.707 204.203 125.841 203.269C125.988 202.203 126.074 201.127 126.16 200.051C126.285 198.501 126.409 196.952 126.712 195.443C127.582 191.041 128.498 186.616 129.882 182.37C130.14 181.574 130.369 180.766 130.598 179.957C131.021 178.461 131.446 176.957 132.069 175.5C132.457 174.591 132.807 173.654 133.156 172.719C133.61 171.504 134.062 170.294 134.592 169.163C136.868 164.25 139.391 159.425 142.449 154.912C143.319 153.622 144.614 153.823 146.11 154.067C146.221 157.002 145.998 159.781 144.971 162.738C144.238 164.786 143.82 167.034 143.407 169.253L143.407 169.255C143.305 169.806 143.203 170.354 143.096 170.898C142.959 171.562 142.86 172.235 142.761 172.907C142.522 174.526 142.284 176.142 141.511 177.634C141.481 177.71 141.492 177.806 141.502 177.895C141.507 177.937 141.511 177.977 141.511 178.012C141.425 178.983 141.364 179.958 141.303 180.933L141.303 180.936C141.175 182.976 141.048 185.017 140.685 187.017C139.988 190.769 139.971 194.534 139.955 198.303C139.951 199.358 139.946 200.413 139.926 201.468C139.913 201.95 139.722 202.424 139.527 202.904C139.399 203.222 139.27 203.542 139.19 203.869C138.594 206.188 139.72 207.998 140.822 209.769C141.083 210.189 141.343 210.607 141.578 211.028C142.342 212.39 143.432 213.571 144.505 214.734L144.661 214.904C144.728 214.976 144.794 215.047 144.86 215.119C149.77 220.589 155.998 224.101 162.94 225.991C166.512 226.969 170.351 226.503 173.722 224.146C177.494 221.5 179.637 217.698 181.266 213.696C184.146 206.648 187.517 200.001 193.543 195.065C195.508 193.442 197.785 192.286 200.128 191.219C201.941 190.39 203.734 189.515 205.527 188.64C208.063 187.404 210.598 186.167 213.187 185.06C216.758 183.526 219.504 181.036 222.071 178.279C223.767 176.456 223.924 174.9 222.45 171.943C220.955 168.919 219.236 165.984 217.495 163.094C214.905 158.803 211.088 151.466 210.151 146.263C210.064 145.793 210.014 145.291 209.965 144.791C209.863 143.755 209.761 142.722 209.325 141.972C208.863 141.154 208.851 140.358 208.84 139.593C208.831 139.027 208.823 138.477 208.633 137.948C207.994 136.127 207.714 134.235 207.433 132.34C207.213 130.858 206.994 129.375 206.602 127.921C206.304 126.831 206.021 125.737 205.739 124.642C205.173 122.454 204.608 120.265 203.923 118.116C203.387 116.449 202.405 114.87 201.289 113.358C198.343 109.401 195.24 105.755 190.351 104.065C189.597 103.81 188.904 103.361 188.093 102.837C187.704 102.585 187.288 102.316 186.825 102.042C186.825 101.997 186.821 101.931 186.817 101.849L186.817 101.846C186.802 101.561 186.778 101.083 186.847 100.619C187.115 98.8402 188.052 98.2843 189.749 98.8402C192.507 99.7558 194.946 101.249 197.411 102.756C197.639 102.896 197.868 103.036 198.097 103.176C201.445 105.199 203.477 108.245 205.463 111.38C208.12 115.537 209.325 120.184 210.329 124.942C210.483 125.661 210.593 126.376 210.703 127.085C210.816 127.821 210.929 128.552 211.088 129.277C211.245 130 211.356 130.728 211.468 131.456C211.58 132.184 211.691 132.912 211.847 133.635C212.153 135.049 212.43 136.472 212.706 137.896C213.72 143.122 214.736 148.356 217.227 153.178C217.436 153.635 217.61 154.096 217.79 154.573C218.013 155.165 218.245 155.782 218.566 156.446ZM136.4 278.35C139.592 287.599 142.828 296.804 147.717 306.408C147.717 305.573 147.724 304.835 147.73 304.163C147.744 302.777 147.755 301.669 147.694 300.561C147.56 297.293 148.364 294.18 149.302 291.112C149.45 290.634 149.591 290.147 149.733 289.658C150.338 287.571 150.956 285.44 152.203 283.819C153.788 281.774 153.186 280.129 152.226 278.75C151.221 277.327 150.328 275.882 149.592 274.37C148.72 272.548 147.968 270.674 147.215 268.799C146.406 266.784 145.596 264.766 144.636 262.809C143.957 261.428 143.615 259.897 143.27 258.356C143.082 257.517 142.894 256.673 142.65 255.85C142.047 253.783 141.377 251.715 140.641 249.692C140.249 248.623 140.065 247.519 139.881 246.41C139.708 245.373 139.535 244.331 139.19 243.311C138.877 242.377 138.824 241.334 138.772 240.299C138.708 239.043 138.645 237.798 138.118 236.774C137.597 235.756 137.625 234.675 137.652 233.614C137.686 232.312 137.718 231.039 136.734 229.949C136.681 229.22 136.626 228.492 136.572 227.764L136.572 227.759C136.354 224.842 136.136 221.926 135.975 219.01C135.864 217.076 135.886 215.119 135.975 213.185C136.065 211.317 135.484 209.783 133.989 208.383C133.702 208.383 134.291 208.386 133.989 208.383C133.209 208.373 134.826 208.334 133.989 208.383C132.962 208.427 128.989 209.05 128.944 210.072C128.855 212.318 128.632 214.519 128.274 216.764C127.824 219.531 127.975 222.4 128.124 225.252C128.145 225.655 128.166 226.057 128.185 226.458C128.225 227.401 128.197 228.344 128.169 229.287C128.103 231.48 128.036 233.677 128.832 235.885C129.221 236.962 129.127 238.184 129.032 239.42C128.974 240.174 128.916 240.932 128.966 241.665C129.043 242.718 129.206 243.763 129.37 244.809C129.493 245.597 129.617 246.387 129.703 247.179C129.795 247.961 129.831 248.766 129.867 249.573C129.944 251.313 130.022 253.056 130.663 254.561C131.008 255.388 130.999 256.23 130.99 257.018C130.981 257.861 130.973 258.642 131.399 259.274C131.836 259.931 131.908 260.67 131.978 261.392C132.062 262.259 132.144 263.1 132.85 263.743C132.947 266.41 133.688 268.927 134.428 271.444C134.719 272.432 135.01 273.419 135.261 274.415C135.368 274.784 135.5 275.148 135.637 275.528C135.93 276.337 136.248 277.215 136.4 278.35ZM136.02 198.645C136.02 197.778 136.006 196.911 135.991 196.045C135.958 194.067 135.925 192.093 136.065 190.129C136.142 189.134 136.287 188.144 136.432 187.153C136.704 185.29 136.976 183.427 136.801 181.525C136.797 181.474 136.789 181.418 136.781 181.36C136.751 181.14 136.718 180.892 136.824 180.769C137.838 179.533 137.682 178.214 137.525 176.891C137.451 176.263 137.376 175.633 137.426 175.011C137.13 175.679 136.822 176.343 136.514 177.005C135.409 179.386 134.312 181.75 133.788 184.237C133.491 185.626 133.122 186.996 132.753 188.365C132.207 190.392 131.661 192.417 131.355 194.487C131.199 195.528 130.988 196.565 130.774 197.616C130.312 199.885 128.898 207.489 128.944 210.072L133.989 208.383L135.046 203.145C135.386 201.774 135.694 200.534 136.02 198.645Z" fill="#515151"/>
<path d="M198.856 289.244C200.039 289.244 201.222 289.244 202.383 289.044V285.976C201.998 285.671 201.651 285.418 201.34 285.191C200.769 284.774 200.319 284.445 199.972 284.042C197.628 281.329 194.682 279.729 191.334 278.528C188.31 277.452 185.234 277.512 182.137 277.572C181.713 277.581 181.289 277.589 180.865 277.594C180.171 278.445 179.23 278.509 178.266 278.575C177.617 278.619 176.957 278.664 176.356 278.95C175.498 279.353 174.714 279.856 173.935 280.357C173.294 280.769 172.655 281.178 171.981 281.529C168.164 283.486 165.463 286.576 163.23 290.356C160.619 294.78 159.971 299.472 159.436 304.341C159.307 305.581 159.555 306.776 159.802 307.966C159.984 308.846 160.166 309.722 160.195 310.61C160.286 313.535 161.509 315.999 162.733 318.464C163.007 319.016 163.281 319.569 163.543 320.126C164.553 322.278 166.293 323.812 168.004 325.319C168.184 325.478 168.364 325.637 168.543 325.796C169.882 326.974 171.556 327.73 173.387 328.152C176.021 328.753 178.476 329.508 179.86 332.332C180.445 333.514 181.574 334.459 182.673 335.38C183.001 335.653 183.325 335.925 183.633 336.201C184.793 337.246 186.579 336.623 186.758 335.067C186.847 334.244 186.847 333.444 186.267 332.554C184.704 330.198 182.762 328.174 180.641 326.396C179.391 325.351 177.695 324.662 176.088 324.284C173.744 323.728 171.78 322.727 169.972 321.149C167.929 319.366 166.896 316.972 165.89 314.637C165.654 314.089 165.419 313.544 165.172 313.011C164.318 311.183 164.035 309.098 163.753 307.009C163.636 306.151 163.52 305.293 163.364 304.452C163.32 304.118 163.387 303.607 163.61 303.407C164.188 302.893 164.154 302.281 164.119 301.671C164.104 301.409 164.09 301.148 164.123 300.894C164.152 300.662 164.166 300.426 164.181 300.189C164.213 299.678 164.246 299.165 164.413 298.693C165.73 294.98 167.449 291.579 170.373 288.689C172.561 286.532 174.994 284.731 177.583 283.419C180.016 282.196 182.941 280.951 185.708 281.574C189.459 282.441 193.231 283.642 196.11 286.51L198.856 289.244Z" fill="#515151"/>
<defs>
<filter id="filter0_d_2464_6131" x="68.8281" y="50.0367" width="362.345" height="407.318" filterUnits="userSpaceOnUse" color-interpolation-filters="sRGB">
<feFlood flood-opacity="0" result="BackgroundImageFix"/>
<feColorMatrix in="SourceAlpha" type="matrix" values="0 0 0 0 0 0 0 0 0 0 0 0 0 0 0 0 0 0 127 0" result="hardAlpha"/>
<feOffset dy="4"/>
<feGaussianBlur stdDeviation="4"/>
<feComposite in2="hardAlpha" operator="out"/>
<feColorMatrix type="matrix" values="0 0 0 0 0 0 0 0 0 0 0 0 0 0 0 0 0 0 0.25 0"/>
<feBlend mode="normal" in2="BackgroundImageFix" result="effect1_dropShadow_2464_6131"/>
<feBlend mode="normal" in="SourceGraphic" in2="effect1_dropShadow_2464_6131" result="shape"/>
</filter>
</defs>
</svg>
