<svg width="266" height="266" viewBox="0 0 266 266" fill="none" xmlns="http://www.w3.org/2000/svg">
<path d="M132.68 265.557C205.957 265.557 265.36 206.154 265.36 132.877C265.36 59.6001 205.957 0.197266 132.68 0.197266C59.4029 0.197266 0 59.6001 0 132.877C0 206.154 59.4029 265.557 132.68 265.557Z" fill="#D0E5FB"/>
<path d="M232 132.877C232 187.73 187.533 232.197 132.68 232.197C77.8274 232.197 33.3604 187.73 33.3604 132.877C33.3604 78.0237 77.8274 33.5566 132.68 33.5566C187.533 33.5566 232 78.0237 232 132.877Z" fill="#FAFAFA" stroke="#0074EB" stroke-width="4"/>
<path d="M119.4 82.698C119.4 75.398 125.12 69.498 132.76 69.498C140.4 69.498 145.96 75.398 145.96 82.698C145.96 89.998 140.4 96.058 132.76 96.058C125.12 96.058 119.4 90.158 119.4 82.698ZM120.62 113.778C120.62 112.218 121.66 111.178 123.22 111.178H142.14C143.7 111.178 144.74 112.218 144.74 113.778V193.638C144.74 195.198 143.7 196.238 142.14 196.238H123.22C121.66 196.238 120.62 195.198 120.62 193.638V113.778Z" fill="#0074EB"/>
</svg>
