<svg width="207" height="247" viewBox="0 0 207 247" fill="none" xmlns="http://www.w3.org/2000/svg">
<path d="M103.5 207.938C160.661 207.938 207 161.6 207 104.438C207 47.2768 160.661 0.938293 103.5 0.938293C46.3385 0.938293 0 47.2768 0 104.438C0 161.6 46.3385 207.938 103.5 207.938Z" fill="#F3CDBF"/>
<path d="M189.386 103.988C189.386 56.121 150.57 17.3041 102.703 17.3041C54.8364 17.3041 16.0195 56.121 16.0195 103.988C16.0195 135.956 33.3389 163.868 59.1185 178.899L66.9894 246.062H138.451L146.322 178.899C172.084 163.868 189.421 135.956 189.421 103.988H189.386Z" fill="#F7DED4"/>
<path d="M63.123 213.122H142.282L138.434 246.062H66.9718L63.123 213.122Z" fill="#DC693F"/>
<path d="M90.3597 213.122L82.9049 130.495C82.4715 126.751 79.3682 123.873 75.5888 123.751L72.9536 123.665C68.7061 123.526 65.1521 126.907 65.1001 131.171V132.454C65.0134 137.985 70.6652 141.747 75.7275 139.545L105.373 126.664C108.789 125.173 111.164 122 111.614 118.308L112.204 113.471C112.967 107.264 108.147 101.768 101.889 101.699C95.6994 101.63 90.7931 106.9 91.2958 113.055L91.6599 117.597C91.972 121.48 94.4164 124.861 97.9878 126.387L125.796 138.331C130.979 140.551 136.701 136.563 136.389 130.929L136.285 128.97C136.059 124.878 132.644 121.688 128.535 121.775C124.513 121.862 121.254 125.052 121.08 129.056L117.596 213.434" stroke="#E79B7F" stroke-width="3.46734" stroke-miterlimit="10"/>
</svg>
