<svg width="240" height="284" viewBox="0 0 240 284" fill="none" xmlns="http://www.w3.org/2000/svg">
<path d="M119.75 239.659C185.692 239.659 239.15 186.202 239.15 120.259C239.15 54.3166 185.692 0.859375 119.75 0.859375C53.8068 0.859375 0.349609 54.3166 0.349609 120.259C0.349609 186.202 53.8068 239.659 119.75 239.659Z" fill="#D0E5FB"/>
<path d="M216.83 119.738V121.738H216.85C216.142 157.038 196.736 187.748 168.142 204.431L167.28 204.934L167.164 205.926L158.291 281.638H79.4094L70.5365 205.926L70.4202 204.934L69.5575 204.431C40.4059 187.434 20.8301 155.877 20.8301 119.738C20.8301 65.6228 64.7146 21.7383 118.83 21.7383C172.946 21.7383 216.83 65.6228 216.83 119.738Z" fill="#FAFAFA" stroke="#0074EB" stroke-width="4"/>
<path d="M79.3898 281.641L75.4172 247.641H162.243L158.27 281.641H79.3898Z" fill="#FAFAFA" stroke="#0074EB" stroke-width="4"/>
<path d="M104.588 245.638L95.9884 150.318C95.4884 145.998 91.9084 142.678 87.5484 142.538L84.5084 142.438C79.6084 142.278 75.5084 146.178 75.4484 151.098V152.578C75.3484 158.958 81.8684 163.298 87.7084 160.758L121.908 145.898C125.848 144.178 128.588 140.518 129.108 136.258L129.788 130.678C130.668 123.518 125.108 117.178 117.888 117.098C110.748 117.018 105.088 123.098 105.668 130.198L106.088 135.438C106.448 139.918 109.268 143.818 113.388 145.578L145.468 159.358C151.448 161.918 158.048 157.318 157.688 150.818L157.568 148.558C157.308 143.838 153.368 140.158 148.628 140.258C143.988 140.358 140.228 144.038 140.028 148.658L136.008 245.998" fill="#FAFAFA"/>
<path d="M104.588 245.638L95.9884 150.318C95.4884 145.998 91.9084 142.678 87.5484 142.538L84.5084 142.438C79.6084 142.278 75.5084 146.178 75.4484 151.098V152.578C75.3484 158.958 81.8684 163.298 87.7084 160.758L121.908 145.898C125.848 144.178 128.588 140.518 129.108 136.258L129.788 130.678C130.668 123.518 125.108 117.178 117.888 117.098C110.748 117.018 105.088 123.098 105.668 130.198L106.088 135.438C106.448 139.918 109.268 143.818 113.388 145.578L145.468 159.358C151.448 161.918 158.048 157.318 157.688 150.818L157.568 148.558C157.308 143.838 153.368 140.158 148.628 140.258C143.988 140.358 140.228 144.038 140.028 148.658L136.008 245.998" stroke="#0074EB" stroke-width="4" stroke-miterlimit="10"/>
</svg>
