<svg width="254" height="253" viewBox="0 0 254 253" fill="none" xmlns="http://www.w3.org/2000/svg">
<path d="M186.283 62.3444L42.8323 100.782C40.8214 101.321 38.8993 102.061 37.1307 102.985C25.3741 108.99 19.0049 122.518 22.5485 135.743L46.3762 224.669C50.4563 239.896 66.1308 248.902 81.423 244.804L224.874 206.367C240.166 202.269 249.254 186.629 245.174 171.401L221.346 82.4754C217.266 67.248 201.575 58.2469 186.283 62.3444ZM119.892 120.217L118.65 115.583C118.334 114.404 119.048 113.175 120.231 112.857L126.75 111.111C127.934 110.793 129.167 111.501 129.483 112.68L130.725 117.315C143.019 115.717 154.176 119.927 158.426 127.874C159.29 129.477 158.462 131.447 156.711 131.917L145.765 134.85C144.597 135.162 143.388 134.673 142.721 133.675C141.449 131.783 139.088 130.494 136.206 129.986C135.185 129.81 134.316 130.717 134.584 131.719L138.18 145.137C138.357 145.799 138.991 146.218 139.665 146.141C144.34 145.685 148.95 146.024 153.052 147.193C160.598 149.342 165.855 154.043 167.477 160.098C170.156 170.094 162.204 181.155 149.278 186.557L150.515 191.175C150.831 192.354 150.118 193.583 148.934 193.9L142.415 195.647C141.231 195.964 139.999 195.256 139.683 194.077L138.445 189.459C127.841 190.812 117.941 187.857 112.752 181.788C111.458 180.266 112.117 177.926 114.025 177.328C117.42 176.245 122.414 174.648 124.979 173.839C125.939 173.53 126.948 173.796 127.716 174.456C129.07 175.616 130.914 176.402 133.029 176.77C134.013 176.939 134.832 175.976 134.577 175.023L130.986 161.62C130.808 160.958 130.175 160.54 129.5 160.617C124.809 161.077 120.232 160.729 116.13 159.561C108.588 157.428 103.331 152.727 101.704 146.655C99.0261 136.66 106.961 125.603 119.892 120.217Z" fill="#9D9600"/>
<path d="M165.865 65.4099L166.445 67.5737L145.363 73.2224L144.784 71.0586C140.249 54.1357 122.726 44.068 105.731 48.6218C88.7361 53.1756 78.5942 70.6561 83.1287 87.579L83.7085 89.7428L62.6271 95.3916L62.0473 93.2278C54.4105 64.7268 71.4841 35.2989 100.106 27.6296C128.728 19.9604 158.228 36.909 165.865 65.4099Z" fill="#EBE100"/>
<path d="M153.052 147.193C148.95 146.025 144.34 145.685 139.665 146.142C138.991 146.218 138.357 145.8 138.18 145.138L134.584 131.719C134.316 130.718 135.185 129.81 136.206 129.986C139.088 130.495 141.449 131.783 142.721 133.675C143.388 134.673 144.597 135.163 145.765 134.85L156.711 131.917C158.462 131.448 159.29 129.478 158.426 127.875C154.176 119.927 143.019 115.717 130.725 117.315L129.483 112.681C129.167 111.502 127.934 110.794 126.751 111.111L120.232 112.858C119.048 113.175 118.334 114.404 118.65 115.583L119.892 120.218C106.961 125.603 99.0262 136.66 101.705 146.656C103.331 152.727 108.589 157.428 116.13 159.561C120.232 160.729 124.809 161.078 129.5 160.617C130.175 160.54 130.809 160.959 130.986 161.621L134.577 175.023C134.833 175.976 134.013 176.94 133.029 176.771C130.915 176.403 129.07 175.616 127.716 174.456C126.949 173.796 125.939 173.53 124.979 173.84C122.414 174.648 117.42 176.246 114.025 177.328C112.117 177.926 111.458 180.266 112.752 181.789C117.941 187.858 127.841 190.813 138.445 189.459L139.683 194.078C139.999 195.257 141.231 195.965 142.415 195.648L148.934 193.901C150.118 193.584 150.831 192.354 150.515 191.175L149.278 186.557C162.204 181.155 170.156 170.094 167.477 160.098C165.855 154.043 160.598 149.342 153.052 147.193ZM126.815 146.054C127.083 147.055 126.214 147.963 125.193 147.787C121.49 147.135 118.654 145.177 117.889 142.319C117.123 139.461 118.605 136.364 121.485 133.948C122.281 133.285 123.488 133.636 123.756 134.638L126.815 146.054ZM147.685 172.827C146.889 173.49 145.678 173.122 145.414 172.137L142.346 160.688C142.083 159.703 142.952 158.795 143.972 158.972C147.671 159.608 150.523 161.56 151.293 164.435C152.064 167.309 150.566 170.41 147.685 172.827Z" fill="#F2EB55"/>
<path d="M143.973 158.972C147.671 159.607 150.524 161.56 151.294 164.435C152.064 167.309 150.566 170.41 147.685 172.826C146.889 173.49 145.678 173.122 145.415 172.137L142.347 160.688C142.083 159.703 142.952 158.795 143.973 158.972Z" fill="#9D9600"/>
<path d="M123.757 134.638L126.816 146.054C127.084 147.055 126.215 147.963 125.194 147.787C121.491 147.135 118.655 145.177 117.889 142.319C117.123 139.461 118.605 136.364 121.486 133.948C122.282 133.285 123.488 133.636 123.757 134.638Z" fill="#9D9600"/>
<g style="mix-blend-mode:overlay">
<path d="M221.16 207.362L81.4232 244.805C66.131 248.902 50.4565 239.897 46.3764 224.669L22.5487 135.743C19.0051 122.518 25.3743 108.991 37.1309 102.985L37.1784 103.162C42.1908 128.161 47.187 153.164 52.2037 178.178C54.5233 189.689 56.2774 201.49 59.4327 212.811C61.7724 221.219 65.499 228.51 74.5743 230.596C82.5177 232.414 91.1655 230.892 99.0479 229.369C111.801 226.886 124.521 224.153 137.26 221.553C162.302 216.418 187.366 211.294 212.425 206.155C215.801 205.458 218.749 206.018 221.16 207.362Z" fill="#4E4B00"/>
</g>
</svg>
