<svg width="240" height="304" viewBox="0 0 240 304" fill="none" xmlns="http://www.w3.org/2000/svg">
<path d="M2.52732 71.3895L120.277 2.51428L237.967 71.354C237.972 71.6085 237.977 71.9064 237.982 72.2464C238 73.5576 238.011 75.4944 237.981 77.9821C237.92 82.9581 237.692 90.1363 237.025 98.9213C235.691 116.497 232.603 140.475 225.59 166.101C211.608 217.193 182.141 274.469 120.278 301.023C53.5958 272.347 24.1413 215.024 11.3673 164.528C4.95711 139.189 2.76705 115.629 2.18144 98.4009C1.88873 89.7895 1.99711 82.7674 2.17807 77.905C2.26855 75.474 2.37714 73.5834 2.46274 72.3046C2.4863 71.9527 2.50811 71.6472 2.52732 71.3895Z" fill="#FAFAFA" stroke="#0074EB" stroke-width="4"/>
<path d="M120.231 277.916C76.1279 256.032 46.4658 216.627 32.0249 160.665C23.7599 128.632 22.7956 99.1926 23.0251 83.7154L120.277 26.8125L216.84 83.3021C215.509 120.962 204.397 235.089 120.208 277.916H120.231Z" fill="#D0E5FB"/>
<path d="M152.626 127.667L152.42 116.254C152.007 98.7335 137.726 85.0015 119.911 84.9785H119.865C111.072 84.9785 102.83 88.3771 96.6767 94.5312C90.6386 100.548 87.3328 108.539 87.3328 116.989V127.667H64.9023V188.52H175.103V127.667H152.626ZM101.108 116.989C101.108 112.213 102.99 107.689 106.411 104.268C109.97 100.708 114.745 98.7335 119.865 98.7335C129.967 98.7335 138.369 106.748 138.622 116.553L139.035 127.644H101.085V116.966L101.108 116.989Z" fill="#FAFAFA"/>
<path d="M129.598 151.524C129.598 146.22 125.304 141.926 120.001 141.926C114.698 141.926 110.404 146.22 110.404 151.524C110.404 155.222 112.516 158.39 115.57 159.998L112.723 175.337H127.233L124.386 159.998C127.44 158.39 129.552 155.222 129.552 151.524H129.598Z" fill="#D0E5FB"/>
</svg>
