<svg width="1102" height="952" viewBox="0 0 1102 952" fill="none" xmlns="http://www.w3.org/2000/svg">
<g filter="url(#filter0_d_3085_5880)">
<rect x="57.5" y="32" width="987" height="837.197" rx="51.6788" fill="#F7F7F7" shape-rendering="crispEdges"/>
<rect x="119.515" y="94.0146" width="862.971" height="96.5109" rx="31.0073" fill="white"/>
<path d="M145.332 151.271H146.915C147.206 151.271 147.367 151.174 147.464 150.883L149.111 146.2H159.447L161.094 150.883C161.191 151.174 161.353 151.271 161.611 151.271H163.226C163.581 151.271 163.71 151.044 163.581 150.721L155.733 129.049C155.636 128.79 155.41 128.661 155.151 128.661H153.375C153.116 128.661 152.89 128.79 152.793 129.049L144.977 150.721C144.848 151.044 144.977 151.271 145.332 151.271ZM149.886 144.035L154.279 131.568L158.672 144.035H149.886ZM173.388 151.658C176.23 151.658 178.298 150.366 179.46 148.234L179.525 150.818C179.525 151.109 179.654 151.271 179.945 151.271H181.334C181.624 151.271 181.754 151.109 181.754 150.818V128.629C181.754 128.338 181.624 128.177 181.334 128.177H179.848C179.557 128.177 179.428 128.338 179.428 128.629V138.448C178.265 136.381 176.166 135.056 173.388 135.056C168.769 135.056 165.604 138.641 165.604 143.357C165.604 148.105 168.769 151.658 173.388 151.658ZM167.865 143.357C167.865 139.707 170.32 137.22 173.711 137.22C177.103 137.22 179.46 139.74 179.46 143.422C179.46 147.072 177.103 149.494 173.711 149.494C170.32 149.494 167.865 147.039 167.865 143.357ZM192.218 151.271H193.736C193.994 151.271 194.22 151.141 194.317 150.883L200.228 135.993C200.357 135.638 200.228 135.444 199.873 135.444H198.387C198.129 135.444 197.967 135.573 197.87 135.831L192.961 148.687L188.084 135.831C187.987 135.573 187.825 135.444 187.567 135.444H186.081C185.726 135.444 185.597 135.638 185.726 135.993L191.636 150.883C191.733 151.141 191.959 151.271 192.218 151.271ZM205.393 131.342C206.201 131.342 206.847 130.696 206.847 129.888C206.847 129.049 206.201 128.403 205.393 128.403C204.586 128.403 203.94 129.049 203.94 129.888C203.94 130.696 204.586 131.342 205.393 131.342ZM204.231 150.818C204.231 151.109 204.36 151.271 204.651 151.271H206.136C206.427 151.271 206.556 151.109 206.556 150.818V135.896C206.556 135.605 206.427 135.444 206.136 135.444H204.651C204.36 135.444 204.231 135.605 204.231 135.896V150.818ZM218.851 151.658C221.403 151.658 223.438 150.657 224.794 149.01C224.988 148.751 225.053 148.557 224.859 148.364L224.019 147.588C223.728 147.298 223.47 147.427 223.244 147.653C222.275 148.687 221.047 149.494 218.98 149.494C215.46 149.494 212.876 146.975 212.876 143.357C212.876 139.74 215.46 137.22 218.948 137.22C221.015 137.22 222.243 138.028 223.244 139.094C223.438 139.287 223.696 139.417 223.987 139.126L224.827 138.351C225.02 138.157 224.956 137.963 224.762 137.705C223.405 136.058 221.37 135.056 218.851 135.056C214.168 135.056 210.615 138.609 210.615 143.357C210.615 148.105 214.168 151.658 218.851 151.658ZM235.982 151.658C238.178 151.658 240.213 150.98 241.634 149.623C241.86 149.397 241.989 149.236 241.763 148.945L241.214 148.202C241.085 148.041 240.891 148.041 240.73 148.17C239.502 149.106 238.113 149.688 236.175 149.688C232.332 149.688 230.2 147.33 229.877 144.197H241.795C242.732 144.197 242.958 143.712 242.958 142.55C242.958 138.674 240.245 135.056 235.562 135.056C230.846 135.056 227.616 138.641 227.616 143.293C227.616 147.911 230.814 151.658 235.982 151.658ZM229.877 142.388C230.2 139.158 232.396 137.123 235.529 137.123C238.727 137.123 240.762 139.255 240.891 142.388H229.877ZM255.34 151.271H256.826C257.116 151.271 257.246 151.109 257.246 150.818V137.382H260.443C260.734 137.382 260.895 137.22 260.895 136.93V135.896C260.895 135.605 260.734 135.444 260.443 135.444H257.246V132.375C257.246 130.922 257.601 129.791 259.41 129.791C259.733 129.791 260.088 129.824 260.508 129.888C260.702 129.921 260.895 129.888 260.895 129.662V128.338C260.895 128.08 260.831 128.015 260.605 127.918C260.153 127.724 259.636 127.66 259.054 127.66C256.309 127.66 254.92 129.146 254.92 131.859V135.444H253.014C252.724 135.444 252.562 135.605 252.562 135.896V136.93C252.562 137.22 252.724 137.382 253.014 137.382H254.92V150.818C254.92 151.109 255.049 151.271 255.34 151.271ZM271.114 151.658C275.7 151.658 279.188 148.073 279.188 143.357C279.188 138.641 275.7 135.056 271.114 135.056C266.495 135.056 263.007 138.641 263.007 143.357C263.007 148.073 266.495 151.658 271.114 151.658ZM265.267 143.357C265.267 139.772 267.754 137.22 271.114 137.22C274.44 137.22 276.927 139.772 276.927 143.357C276.927 146.942 274.44 149.494 271.114 149.494C267.754 149.494 265.267 146.942 265.267 143.357ZM283.695 151.271H285.181C285.472 151.271 285.601 151.109 285.601 150.818V141.516C285.601 139.74 286.376 137.22 289.219 137.22C289.542 137.22 289.929 137.253 290.349 137.382C290.704 137.479 290.93 137.414 290.93 137.059V135.928C290.93 135.638 290.866 135.508 290.672 135.379C290.381 135.185 289.865 135.056 289.219 135.056C287.248 135.056 286.182 136.251 285.569 137.737L285.504 135.928C285.504 135.573 285.375 135.444 285.052 135.444H283.695C283.405 135.444 283.276 135.605 283.276 135.896V150.818C283.276 151.109 283.405 151.271 283.695 151.271ZM302.007 131.342C302.815 131.342 303.461 130.696 303.461 129.888C303.461 129.049 302.815 128.403 302.007 128.403C301.2 128.403 300.554 129.049 300.554 129.888C300.554 130.696 301.2 131.342 302.007 131.342ZM300.845 150.818C300.845 151.109 300.974 151.271 301.264 151.271H302.75C303.041 151.271 303.17 151.109 303.17 150.818V135.896C303.17 135.605 303.041 135.444 302.75 135.444H301.264C300.974 135.444 300.845 135.605 300.845 135.896V150.818ZM308.456 151.271H309.942C310.233 151.271 310.362 151.109 310.362 150.818V141.742C310.362 138.932 312.332 137.22 314.948 137.22C317.565 137.22 319.05 138.932 319.05 141.742V150.818C319.05 151.109 319.147 151.271 319.438 151.271H320.956C321.247 151.271 321.376 151.109 321.376 150.818V141.516C321.376 137.317 319.05 135.056 315.594 135.056C312.978 135.056 311.266 136.348 310.362 137.963L310.265 135.928C310.265 135.573 310.136 135.444 309.813 135.444H308.456C308.165 135.444 308.036 135.605 308.036 135.896V150.818C308.036 151.109 308.165 151.271 308.456 151.271ZM330.562 151.271H332.08C332.339 151.271 332.565 151.141 332.662 150.883L338.572 135.993C338.702 135.638 338.572 135.444 338.217 135.444H336.731C336.473 135.444 336.311 135.573 336.215 135.831L331.305 148.687L326.428 135.831C326.331 135.573 326.169 135.444 325.911 135.444H324.425C324.07 135.444 323.941 135.638 324.07 135.993L329.981 150.883C330.078 151.141 330.304 151.271 330.562 151.271ZM348.997 151.658C351.194 151.658 353.229 150.98 354.65 149.623C354.876 149.397 355.005 149.236 354.779 148.945L354.23 148.202C354.101 148.041 353.907 148.041 353.745 148.17C352.518 149.106 351.129 149.688 349.191 149.688C345.348 149.688 343.216 147.33 342.893 144.197H354.811C355.748 144.197 355.974 143.712 355.974 142.55C355.974 138.674 353.261 135.056 348.578 135.056C343.862 135.056 340.632 138.641 340.632 143.293C340.632 147.911 343.83 151.658 348.997 151.658ZM342.893 142.388C343.216 139.158 345.412 137.123 348.545 137.123C351.743 137.123 353.778 139.255 353.907 142.388H342.893ZM364.417 151.658C367.259 151.658 369.811 150.075 369.811 147.104C369.811 144.649 368.163 143.454 366.096 142.614L364.546 141.968C362.931 141.29 361.833 140.741 361.833 139.223C361.833 137.737 363.092 137.027 364.546 137.027C365.709 137.027 366.742 137.511 367.743 138.545C368.034 138.835 368.228 138.868 368.519 138.545L369.035 137.963C369.229 137.737 369.262 137.479 369.068 137.253C367.937 135.831 366.258 135.056 364.449 135.056C361.8 135.056 359.604 136.671 359.604 139.287C359.604 141.548 361.219 142.744 363.157 143.551L365.03 144.326C366.516 144.94 367.517 145.65 367.517 147.136C367.517 148.783 366.193 149.591 364.352 149.591C362.608 149.591 361.445 148.848 360.476 147.814C360.218 147.556 359.927 147.556 359.733 147.814L359.249 148.46C359.055 148.751 359.055 149.01 359.281 149.268C360.153 150.398 361.865 151.658 364.417 151.658ZM378.364 151.464C379.204 151.464 380.399 151.303 380.399 150.754V149.752C380.399 149.429 380.27 149.268 379.786 149.333C379.495 149.365 379.043 149.397 378.784 149.397C377.815 149.397 377.331 148.945 377.331 147.718V137.382H380.012C380.302 137.382 380.464 137.22 380.464 136.93V135.896C380.464 135.605 380.302 135.444 380.012 135.444H377.331V131.697C377.331 131.406 377.202 131.245 376.911 131.245H375.425C375.134 131.245 375.005 131.406 375.005 131.697V135.444H372.938C372.647 135.444 372.486 135.605 372.486 135.896V136.93C372.486 137.22 372.647 137.382 372.938 137.382H375.005V148.041C375.005 150.366 376.168 151.464 378.364 151.464ZM385.563 131.342C386.37 131.342 387.016 130.696 387.016 129.888C387.016 129.049 386.37 128.403 385.563 128.403C384.755 128.403 384.109 129.049 384.109 129.888C384.109 130.696 384.755 131.342 385.563 131.342ZM384.4 150.818C384.4 151.109 384.529 151.271 384.82 151.271H386.306C386.596 151.271 386.726 151.109 386.726 150.818V135.896C386.726 135.605 386.596 135.444 386.306 135.444H384.82C384.529 135.444 384.4 135.605 384.4 135.896V150.818ZM392.012 151.271H393.497C393.788 151.271 393.917 151.109 393.917 150.818V141.742C393.917 138.932 395.887 137.22 398.504 137.22C401.12 137.22 402.606 138.932 402.606 141.742V150.818C402.606 151.109 402.703 151.271 402.993 151.271H404.511C404.802 151.271 404.931 151.109 404.931 150.818V141.516C404.931 137.317 402.606 135.056 399.15 135.056C396.533 135.056 394.822 136.348 393.917 137.963L393.82 135.928C393.82 135.573 393.691 135.444 393.368 135.444H392.012C391.721 135.444 391.592 135.605 391.592 135.896V150.818C391.592 151.109 391.721 151.271 392.012 151.271ZM416.864 157.892C420.999 157.892 424.971 155.792 424.971 150.657V135.896C424.971 135.605 424.842 135.444 424.552 135.444H423.163C422.872 135.444 422.775 135.605 422.775 135.896L422.743 138.351C421.548 136.316 419.513 135.056 416.671 135.056C412.181 135.056 409.016 138.383 409.016 143.066C409.016 147.782 412.181 151.077 416.703 151.077C419.513 151.077 421.515 149.882 422.71 147.879V150.528C422.71 154.533 419.836 155.889 416.767 155.889C415.12 155.889 413.537 155.502 412.181 154.662C411.955 154.533 411.729 154.597 411.6 154.823L411.115 155.728C410.986 155.986 411.083 156.212 411.341 156.374C412.601 157.246 414.603 157.892 416.864 157.892ZM411.277 143.066C411.277 139.481 413.764 137.188 417.026 137.188C420.353 137.188 422.678 139.514 422.678 143.131C422.678 146.716 420.353 148.945 417.026 148.945C413.764 148.945 411.277 146.684 411.277 143.066ZM437.513 131.342C438.32 131.342 438.966 130.696 438.966 129.888C438.966 129.049 438.32 128.403 437.513 128.403C436.705 128.403 436.059 129.049 436.059 129.888C436.059 130.696 436.705 131.342 437.513 131.342ZM436.35 150.818C436.35 151.109 436.479 151.271 436.77 151.271H438.256C438.546 151.271 438.676 151.109 438.676 150.818V135.896C438.676 135.605 438.546 135.444 438.256 135.444H436.77C436.479 135.444 436.35 135.605 436.35 135.896V150.818ZM443.962 151.271H445.447C445.738 151.271 445.867 151.109 445.867 150.818V141.742C445.867 138.932 447.838 137.22 450.454 137.22C453.07 137.22 454.556 138.932 454.556 141.742V150.818C454.556 151.109 454.653 151.271 454.943 151.271H456.461C456.752 151.271 456.881 151.109 456.881 150.818V141.516C456.881 137.317 454.556 135.056 451.1 135.056C448.484 135.056 446.772 136.348 445.867 137.963L445.77 135.928C445.77 135.573 445.641 135.444 445.318 135.444H443.962C443.671 135.444 443.542 135.605 443.542 135.896V150.818C443.542 151.109 443.671 151.271 443.962 151.271ZM475.216 151.658C478.058 151.658 480.125 150.366 481.288 148.234L481.353 150.818C481.353 151.109 481.482 151.271 481.773 151.271H483.162C483.452 151.271 483.581 151.109 483.581 150.818V135.896C483.581 135.605 483.452 135.444 483.162 135.444H481.773C481.482 135.444 481.353 135.605 481.353 135.896L481.288 138.545C480.125 136.445 478.058 135.056 475.216 135.056C470.597 135.056 467.432 138.641 467.432 143.357C467.432 148.105 470.597 151.658 475.216 151.658ZM469.693 143.357C469.693 139.707 472.148 137.22 475.539 137.22C478.93 137.22 481.288 139.74 481.288 143.422C481.288 147.072 478.93 149.494 475.539 149.494C472.148 149.494 469.693 147.039 469.693 143.357ZM495.699 151.271H502.127C507.23 151.271 509.717 148.654 509.717 144.972C509.717 142.033 508.005 139.675 505.098 138.997C507.327 138.222 508.361 136.219 508.361 134.12C508.361 131.439 506.81 128.661 502.224 128.661H495.699C495.409 128.661 495.247 128.823 495.247 129.113V150.818C495.247 151.109 495.409 151.271 495.699 151.271ZM497.637 149.106V140.16H501.998C505.454 140.16 507.262 141.871 507.262 144.681C507.262 147.556 505.454 149.106 501.998 149.106H497.637ZM497.637 138.189V130.825H501.998C504.452 130.825 506.035 131.859 506.035 134.346C506.035 136.8 504.452 138.189 501.998 138.189H497.637ZM514.981 131.342C515.788 131.342 516.434 130.696 516.434 129.888C516.434 129.049 515.788 128.403 514.981 128.403C514.173 128.403 513.527 129.049 513.527 129.888C513.527 130.696 514.173 131.342 514.981 131.342ZM513.818 150.818C513.818 151.109 513.947 151.271 514.238 151.271H515.724C516.014 151.271 516.143 151.109 516.143 150.818V135.896C516.143 135.605 516.014 135.444 515.724 135.444H514.238C513.947 135.444 513.818 135.605 513.818 135.896V150.818ZM528.309 151.658C532.896 151.658 536.384 148.073 536.384 143.357C536.384 138.641 532.896 135.056 528.309 135.056C523.69 135.056 520.202 138.641 520.202 143.357C520.202 148.073 523.69 151.658 528.309 151.658ZM522.463 143.357C522.463 139.772 524.95 137.22 528.309 137.22C531.636 137.22 534.123 139.772 534.123 143.357C534.123 146.942 531.636 149.494 528.309 149.494C524.95 149.494 522.463 146.942 522.463 143.357ZM545.065 151.464C545.905 151.464 547.1 151.303 547.1 150.754V149.752C547.1 149.429 546.971 149.268 546.486 149.333C546.196 149.365 545.743 149.397 545.485 149.397C544.516 149.397 544.032 148.945 544.032 147.718V137.382H546.712C547.003 137.382 547.165 137.22 547.165 136.93V135.896C547.165 135.605 547.003 135.444 546.712 135.444H544.032V131.697C544.032 131.406 543.902 131.245 543.612 131.245H542.126C541.835 131.245 541.706 131.406 541.706 131.697V135.444H539.639C539.348 135.444 539.187 135.605 539.187 135.896V136.93C539.187 137.22 539.348 137.382 539.639 137.382H541.706V148.041C541.706 150.366 542.869 151.464 545.065 151.464ZM558.501 151.658C560.697 151.658 562.732 150.98 564.154 149.623C564.38 149.397 564.509 149.236 564.283 148.945L563.734 148.202C563.604 148.041 563.411 148.041 563.249 148.17C562.022 149.106 560.633 149.688 558.695 149.688C554.851 149.688 552.72 147.33 552.397 144.197H564.315C565.252 144.197 565.478 143.712 565.478 142.55C565.478 138.674 562.765 135.056 558.081 135.056C553.366 135.056 550.136 138.641 550.136 143.293C550.136 147.911 553.333 151.658 558.501 151.658ZM552.397 142.388C552.72 139.158 554.916 137.123 558.049 137.123C561.247 137.123 563.281 139.255 563.411 142.388H552.397ZM577.013 151.658C579.565 151.658 581.6 150.657 582.956 149.01C583.15 148.751 583.215 148.557 583.021 148.364L582.181 147.588C581.891 147.298 581.632 147.427 581.406 147.653C580.437 148.687 579.21 149.494 577.143 149.494C573.622 149.494 571.038 146.975 571.038 143.357C571.038 139.74 573.622 137.22 577.11 137.22C579.177 137.22 580.405 138.028 581.406 139.094C581.6 139.287 581.858 139.417 582.149 139.126L582.989 138.351C583.183 138.157 583.118 137.963 582.924 137.705C581.568 136.058 579.533 135.056 577.013 135.056C572.33 135.056 568.777 138.609 568.777 143.357C568.777 148.105 572.33 151.658 577.013 151.658ZM587.637 151.271H589.122C589.413 151.271 589.542 151.109 589.542 150.818V141.742C589.542 138.932 591.513 137.22 594.129 137.22C596.745 137.22 598.231 138.932 598.231 141.742V150.818C598.231 151.109 598.328 151.271 598.618 151.271H600.136C600.427 151.271 600.556 151.109 600.556 150.818V141.516C600.556 137.317 598.231 135.056 594.775 135.056C592.158 135.056 590.447 136.348 589.542 137.963V128.629C589.542 128.338 589.413 128.177 589.122 128.177H587.637C587.346 128.177 587.217 128.338 587.217 128.629V150.818C587.217 151.109 587.346 151.271 587.637 151.271ZM616.565 151.658C619.408 151.658 621.959 150.075 621.959 147.104C621.959 144.649 620.312 143.454 618.245 142.614L616.695 141.968C615.08 141.29 613.981 140.741 613.981 139.223C613.981 137.737 615.241 137.027 616.695 137.027C617.857 137.027 618.891 137.511 619.892 138.545C620.183 138.835 620.377 138.868 620.667 138.545L621.184 137.963C621.378 137.737 621.41 137.479 621.216 137.253C620.086 135.831 618.406 135.056 616.598 135.056C613.949 135.056 611.753 136.671 611.753 139.287C611.753 141.548 613.368 142.744 615.306 143.551L617.179 144.326C618.665 144.94 619.666 145.65 619.666 147.136C619.666 148.783 618.342 149.591 616.501 149.591C614.757 149.591 613.594 148.848 612.625 147.814C612.366 147.556 612.076 147.556 611.882 147.814L611.397 148.46C611.204 148.751 611.204 149.01 611.43 149.268C612.302 150.398 614.014 151.658 616.565 151.658ZM630.513 151.464C631.353 151.464 632.548 151.303 632.548 150.754V149.752C632.548 149.429 632.419 149.268 631.934 149.333C631.644 149.365 631.191 149.397 630.933 149.397C629.964 149.397 629.48 148.945 629.48 147.718V137.382H632.16C632.451 137.382 632.613 137.22 632.613 136.93V135.896C632.613 135.605 632.451 135.444 632.16 135.444H629.48V131.697C629.48 131.406 629.35 131.245 629.06 131.245H627.574C627.283 131.245 627.154 131.406 627.154 131.697V135.444H625.087C624.796 135.444 624.635 135.605 624.635 135.896V136.93C624.635 137.22 624.796 137.382 625.087 137.382H627.154V148.041C627.154 150.366 628.317 151.464 630.513 151.464ZM643.368 151.658C646.21 151.658 648.277 150.366 649.44 148.234L649.505 150.818C649.505 151.109 649.634 151.271 649.924 151.271H651.313C651.604 151.271 651.733 151.109 651.733 150.818V135.896C651.733 135.605 651.604 135.444 651.313 135.444H649.924C649.634 135.444 649.505 135.605 649.505 135.896L649.44 138.545C648.277 136.445 646.21 135.056 643.368 135.056C638.749 135.056 635.584 138.641 635.584 143.357C635.584 148.105 638.749 151.658 643.368 151.658ZM637.845 143.357C637.845 139.707 640.299 137.22 643.691 137.22C647.082 137.22 649.44 139.74 649.44 143.422C649.44 147.072 647.082 149.494 643.691 149.494C640.299 149.494 637.845 147.039 637.845 143.357ZM657.03 151.271H658.515C658.806 151.271 658.935 151.109 658.935 150.818V141.516C658.935 139.74 659.71 137.22 662.553 137.22C662.876 137.22 663.263 137.253 663.683 137.382C664.038 137.479 664.265 137.414 664.265 137.059V135.928C664.265 135.638 664.2 135.508 664.006 135.379C663.715 135.185 663.199 135.056 662.553 135.056C660.582 135.056 659.517 136.251 658.903 137.737L658.838 135.928C658.838 135.573 658.709 135.444 658.386 135.444H657.03C656.739 135.444 656.61 135.605 656.61 135.896V150.818C656.61 151.109 656.739 151.271 657.03 151.271ZM673.253 151.464C674.093 151.464 675.288 151.303 675.288 150.754V149.752C675.288 149.429 675.159 149.268 674.674 149.333C674.383 149.365 673.931 149.397 673.673 149.397C672.704 149.397 672.219 148.945 672.219 147.718V137.382H674.9C675.191 137.382 675.352 137.22 675.352 136.93V135.896C675.352 135.605 675.191 135.444 674.9 135.444H672.219V131.697C672.219 131.406 672.09 131.245 671.799 131.245H670.314C670.023 131.245 669.894 131.406 669.894 131.697V135.444H667.827C667.536 135.444 667.374 135.605 667.374 135.896V136.93C667.374 137.22 667.536 137.382 667.827 137.382H669.894V148.041C669.894 150.366 671.057 151.464 673.253 151.464ZM685.038 151.658C687.654 151.658 689.398 150.366 690.303 148.751L690.367 150.786C690.399 151.141 690.496 151.271 690.819 151.271H692.208C692.499 151.271 692.628 151.109 692.628 150.818V135.896C692.628 135.605 692.499 135.444 692.208 135.444H690.69C690.399 135.444 690.303 135.605 690.303 135.896V144.972C690.303 147.782 688.3 149.494 685.684 149.494C683.067 149.494 681.614 147.782 681.614 144.972V135.896C681.614 135.605 681.485 135.444 681.194 135.444H679.708C679.418 135.444 679.288 135.605 679.288 135.896V145.198C679.288 149.397 681.614 151.658 685.038 151.658ZM697.94 157.407H699.426C699.716 157.407 699.845 157.246 699.845 156.955V148.331C701.008 150.366 703.075 151.658 705.853 151.658C710.504 151.658 713.67 148.105 713.67 143.357C713.67 138.641 710.504 135.056 705.853 135.056C703.043 135.056 700.944 136.445 699.781 138.545L699.716 135.896C699.716 135.605 699.587 135.444 699.296 135.444H697.94C697.649 135.444 697.52 135.605 697.52 135.896V156.955C697.52 157.246 697.649 157.407 697.94 157.407ZM699.813 143.422C699.813 139.74 702.171 137.22 705.53 137.22C708.954 137.22 711.409 139.707 711.409 143.357C711.409 147.039 708.954 149.494 705.53 149.494C702.171 149.494 699.813 147.072 699.813 143.422Z" fill="#050505"/>
<rect x="119.515" y="211.197" width="862.971" height="502.964" rx="31.0073" fill="white"/>
<path d="M146.288 268.453H147.806C148.097 268.453 148.259 268.292 148.259 268.001V246.296C148.259 246.005 148.097 245.844 147.806 245.844H146.288C145.998 245.844 145.836 246.005 145.836 246.296V268.001C145.836 268.292 145.998 268.453 146.288 268.453ZM167.486 268.841C169.682 268.841 171.717 268.162 173.138 266.806C173.365 266.58 173.494 266.418 173.268 266.128L172.719 265.385C172.589 265.223 172.396 265.223 172.234 265.352C171.007 266.289 169.618 266.87 167.68 266.87C163.836 266.87 161.704 264.513 161.381 261.38H173.3C174.237 261.38 174.463 260.895 174.463 259.732C174.463 255.856 171.75 252.239 167.066 252.239C162.35 252.239 159.121 255.824 159.121 260.475C159.121 265.094 162.318 268.841 167.486 268.841ZM161.381 259.571C161.704 256.341 163.901 254.306 167.034 254.306C170.231 254.306 172.266 256.438 172.396 259.571H161.381ZM178.989 268.453H180.475C180.766 268.453 180.895 268.292 180.895 268.001V258.925C180.895 256.115 182.865 254.403 185.482 254.403C188.098 254.403 189.584 256.115 189.584 258.925V268.001C189.584 268.292 189.68 268.453 189.971 268.453H191.489C191.78 268.453 191.909 268.292 191.909 268.001V258.699C191.909 254.5 189.584 252.239 186.128 252.239C183.511 252.239 181.799 253.531 180.895 255.146L180.798 253.111C180.798 252.756 180.669 252.626 180.346 252.626H178.989C178.699 252.626 178.569 252.788 178.569 253.079V268.001C178.569 268.292 178.699 268.453 178.989 268.453ZM204.23 268.841C206.781 268.841 208.816 267.839 210.173 266.192C210.367 265.934 210.431 265.74 210.237 265.546L209.398 264.771C209.107 264.48 208.849 264.61 208.622 264.836C207.653 265.869 206.426 266.677 204.359 266.677C200.838 266.677 198.254 264.157 198.254 260.54C198.254 256.922 200.838 254.403 204.327 254.403C206.394 254.403 207.621 255.21 208.622 256.276C208.816 256.47 209.075 256.599 209.365 256.309L210.205 255.533C210.399 255.34 210.334 255.146 210.141 254.887C208.784 253.24 206.749 252.239 204.23 252.239C199.546 252.239 195.993 255.792 195.993 260.54C195.993 265.288 199.546 268.841 204.23 268.841ZM221.102 268.841C225.688 268.841 229.177 265.255 229.177 260.54C229.177 255.824 225.688 252.239 221.102 252.239C216.483 252.239 212.995 255.824 212.995 260.54C212.995 265.255 216.483 268.841 221.102 268.841ZM215.256 260.54C215.256 256.955 217.743 254.403 221.102 254.403C224.429 254.403 226.916 256.955 226.916 260.54C226.916 264.125 224.429 266.677 221.102 266.677C217.743 266.677 215.256 264.125 215.256 260.54ZM238.855 268.841C241.472 268.841 243.216 267.549 244.12 265.934L244.185 267.969C244.217 268.324 244.314 268.453 244.637 268.453H246.026C246.316 268.453 246.446 268.292 246.446 268.001V253.079C246.446 252.788 246.316 252.626 246.026 252.626H244.508C244.217 252.626 244.12 252.788 244.12 253.079V262.155C244.12 264.965 242.118 266.677 239.501 266.677C236.885 266.677 235.432 264.965 235.432 262.155V253.079C235.432 252.788 235.302 252.626 235.012 252.626H233.526C233.235 252.626 233.106 252.788 233.106 253.079V262.381C233.106 266.58 235.432 268.841 238.855 268.841ZM251.757 268.453H253.243C253.534 268.453 253.663 268.292 253.663 268.001V258.925C253.663 256.115 255.633 254.403 258.25 254.403C260.866 254.403 262.352 256.115 262.352 258.925V268.001C262.352 268.292 262.448 268.453 262.739 268.453H264.257C264.548 268.453 264.677 268.292 264.677 268.001V258.699C264.677 254.5 262.352 252.239 258.896 252.239C256.279 252.239 254.567 253.531 253.663 255.146L253.566 253.111C253.566 252.756 253.437 252.626 253.114 252.626H251.757C251.467 252.626 251.337 252.788 251.337 253.079V268.001C251.337 268.292 251.467 268.453 251.757 268.453ZM273.848 268.647C274.687 268.647 275.882 268.485 275.882 267.936V266.935C275.882 266.612 275.753 266.451 275.269 266.515C274.978 266.547 274.526 266.58 274.267 266.58C273.298 266.58 272.814 266.128 272.814 264.9V254.564H275.495C275.785 254.564 275.947 254.403 275.947 254.112V253.079C275.947 252.788 275.785 252.626 275.495 252.626H272.814V248.88C272.814 248.589 272.685 248.428 272.394 248.428H270.908C270.618 248.428 270.488 248.589 270.488 248.88V252.626H268.421C268.131 252.626 267.969 252.788 267.969 253.079V254.112C267.969 254.403 268.131 254.564 268.421 254.564H270.488V265.223C270.488 267.549 271.651 268.647 273.848 268.647ZM287.284 268.841C289.48 268.841 291.515 268.162 292.936 266.806C293.162 266.58 293.291 266.418 293.065 266.128L292.516 265.385C292.387 265.223 292.193 265.223 292.032 265.352C290.804 266.289 289.415 266.87 287.477 266.87C283.634 266.87 281.502 264.513 281.179 261.38H293.097C294.034 261.38 294.26 260.895 294.26 259.732C294.26 255.856 291.547 252.239 286.864 252.239C282.148 252.239 278.918 255.824 278.918 260.475C278.918 265.094 282.116 268.841 287.284 268.841ZM281.179 259.571C281.502 256.341 283.698 254.306 286.831 254.306C290.029 254.306 292.064 256.438 292.193 259.571H281.179ZM298.787 268.453H300.273C300.563 268.453 300.693 268.292 300.693 268.001V258.699C300.693 256.922 301.468 254.403 304.31 254.403C304.633 254.403 305.021 254.435 305.441 254.564C305.796 254.661 306.022 254.597 306.022 254.241V253.111C306.022 252.82 305.957 252.691 305.764 252.562C305.473 252.368 304.956 252.239 304.31 252.239C302.34 252.239 301.274 253.434 300.66 254.92L300.596 253.111C300.596 252.756 300.466 252.626 300.143 252.626H298.787C298.496 252.626 298.367 252.788 298.367 253.079V268.001C298.367 268.292 298.496 268.453 298.787 268.453ZM316.523 268.841C318.72 268.841 320.754 268.162 322.176 266.806C322.402 266.58 322.531 266.418 322.305 266.128L321.756 265.385C321.626 265.223 321.433 265.223 321.271 265.352C320.044 266.289 318.655 266.87 316.717 266.87C312.873 266.87 310.742 264.513 310.419 261.38H322.337C323.274 261.38 323.5 260.895 323.5 259.732C323.5 255.856 320.787 252.239 316.103 252.239C311.388 252.239 308.158 255.824 308.158 260.475C308.158 265.094 311.355 268.841 316.523 268.841ZM310.419 259.571C310.742 256.341 312.938 254.306 316.071 254.306C319.269 254.306 321.303 256.438 321.433 259.571H310.419ZM334.583 268.841C337.426 268.841 339.493 267.549 340.656 265.417L340.72 268.001C340.72 268.292 340.849 268.453 341.14 268.453H342.529C342.82 268.453 342.949 268.292 342.949 268.001V245.811C342.949 245.521 342.82 245.359 342.529 245.359H341.043C340.752 245.359 340.623 245.521 340.623 245.811V255.63C339.46 253.563 337.361 252.239 334.583 252.239C329.964 252.239 326.799 255.824 326.799 260.54C326.799 265.288 329.964 268.841 334.583 268.841ZM329.06 260.54C329.06 256.89 331.515 254.403 334.906 254.403C338.298 254.403 340.656 256.922 340.656 260.604C340.656 264.254 338.298 266.677 334.906 266.677C331.515 266.677 329.06 264.222 329.06 260.54ZM361.268 268.841C364.11 268.841 366.178 267.549 367.34 265.417L367.405 268.001C367.405 268.292 367.534 268.453 367.825 268.453H369.214C369.504 268.453 369.634 268.292 369.634 268.001V253.079C369.634 252.788 369.504 252.626 369.214 252.626H367.825C367.534 252.626 367.405 252.788 367.405 253.079L367.34 255.727C366.178 253.628 364.11 252.239 361.268 252.239C356.649 252.239 353.484 255.824 353.484 260.54C353.484 265.288 356.649 268.841 361.268 268.841ZM355.745 260.54C355.745 256.89 358.2 254.403 361.591 254.403C364.982 254.403 367.34 256.922 367.34 260.604C367.34 264.254 364.982 266.677 361.591 266.677C358.2 266.677 355.745 264.222 355.745 260.54ZM374.93 268.453H376.416C376.706 268.453 376.836 268.292 376.836 268.001V258.925C376.836 256.115 378.806 254.403 381.422 254.403C384.038 254.403 385.524 256.115 385.524 258.925V268.001C385.524 268.292 385.621 268.453 385.912 268.453H387.43C387.72 268.453 387.85 268.292 387.85 268.001V258.699C387.85 254.5 385.524 252.239 382.068 252.239C379.452 252.239 377.74 253.531 376.836 255.146L376.739 253.111C376.739 252.756 376.609 252.626 376.286 252.626H374.93C374.639 252.626 374.51 252.788 374.51 253.079V268.001C374.51 268.292 374.639 268.453 374.93 268.453ZM400.37 248.524C401.178 248.524 401.824 247.878 401.824 247.071C401.824 246.231 401.178 245.585 400.37 245.585C399.563 245.585 398.917 246.231 398.917 247.071C398.917 247.878 399.563 248.524 400.37 248.524ZM399.208 268.001C399.208 268.292 399.337 268.453 399.627 268.453H401.113C401.404 268.453 401.533 268.292 401.533 268.001V253.079C401.533 252.788 401.404 252.626 401.113 252.626H399.627C399.337 252.626 399.208 252.788 399.208 253.079V268.001ZM406.819 268.453H408.305C408.596 268.453 408.725 268.292 408.725 268.001V258.925C408.725 256.115 410.695 254.403 413.311 254.403C415.927 254.403 417.413 256.115 417.413 258.925V268.001C417.413 268.292 417.51 268.453 417.801 268.453H419.319C419.61 268.453 419.739 268.292 419.739 268.001V258.699C419.739 254.5 417.413 252.239 413.957 252.239C411.341 252.239 409.629 253.531 408.725 255.146L408.628 253.111C408.628 252.756 408.499 252.626 408.176 252.626H406.819C406.528 252.626 406.399 252.788 406.399 253.079V268.001C406.399 268.292 406.528 268.453 406.819 268.453ZM428.909 268.647C429.749 268.647 430.944 268.485 430.944 267.936V266.935C430.944 266.612 430.815 266.451 430.33 266.515C430.04 266.547 429.588 266.58 429.329 266.58C428.36 266.58 427.876 266.128 427.876 264.9V254.564H430.557C430.847 254.564 431.009 254.403 431.009 254.112V253.079C431.009 252.788 430.847 252.626 430.557 252.626H427.876V248.88C427.876 248.589 427.746 248.428 427.456 248.428H425.97C425.679 248.428 425.55 248.589 425.55 248.88V252.626H423.483C423.192 252.626 423.031 252.788 423.031 253.079V254.112C423.031 254.403 423.192 254.564 423.483 254.564H425.55V265.223C425.55 267.549 426.713 268.647 428.909 268.647ZM442.345 268.841C444.542 268.841 446.576 268.162 447.998 266.806C448.224 266.58 448.353 266.418 448.127 266.128L447.578 265.385C447.449 265.223 447.255 265.223 447.093 265.352C445.866 266.289 444.477 266.87 442.539 266.87C438.695 266.87 436.564 264.513 436.241 261.38H448.159C449.096 261.38 449.322 260.895 449.322 259.732C449.322 255.856 446.609 252.239 441.925 252.239C437.21 252.239 433.98 255.824 433.98 260.475C433.98 265.094 437.177 268.841 442.345 268.841ZM436.241 259.571C436.564 256.341 438.76 254.306 441.893 254.306C445.091 254.306 447.126 256.438 447.255 259.571H436.241ZM453.849 268.453H455.334C455.625 268.453 455.754 268.292 455.754 268.001V258.699C455.754 256.922 456.529 254.403 459.372 254.403C459.695 254.403 460.082 254.435 460.502 254.564C460.858 254.661 461.084 254.597 461.084 254.241V253.111C461.084 252.82 461.019 252.691 460.825 252.562C460.535 252.368 460.018 252.239 459.372 252.239C457.401 252.239 456.336 253.434 455.722 254.92L455.657 253.111C455.657 252.756 455.528 252.626 455.205 252.626H453.849C453.558 252.626 453.429 252.788 453.429 253.079V268.001C453.429 268.292 453.558 268.453 453.849 268.453ZM471.585 268.841C473.781 268.841 475.816 268.162 477.237 266.806C477.463 266.58 477.593 266.418 477.366 266.128L476.817 265.385C476.688 265.223 476.494 265.223 476.333 265.352C475.106 266.289 473.717 266.87 471.779 266.87C467.935 266.87 465.803 264.513 465.48 261.38H477.399C478.335 261.38 478.562 260.895 478.562 259.732C478.562 255.856 475.848 252.239 471.165 252.239C466.449 252.239 463.219 255.824 463.219 260.475C463.219 265.094 466.417 268.841 471.585 268.841ZM465.48 259.571C465.803 256.341 468 254.306 471.133 254.306C474.33 254.306 476.365 256.438 476.494 259.571H465.48ZM487.004 268.841C489.846 268.841 492.398 267.258 492.398 264.287C492.398 261.832 490.751 260.637 488.684 259.797L487.133 259.151C485.518 258.473 484.42 257.924 484.42 256.405C484.42 254.92 485.68 254.209 487.133 254.209C488.296 254.209 489.33 254.694 490.331 255.727C490.622 256.018 490.815 256.05 491.106 255.727L491.623 255.146C491.817 254.92 491.849 254.661 491.655 254.435C490.525 253.014 488.845 252.239 487.036 252.239C484.388 252.239 482.191 253.854 482.191 256.47C482.191 258.731 483.806 259.926 485.744 260.734L487.618 261.509C489.103 262.122 490.105 262.833 490.105 264.319C490.105 265.966 488.78 266.774 486.939 266.774C485.195 266.774 484.032 266.031 483.064 264.997C482.805 264.739 482.514 264.739 482.321 264.997L481.836 265.643C481.642 265.934 481.642 266.192 481.868 266.451C482.741 267.581 484.452 268.841 487.004 268.841ZM500.952 268.647C501.792 268.647 502.987 268.485 502.987 267.936V266.935C502.987 266.612 502.857 266.451 502.373 266.515C502.082 266.547 501.63 266.58 501.372 266.58C500.403 266.58 499.918 266.128 499.918 264.9V254.564H502.599C502.89 254.564 503.051 254.403 503.051 254.112V253.079C503.051 252.788 502.89 252.626 502.599 252.626H499.918V248.88C499.918 248.589 499.789 248.428 499.498 248.428H498.013C497.722 248.428 497.593 248.589 497.593 248.88V252.626H495.525C495.235 252.626 495.073 252.788 495.073 253.079V254.112C495.073 254.403 495.235 254.564 495.525 254.564H497.593V265.223C497.593 267.549 498.755 268.647 500.952 268.647ZM508.15 248.524C508.958 248.524 509.604 247.878 509.604 247.071C509.604 246.231 508.958 245.585 508.15 245.585C507.343 245.585 506.697 246.231 506.697 247.071C506.697 247.878 507.343 248.524 508.15 248.524ZM506.987 268.001C506.987 268.292 507.117 268.453 507.407 268.453H508.893C509.184 268.453 509.313 268.292 509.313 268.001V253.079C509.313 252.788 509.184 252.626 508.893 252.626H507.407C507.117 252.626 506.987 252.788 506.987 253.079V268.001ZM514.599 268.453H516.085C516.375 268.453 516.505 268.292 516.505 268.001V258.925C516.505 256.115 518.475 254.403 521.091 254.403C523.707 254.403 525.193 256.115 525.193 258.925V268.001C525.193 268.292 525.29 268.453 525.581 268.453H527.099C527.389 268.453 527.519 268.292 527.519 268.001V258.699C527.519 254.5 525.193 252.239 521.737 252.239C519.121 252.239 517.409 253.531 516.505 255.146L516.408 253.111C516.408 252.756 516.279 252.626 515.956 252.626H514.599C514.308 252.626 514.179 252.788 514.179 253.079V268.001C514.179 268.292 514.308 268.453 514.599 268.453ZM539.452 275.074C543.586 275.074 547.559 272.975 547.559 267.839V253.079C547.559 252.788 547.43 252.626 547.139 252.626H545.75C545.459 252.626 545.363 252.788 545.363 253.079L545.33 255.533C544.135 253.499 542.1 252.239 539.258 252.239C534.768 252.239 531.603 255.566 531.603 260.249C531.603 264.965 534.768 268.259 539.29 268.259C542.1 268.259 544.103 267.064 545.298 265.062V267.71C545.298 271.715 542.423 273.072 539.355 273.072C537.708 273.072 536.125 272.684 534.768 271.845C534.542 271.715 534.316 271.78 534.187 272.006L533.702 272.91C533.573 273.169 533.67 273.395 533.929 273.556C535.188 274.428 537.191 275.074 539.452 275.074ZM533.864 260.249C533.864 256.664 536.351 254.371 539.613 254.371C542.94 254.371 545.266 256.696 545.266 260.314C545.266 263.899 542.94 266.128 539.613 266.128C536.351 266.128 533.864 263.867 533.864 260.249ZM563.589 268.841C566.431 268.841 568.983 267.258 568.983 264.287C568.983 261.832 567.335 260.637 565.268 259.797L563.718 259.151C562.103 258.473 561.005 257.924 561.005 256.405C561.005 254.92 562.264 254.209 563.718 254.209C564.881 254.209 565.914 254.694 566.915 255.727C567.206 256.018 567.4 256.05 567.691 255.727L568.207 255.146C568.401 254.92 568.434 254.661 568.24 254.435C567.109 253.014 565.43 252.239 563.621 252.239C560.972 252.239 558.776 253.854 558.776 256.47C558.776 258.731 560.391 259.926 562.329 260.734L564.202 261.509C565.688 262.122 566.689 262.833 566.689 264.319C566.689 265.966 565.365 266.774 563.524 266.774C561.78 266.774 560.617 266.031 559.648 264.997C559.39 264.739 559.099 264.739 558.905 264.997L558.421 265.643C558.227 265.934 558.227 266.192 558.453 266.451C559.325 267.581 561.037 268.841 563.589 268.841ZM577.536 268.647C578.376 268.647 579.571 268.485 579.571 267.936V266.935C579.571 266.612 579.442 266.451 578.958 266.515C578.667 266.547 578.215 266.58 577.956 266.58C576.987 266.58 576.503 266.128 576.503 264.9V254.564H579.184C579.474 254.564 579.636 254.403 579.636 254.112V253.079C579.636 252.788 579.474 252.626 579.184 252.626H576.503V248.88C576.503 248.589 576.374 248.428 576.083 248.428H574.597C574.306 248.428 574.177 248.589 574.177 248.88V252.626H572.11C571.819 252.626 571.658 252.788 571.658 253.079V254.112C571.658 254.403 571.819 254.564 572.11 254.564H574.177V265.223C574.177 267.549 575.34 268.647 577.536 268.647ZM590.391 268.841C593.233 268.841 595.3 267.549 596.463 265.417L596.528 268.001C596.528 268.292 596.657 268.453 596.948 268.453H598.337C598.627 268.453 598.756 268.292 598.756 268.001V253.079C598.756 252.788 598.627 252.626 598.337 252.626H596.948C596.657 252.626 596.528 252.788 596.528 253.079L596.463 255.727C595.3 253.628 593.233 252.239 590.391 252.239C585.772 252.239 582.607 255.824 582.607 260.54C582.607 265.288 585.772 268.841 590.391 268.841ZM584.868 260.54C584.868 256.89 587.323 254.403 590.714 254.403C594.105 254.403 596.463 256.922 596.463 260.604C596.463 264.254 594.105 266.677 590.714 266.677C587.323 266.677 584.868 264.222 584.868 260.54ZM604.053 268.453H605.539C605.829 268.453 605.958 268.292 605.958 268.001V258.699C605.958 256.922 606.734 254.403 609.576 254.403C609.899 254.403 610.287 254.435 610.706 254.564C611.062 254.661 611.288 254.597 611.288 254.241V253.111C611.288 252.82 611.223 252.691 611.029 252.562C610.739 252.368 610.222 252.239 609.576 252.239C607.606 252.239 606.54 253.434 605.926 254.92L605.862 253.111C605.862 252.756 605.732 252.626 605.409 252.626H604.053C603.762 252.626 603.633 252.788 603.633 253.079V268.001C603.633 268.292 603.762 268.453 604.053 268.453ZM620.276 268.647C621.116 268.647 622.311 268.485 622.311 267.936V266.935C622.311 266.612 622.182 266.451 621.697 266.515C621.407 266.547 620.954 266.58 620.696 266.58C619.727 266.58 619.243 266.128 619.243 264.9V254.564H621.923C622.214 254.564 622.376 254.403 622.376 254.112V253.079C622.376 252.788 622.214 252.626 621.923 252.626H619.243V248.88C619.243 248.589 619.113 248.428 618.823 248.428H617.337C617.046 248.428 616.917 248.589 616.917 248.88V252.626H614.85C614.559 252.626 614.398 252.788 614.398 253.079V254.112C614.398 254.403 614.559 254.564 614.85 254.564H616.917V265.223C616.917 267.549 618.08 268.647 620.276 268.647ZM632.061 268.841C634.677 268.841 636.421 267.549 637.326 265.934L637.39 267.969C637.423 268.324 637.52 268.453 637.843 268.453H639.231C639.522 268.453 639.651 268.292 639.651 268.001V253.079C639.651 252.788 639.522 252.626 639.231 252.626H637.713C637.423 252.626 637.326 252.788 637.326 253.079V262.155C637.326 264.965 635.323 266.677 632.707 266.677C630.091 266.677 628.637 264.965 628.637 262.155V253.079C628.637 252.788 628.508 252.626 628.217 252.626H626.732C626.441 252.626 626.312 252.788 626.312 253.079V262.381C626.312 266.58 628.637 268.841 632.061 268.841ZM644.963 274.59H646.449C646.74 274.59 646.869 274.428 646.869 274.138V265.514C648.032 267.549 650.099 268.841 652.876 268.841C657.527 268.841 660.693 265.288 660.693 260.54C660.693 255.824 657.527 252.239 652.876 252.239C650.066 252.239 647.967 253.628 646.804 255.727L646.74 253.079C646.74 252.788 646.61 252.626 646.32 252.626H644.963C644.672 252.626 644.543 252.788 644.543 253.079V274.138C644.543 274.428 644.672 274.59 644.963 274.59ZM646.836 260.604C646.836 256.922 649.194 254.403 652.553 254.403C655.977 254.403 658.432 256.89 658.432 260.54C658.432 264.222 655.977 266.677 652.553 266.677C649.194 266.677 646.836 264.254 646.836 260.604ZM676.137 268.647C676.977 268.647 678.172 268.485 678.172 267.936V266.935C678.172 266.612 678.043 266.451 677.559 266.515C677.268 266.547 676.816 266.58 676.557 266.58C675.588 266.58 675.104 266.128 675.104 264.9V254.564H677.785C678.075 254.564 678.237 254.403 678.237 254.112V253.079C678.237 252.788 678.075 252.626 677.785 252.626H675.104V248.88C675.104 248.589 674.975 248.428 674.684 248.428H673.198C672.907 248.428 672.778 248.589 672.778 248.88V252.626H670.711C670.42 252.626 670.259 252.788 670.259 253.079V254.112C670.259 254.403 670.42 254.564 670.711 254.564H672.778V265.223C672.778 267.549 673.941 268.647 676.137 268.647ZM682.593 268.453H684.079C684.369 268.453 684.499 268.292 684.499 268.001V258.925C684.499 256.115 686.469 254.403 689.085 254.403C691.701 254.403 693.187 256.115 693.187 258.925V268.001C693.187 268.292 693.284 268.453 693.575 268.453H695.093C695.384 268.453 695.513 268.292 695.513 268.001V258.699C695.513 254.5 693.187 252.239 689.731 252.239C687.115 252.239 685.403 253.531 684.499 255.146V245.811C684.499 245.521 684.369 245.359 684.079 245.359H682.593C682.302 245.359 682.173 245.521 682.173 245.811V268.001C682.173 268.292 682.302 268.453 682.593 268.453ZM707.381 268.841C710.223 268.841 712.291 267.549 713.453 265.417L713.518 268.001C713.518 268.292 713.647 268.453 713.938 268.453H715.327C715.617 268.453 715.747 268.292 715.747 268.001V253.079C715.747 252.788 715.617 252.626 715.327 252.626H713.938C713.647 252.626 713.518 252.788 713.518 253.079L713.453 255.727C712.291 253.628 710.223 252.239 707.381 252.239C702.762 252.239 699.597 255.824 699.597 260.54C699.597 265.288 702.762 268.841 707.381 268.841ZM701.858 260.54C701.858 256.89 704.313 254.403 707.704 254.403C711.096 254.403 713.453 256.922 713.453 260.604C713.453 264.254 711.096 266.677 707.704 266.677C704.313 266.677 701.858 264.222 701.858 260.54ZM725.533 268.647C726.372 268.647 727.567 268.485 727.567 267.936V266.935C727.567 266.612 727.438 266.451 726.954 266.515C726.663 266.547 726.211 266.58 725.953 266.58C724.984 266.58 724.499 266.128 724.499 264.9V254.564H727.18C727.471 254.564 727.632 254.403 727.632 254.112V253.079C727.632 252.788 727.471 252.626 727.18 252.626H724.499V248.88C724.499 248.589 724.37 248.428 724.079 248.428H722.593C722.303 248.428 722.174 248.589 722.174 248.88V252.626H720.106C719.816 252.626 719.654 252.788 719.654 253.079V254.112C719.654 254.403 719.816 254.564 720.106 254.564H722.174V265.223C722.174 267.549 723.336 268.647 725.533 268.647ZM731.73 274.59H735.864C736.155 274.59 736.349 274.396 736.349 274.105V243.098C736.349 242.808 736.155 242.614 735.864 242.614H731.73C731.439 242.614 731.245 242.808 731.245 243.098V274.105C731.245 274.396 731.439 274.59 731.73 274.59Z" fill="#050505"/>
<rect x="142.77" y="624.692" width="816.46" height="66.2135" rx="20.6715" fill="#F7F7F7"/>
<rect x="153.106" y="635.028" width="423.701" height="45.542" rx="10.3358" fill="#D4D4D4"/>
<path d="M179.93 669.104H187.456C192.915 669.104 195.531 666.487 195.531 662.676C195.531 659.382 193.334 657.54 191.138 656.959C192.592 656.249 194.045 654.666 194.045 652.243C194.045 649.11 191.816 646.494 187.779 646.494H179.93C179.64 646.494 179.446 646.688 179.446 646.979V668.619C179.446 668.91 179.64 669.104 179.93 669.104ZM184.484 664.614V659.317H187.133C189.039 659.317 190.331 660.028 190.331 661.933C190.331 663.807 189.039 664.614 187.133 664.614H184.484ZM184.484 655.344V650.984H186.713C188.264 650.984 189.232 651.533 189.232 653.083C189.232 654.73 188.264 655.344 186.713 655.344H184.484Z" fill="#050505"/>
<path d="M255.268 665.63C259.759 665.63 262.971 662.873 262.971 657.473V645.791C262.971 645.535 262.8 645.364 262.544 645.364H258.906C258.65 645.364 258.48 645.535 258.48 645.791V657.416C258.48 659.832 257.315 661.224 255.268 661.224C253.193 661.224 252.056 659.832 252.056 657.416V645.791C252.056 645.535 251.886 645.364 251.63 645.364H247.992C247.736 645.364 247.565 645.535 247.565 645.791V657.473C247.565 662.873 250.749 665.63 255.268 665.63Z" fill="#050505"/>
<path d="M247.124 667.522H263.413V670.235H247.124V667.522Z" fill="#050505"/>
<path d="M315.49 669.104H319.624C319.915 669.104 320.109 668.91 320.109 668.619L326.569 646.979C326.569 646.688 326.375 646.494 326.084 646.494H321.95C321.659 646.494 321.465 646.688 321.465 646.979L315.005 668.619C315.005 668.91 315.199 669.104 315.49 669.104Z" fill="#050505"/>
<path d="M386.533 669.427C390.345 669.427 394.22 667.392 394.22 662.677C394.22 661.295 393.892 660.216 393.361 659.35H384.866L386.856 660.287L386.92 660.316C388.306 660.946 389.246 661.373 389.246 662.677C389.246 664.098 388.084 664.744 386.436 664.744C384.724 664.744 383.497 664.033 382.011 662.58C381.721 662.354 381.462 662.451 381.268 662.677L379.104 665.132C378.878 665.39 378.878 665.648 379.04 665.842C380.396 667.651 382.948 669.427 386.533 669.427Z" fill="#050505"/>
<path d="M386.953 655.151L387.67 655.474H380.043C379.675 654.698 379.46 653.783 379.46 652.696C379.46 648.465 382.657 646.172 386.598 646.172C389.279 646.172 391.507 647.238 393.381 649.176C393.574 649.37 393.607 649.66 393.413 649.919L391.281 652.47C391.12 652.696 390.829 652.793 390.603 652.632C389.149 651.404 388.084 650.855 386.759 650.855C385.274 650.855 384.401 651.598 384.401 652.761C384.401 653.952 385.253 654.352 386.809 655.083L386.953 655.151Z" fill="#050505"/>
<path d="M378.161 658.704H395.603V656.12H378.161V658.704Z" fill="#050505"/>
<path d="M447.557 664.618H451.469C451.696 664.618 451.895 664.536 452.008 664.345L455.325 658.836L458.642 664.345C458.756 664.536 458.954 664.618 459.181 664.618H463.093C463.434 664.618 463.575 664.427 463.405 664.127L457.763 654.853L463.122 646.016C463.292 645.716 463.15 645.525 462.81 645.525H458.926C458.699 645.525 458.529 645.607 458.415 645.798L455.325 650.899L452.235 645.798C452.122 645.607 451.951 645.525 451.725 645.525H447.84C447.5 645.525 447.387 645.716 447.557 646.016L452.887 654.853L447.273 664.127C447.103 664.427 447.217 664.618 447.557 664.618Z" fill="#050505"/>
<path d="M465.754 670.073H472.763C472.916 670.073 473.035 669.975 473.035 669.827V668.207C473.035 668.06 472.916 667.945 472.763 667.945H468.595L471.436 665.163C471.895 664.705 473.018 663.691 473.018 661.989C473.018 659.976 471.402 658.486 469.071 658.486C467.217 658.486 466.043 659.419 465.363 660.368C465.278 660.467 465.278 660.614 465.397 660.728L466.571 661.858C466.724 661.989 466.826 662.005 466.962 661.858C467.404 661.301 467.932 660.778 468.85 660.778C469.837 660.778 470.483 661.367 470.483 662.218C470.483 663.232 469.616 664.001 469.139 664.46L465.601 667.913C465.516 668.027 465.482 668.109 465.482 668.224V669.827C465.482 669.975 465.601 670.073 465.754 670.073Z" fill="#050505"/>
<path d="M524.989 669.908H528.902C529.128 669.908 529.327 669.827 529.44 669.636L532.757 664.126L536.074 669.636C536.188 669.827 536.386 669.908 536.613 669.908H540.526C540.866 669.908 541.007 669.718 540.837 669.417L535.196 660.144L540.554 651.307C540.724 651.007 540.582 650.816 540.242 650.816H536.358C536.131 650.816 535.961 650.898 535.848 651.089L532.757 656.189L529.667 651.089C529.554 650.898 529.384 650.816 529.157 650.816H525.273C524.932 650.816 524.819 651.007 524.989 651.307L530.319 660.144L524.706 669.417C524.535 669.718 524.649 669.908 524.989 669.908Z" fill="#050505"/>
<path d="M543.186 657.276H550.195C550.348 657.276 550.467 657.178 550.467 657.03V655.41C550.467 655.263 550.348 655.148 550.195 655.148H546.027L548.868 652.366C549.327 651.908 550.45 650.894 550.45 649.192C550.45 647.179 548.834 645.689 546.503 645.689C544.649 645.689 543.475 646.622 542.795 647.571C542.71 647.67 542.71 647.817 542.829 647.931L544.003 649.061C544.156 649.192 544.258 649.208 544.394 649.061C544.836 648.504 545.364 647.981 546.282 647.981C547.269 647.981 547.915 648.57 547.915 649.421C547.915 650.435 547.048 651.204 546.571 651.663L543.033 655.116C542.948 655.23 542.914 655.312 542.914 655.427V657.03C542.914 657.178 543.033 657.276 543.186 657.276Z" fill="#050505"/>
<rect x="600.062" y="635.028" width="85.9161" height="45.542" rx="10.3358" fill="#D4D4D4"/>
<path fill-rule="evenodd" clip-rule="evenodd" d="M610.398 652.186C610.398 648.865 612.912 646.172 616.013 646.172H625.902V649.74H623.375V669.427H620.021V649.74H618.618V669.427H615.264V658.148C612.517 657.756 610.398 655.236 610.398 652.186Z" fill="#050505"/>
<path d="M659.22 647.504C659.22 646.723 658.578 646.08 657.796 646.183C652.555 646.873 648.511 651.317 648.511 656.698V666.599C648.511 668.161 649.789 669.427 651.367 669.427H657.793C659.37 669.427 660.648 668.161 660.648 666.599V659.527C660.648 657.964 659.37 656.698 657.793 656.698H652.795C652.006 656.698 651.353 656.059 651.495 655.29C652.079 652.122 654.601 649.624 657.8 649.045C658.576 648.905 659.22 648.285 659.22 647.504Z" fill="#050505"/>
<path d="M674.214 647.504C674.214 646.723 673.571 646.08 672.79 646.183C667.548 646.873 663.504 651.317 663.504 656.698V666.599C663.504 668.161 664.783 669.427 666.36 669.427H672.786C674.363 669.427 675.642 668.161 675.642 666.599V659.527C675.642 657.964 674.363 656.698 672.786 656.698H667.788C667 656.698 666.347 656.059 666.489 655.29C667.073 652.122 669.595 649.624 672.793 649.045C673.569 648.905 674.214 648.285 674.214 647.504Z" fill="#050505"/>
<rect x="709.233" y="635.028" width="85.9161" height="45.542" rx="10.3358" fill="#D4D4D4"/>
<path d="M719.569 651.34H742.825V648.756H719.569V651.34Z" fill="#050505"/>
<path d="M728.613 656.508L742.825 656.508V653.924L728.613 653.924V656.508Z" fill="#050505"/>
<path d="M728.613 661.676L742.825 661.676V659.092L728.613 659.092V661.676Z" fill="#050505"/>
<path d="M719.569 666.843H742.825V664.26H719.569V666.843Z" fill="#050505"/>
<path d="M724.737 653.278L720.861 657.154L724.737 661.03V653.278Z" fill="#050505"/>
<path d="M784.813 651.34H761.558V648.756H784.813V651.34Z" fill="#050505"/>
<path d="M775.77 656.508L761.558 656.508V653.924L775.77 653.924V656.508Z" fill="#050505"/>
<path d="M775.77 661.676L761.558 661.676V659.092L775.77 659.092V661.676Z" fill="#050505"/>
<path d="M784.813 666.843H761.558V664.26H784.813V666.843Z" fill="#050505"/>
<path d="M779.646 653.278L783.522 657.154L779.646 661.03V653.278Z" fill="#050505"/>
<rect x="818.405" y="635.028" width="130.489" height="45.542" rx="10.3358" fill="#D4D4D4"/>
<path d="M830.865 663.799H833.511C833.697 663.799 833.821 663.675 833.821 663.489V657.845H837.976C838.162 657.845 838.286 657.721 838.286 657.535V655.261C838.286 655.075 838.162 654.951 837.976 654.951H833.821V652.223H838.245C838.431 652.223 838.555 652.099 838.555 651.913V649.639C838.555 649.453 838.431 649.329 838.245 649.329H830.865C830.679 649.329 830.555 649.453 830.555 649.639V663.489C830.555 663.675 830.679 663.799 830.865 663.799ZM844.935 664.047C847.994 664.047 850.268 661.732 850.268 658.734C850.268 655.737 847.994 653.422 844.935 653.422C841.876 653.422 839.622 655.737 839.622 658.734C839.622 661.732 841.876 664.047 844.935 664.047ZM842.661 658.734C842.661 657.246 843.653 656.316 844.935 656.316C846.217 656.316 847.209 657.246 847.209 658.734C847.209 660.223 846.217 661.153 844.935 661.153C843.653 661.153 842.661 660.223 842.661 658.734ZM852.36 663.799H854.881C855.068 663.799 855.212 663.675 855.212 663.489V658.362C855.212 657.019 855.874 656.316 856.969 656.316C858.086 656.316 858.664 657.019 858.664 658.362V663.489C858.664 663.675 858.809 663.799 858.995 663.799H861.496C861.682 663.799 861.827 663.675 861.827 663.489V657.618C861.827 654.972 860.277 653.422 858.168 653.422C856.721 653.422 855.791 654.145 855.212 655.179L855.109 654.001C855.109 653.752 854.985 653.67 854.799 653.67H852.36C852.174 653.67 852.049 653.794 852.049 653.98V663.489C852.049 663.675 852.174 663.799 852.36 663.799ZM867.955 663.923C868.658 663.923 869.774 663.799 869.774 663.282V661.566C869.774 661.36 869.608 661.256 869.402 661.277C869.133 661.298 868.947 661.298 868.761 661.298C868.244 661.298 867.893 661.008 867.893 660.471V656.109H869.443C869.629 656.109 869.753 655.985 869.753 655.799V653.98C869.753 653.794 869.629 653.67 869.443 653.67H867.893V651.293C867.893 651.107 867.748 650.982 867.562 650.982H865.019C864.833 650.982 864.689 651.107 864.689 651.293V653.67H863.428C863.242 653.67 863.118 653.794 863.118 653.98V655.799C863.118 655.985 863.242 656.109 863.428 656.109H864.689V660.801C864.689 663.158 866.28 663.923 867.955 663.923Z" fill="#050505"/>
<path d="M901.681 664.047C904.12 664.047 906.6 662.745 906.6 659.727C906.6 657.246 904.947 656.295 903.417 655.572L901.949 654.91C900.895 654.414 900.316 654.166 900.316 653.38C900.316 652.636 900.874 652.161 901.825 652.161C902.673 652.161 903.355 652.512 904.285 653.298C904.43 653.401 904.616 653.339 904.719 653.194L906.084 651.561C906.208 651.396 906.187 651.21 906.063 651.086C904.864 649.846 903.438 649.163 901.722 649.163C899.2 649.163 897.153 650.631 897.153 653.339C897.153 655.592 898.6 656.688 900.13 657.37L901.887 658.197C902.797 658.61 903.417 658.879 903.417 659.727C903.417 660.636 902.673 661.05 901.619 661.05C900.523 661.05 899.737 660.595 898.787 659.665C898.6 659.52 898.435 659.582 898.311 659.727L896.926 661.298C896.781 661.463 896.781 661.628 896.885 661.752C897.753 662.91 899.386 664.047 901.681 664.047ZM910.231 652.057C911.223 652.057 911.946 651.293 911.946 650.321C911.946 649.37 911.223 648.605 910.231 648.605C909.238 648.605 908.494 649.37 908.494 650.321C908.494 651.293 909.238 652.057 910.231 652.057ZM908.639 663.489C908.639 663.675 908.763 663.799 908.949 663.799H911.512C911.698 663.799 911.822 663.675 911.822 663.489V653.98C911.822 653.794 911.698 653.67 911.512 653.67H908.949C908.763 653.67 908.639 653.794 908.639 653.98V663.489ZM914.046 663.799H921.591C921.777 663.799 921.922 663.675 921.922 663.489V661.546C921.922 661.36 921.777 661.236 921.591 661.236H917.23L921.757 656.398C921.86 656.295 921.901 656.13 921.901 655.985V653.98C921.901 653.794 921.757 653.67 921.591 653.67H914.108C913.922 653.67 913.798 653.794 913.798 653.98V655.902C913.798 656.088 913.922 656.233 914.108 656.233H918.387L913.881 661.07C913.757 661.174 913.736 661.318 913.736 661.463V663.489C913.736 663.675 913.86 663.799 914.046 663.799ZM928.238 664.047C929.664 664.047 930.966 663.633 931.834 662.765C932.021 662.6 932.021 662.435 931.938 662.31L931.09 661.112C930.966 660.967 930.884 660.925 930.718 661.008C929.871 661.484 929.168 661.566 928.486 661.566C927.039 661.566 926.088 661.029 925.736 659.933H931.566C932.496 659.933 932.765 659.313 932.765 658.28C932.765 655.675 930.966 653.422 927.866 653.422C924.744 653.422 922.656 655.716 922.656 658.693C922.656 661.773 924.91 664.047 928.238 664.047ZM925.695 657.742C925.943 656.543 926.832 656.026 927.886 656.026C928.94 656.026 929.747 656.522 929.953 657.742H925.695Z" fill="#050505"/>
<rect x="828.485" y="734.832" width="154" height="72.3504" rx="34.34" fill="#DC693F"/>
<path d="M865.911 778.786C868.678 778.786 871.352 777.274 871.352 773.995C871.352 771.251 869.492 770.158 867.725 769.321L866.05 768.553C864.794 767.972 864.143 767.6 864.143 766.647C864.143 765.67 864.887 765.088 866.073 765.088C867.097 765.088 867.911 765.53 868.911 766.414C869.097 766.554 869.283 766.507 869.422 766.321L870.748 764.716C870.887 764.53 870.887 764.344 870.725 764.181C869.446 762.809 867.887 762.042 865.957 762.042C863.19 762.042 860.934 763.67 860.934 766.623C860.934 769.042 862.469 770.274 864.19 771.065L866.167 771.995C867.306 772.507 868.12 772.902 868.12 773.995C868.12 775.158 867.213 775.739 865.841 775.739C864.515 775.739 863.585 775.181 862.562 774.135C862.376 773.972 862.19 773.995 862.027 774.181L860.678 775.739C860.515 775.925 860.515 776.088 860.632 776.251C861.585 777.553 863.376 778.786 865.911 778.786ZM874.345 778.507H882.624C882.833 778.507 882.973 778.367 882.973 778.158V775.902C882.973 775.693 882.833 775.553 882.624 775.553H877.322V771.739H882.322C882.531 771.739 882.671 771.6 882.671 771.391V769.135C882.671 768.926 882.531 768.786 882.322 768.786H877.322V765.181H882.624C882.833 765.181 882.973 765.042 882.973 764.833V762.577C882.973 762.368 882.833 762.228 882.624 762.228H874.345C874.136 762.228 873.996 762.368 873.996 762.577V778.158C873.996 778.367 874.136 778.507 874.345 778.507ZM895.523 778.507H898.616C898.825 778.507 898.965 778.367 898.965 778.158V762.577C898.965 762.368 898.825 762.228 898.616 762.228H895.988C895.779 762.228 895.639 762.368 895.639 762.577V773.181L889.825 762.461C889.732 762.298 889.593 762.228 889.407 762.228H886.314C886.104 762.228 885.965 762.368 885.965 762.577V778.158C885.965 778.367 886.104 778.507 886.314 778.507H888.941C889.151 778.507 889.29 778.367 889.29 778.158V767.554L895.104 778.274C895.197 778.437 895.337 778.507 895.523 778.507ZM902.529 778.507H907.319C912.761 778.507 915.622 774.949 915.622 770.367C915.622 765.786 912.761 762.228 907.319 762.228H902.529C902.32 762.228 902.18 762.368 902.18 762.577V778.158C902.18 778.367 902.32 778.507 902.529 778.507ZM905.506 775.553V765.181H907.273C910.575 765.181 912.25 767.019 912.25 770.367C912.25 773.716 910.575 775.553 907.273 775.553H905.506Z" fill="#F7F7F7"/>
<path fill-rule="evenodd" clip-rule="evenodd" d="M933.594 760.874C933.966 760.637 934.434 760.606 934.834 760.793L954.214 769.837C954.669 770.049 954.96 770.506 954.96 771.008C954.96 771.51 954.669 771.966 954.214 772.178L934.834 781.222C934.434 781.409 933.966 781.378 933.594 781.141C933.222 780.904 932.996 780.493 932.996 780.051V761.964C932.996 761.522 933.222 761.111 933.594 760.874ZM935.58 763.992V769.716H942.04C942.753 769.716 943.332 770.294 943.332 771.008C943.332 771.721 942.753 772.3 942.04 772.3H935.58V778.023L950.612 771.008L935.58 763.992Z" fill="#F7F7F7"/>
<rect x="58.792" y="33.292" width="984.416" height="834.613" rx="50.3869" stroke="#D4D4D4" stroke-width="2.58394" shape-rendering="crispEdges"/>
</g>
<defs>
<filter id="filter0_d_3085_5880" x="0.65329" y="0.992704" width="1100.69" height="950.891" filterUnits="userSpaceOnUse" color-interpolation-filters="sRGB">
<feFlood flood-opacity="0" result="BackgroundImageFix"/>
<feColorMatrix in="SourceAlpha" type="matrix" values="0 0 0 0 0 0 0 0 0 0 0 0 0 0 0 0 0 0 127 0" result="hardAlpha"/>
<feOffset dy="25.8394"/>
<feGaussianBlur stdDeviation="28.4234"/>
<feComposite in2="hardAlpha" operator="out"/>
<feColorMatrix type="matrix" values="0 0 0 0 0 0 0 0 0 0 0 0 0 0 0 0 0 0 0.1 0"/>
<feBlend mode="normal" in2="BackgroundImageFix" result="effect1_dropShadow_3085_5880"/>
<feBlend mode="normal" in="SourceGraphic" in2="effect1_dropShadow_3085_5880" result="shape"/>
</filter>
</defs>
</svg>
