<svg width="332" height="233" viewBox="0 0 332 233" fill="none" xmlns="http://www.w3.org/2000/svg">
<path d="M331.999 103.39H96.1992V232.99H331.999V103.39Z" fill="#D0E5FB"/>
<path d="M111.66 195.929V140.449C123.22 140.449 132.58 130.429 132.58 118.069H295.62C295.62 130.429 305 140.449 316.54 140.449V195.929C304.98 195.929 295.62 205.949 295.62 218.309H132.58C132.58 205.949 123.2 195.929 111.66 195.929Z" fill="#D0E5FB"/>
<path d="M214.099 190.229C243.812 190.229 267.899 180.362 267.899 168.189C267.899 156.017 243.812 146.149 214.099 146.149C184.386 146.149 160.299 156.017 160.299 168.189C160.299 180.362 184.386 190.229 214.099 190.229Z" fill="#D0E5FB"/>
<path d="M88.3594 216.289V90.6895H320.159V216.289H88.3594Z" fill="#FAFAFA" stroke="#0074EB" stroke-width="4"/>
<path d="M103.799 179.341V127.679C114.999 126.656 123.743 117.121 124.642 105.39H283.835C284.737 117.121 293.495 126.654 304.679 127.679V179.34C293.479 180.363 284.735 189.898 283.835 201.63H124.642C123.741 189.898 114.982 180.365 103.799 179.341Z" fill="#FAFAFA" stroke="#0074EB" stroke-width="4"/>
<path d="M256.059 153.51C256.059 155.844 254.913 158.257 252.44 160.652C249.961 163.053 246.269 165.308 241.543 167.244C232.102 171.111 218.921 173.55 204.259 173.55C189.597 173.55 176.416 171.111 166.975 167.244C162.249 165.308 158.557 163.053 156.078 160.652C153.605 158.257 152.459 155.844 152.459 153.51C152.459 151.176 153.605 148.763 156.078 146.367C158.557 143.966 162.249 141.712 166.975 139.776C176.416 135.908 189.597 133.47 204.259 133.47C218.921 133.47 232.102 135.908 241.543 139.776C246.269 141.712 249.961 143.966 252.44 146.367C254.913 148.763 256.059 151.176 256.059 153.51Z" fill="#FAFAFA" stroke="#0074EB" stroke-width="4"/>
<path d="M63.2991 71.2892C63.2991 88.0455 49.7154 101.629 32.9591 101.629C16.2028 101.629 2.61914 88.0455 2.61914 71.2892C2.61914 54.5329 16.2028 40.9492 32.9591 40.9492C49.7154 40.9492 63.2991 54.5329 63.2991 71.2892Z" fill="#FAFAFA" stroke="#0074EB" stroke-width="4"/>
<path d="M34.4721 82.1596L33.3513 82.0402C27.5937 81.427 23.5195 76.9519 23.5195 71.169C23.5195 65.4196 27.5577 61.1006 33.3397 60.5189L34.6967 60.3824L35.8259 60.5153C38.3007 60.8064 40.3651 61.7985 41.8367 63.2315L40.3258 64.6824C39.1682 63.7469 37.8551 63.1497 36.35 62.9132L35.1395 62.723V62.4686L34.474 62.6184L34.0396 62.5502V62.7163L32.7002 63.0178C28.7071 63.9169 26.2795 67.2773 26.2795 71.169C26.2795 75.023 28.6668 78.5122 32.6635 79.4915L34.0396 79.8287V80.0278L34.5347 79.95L35.1395 80.0982V79.855L36.35 79.6647C37.9055 79.4203 39.2386 78.7163 40.3627 77.7864L41.8444 79.2387C40.3184 80.6995 38.2458 81.7156 35.8059 82.0027L34.4721 82.1596Z" fill="#00274E" stroke="#0074EB" stroke-width="4"/>
<path d="M137.44 32.549C137.44 49.3053 123.856 62.889 107.1 62.889C90.3435 62.889 76.7598 49.3053 76.7598 32.549C76.7598 15.7927 90.3435 2.20898 107.1 2.20898C123.856 2.20898 137.44 15.7927 137.44 32.549Z" fill="#FAFAFA" stroke="#0074EB" stroke-width="4"/>
<path d="M99.6425 15.2327C99.643 15.2335 99.6434 15.2342 99.6439 15.235M99.6425 15.2327C99.6422 15.2322 99.6419 15.2317 99.6416 15.2312L99.6439 15.235M99.6425 15.2327L99.6439 15.235M99.6425 15.2327L99.6439 15.235M114.945 40.4644L114.025 41.1496L112.829 41.6805C107.531 44.031 101.772 42.1919 98.87 37.1856C95.9923 32.221 97.339 26.4616 102.069 23.0509L103.204 22.233L104.195 21.8039C106.486 20.8113 108.776 20.6403 110.766 21.1573L110.181 23.1836C108.718 22.9554 107.284 23.0816 105.847 23.6478L104.724 24.09L104.583 23.8447L104.012 24.3707L103.687 24.4987L103.751 24.6105L102.745 25.5375C99.7286 28.3157 99.3121 32.4377 101.27 35.8123C103.207 39.1515 107.017 40.9729 110.966 39.8067L110.665 37.724L111.161 37.4379L111.248 37.589L112.425 39.6267L114.246 38.1365C115.454 37.1485 116.267 35.8866 116.779 34.5131L118.789 35.0327C118.198 37.0747 116.912 39.0001 114.945 40.4644ZM98.6833 15.7809L98.6858 15.7854L98.6833 15.7809L98.6833 15.7809ZM115.819 34.265L115.819 34.265L115.819 34.265Z" fill="#00274E" stroke="#0074EB" stroke-width="4"/>
</svg>
