<svg width="332" height="233" viewBox="0 0 332 233" fill="none" xmlns="http://www.w3.org/2000/svg">
<path d="M332 103.389H96.2002V232.989H332V103.389Z" fill="#D0E5FB"/>
<path d="M111.66 195.928V140.448C123.22 140.448 132.58 130.428 132.58 118.068H295.62C295.62 130.428 305 140.448 316.54 140.448V195.928C304.98 195.928 295.62 205.948 295.62 218.308H132.58C132.58 205.948 123.2 195.928 111.66 195.928Z" fill="#D0E5FB"/>
<path d="M214.1 190.228C243.813 190.228 267.9 180.361 267.9 168.188C267.9 156.016 243.813 146.148 214.1 146.148C184.387 146.148 160.3 156.016 160.3 168.188C160.3 180.361 184.387 190.228 214.1 190.228Z" fill="#D0E5FB"/>
<path d="M88.3604 216.289V90.6895H320.16V216.289H88.3604Z" fill="#FAFAFA" stroke="#0074EB" stroke-width="4"/>
<path d="M103.8 179.34V127.678C115 126.655 123.744 117.12 124.643 105.389H283.836C284.738 117.12 293.496 126.653 304.68 127.678V179.34C293.48 180.362 284.736 189.897 283.836 201.629H124.643C123.742 189.897 114.983 180.364 103.8 179.34Z" fill="#FAFAFA" stroke="#0074EB" stroke-width="4"/>
<path d="M256.06 153.509C256.06 155.843 254.914 158.256 252.441 160.651C249.961 163.052 246.27 165.307 241.544 167.243C232.103 171.11 218.922 173.549 204.26 173.549C189.598 173.549 176.417 171.11 166.976 167.243C162.25 165.307 158.558 163.052 156.079 160.651C153.606 158.256 152.46 155.843 152.46 153.509C152.46 151.175 153.606 148.762 156.079 146.366C158.558 143.965 162.25 141.711 166.976 139.775C176.417 135.907 189.598 133.469 204.26 133.469C218.922 133.469 232.103 135.907 241.544 139.775C246.27 141.711 249.961 143.965 252.441 146.366C254.914 148.762 256.06 151.175 256.06 153.509Z" fill="#FAFAFA" stroke="#0074EB" stroke-width="4"/>
<path d="M63.3 71.2892C63.3 88.0455 49.7164 101.629 32.9601 101.629C16.2038 101.629 2.62012 88.0455 2.62012 71.2892C2.62012 54.5329 16.2038 40.9492 32.9601 40.9492C49.7164 40.9492 63.3 54.5329 63.3 71.2892Z" fill="#FAFAFA" stroke="#0074EB" stroke-width="4"/>
<path d="M34.4731 82.1596L33.3523 82.0402C27.5947 81.427 23.5205 76.9519 23.5205 71.169C23.5205 65.4196 27.5586 61.1006 33.3407 60.5189L34.6977 60.3824L35.8269 60.5153C38.3017 60.8064 40.3661 61.7985 41.8377 63.2315L40.3267 64.6824C39.1691 63.7469 37.8561 63.1497 36.351 62.9132L35.1405 62.723V62.4686L34.475 62.6184L34.0405 62.5502V62.7163L32.7012 63.0178C28.7081 63.9169 26.2805 67.2773 26.2805 71.169C26.2805 75.023 28.6678 78.5122 32.6645 79.4915L34.0405 79.8287V80.0278L34.5356 79.95L35.1405 80.0982V79.855L36.351 79.6647C37.9065 79.4203 39.2396 78.7163 40.3636 77.7864L41.8454 79.2387C40.3194 80.6995 38.2468 81.7156 35.8068 82.0027L34.4731 82.1596Z" fill="#00274E" stroke="#0074EB" stroke-width="4"/>
<path d="M137.44 32.549C137.44 49.3053 123.856 62.889 107.1 62.889C90.3435 62.889 76.7598 49.3053 76.7598 32.549C76.7598 15.7927 90.3435 2.20898 107.1 2.20898C123.856 2.20898 137.44 15.7927 137.44 32.549Z" fill="#FAFAFA" stroke="#0074EB" stroke-width="4"/>
<path d="M99.6425 15.2327C99.643 15.2335 99.6434 15.2342 99.6439 15.235M99.6425 15.2327C99.6422 15.2322 99.6419 15.2317 99.6416 15.2312L99.6439 15.235M99.6425 15.2327L99.6439 15.235M99.6425 15.2327L99.6439 15.235M114.945 40.4644L114.025 41.1496L112.829 41.6805C107.531 44.031 101.772 42.1919 98.87 37.1856C95.9923 32.221 97.339 26.4616 102.069 23.0509L103.204 22.233L104.195 21.8039C106.486 20.8113 108.776 20.6403 110.766 21.1573L110.181 23.1836C108.718 22.9554 107.284 23.0816 105.847 23.6478L104.724 24.09L104.583 23.8447L104.012 24.3707L103.687 24.4987L103.751 24.6105L102.745 25.5375C99.7286 28.3157 99.3121 32.4377 101.27 35.8123C103.207 39.1515 107.017 40.9729 110.966 39.8067L110.665 37.724L111.161 37.4379L111.248 37.589L112.425 39.6267L114.246 38.1365C115.454 37.1485 116.267 35.8866 116.779 34.5131L118.789 35.0327C118.198 37.0747 116.912 39.0001 114.945 40.4644ZM98.6833 15.7809L98.6858 15.7854L98.6833 15.7809L98.6833 15.7809ZM115.819 34.265L115.819 34.265L115.819 34.265Z" fill="#00274E" stroke="#0074EB" stroke-width="4"/>
</svg>
