<svg width="37" height="37" viewBox="0 0 37 37" fill="none" xmlns="http://www.w3.org/2000/svg">
<path fill-rule="evenodd" clip-rule="evenodd" d="M8.11602 7.39156C3.82082 19.7327 14.7457 32.1945 27.9008 29.6031L29.2703 29.3334L24.7026 24.8346L20.5515 26.8306C19.9297 27.1296 19.2133 27.1751 18.5576 26.9572C15.4459 25.9231 12.8882 23.6981 11.4619 20.7845L10.838 19.51C10.4532 18.724 10.4555 17.8076 10.8441 17.0235L13.0167 12.6404C12.1097 10.3459 10.3594 8.47258 8.11602 7.39156ZM9.41501 4.00819C12.6953 5.48929 15.2443 8.19247 16.5021 11.5237C16.8173 12.3587 16.7712 13.2845 16.3744 14.0851L14.2976 18.275L14.7595 19.2186C15.6981 21.136 17.3366 22.6275 19.3392 23.4012L23.0966 21.5945C24.5012 20.9191 26.1861 21.1965 27.2913 22.285L32.5864 27.5003C34.3429 29.2304 33.433 32.1904 30.9971 32.6703L28.6188 33.1388C12.411 36.3314 -1.00218 20.663 4.93128 5.46858C5.55813 3.86333 7.4303 3.11206 9.01766 3.82878L9.41501 4.00819Z" fill="#DC693F"/>
</svg>
