<svg width="37" height="37" viewBox="0 0 37 37" fill="none" xmlns="http://www.w3.org/2000/svg">
<path fill-rule="evenodd" clip-rule="evenodd" d="M18.5 9.55664C15.1863 9.55664 12.5 12.2429 12.5 15.5566C12.5 18.8703 15.1863 21.5566 18.5 21.5566C21.8137 21.5566 24.5 18.8703 24.5 15.5566C24.5 12.2429 21.8137 9.55664 18.5 9.55664ZM15.5 15.5566C15.5 13.8998 16.8431 12.5566 18.5 12.5566C20.1569 12.5566 21.5 13.8998 21.5 15.5566C21.5 17.2135 20.1569 18.5566 18.5 18.5566C16.8431 18.5566 15.5 17.2135 15.5 15.5566Z" fill="#DC693F"/>
<path fill-rule="evenodd" clip-rule="evenodd" d="M17.688 33.3178C17.6884 33.3181 17.6889 33.3184 18.5 32.0566L17.688 33.3178C18.1821 33.6355 18.817 33.6361 19.3111 33.3184L18.5 32.0566C19.3111 33.3184 19.3107 33.3187 19.3111 33.3184L19.3132 33.3171L19.3162 33.3151L19.3251 33.3094L19.3541 33.2904C19.3783 33.2745 19.4123 33.252 19.4553 33.223C19.5413 33.1652 19.6637 33.0814 19.8172 32.9729C20.1241 32.7558 20.5565 32.4388 21.0725 32.0297C22.1024 31.2132 23.4774 30.0203 24.8566 28.513C27.5813 25.5354 30.5 21.1344 30.5 15.8566C30.5 9.10365 25.167 3.55664 18.5 3.55664C11.833 3.55664 6.5 9.10365 6.5 15.8566C6.5 21.1344 9.41873 25.5354 12.1434 28.513C13.5226 30.0203 14.8976 31.2132 15.9275 32.0297C16.4435 32.4388 16.8759 32.7558 17.1828 32.9729C17.3363 33.0814 17.4587 33.1652 17.5447 33.223C17.5877 33.252 17.6217 33.2745 17.6459 33.2904L17.6749 33.3094L17.6838 33.3151L17.688 33.3178ZM9.5 15.8566C9.5 10.6803 13.569 6.55664 18.5 6.55664C23.431 6.55664 27.5 10.6803 27.5 15.8566C27.5 20.0289 25.1687 23.7279 22.6434 26.4878C21.3976 27.8492 20.1476 28.9345 19.2087 29.6789C18.9445 29.8884 18.7058 30.0702 18.5 30.2227C18.2942 30.0702 18.0555 29.8884 17.7913 29.6789C16.8524 28.9345 15.6024 27.8492 14.3566 26.4878C11.8313 23.7279 9.5 20.0289 9.5 15.8566Z" fill="#DC693F"/>
</svg>
