<svg width="222" height="249" viewBox="0 0 222 249" fill="none" xmlns="http://www.w3.org/2000/svg">
<path d="M174.127 27.5115L214.168 176.944C215.937 183.546 215.164 190.241 212.4 195.954C211.868 197.095 211.239 198.208 210.543 199.268C210.228 198.426 209.917 197.6 209.574 196.783C198.005 168.175 170.481 149.599 140.349 148.761C137.186 148.664 135.785 144.833 138.142 142.722C151.932 130.329 157.915 110.35 151.155 91.3081C143.334 69.3062 120.111 56.137 97.2189 60.7024C69.9942 66.1258 53.4162 93.2571 60.4832 119.631C65.2866 137.558 79.721 150.32 96.7316 153.871C99.7699 154.501 100.344 158.571 97.694 160.19C77.8666 172.401 64.6743 193.01 61.6841 215.841C60.6962 223.396 60.8064 231.191 62.1698 239.007C55.3599 235.609 49.9983 229.435 47.8729 221.503L7.8325 72.0701C4.40149 59.2654 10.5706 46.1697 21.912 40.4038C23.6055 39.5401 25.4146 38.8415 27.3103 38.3335L140.391 8.03366C155.091 4.09468 170.189 12.811 174.127 27.5115Z" fill="#CAE9AA"/>
<path d="M210.543 199.268C206.968 204.682 201.459 208.867 194.69 210.681L81.6098 240.981C74.8416 242.794 67.9948 241.92 62.1702 239.007C60.8068 231.191 60.6966 223.396 61.6845 215.842C64.6747 193.011 77.867 172.401 97.6944 160.19C100.344 158.571 99.7703 154.501 96.732 153.871C79.7214 150.32 65.2871 137.558 60.4836 119.632C53.4166 93.2572 69.9946 66.1259 97.2193 60.7025C120.111 56.1371 143.335 69.3063 151.155 91.3081C157.915 110.35 151.933 130.329 138.143 142.722C135.785 144.833 137.186 148.664 140.349 148.761C170.481 149.599 198.005 168.175 209.574 196.783C209.918 197.6 210.228 198.426 210.543 199.268Z" fill="#61BC00"/>
<g style="mix-blend-mode:overlay">
<path d="M212.4 195.954C211.868 197.095 211.239 198.208 210.543 199.268C206.967 204.682 201.459 208.867 194.69 210.681L81.6097 240.981C74.8415 242.794 67.9947 241.92 62.1701 239.007C55.3602 235.609 49.9986 229.435 47.8732 221.503L7.8328 72.0701C4.40178 59.2654 10.5709 46.1697 21.9123 40.4038C22.3537 41.3193 22.7176 42.3447 22.9707 43.4889C29.7651 73.7683 36.5761 104.043 43.3872 134.318C49.4458 161.319 54.1113 189.175 61.6844 215.841C62.0765 217.305 62.5063 218.776 62.9483 220.226C66.321 231.549 71.0981 236.739 83.1593 233.792C98.2859 230.114 113.172 225.073 128.095 220.7C155.26 212.726 182.426 204.752 209.574 196.783C210.517 196.512 211.461 196.242 212.4 195.954Z" fill="#203F00"/>
</g>
</svg>
