<svg width="306" height="270" viewBox="0 0 306 270" fill="none" xmlns="http://www.w3.org/2000/svg">
<path d="M239.5 239.408H154.34V141.828H303.04V239.408H267.46H265.46V241.408V264.54L240.914 239.994L240.328 239.408H239.5Z" fill="#D0E5FB" stroke="#0074EB" stroke-width="4"/>
<path d="M186.68 192.029C186.68 186.109 191.32 181.229 197.24 181.229C203.16 181.229 207.92 186.109 207.92 192.029C207.92 197.949 203.16 202.589 197.24 202.589C191.32 202.589 186.68 197.829 186.68 192.029Z" fill="#0074EB"/>
<path d="M218.08 192.029C218.08 186.109 222.72 181.229 228.64 181.229C234.56 181.229 239.32 186.109 239.32 192.029C239.32 197.949 234.56 202.589 228.64 202.589C222.72 202.589 218.08 197.829 218.08 192.029Z" fill="#0074EB"/>
<path d="M249.459 192.029C249.459 186.109 254.099 181.229 260.019 181.229C265.939 181.229 270.699 186.109 270.699 192.029C270.699 197.949 265.939 202.589 260.019 202.589C254.099 202.589 249.459 197.829 249.459 192.029Z" fill="#0074EB"/>
<path d="M62.74 164.287V162.287H60.74H2V2.02734H244.9V162.287H105.96H105.132L104.546 162.873L62.74 204.66V164.287Z" fill="#FAFAFA" stroke="#0074EB" stroke-width="4"/>
<path d="M114.92 101.967L114.78 96.4667C114.2 74.6067 133.02 75.4667 133.02 62.2867C133.02 55.9067 128.38 52.2867 122.3 52.2867C114.48 52.2867 110.72 58.3667 108.68 63.1467C107.82 64.5867 106.66 64.5867 105.2 63.7267L96.3598 58.2267C93.7598 56.7867 93.4598 55.4667 93.8998 54.0267C97.9598 42.0067 108.68 32.8867 124.6 32.8867C138.94 32.8867 153.14 40.7067 153.14 58.0867C153.14 79.3867 133.58 80.2467 132.28 96.4667L131.84 101.967C131.7 103.267 130.98 104.147 129.66 104.147H117.2C115.9 104.147 114.88 103.287 114.88 101.967H114.92ZM123.46 113.267C130.12 113.267 135.48 118.767 135.48 125.427C135.48 132.087 130.12 137.307 123.46 137.307C116.8 137.307 111.58 131.947 111.58 125.427C111.58 118.907 116.8 113.267 123.46 113.267Z" fill="#0074EB"/>
</svg>
