<svg width="300" height="300" viewBox="0 0 300 300" fill="none" xmlns="http://www.w3.org/2000/svg">
<g clip-path="url(#clip0_1872_4257)">
<path d="M202.352 25.1981L42.2614 68.0941C37.1511 69.4634 32.792 72.1951 29.4436 75.8156C23.2788 82.422 20.57 91.9676 23.0824 101.344L52.9503 212.812C56.8331 227.303 71.7055 235.898 86.1847 232.018L104.677 227.063C109.247 225.839 113.624 229.532 113.198 234.232L113.337 235.144L114.142 240.374L117.45 261.696C118.434 268.056 126.906 269.598 130.068 263.972L130.759 262.75L156.224 217.45C158.025 214.28 161.005 211.97 164.526 211.027L246.275 189.122C260.754 185.242 269.337 170.363 265.454 155.872L235.586 44.4039C231.703 29.913 216.831 21.3184 202.352 25.1981V25.1981ZM161.576 175.448L135.108 182.541L130.302 164.607L156.771 157.515L161.576 175.448ZM161.599 131.308C145.895 138.415 153.358 149.1 153.358 149.1L129.182 155.578C129.182 155.578 120.572 134.518 144.408 122.053C168.243 109.587 157.995 82.4124 135.302 88.0711C112.606 93.7134 114.588 110.611 114.588 110.611L94.7853 115.917C94.7853 115.917 85.4414 83.1416 131.303 70.853C183.831 56.7781 197.918 114.918 161.599 131.308V131.308Z" fill="#68D3DA"/>
<path d="M131.303 70.8532C183.831 56.7784 197.917 114.918 161.598 131.309C145.895 138.415 153.357 149.101 153.357 149.101L129.182 155.579C129.182 155.579 120.572 134.518 144.407 122.053C168.242 109.587 157.994 82.4126 135.302 88.0713C112.605 93.7136 114.587 110.611 114.587 110.611L94.7849 115.917C94.7849 115.917 85.441 83.1418 131.303 70.8532V70.8532Z" fill="#CDF0F3"/>
<g style="mix-blend-mode:overlay">
<path d="M121.633 224.241C124.67 237.079 127.722 249.912 130.758 262.75L130.067 263.972C126.905 269.598 118.434 268.055 117.45 261.695L114.142 240.374L113.337 235.143L113.198 234.232C113.624 229.532 109.246 225.838 104.676 227.063L86.1843 232.018C71.705 235.898 56.8326 227.303 52.9498 212.812L23.082 101.344C20.5696 91.9674 23.2784 82.4217 29.4431 75.8154C38.6085 108.973 47.7945 142.142 56.9806 175.311C60.7365 188.869 63.8646 204.213 73.6071 214.955C80.1133 222.137 92.8346 226.634 100.316 218.586C106.799 211.595 119.452 214.987 121.633 224.241Z" fill="#234649"/>
</g>
<path d="M156.772 157.515L130.303 164.607L135.108 182.541L161.577 175.448L156.772 157.515Z" fill="#CDF0F3"/>
</g>
<defs>
<clipPath id="clip0_1872_4257">
<rect width="220" height="214" fill="white" transform="translate(16.0547 75.1162) rotate(-15)"/>
</clipPath>
</defs>
</svg>
