<svg width="231" height="285" viewBox="0 0 231 285" fill="none" xmlns="http://www.w3.org/2000/svg">
<path d="M100.06 198.444H0V225.944H100.06V198.444Z" fill="#D0E5FB"/>
<path d="M62.22 234.624H0V262.124H62.22V234.624Z" fill="#D0E5FB"/>
<path d="M100.06 162.265H0V189.765H100.06V162.265Z" fill="#D0E5FB"/>
<path d="M62.8047 17.577C109.093 -11.5316 169.851 3.81747 196.953 50.7196L196.948 50.7241C220.064 90.7668 211.015 140.55 177.828 170.152L176.567 171.277L177.466 172.708L225.526 249.228L225.532 249.237L225.538 249.246C232.139 259.504 228.812 273.223 218.239 279.333C207.668 285.441 194.134 281.473 188.538 270.608L188.533 270.599L188.528 270.589L146.288 190.709L145.497 189.215L143.892 189.745C100.205 204.184 50.7178 185.413 28.5987 142.35C6.07311 98.494 21.0816 43.8253 62.8047 17.577Z" fill="#FAFAFA" stroke="#0074EB" stroke-width="4"/>
<path d="M179.999 97.3432C179.999 133.805 150.441 163.363 113.979 163.363C77.5172 163.363 47.959 133.805 47.959 97.3432C47.959 60.8814 77.5172 31.3232 113.979 31.3232C150.441 31.3232 179.999 60.8814 179.999 97.3432Z" fill="#FAFAFA" stroke="#0074EB" stroke-width="4"/>
<path d="M179.439 257.664L218.899 234.884" stroke="#0074EB" stroke-width="4" stroke-miterlimit="10"/>
</svg>
