<svg width="236" height="236" viewBox="0 0 236 236" fill="none" xmlns="http://www.w3.org/2000/svg">
<path d="M233.05 220.037L220.027 233.072C218.983 234.115 217.759 234.877 216.455 235.358C212.863 236.722 208.649 235.96 205.76 233.072L155.293 182.635C149.594 176.94 140.925 175.316 133.621 178.745C97.502 195.711 52.7741 188.371 24.0793 156.725C1.50468 131.838 -5.15734 97.4042 3.91264 66.8614C7.94597 53.2846 15.0896 40.4498 25.3234 29.5803C61.7839 -9.14471 122.745 -9.82656 160.089 27.4746C188.844 56.2125 195.044 98.9484 178.69 133.723C175.259 141.002 176.904 149.666 182.583 155.361L233.05 205.798C236.983 209.729 236.983 216.106 233.05 220.037Z" fill="#E18440"/>
<path d="M216.455 235.358C212.863 236.722 208.649 235.96 205.76 233.072L155.293 182.635C149.594 176.94 140.925 175.315 133.621 178.745C97.502 195.711 52.7741 188.371 24.0793 156.725C1.50468 131.838 -5.15734 97.4042 3.91264 66.8613C4.21364 68.0445 4.37417 69.308 4.37417 70.6717C4.45443 88.9613 5.25708 110.68 12.9826 127.546C18.1999 138.917 29.437 147.199 39.7712 153.657C51.0886 160.736 64.0113 167.454 77.3353 169.68C93.2278 172.327 109.14 165.87 124.933 164.807C140.163 163.784 155.895 167.595 168.577 176.178C190.148 190.777 201.987 214.381 216.455 235.358Z" fill="#DC693F"/>
<path d="M135.006 135.066C112.251 157.808 75.2083 157.808 52.4531 135.066C29.6979 112.325 29.6979 75.3043 52.4531 52.5626C75.2083 29.8209 112.251 29.8209 135.006 52.5626C157.761 75.3043 157.761 112.325 135.006 135.066Z" fill="#F3CDBF"/>
</svg>
