<svg width="54" height="54" viewBox="0 0 54 54" fill="none" xmlns="http://www.w3.org/2000/svg">
<path fill-rule="evenodd" clip-rule="evenodd" d="M52.5779 7.10577C54.14 5.54367 54.14 3.01102 52.5779 1.44892C51.0158 -0.11318 48.4831 -0.113179 46.921 1.44892L27.122 21.2479L7.32306 1.44892C5.76096 -0.11318 3.2283 -0.11318 1.6662 1.44892C0.104106 3.01101 0.104109 5.54367 1.6662 7.10577L21.4652 26.9048L1.6662 46.7038C0.104106 48.2658 0.104103 50.7985 1.6662 52.3606C3.2283 53.9227 5.76096 53.9227 7.32306 52.3606L27.122 32.5616L46.921 52.3606C48.4831 53.9227 51.0158 53.9227 52.5779 52.3606C54.14 50.7985 54.14 48.2658 52.5779 46.7038L32.7789 26.9048L52.5779 7.10577Z" fill="none"/>
</svg>
