<svg width="25" height="25" viewBox="0 0 25 25" fill="current" xmlns="http://www.w3.org/2000/svg">
<path d="M4.73438 3.83557C4.18209 3.83557 3.73438 4.28329 3.73438 4.83557V20.8356C3.73438 21.3879 4.18209 21.8356 4.73438 21.8356H13.7344C14.2867 21.8356 14.7344 21.3879 14.7344 20.8356V16.8356C14.7344 16.2833 14.2867 15.8356 13.7344 15.8356C13.1821 15.8356 12.7344 16.2833 12.7344 16.8356V19.8356H5.73438V5.83557H12.7344V8.83557C12.7344 9.38786 13.1821 9.83557 13.7344 9.83557C14.2867 9.83557 14.7344 9.38786 14.7344 8.83557V4.83557C14.7344 4.28329 14.2867 3.83557 13.7344 3.83557H4.73438Z" fill="current"/>
<path d="M18.1094 9.13383C17.7218 8.74036 17.0887 8.73558 16.6952 9.12314C16.3018 9.51071 16.297 10.1439 16.6845 10.5373L17.9633 11.8356H8.62191C8.06962 11.8356 7.62191 12.2833 7.62191 12.8356C7.62191 13.3879 8.06962 13.8356 8.62191 13.8356H17.9633L16.6845 15.1338C16.297 15.5273 16.3018 16.1604 16.6952 16.548C17.0887 16.9356 17.7218 16.9308 18.1094 16.5373L21.0644 13.5373C21.4478 13.1481 21.4478 12.5231 21.0644 12.1338L18.1094 9.13383Z" fill="current"/>
</svg>
