<svg width="25" height="25" viewBox="0 0 25 25" fill="none" xmlns="http://www.w3.org/2000/svg">
<path d="M13.6836 7.21926C13.6836 6.66697 13.2359 6.21926 12.6836 6.21926C12.1313 6.21926 11.6836 6.66697 11.6836 7.21926V13.2193C11.6836 13.7715 12.1313 14.2193 12.6836 14.2193C13.2359 14.2193 13.6836 13.7715 13.6836 13.2193V7.21926Z" fill="black"/>
<path d="M13.6836 16.2193C13.6836 15.667 13.2359 15.2193 12.6836 15.2193C12.1313 15.2193 11.6836 15.667 11.6836 16.2193V16.7193C11.6836 17.2715 12.1313 17.7193 12.6836 17.7193C13.2359 17.7193 13.6836 17.2715 13.6836 16.7193V16.2193Z" fill="black"/>
<path fill-rule="evenodd" clip-rule="evenodd" d="M22.6836 12.2192C22.6836 17.7421 18.2064 22.2192 12.6836 22.2192C7.16075 22.2192 2.68359 17.7421 2.68359 12.2192C2.68359 6.69639 7.16075 2.21924 12.6836 2.21924C18.2064 2.21924 22.6836 6.69639 22.6836 12.2192ZM20.6836 12.2192C20.6836 16.6375 17.1019 20.2192 12.6836 20.2192C8.26532 20.2192 4.68359 16.6375 4.68359 12.2192C4.68359 7.80096 8.26532 4.21924 12.6836 4.21924C17.1019 4.21924 20.6836 7.80096 20.6836 12.2192Z" fill="black"/>
</svg>
