<svg width="25" height="24" viewBox="0 0 25 24" fill="none" xmlns="http://www.w3.org/2000/svg">
<path fill-rule="evenodd" clip-rule="evenodd" d="M12.625 22C18.1478 22 22.625 17.5228 22.625 12C22.625 6.47715 18.1478 2 12.625 2C7.10215 2 2.625 6.47715 2.625 12C2.625 17.5228 7.10215 22 12.625 22ZM13.625 6C13.625 5.44772 13.1773 5 12.625 5C12.0727 5 11.625 5.44772 11.625 6V13C11.625 13.5523 12.0727 14 12.625 14C13.1773 14 13.625 13.5523 13.625 13V6ZM13.625 16C13.625 15.4477 13.1773 15 12.625 15C12.0727 15 11.625 15.4477 11.625 16V17C11.625 17.5523 12.0727 18 12.625 18C13.1773 18 13.625 17.5523 13.625 17V16Z" fill="#D70000"/>
</svg>
