<svg width="36" height="35" viewBox="0 0 36 35" fill="none" xmlns="http://www.w3.org/2000/svg">
<path d="M35.0121 17.8882C35.0328 16.6904 34.9092 15.4944 34.6441 14.3262H18.2881V20.7912H27.8881C27.7062 21.9248 27.2968 23.0099 26.6847 23.9812C26.0726 24.9525 25.2703 25.79 24.3261 26.4432L24.2931 26.6592L29.4651 30.6652L29.8231 30.7012C31.5355 29.0466 32.8819 27.0513 33.7755 24.8442C34.6691 22.637 35.09 20.267 35.0111 17.8872" fill="#4285F4"/>
<path d="M18.288 34.922C22.5318 35.0425 26.6605 33.5323 29.825 30.7021L24.325 26.4431C22.5423 27.638 20.4312 28.247 18.286 28.185C16.083 28.1722 13.94 27.466 12.161 26.1666C10.3821 24.8672 9.05739 23.0407 8.37498 20.946L8.17498 20.963L2.79998 25.125L2.72998 25.325C4.17849 28.2112 6.40118 30.6375 9.14958 32.3329C11.898 34.0282 15.0638 34.9257 18.293 34.925" fill="#34A853"/>
<path d="M8.37688 20.946C7.99612 19.8368 7.79985 18.6727 7.79588 17.5C7.80274 16.3291 7.99201 15.1665 8.35688 14.054L8.34688 13.823L2.90288 9.59497L2.72488 9.67998C1.5031 12.1057 0.866699 14.7839 0.866699 17.5C0.866699 20.216 1.5031 22.8943 2.72488 25.32L8.37688 20.946Z" fill="#FBBC05"/>
<path d="M18.2881 6.81509C20.7844 6.77634 23.1986 7.70605 25.0241 9.40909L29.9411 4.60909C26.7877 1.6506 22.6117 0.027234 18.2881 0.0790858C15.0588 0.0782909 11.893 0.975744 9.14461 2.6711C6.39619 4.36646 4.17351 6.79289 2.7251 9.67909L8.3581 14.0541C9.04723 11.9599 10.3762 10.1348 12.1578 8.83604C13.9393 7.5373 16.0835 6.83044 18.2881 6.81509Z" fill="#EB4335"/>
</svg>
