<?xml version="1.0" encoding="utf-8"?>
<svg xmlns="http://www.w3.org/2000/svg">
<symbol id="apple" viewBox="0 0 28 32">
<path d="M23.0373 16.9102C23.0231 14.2883 24.209 12.3094 26.6094 10.852C25.2663 8.9302 23.2374 7.87286 20.5583 7.66568C18.0221 7.46564 15.2502 9.14452 14.2357 9.14452C13.1641 9.14452 10.7065 7.73712 8.77761 7.73712C4.79117 7.80142 0.554688 10.9163 0.554688 17.2531C0.554688 19.1249 0.897607 21.0586 1.58345 23.0542C2.4979 25.6761 5.7985 32.1058 9.24198 31.9987C11.0423 31.9558 12.314 30.7199 14.6572 30.7199C16.9291 30.7199 18.1079 31.9987 20.1154 31.9987C23.5874 31.9487 26.5737 26.1047 27.4453 23.4757C22.7873 21.2824 23.0373 17.046 23.0373 16.9102ZM18.9938 5.17951C20.9441 2.86481 20.7655 0.757281 20.7084 0C18.9866 0.100018 16.9934 1.17164 15.8575 2.49331C14.6072 3.90785 13.8714 5.65817 14.0286 7.62996C15.8932 7.77284 17.5935 6.81553 18.9938 5.17951Z" fill="current"/>

</symbol>
<symbol id="arrow" viewBox="0 0 14 10">
<path d="M7.87374 9.09663C7.47658 9.59856 6.71668 9.60335 6.31323 9.10646L0.619679 2.09439C0.089004 1.44082 0.554111 0.46405 1.396 0.46405L12.638 0.464051C13.474 0.464051 13.9409 1.42896 13.4222 2.08456L7.87374 9.09663Z" fill="current"/>

</symbol>
<symbol id="arrow_right" viewBox="0 0 24 24">
<path fill-rule="evenodd" clip-rule="evenodd" d="M14.7357 5.96139C13.9356 5.14814 12.6385 5.14814 11.8384 5.96139C11.0383 6.77464 11.0383 8.09317 11.8384 8.90642L12.687 9.769H5.73032C4.59887 9.769 3.68164 10.7013 3.68164 11.8515C3.68164 13.0016 4.59887 13.9339 5.73032 13.9339H12.687L11.8384 14.7965C11.0383 15.6097 11.0383 16.9283 11.8384 17.7415C12.6385 18.5548 13.9356 18.5548 14.7357 17.7415L19.0816 13.324C19.8817 12.5107 19.8817 11.1922 19.0816 10.3789L14.7357 5.96139Z" fill="current"/>

</symbol>
<symbol id="bell" viewBox="0 0 34 34">
<path fill-rule="evenodd" clip-rule="evenodd" d="M17 0.466675C10.9249 0.466675 6 5.39154 6 11.4667V22.4667H2.33333C1.32081 22.4667 0.5 23.2875 0.5 24.3C0.5 25.3125 1.32081 26.1333 2.33333 26.1333H31.6667C32.6792 26.1333 33.5 25.3125 33.5 24.3C33.5 23.2875 32.6792 22.4667 31.6667 22.4667H28V11.4667C28 5.39154 23.0751 0.466675 17 0.466675ZM9.66667 22.4667V11.4667C9.66667 7.41659 12.9499 4.13334 17 4.13334C21.0501 4.13334 24.3333 7.41659 24.3333 11.4667V22.4667H9.66667Z" fill="current"/>
<path d="M22.0813 30.0714C22.3577 29.4041 22.5 28.6889 22.5 27.9667H11.5C11.5 28.6889 11.6423 29.4041 11.9187 30.0714C12.1951 30.7387 12.6002 31.345 13.1109 31.8558C13.6216 32.3665 14.228 32.7716 14.8952 33.048C15.5625 33.3244 16.2777 33.4667 17 33.4667C17.7223 33.4667 18.4375 33.3244 19.1048 33.048C19.772 32.7716 20.3784 32.3665 20.8891 31.8558C21.3998 31.345 21.8049 30.7387 22.0813 30.0714Z" fill="current"/>

</symbol>
<symbol id="check" viewBox="0 0 18 13">
<path fill-rule="evenodd" clip-rule="evenodd" d="M17.3018 1.09229C17.7123 1.46174 17.7456 2.09403 17.3762 2.50454L8.37617 12.5045C8.02983 12.8894 7.44705 12.9462 7.03287 12.6356L1.03287 8.13558C0.591044 7.80421 0.5015 7.17741 0.832871 6.73558C1.16424 6.29375 1.79104 6.20421 2.23287 6.53558L7.50131 10.4869L15.8896 1.16662C16.259 0.756105 16.8913 0.722827 17.3018 1.09229Z" fill="current"/>

</symbol>
<symbol id="close" viewBox="0 0 15 16">
<path d="M0.936698 2.68978C0.546171 2.29926 0.546165 1.66609 0.936686 1.27557C1.32721 0.885038 1.96037 0.885032 2.3509 1.27555L7.67481 6.59936L12.9987 1.27555C13.3892 0.885032 14.0224 0.885038 14.4129 1.27557C14.8034 1.66609 14.8034 2.29926 14.4129 2.68978L9.08903 8.01357L14.4129 13.3374C14.8034 13.7279 14.8034 14.361 14.4129 14.7516C14.0224 15.1421 13.3892 15.1421 12.9987 14.7516L7.67481 9.42777L2.3509 14.7516C1.96037 15.1421 1.32721 15.1421 0.936686 14.7516C0.546165 14.361 0.546171 13.7279 0.936699 13.3374L6.26058 8.01357L0.936698 2.68978Z" fill="current"/>

</symbol>
<symbol id="delete" viewBox="0 0 25 25">
<path d="M10.3672 9.72595C10.9195 9.72595 11.3672 10.1737 11.3672 10.726V16.726C11.3672 17.2782 10.9195 17.726 10.3672 17.726C9.8149 17.726 9.36719 17.2782 9.36719 16.726V10.726C9.36719 10.1737 9.8149 9.72595 10.3672 9.72595Z" fill="current"/>
<path d="M15.3672 10.726C15.3672 10.1737 14.9195 9.72595 14.3672 9.72595C13.8149 9.72595 13.3672 10.1737 13.3672 10.726V16.726C13.3672 17.2782 13.8149 17.726 14.3672 17.726C14.9195 17.726 15.3672 17.2782 15.3672 16.726V10.726Z" fill="current"/>
<path fill-rule="evenodd" clip-rule="evenodd" d="M7.36719 4.72595C7.36719 4.17367 7.8149 3.72595 8.36719 3.72595H16.3672C16.9195 3.72595 17.3672 4.17367 17.3672 4.72595V6.72595H20.3672C20.9195 6.72595 21.3672 7.17367 21.3672 7.72595C21.3672 8.27824 20.9195 8.72595 20.3672 8.72595H20.2037L18.0181 20.9026C17.9326 21.3791 17.518 21.726 17.0339 21.726H7.60719C7.12042 21.726 6.70437 21.3755 6.62171 20.8958L4.52476 8.72595H4.36719C3.8149 8.72595 3.36719 8.27824 3.36719 7.72595C3.36719 7.17367 3.8149 6.72595 4.36719 6.72595H7.36719V4.72595ZM9.36719 6.72595H15.3672V5.72595H9.36719V6.72595ZM6.55423 8.72595L8.44962 19.726H16.1974L18.1717 8.72595H6.55423Z" fill="current"/>

</symbol>
<symbol id="exit" viewBox="0 0 25 25">
<path d="M4.73438 3.83557C4.18209 3.83557 3.73438 4.28329 3.73438 4.83557V20.8356C3.73438 21.3879 4.18209 21.8356 4.73438 21.8356H13.7344C14.2867 21.8356 14.7344 21.3879 14.7344 20.8356V16.8356C14.7344 16.2833 14.2867 15.8356 13.7344 15.8356C13.1821 15.8356 12.7344 16.2833 12.7344 16.8356V19.8356H5.73438V5.83557H12.7344V8.83557C12.7344 9.38786 13.1821 9.83557 13.7344 9.83557C14.2867 9.83557 14.7344 9.38786 14.7344 8.83557V4.83557C14.7344 4.28329 14.2867 3.83557 13.7344 3.83557H4.73438Z" fill="current"/>
<path d="M18.1094 9.13383C17.7218 8.74036 17.0887 8.73558 16.6952 9.12314C16.3018 9.51071 16.297 10.1439 16.6845 10.5373L17.9633 11.8356H8.62191C8.06962 11.8356 7.62191 12.2833 7.62191 12.8356C7.62191 13.3879 8.06962 13.8356 8.62191 13.8356H17.9633L16.6845 15.1338C16.297 15.5273 16.3018 16.1604 16.6952 16.548C17.0887 16.9356 17.7218 16.9308 18.1094 16.5373L21.0644 13.5373C21.4478 13.1481 21.4478 12.5231 21.0644 12.1338L18.1094 9.13383Z" fill="current"/>

</symbol>
<symbol id="facebook" viewBox="0 0 41 41">
<path d="M20.8218 0.403076C9.77678 0.403076 0.821777 9.35808 0.821777 20.4031C0.821777 30.4297 8.20844 38.7097 17.8318 40.1564V25.7031H12.8834V20.4464H17.8318V16.9481C17.8318 11.1564 20.6534 8.61474 25.4668 8.61474C27.7718 8.61474 28.9918 8.78641 29.5684 8.86308V13.4514H26.2851C24.2418 13.4514 23.5284 15.3897 23.5284 17.5731V20.4464H29.5168L28.7051 25.7031H23.5284V40.1981C33.2901 38.8747 40.8218 30.5281 40.8218 20.4031C40.8218 9.35808 31.8668 0.403076 20.8218 0.403076Z" fill="current"/>

</symbol>
<symbol id="go_back" viewBox="0 0 25 15">
<path d="M0.292893 6.79289C-0.0976311 7.18342 -0.0976311 7.81658 0.292893 8.20711L6.65685 14.5711C7.04738 14.9616 7.68054 14.9616 8.07107 14.5711C8.46159 14.1805 8.46159 13.5474 8.07107 13.1569L2.41421 7.5L8.07107 1.84315C8.46159 1.45262 8.46159 0.819457 8.07107 0.428932C7.68054 0.0384078 7.04738 0.0384078 6.65685 0.428932L0.292893 6.79289ZM1 8.5H25V6.5H1V8.5Z" fill="current"/>

</symbol>
<symbol id="google" viewBox="0 0 33 32">
<path d="M32.2417 16.3742C32.2417 25.5032 25.9901 32 16.7578 32C7.9062 32 0.757812 24.8516 0.757812 16C0.757812 7.14839 7.9062 0 16.7578 0C21.0675 0 24.6933 1.58065 27.4868 4.1871L23.132 8.37419C17.4352 2.87742 6.84168 7.00645 6.84168 16C6.84168 21.5806 11.2997 26.1032 16.7578 26.1032C23.0933 26.1032 25.4675 21.5613 25.8417 19.2065H16.7578V13.7032H31.9901C32.1385 14.5226 32.2417 15.3097 32.2417 16.3742Z" fill="current"/>

</symbol>
<symbol id="heart" viewBox="0 0 50 45">
<path fill-rule="evenodd" clip-rule="evenodd" d="M8.67501 8.26757C12.4698 4.37375 18.5954 4.37375 22.3902 8.26757C24.0485 9.96924 26.7641 9.96924 28.4225 8.26757C31.6307 4.97554 36.5051 4.46676 40.2284 6.74122C41.3832 7.44671 42.9233 7.50188 43.8925 6.55735C44.8617 5.61282 44.8914 4.04028 43.8002 3.23976C38.2561 -0.827659 30.5529 -0.453127 25.4063 4.36336C19.6585 -1.0158 10.7218 -0.854545 5.16526 4.84713C-0.518628 10.6794 -0.518629 20.1099 5.16526 25.9422L22.0632 43.1461C23.9065 45.0227 26.9062 45.0227 28.7494 43.1461L45.6407 25.9491L45.6474 25.9422C49.0917 22.408 50.4488 17.5524 49.7188 12.977C49.47 11.4179 47.706 10.7827 46.3388 11.5721C45.3267 12.1564 44.8744 13.3536 44.9726 14.5181C45.214 17.3815 44.2701 20.3315 42.1409 22.5184L42.1376 22.5218L25.4063 39.5559L8.67501 22.5218L8.6717 22.5184C4.84585 18.589 4.84695 12.1956 8.67501 8.26757Z" fill="current"/>

</symbol>
<symbol id="pencil_fill" viewBox="0 0 52 53">
<path d="M36.1942 7.26278C37.0403 6.41664 38.4122 6.41664 39.2583 7.26278L46.4217 14.4262C47.2679 15.2723 47.2679 16.6442 46.4217 17.4903L44.4631 19.449C43.6169 20.2951 42.2451 20.2951 41.3989 19.449L34.2355 12.2856C33.3894 11.4394 33.3894 10.0676 34.2355 9.22143L36.1942 7.26278Z" fill="current"/>
<path d="M38.3348 25.5772C39.1809 24.7311 39.181 23.3592 38.3348 22.5131L31.1714 15.3497C30.3253 14.5036 28.9534 14.5036 28.1073 15.3497L11.9247 31.5323C11.6178 31.8391 11.4102 32.2311 11.3287 32.6573L9.6344 41.515C9.34686 43.0182 10.6663 44.3376 12.1695 44.0501L21.0272 42.3558C21.4534 42.2743 21.8454 42.0667 22.1522 41.7598L38.3348 25.5772Z" fill="current"/>

</symbol>
<symbol id="plus" viewBox="0 0 18 18">
<path d="M10 0H8V8L0 8V10H8V18H10V10H18V8H10V0Z" fill="current"/>

</symbol>
<symbol id="search" viewBox="0 0 22 22">
<path d="M20.4725 19.1285L20.8261 18.775L20.4725 18.4214L19.7654 17.7143L15.4585 13.4074C16.3308 12.1259 16.8408 10.5774 16.8408 8.91101C16.8408 4.49273 13.2591 0.911011 8.84082 0.911011C4.42254 0.911011 0.84082 4.49273 0.84082 8.91101C0.84082 13.3293 4.42254 16.911 8.84082 16.911C10.5072 16.911 12.0557 16.401 13.3372 15.5287L17.6441 19.8356L18.3512 20.5427L18.7048 20.8963L19.0583 20.5427L20.4725 19.1285ZM13.8408 8.91101C13.8408 11.6724 11.6022 13.911 8.84082 13.911C6.0794 13.911 3.84082 11.6724 3.84082 8.91101C3.84082 6.14959 6.0794 3.91101 8.84082 3.91101C11.6022 3.91101 13.8408 6.14959 13.8408 8.91101Z" fill="current" stroke="current" stroke-linecap="square"/>

</symbol>
<symbol id="send" viewBox="0 0 50 45">
<path d="M9.44827 30.2149C10.5502 29.2232 10.5502 27.6152 9.44828 26.6235C8.3464 25.6317 6.55989 25.6317 5.45801 26.6234L1.99219 29.7429C0.890301 30.7346 0.890297 32.3425 1.99218 33.3343C3.09406 34.326 4.88056 34.326 5.98245 33.3343L9.44827 30.2149Z" fill="current"/>
<path d="M15.0913 35.294C16.1932 34.3022 16.1932 32.6943 15.0913 31.7025C13.9895 30.7108 12.2029 30.7108 11.1011 31.7025L4.52209 37.6239C3.4202 38.6157 3.42021 40.2236 4.52209 41.2154C5.62397 42.2071 7.41048 42.2071 8.51236 41.2154L15.0913 35.294Z" fill="current"/>
<path d="M20.7344 36.7816C21.8363 37.7733 21.8363 39.3813 20.7344 40.373L17.491 43.2923C16.3891 44.284 14.6026 44.284 13.5007 43.2923C12.3988 42.3005 12.3988 40.6926 13.5007 39.7008L16.7442 36.7816C17.846 35.7898 19.6326 35.7898 20.7344 36.7816Z" fill="current"/>
<path fill-rule="evenodd" clip-rule="evenodd" d="M8.16837 17.0665L15.5926 23.7942L17.8844 25.8551L29.7093 15.2121C30.7163 14.3058 32.3489 14.3058 33.3559 15.2121C34.3629 16.1185 34.3629 17.588 33.3559 18.4943L21.5328 29.1358L23.4265 30.8387C24.4358 31.7462 24.4362 33.2184 23.4274 34.1264C22.4213 35.0319 20.791 35.0344 19.7816 34.1319L18.5808 33.0584C16.5226 31.2185 15.8784 30.6399 13.6357 28.6077L1.86272 17.9392C0.355087 16.5823 0.672197 14.4646 2.46551 13.9137L45.8976 0.57264C48.1024 -0.104631 50.5198 2.07109 49.7673 4.05558L34.9447 43.1466C34.3326 44.7607 31.9798 45.0461 30.4722 43.6892L27.1022 40.6765C26.0894 39.771 26.0866 38.2973 27.096 37.3888C28.1006 36.4846 29.7285 36.4821 30.7365 37.3832L31.4418 38.0137L43.4997 6.21375L8.16837 17.0665Z" fill="current"/>

</symbol>
<symbol id="settings" viewBox="0 0 97 96">
<path fill-rule="evenodd" clip-rule="evenodd" d="M48.7155 16.0001C47.8719 16.0001 47.0352 16.0329 46.2066 16.0972C44.0041 16.2683 42.3573 18.1925 42.5284 20.395C42.5359 20.4907 42.5466 20.5853 42.5605 20.6788C39.3856 21.3909 36.4145 22.6423 33.7484 24.3318C33.6924 24.2561 33.6333 24.1818 33.5711 24.109C32.1356 22.4299 29.6107 22.2323 27.9315 23.6678C26.6583 24.7563 25.4716 25.9429 24.3831 27.2162C22.9476 28.8953 23.1452 31.4203 24.8244 32.8558C24.8971 32.918 24.9714 32.9771 25.0471 33.0331C23.3577 35.6992 22.1063 38.6703 21.3941 41.8452C21.3006 41.8313 21.206 41.8205 21.1104 41.8131C18.9079 41.642 16.9837 43.2888 16.8126 45.4913C16.7482 46.3198 16.7155 47.1566 16.7155 48.0001C16.7155 48.8437 16.7482 49.6804 16.8126 50.509C16.9837 52.7115 18.9079 54.3582 21.1104 54.1871C21.206 54.1797 21.3006 54.169 21.3941 54.155C22.1063 57.33 23.3577 60.3011 25.0471 62.9671C24.9714 63.0232 24.8971 63.0823 24.8244 63.1444C23.1452 64.5799 22.9476 67.1049 24.3831 68.7841C25.4716 70.0573 26.6583 71.244 27.9315 72.3324C29.6107 73.7679 32.1356 73.5704 33.5711 71.8912C33.6333 71.8185 33.6924 71.7442 33.7484 71.6684C36.4145 73.3579 39.3856 74.6093 42.5605 75.3215C42.5466 75.4149 42.5359 75.5096 42.5284 75.6052C42.3573 77.8077 44.0041 79.7319 46.2066 79.903C47.0352 79.9674 47.8719 80.0001 48.7155 80.0001C49.559 80.0001 50.3957 79.9674 51.2243 79.903C53.4268 79.7319 55.0736 77.8077 54.9025 75.6052C54.895 75.5096 54.8843 75.4149 54.8704 75.3215C58.0453 74.6093 61.0164 73.3579 63.6825 71.6684C63.7385 71.7442 63.7976 71.8185 63.8598 71.8912C65.2953 73.5704 67.8202 73.7679 69.4994 72.3324C70.7726 71.244 71.9593 70.0573 73.0478 68.7841C74.4833 67.1049 74.2857 64.5799 72.6065 63.1445C72.5338 63.0823 72.4595 63.0232 72.3838 62.9671C74.0732 60.3011 75.3247 57.33 76.0368 54.155C76.1303 54.169 76.2249 54.1797 76.3206 54.1871C78.5231 54.3582 80.4472 52.7115 80.6184 50.509C80.6827 49.6804 80.7155 48.8437 80.7155 48.0001C80.7155 47.1566 80.6827 46.3198 80.6184 45.4913C80.4472 43.2888 78.5231 41.642 76.3206 41.8131C76.2249 41.8205 76.1303 41.8313 76.0368 41.8452C75.3247 38.6703 74.0732 35.6992 72.3838 33.0331C72.4595 32.9771 72.5338 32.918 72.6065 32.8558C74.2857 31.4203 74.4833 28.8953 73.0478 27.2162C71.9593 25.9429 70.7726 24.7563 69.4994 23.6678C67.8202 22.2323 65.2953 22.4299 63.8598 24.109C63.7976 24.1818 63.7385 24.2561 63.6825 24.3318C61.0164 22.6423 58.0453 21.3909 54.8704 20.6788C54.8843 20.5853 54.895 20.4907 54.9025 20.395C55.0736 18.1925 53.4268 16.2683 51.2243 16.0972C50.3957 16.0329 49.559 16.0001 48.7155 16.0001ZM68.7155 48.0001C68.7155 59.0458 59.7611 68.0001 48.7155 68.0001C37.6698 68.0001 28.7155 59.0458 28.7155 48.0001C28.7155 36.9544 37.6698 28.0001 48.7155 28.0001C59.7611 28.0001 68.7155 36.9544 68.7155 48.0001Z" fill="current"/>

</symbol>
<symbol id="share" viewBox="0 0 50 45">
<path d="M33.2808 11.6924V7.37526L36.2157 10.4827C36.5438 10.8302 37.0941 10.8381 37.4321 10.5001L39.783 8.1492C40.1076 7.82462 40.1151 7.30073 39.7999 6.96702L34.763 1.63379C32.4242 -0.842559 28.2611 0.812623 28.2611 4.21881V9.31353C23.9258 9.75231 18.3694 11.3656 13.3532 15.223C7.22115 19.9386 2.12201 27.8373 0.921041 40.4033C0.708767 42.6244 2.34649 43.9619 3.67441 44.37C4.98652 44.7733 6.93472 44.5996 8.12271 42.9544C11.6438 38.0782 18.2767 31.2707 28.2611 30.2717V35.1112C28.2611 38.5173 32.4242 40.1725 34.763 37.6962L48.5372 23.1117C50.3643 21.1771 50.3643 18.1529 48.5372 16.2183L44.4133 11.8518C44.0851 11.5043 43.5348 11.4964 43.1968 11.8344L40.8459 14.1853C40.5213 14.5099 40.5139 15.0338 40.829 15.3675L44.8878 19.665L33.2808 31.9547V27.6375C33.2808 26.2514 32.1571 25.1277 30.7709 25.1277C19.2128 25.1277 11.1947 31.5289 6.45333 36.987C8.08893 28.0206 12.0803 22.5343 16.4132 19.2023C21.4229 15.3498 27.1213 14.2023 30.7709 14.2023C32.1571 14.2023 33.2808 13.0786 33.2808 11.6924Z" fill="current"/>

</symbol>
<symbol id="speaker" viewBox="0 0 14 21">
<path d="M6.99997 0.800049C5.34314 0.800049 4.00002 2.14318 4.00002 3.80001V9.80009C4.00002 11.4569 5.34314 12.8 6.99997 12.8C8.6568 12.8 9.99993 11.4569 9.99993 9.80009V3.80001C9.99993 2.14318 8.6568 0.800049 6.99997 0.800049Z" fill="current"/>
<path d="M2.03809 8.68933C2.03809 8.13705 1.59037 7.68933 1.03809 7.68933C0.485801 7.68933 0.0380859 8.13705 0.0380859 8.68933V9.50522C0.0380859 13.0106 2.6288 15.9109 5.99997 16.3958L5.99995 19.8C5.99995 20.3523 6.44766 20.8 6.99994 20.8C7.55223 20.8 7.99995 20.3523 7.99995 19.8L7.99997 16.3958C11.3711 15.9109 13.9619 13.0106 13.9619 9.50522V8.68933C13.9619 8.13705 13.5141 7.68933 12.9619 7.68933C12.4096 7.68933 11.9619 8.13705 11.9619 8.68933V9.50522C11.9619 12.2456 9.74035 14.4671 6.99997 14.4671C4.2596 14.4671 2.03809 12.2456 2.03809 9.50522V8.68933Z" fill="current"/>

</symbol>
<symbol id="star_fill" viewBox="0 0 42 40">
<path d="M16.242 3.02442C17.9192 -1.00814 23.6318 -1.00814 25.309 3.02443L28.5678 10.8595L37.0264 11.5376C41.3799 11.8866 43.1452 17.3196 39.8283 20.1609L33.3837 25.6813L35.3526 33.9355C36.366 38.1837 31.7444 41.5415 28.0172 39.2649L20.7755 34.8417L13.5338 39.2649C9.80656 41.5415 5.185 38.1837 6.19836 33.9355L8.16728 25.6813L1.72272 20.1609C-1.59418 17.3196 0.171108 11.8866 4.5246 11.5376L12.9832 10.8595L16.242 3.02442Z" fill="current"/>

</symbol>
<symbol id="study" viewBox="0 0 74 74">
<path fill-rule="evenodd" clip-rule="evenodd" d="M41.5349 9.0676C38.7191 7.50868 35.2809 7.50868 32.4651 9.0676L10.8217 21.0499C9.85082 21.5874 9.25 22.5985 9.25 23.6949C9.25 24.7913 9.85082 25.8024 10.8217 26.3399L32.4651 38.3222C35.2809 39.8811 38.7191 39.8811 41.5349 38.3222L63.1783 26.3399C64.1492 25.8024 64.75 24.7913 64.75 23.6949C64.75 22.5985 64.1492 21.5874 63.1783 21.0499L41.5349 9.0676ZM35.4884 14.3575C36.427 13.8379 37.573 13.8379 38.5116 14.3575L55.3775 23.6949L38.5116 33.0323C37.573 33.5519 36.427 33.5519 35.4884 33.0323L18.6225 23.6949L35.4884 14.3575Z" fill="current"/>
<path d="M24.6667 40.3857C24.6667 38.7097 23.2862 37.351 21.5833 37.351C19.8805 37.351 18.5 38.7097 18.5 40.3857V55.9667C18.5 56.1249 18.5126 56.2828 18.5376 56.4391C19.2604 60.9534 24.5649 67.1057 36.8579 67.6641C49.5902 68.2424 54.8068 61.1941 55.4719 56.3752C55.4906 56.2398 55.5 56.1033 55.5 55.9667V40.3857C55.5 38.7097 54.1195 37.351 52.4167 37.351C50.7138 37.351 49.3333 38.7097 49.3333 40.3857V55.7196C49.0076 57.3002 46.67 62.0339 37.1421 61.6012C27.3625 61.1569 25.0004 56.8189 24.6667 55.6563V40.3857Z" fill="current"/>

</symbol>
<symbol id="user" viewBox="0 0 38 38">
<path fill-rule="evenodd" clip-rule="evenodd" d="M19.0003 37.1333C29.1255 37.1333 37.3337 28.9252 37.3337 18.8C37.3337 8.67479 29.1255 0.466675 19.0003 0.466675C8.8751 0.466675 0.666992 8.67479 0.666992 18.8C0.666992 28.9252 8.8751 37.1333 19.0003 37.1333ZM19.0003 33.4667C22.9534 33.4667 26.5413 31.9027 29.1789 29.3598C23.816 23.3158 14.2369 23.2695 8.82912 29.3668C11.466 31.9056 15.0509 33.4667 19.0003 33.4667ZM22.6091 21.5187C25.9029 22.2119 29.0247 23.8651 31.504 26.4701C32.8758 24.2385 33.667 21.6116 33.667 18.8C33.667 10.6998 27.1005 4.13334 19.0003 4.13334C10.9001 4.13334 4.33366 10.6998 4.33366 18.8C4.33366 21.6155 5.12699 24.2457 6.5023 26.4793C8.99026 23.8625 12.1086 22.2119 15.3928 21.5194C13.1683 20.2601 11.667 17.872 11.667 15.1333C11.667 11.0833 14.9502 7.80001 19.0003 7.80001C23.0504 7.80001 26.3337 11.0833 26.3337 15.1333C26.3337 17.8715 24.8329 20.2592 22.6091 21.5187ZM22.667 15.1333C22.667 17.1584 21.0254 18.8 19.0003 18.8C16.9753 18.8 15.3337 17.1584 15.3337 15.1333C15.3337 13.1083 16.9753 11.4667 19.0003 11.4667C21.0254 11.4667 22.667 13.1083 22.667 15.1333Z" fill="current"/>

</symbol>
<symbol id="warning_fill" viewBox="0 0 25 24">
<path fill-rule="evenodd" clip-rule="evenodd" d="M12.625 22C18.1478 22 22.625 17.5228 22.625 12C22.625 6.47715 18.1478 2 12.625 2C7.10215 2 2.625 6.47715 2.625 12C2.625 17.5228 7.10215 22 12.625 22ZM13.625 6C13.625 5.44772 13.1773 5 12.625 5C12.0727 5 11.625 5.44772 11.625 6V13C11.625 13.5523 12.0727 14 12.625 14C13.1773 14 13.625 13.5523 13.625 13V6ZM13.625 16C13.625 15.4477 13.1773 15 12.625 15C12.0727 15 11.625 15.4477 11.625 16V17C11.625 17.5523 12.0727 18 12.625 18C13.1773 18 13.625 17.5523 13.625 17V16Z" fill="current"/>

</symbol>
<symbol id="work" viewBox="0 0 74 68">
<path fill-rule="evenodd" clip-rule="evenodd" d="M21.5837 9.06179C21.5837 7.5292 22.9641 6.28679 24.667 6.28679H49.3337C51.0365 6.28679 52.417 7.5292 52.417 9.06179V17.3868H61.667C65.0727 17.3868 67.8337 19.8716 67.8337 22.9368V32.5853C67.8348 32.6283 67.8348 32.6713 67.8337 32.714V53.4618C67.8337 56.527 65.0727 59.0118 61.667 59.0118H12.3337C8.92791 59.0118 6.16699 56.527 6.16699 53.4618V22.9368C6.16699 19.8716 8.9279 17.3868 12.3337 17.3868H21.5837V9.06179ZM61.667 30.6492V22.9368H12.3337V31.5523L36.9426 38.0665L61.667 30.6492ZM12.3337 37.3374L36.1303 43.6365C36.7343 43.7964 37.3781 43.7861 37.9754 43.6069L61.667 36.4994V53.4618H12.3337V37.3374ZM46.2503 11.8368V17.3868H27.7503V11.8368H46.2503Z" fill="current"/>

</symbol></svg>