<?xml version="1.0" encoding="utf-8"?>
<svg xmlns="http://www.w3.org/2000/svg">
<symbol id="artstation" viewBox="0 0 39 35">
<path d="M15.8591 0.113068L35.0303 34.4881L38.1461 27.4385C38.8696 25.9916 38.796 24.2741 37.9539 22.8944L25.8048 2.35611C24.9532 0.963922 23.4368 0.113068 21.804 0.113068H15.8591ZM12.3923 3.51578L3.20349 20.4256H21.8223L12.3923 3.51578ZM0.655273 25.1131L4.04883 31.8971C4.84258 33.4846 6.46389 34.4881 8.23889 34.4881H29.6653L24.4376 25.1131H0.655273Z" fill="current"/>

</symbol>
<symbol id="behance" viewBox="0 0 38 38">
<path d="M4.32186 0.967255C2.48019 0.967255 0.988525 2.45892 0.988525 4.30059V34.3006C0.988525 36.1423 2.48019 37.6339 4.32186 37.6339H34.3219C36.1635 37.6339 37.6552 36.1423 37.6552 34.3006V4.30059C37.6552 2.45892 36.1635 0.967255 34.3219 0.967255H4.32186ZM23.4885 12.6339H27.7496C28.2096 12.6339 28.5829 13.0073 28.5829 13.4673C28.5829 13.9273 28.2096 14.3006 27.7496 14.3006H23.4885C23.0285 14.3006 22.6552 13.9273 22.6552 13.4673C22.6552 13.0073 23.0285 12.6339 23.4885 12.6339ZM9.18839 13.2752H13.8303C16.5703 13.2752 18.2053 14.6157 18.2053 16.7973C18.2053 18.294 17.0983 19.5999 15.65 19.8149V19.9907C17.52 20.1274 18.8791 21.5366 18.8791 23.3566C18.8808 25.8316 17.0113 27.3995 13.9963 27.3995H9.18839C8.34173 27.3995 7.65519 26.713 7.65519 25.8663V14.8084C7.65519 13.9617 8.34173 13.2752 9.18839 13.2752ZM10.6109 15.5343V19.1281H12.831C14.4276 19.1297 15.2984 18.4727 15.2984 17.3377C15.2984 16.2127 14.4884 15.5343 13.0784 15.5343H10.6109ZM25.9267 16.3676C29.1083 16.3676 30.9853 18.3951 30.9853 21.8201V22.6893H23.5797V22.8357C23.618 24.4407 24.5588 25.4399 26.0471 25.4399C27.1721 25.4399 27.9443 25.04 28.2476 24.3266H30.9006C30.4706 26.3633 28.6091 27.6339 25.9657 27.6339C22.6774 27.6339 20.7411 25.5578 20.7411 22.0545C20.7411 18.5412 22.7167 16.3676 25.9267 16.3676ZM25.9397 18.5519C24.618 18.5519 23.6861 19.4696 23.5894 20.8696H28.189C28.129 19.4413 27.2697 18.5519 25.9397 18.5519ZM10.6109 21.1268V25.1404H13.2444C14.9477 25.1404 15.8681 24.4227 15.8681 23.1027C15.8681 21.8093 14.9177 21.1268 13.176 21.1268H10.6109Z" fill="current"/>

</symbol>
<symbol id="check" viewBox="0 0 18 13">
<path fill-rule="evenodd" clip-rule="evenodd" d="M17.3018 1.09229C17.7123 1.46174 17.7456 2.09403 17.3762 2.50454L8.37617 12.5045C8.02983 12.8894 7.44705 12.9462 7.03287 12.6356L1.03287 8.13558C0.591044 7.80421 0.5015 7.17741 0.832871 6.73558C1.16424 6.29375 1.79104 6.20421 2.23287 6.53558L7.50131 10.4869L15.8896 1.16662C16.259 0.756105 16.8913 0.722827 17.3018 1.09229Z" fill="current"/>

</symbol>
<symbol id="close" viewBox="0 0 15 16">
<path d="M0.936698 2.68978C0.546171 2.29926 0.546165 1.66609 0.936686 1.27557C1.32721 0.885038 1.96037 0.885032 2.3509 1.27555L7.67481 6.59936L12.9987 1.27555C13.3892 0.885032 14.0224 0.885038 14.4129 1.27557C14.8034 1.66609 14.8034 2.29926 14.4129 2.68978L9.08903 8.01357L14.4129 13.3374C14.8034 13.7279 14.8034 14.361 14.4129 14.7516C14.0224 15.1421 13.3892 15.1421 12.9987 14.7516L7.67481 9.42777L2.3509 14.7516C1.96037 15.1421 1.32721 15.1421 0.936686 14.7516C0.546165 14.361 0.546171 13.7279 0.936699 13.3374L6.26058 8.01357L0.936698 2.68978Z" fill="current"/>

</symbol>
<symbol id="delete" viewBox="0 0 25 25">
<path d="M10.3672 9.72595C10.9195 9.72595 11.3672 10.1737 11.3672 10.726V16.726C11.3672 17.2782 10.9195 17.726 10.3672 17.726C9.8149 17.726 9.36719 17.2782 9.36719 16.726V10.726C9.36719 10.1737 9.8149 9.72595 10.3672 9.72595Z" fill="current"/>
<path d="M15.3672 10.726C15.3672 10.1737 14.9195 9.72595 14.3672 9.72595C13.8149 9.72595 13.3672 10.1737 13.3672 10.726V16.726C13.3672 17.2782 13.8149 17.726 14.3672 17.726C14.9195 17.726 15.3672 17.2782 15.3672 16.726V10.726Z" fill="current"/>
<path fill-rule="evenodd" clip-rule="evenodd" d="M7.36719 4.72595C7.36719 4.17367 7.8149 3.72595 8.36719 3.72595H16.3672C16.9195 3.72595 17.3672 4.17367 17.3672 4.72595V6.72595H20.3672C20.9195 6.72595 21.3672 7.17367 21.3672 7.72595C21.3672 8.27824 20.9195 8.72595 20.3672 8.72595H20.2037L18.0181 20.9026C17.9326 21.3791 17.518 21.726 17.0339 21.726H7.60719C7.12042 21.726 6.70437 21.3755 6.62171 20.8958L4.52476 8.72595H4.36719C3.8149 8.72595 3.36719 8.27824 3.36719 7.72595C3.36719 7.17367 3.8149 6.72595 4.36719 6.72595H7.36719V4.72595ZM9.36719 6.72595H15.3672V5.72595H9.36719V6.72595ZM6.55423 8.72595L8.44962 19.726H16.1974L18.1717 8.72595H6.55423Z" fill="current"/>

</symbol>
<symbol id="deviantart" viewBox="0 0 26 41">
<path d="M25.6414 0.300568H17.5398L13.8406 7.30057H0.641357V17.3006H8.53979L0.641357 32.3006V40.3006H8.64136L12.3406 33.3006H25.6414V23.3006H17.6414L25.6414 8.30057V0.300568Z" fill="current"/>

</symbol>
<symbol id="dribbble" viewBox="0 0 42 43">
<path d="M31.8322 23.3839C30.3718 23.3839 28.9426 23.512 27.5478 23.7464C29.4582 28.6714 30.9062 33.8214 31.8468 39.1475C36.8124 36.161 40.4426 31.1808 41.5926 25.3079C38.5801 24.0714 35.2853 23.3839 31.8322 23.3839ZM23.2624 21.5558C22.7051 20.2912 22.1134 19.0443 21.4926 17.8152C17.1603 19.3954 12.4864 20.2589 7.61344 20.2589C5.15303 20.2589 2.74782 20.0266 0.407194 19.6058C0.362402 20.1662 0.321777 20.7287 0.321777 21.3006C0.321777 26.9308 2.57594 32.0381 6.21865 35.7912C9.75615 29.0433 15.8759 23.8537 23.2624 21.5558ZM24.3895 16.6183C25.0759 17.9881 25.7322 19.3756 26.3437 20.7881C28.1218 20.4443 29.9551 20.2589 31.8322 20.2589C35.3905 20.2589 38.7978 20.9089 41.9489 22.0902C41.9582 21.8256 41.9884 21.5673 41.9884 21.3006C41.9884 16.1131 40.0697 11.3725 36.9218 7.72246C33.3676 11.4298 29.1218 14.4631 24.3895 16.6183ZM8.63949 37.9152C12.1291 40.5506 16.4551 42.1339 21.1551 42.1339C23.9062 42.1339 26.5291 41.585 28.9353 40.612C28.0134 35.01 26.4999 29.6079 24.4707 24.461C17.5103 26.5381 11.7739 31.4798 8.63949 37.9152ZM34.7124 5.51413C31.0645 2.37767 26.3322 0.467255 21.1551 0.467255C18.8832 0.467255 16.7009 0.84538 14.652 1.52038C17.7666 5.361 20.5499 9.47975 22.9468 13.8423C27.3957 11.8402 31.3843 8.99746 34.7124 5.51413ZM0.896777 16.5193C3.07803 16.9162 5.31969 17.1339 7.61344 17.1339C11.9603 17.1339 16.1332 16.3818 20.0187 15.0162C17.6062 10.6756 14.8093 6.57767 11.6582 2.7808C6.31032 5.53392 2.3124 10.5277 0.896777 16.5193Z" fill="current"/>

</symbol>
<symbol id="edit_black" viewBox="0 0 36 36">
<path fill-rule="evenodd" clip-rule="evenodd" d="M5.03647 30.9635L9.41182 29.7847L23.4091 15.7874L20.2126 12.5909L6.21532 26.5882L5.03647 30.9635ZM2.56545 24.7593C2.64416 24.5631 2.76182 24.3848 2.9113 24.2353L18.7984 8.34824C18.9078 8.23881 19.0268 8.14472 19.1526 8.06596C19.9248 7.58253 20.9552 7.67662 21.6268 8.34824L27.6518 14.3732C27.6618 14.3832 27.6716 14.3932 27.6814 14.4034C28.317 15.0659 28.4078 16.0583 27.9538 16.8152C27.8712 16.9529 27.7705 17.0829 27.6518 17.2016L11.7647 33.0887C11.6152 33.2382 11.4369 33.3558 11.2407 33.4346L2.15191 35.8834C0.873422 36.3963 -0.396289 35.1266 0.116637 33.8481L2.56545 24.7593ZM25.3131 1.83359C27.7578 -0.611197 31.7216 -0.611195 34.1664 1.83359C36.6112 4.27838 36.6112 8.24216 34.1664 10.6869L32.0434 12.8414C31.9184 12.9683 31.7806 13.0749 31.6342 13.1613C30.8707 13.6117 29.8711 13.512 29.2114 12.8586L23.1286 6.83373C22.4538 6.16534 22.3554 5.13657 22.833 4.3631C22.9151 4.23015 23.0142 4.10475 23.1304 3.99002L25.3131 1.83359ZM28.1243 4.67908L27.3799 5.41457L30.6016 8.60564L31.3172 7.87942L31.338 7.85851C32.2207 6.97583 32.2207 5.54471 31.338 4.66202C30.4553 3.77933 29.0242 3.77933 28.1415 4.66202L28.1243 4.67908Z" fill="current"/>

</symbol>
<symbol id="edit_white" viewBox="0 0 37 36">
<path fill-rule="evenodd" clip-rule="evenodd" d="M5.79233 30.9635L10.1677 29.7847L24.165 15.7874L20.9685 12.5909L6.97118 26.5882L5.79233 30.9635ZM3.32131 24.7593C3.40002 24.5631 3.51768 24.3848 3.66716 24.2353L19.5543 8.34824C19.6637 8.23881 19.7826 8.14472 19.9085 8.06596C20.6806 7.58253 21.7111 7.67662 22.3827 8.34824L28.4076 14.3732C28.4176 14.3832 28.4275 14.3932 28.4372 14.4034C29.0728 15.0659 29.1637 16.0583 28.7097 16.8152C28.627 16.9529 28.5264 17.0829 28.4076 17.2016L12.5205 33.0887C12.371 33.2382 12.1928 33.3558 11.9966 33.4346L2.90777 35.8834C1.62928 36.3963 0.35957 35.1266 0.872497 33.8481L3.32131 24.7593ZM26.0689 1.83359C28.5137 -0.611197 32.4775 -0.611195 34.9223 1.83359C37.3671 4.27838 37.3671 8.24216 34.9223 10.6869L32.7993 12.8414C32.6743 12.9683 32.5365 13.0749 32.39 13.1613C31.6266 13.6117 30.6269 13.512 29.9673 12.8586L23.8844 6.83373C23.2096 6.16534 23.1112 5.13657 23.5889 4.3631C23.671 4.23015 23.7701 4.10475 23.8862 3.99002L26.0689 1.83359ZM28.8802 4.67908L28.1357 5.41457L31.3575 8.60564L32.0731 7.87942L32.0938 7.85851C32.9765 6.97583 32.9765 5.54471 32.0938 4.66202C31.2112 3.77933 29.78 3.77933 28.8973 4.66202L28.8802 4.67908Z" fill="current"/>

</symbol>
<symbol id="facebook" viewBox="0 0 41 41">
<path d="M20.8218 0.403076C9.77678 0.403076 0.821777 9.35808 0.821777 20.4031C0.821777 30.4297 8.20844 38.7097 17.8318 40.1564V25.7031H12.8834V20.4464H17.8318V16.9481C17.8318 11.1564 20.6534 8.61474 25.4668 8.61474C27.7718 8.61474 28.9918 8.78641 29.5684 8.86308V13.4514H26.2851C24.2418 13.4514 23.5284 15.3897 23.5284 17.5731V20.4464H29.5168L28.7051 25.7031H23.5284V40.1981C33.2901 38.8747 40.8218 30.5281 40.8218 20.4031C40.8218 9.35808 31.8668 0.403076 20.8218 0.403076Z" fill="current"/>

</symbol>
<symbol id="heart" viewBox="0 0 50 45">
<path fill-rule="evenodd" clip-rule="evenodd" d="M8.67501 8.26757C12.4698 4.37375 18.5954 4.37375 22.3902 8.26757C24.0485 9.96924 26.7641 9.96924 28.4225 8.26757C31.6307 4.97554 36.5051 4.46676 40.2284 6.74122C41.3832 7.44671 42.9233 7.50188 43.8925 6.55735C44.8617 5.61282 44.8914 4.04028 43.8002 3.23976C38.2561 -0.827659 30.5529 -0.453127 25.4063 4.36336C19.6585 -1.0158 10.7218 -0.854545 5.16526 4.84713C-0.518628 10.6794 -0.518629 20.1099 5.16526 25.9422L22.0632 43.1461C23.9065 45.0227 26.9062 45.0227 28.7494 43.1461L45.6407 25.9491L45.6474 25.9422C49.0917 22.408 50.4488 17.5524 49.7188 12.977C49.47 11.4179 47.706 10.7827 46.3388 11.5721C45.3267 12.1564 44.8744 13.3536 44.9726 14.5181C45.214 17.3815 44.2701 20.3315 42.1409 22.5184L42.1376 22.5218L25.4063 39.5559L8.67501 22.5218L8.6717 22.5184C4.84585 18.589 4.84695 12.1956 8.67501 8.26757Z" fill="current"/>

</symbol>
<symbol id="instagram" viewBox="0 0 39 39">
<path d="M11.2384 0.550568C5.48636 0.550568 0.821777 5.21515 0.821777 10.9672V27.6339C0.821777 33.386 5.48636 38.0506 11.2384 38.0506H27.9051C33.6572 38.0506 38.3218 33.386 38.3218 27.6339V10.9672C38.3218 5.21515 33.6572 0.550568 27.9051 0.550568H11.2384ZM32.0718 4.71723C33.2218 4.71723 34.1551 5.65057 34.1551 6.80057C34.1551 7.95057 33.2218 8.8839 32.0718 8.8839C30.9218 8.8839 29.9884 7.95057 29.9884 6.80057C29.9884 5.65057 30.9218 4.71723 32.0718 4.71723ZM19.5718 8.8839C25.3239 8.8839 29.9884 13.5485 29.9884 19.3006C29.9884 25.0527 25.3239 29.7172 19.5718 29.7172C13.8197 29.7172 9.15511 25.0527 9.15511 19.3006C9.15511 13.5485 13.8197 8.8839 19.5718 8.8839ZM19.5718 13.0506C17.9142 13.0506 16.3245 13.709 15.1524 14.8811C13.9803 16.0533 13.3218 17.643 13.3218 19.3006C13.3218 20.9582 13.9803 22.5479 15.1524 23.72C16.3245 24.8921 17.9142 25.5506 19.5718 25.5506C21.2294 25.5506 22.8191 24.8921 23.9912 23.72C25.1633 22.5479 25.8218 20.9582 25.8218 19.3006C25.8218 17.643 25.1633 16.0533 23.9912 14.8811C22.8191 13.709 21.2294 13.0506 19.5718 13.0506Z" fill="current"/>

</symbol>
<symbol id="pencil_fill" viewBox="0 0 52 53">
<path d="M36.1942 7.26278C37.0403 6.41664 38.4122 6.41664 39.2583 7.26278L46.4217 14.4262C47.2679 15.2723 47.2679 16.6442 46.4217 17.4903L44.4631 19.449C43.6169 20.2951 42.2451 20.2951 41.3989 19.449L34.2355 12.2856C33.3894 11.4394 33.3894 10.0676 34.2355 9.22143L36.1942 7.26278Z" fill="current"/>
<path d="M38.3348 25.5772C39.1809 24.7311 39.181 23.3592 38.3348 22.5131L31.1714 15.3497C30.3253 14.5036 28.9534 14.5036 28.1073 15.3497L11.9247 31.5323C11.6178 31.8391 11.4102 32.2311 11.3287 32.6573L9.6344 41.515C9.34686 43.0182 10.6663 44.3376 12.1695 44.0501L21.0272 42.3558C21.4534 42.2743 21.8454 42.0667 22.1522 41.7598L38.3348 25.5772Z" fill="current"/>

</symbol>
<symbol id="pinterest" viewBox="0 0 41 41">
<path d="M20.6414 0.300568C9.59636 0.300568 0.641357 9.25557 0.641357 20.3006C0.641357 28.7739 5.91302 36.0106 13.353 38.9239C13.178 37.3422 13.0197 34.9139 13.423 33.1872C13.7864 31.6272 15.768 23.2456 15.768 23.2456C15.768 23.2456 15.1697 22.0472 15.1697 20.2772C15.1697 17.4956 16.7814 15.4206 18.788 15.4206C20.4947 15.4206 21.318 16.7022 21.318 18.2372C21.318 19.9539 20.2264 22.5189 19.6614 24.8956C19.1897 26.8872 20.6597 28.5106 22.623 28.5106C26.178 28.5106 28.9097 24.7622 28.9097 19.3522C28.9097 14.5639 25.4697 11.2156 20.5564 11.2156C14.8664 11.2156 11.5264 15.4839 11.5264 19.8956C11.5264 21.6139 12.188 23.4572 13.0147 24.4606C13.178 24.6589 13.2014 24.8322 13.153 25.0339C13.0014 25.6656 12.6647 27.0239 12.598 27.3022C12.5114 27.6689 12.308 27.7456 11.9297 27.5689C9.43136 26.4056 7.86969 22.7539 7.86969 19.8206C7.86969 13.5122 12.453 7.71723 21.0847 7.71723C28.023 7.71723 33.4147 12.6606 33.4147 19.2689C33.4147 26.1622 29.068 31.7089 23.0364 31.7089C21.0097 31.7089 19.1047 30.6556 18.453 29.4122C18.453 29.4122 17.4497 33.2306 17.2064 34.1672C16.7547 35.9039 15.5364 38.0822 14.7197 39.4106C16.5914 39.9872 18.5797 40.3006 20.6414 40.3006C31.6864 40.3006 40.6414 31.3456 40.6414 20.3006C40.6414 9.25557 31.6864 0.300568 20.6414 0.300568Z" fill="current"/>

</symbol>
<symbol id="plus" viewBox="0 0 18 18">
<path d="M10 0H8V8L0 8V10H8V18H10V10H18V8H10V0Z" fill="current"/>

</symbol>
<symbol id="search" viewBox="0 0 22 22">
<path d="M20.4725 19.1285L20.8261 18.775L20.4725 18.4214L19.7654 17.7143L15.4585 13.4074C16.3308 12.1259 16.8408 10.5774 16.8408 8.91101C16.8408 4.49273 13.2591 0.911011 8.84082 0.911011C4.42254 0.911011 0.84082 4.49273 0.84082 8.91101C0.84082 13.3293 4.42254 16.911 8.84082 16.911C10.5072 16.911 12.0557 16.401 13.3372 15.5287L17.6441 19.8356L18.3512 20.5427L18.7048 20.8963L19.0583 20.5427L20.4725 19.1285ZM13.8408 8.91101C13.8408 11.6724 11.6022 13.911 8.84082 13.911C6.0794 13.911 3.84082 11.6724 3.84082 8.91101C3.84082 6.14959 6.0794 3.91101 8.84082 3.91101C11.6022 3.91101 13.8408 6.14959 13.8408 8.91101Z" fill="current" stroke="current" stroke-linecap="square"/>

</symbol>
<symbol id="send" viewBox="0 0 50 45">
<path d="M9.44827 30.2149C10.5502 29.2232 10.5502 27.6152 9.44828 26.6235C8.3464 25.6317 6.55989 25.6317 5.45801 26.6234L1.99219 29.7429C0.890301 30.7346 0.890297 32.3425 1.99218 33.3343C3.09406 34.326 4.88056 34.326 5.98245 33.3343L9.44827 30.2149Z" fill="current"/>
<path d="M15.0913 35.294C16.1932 34.3022 16.1932 32.6943 15.0913 31.7025C13.9895 30.7108 12.2029 30.7108 11.1011 31.7025L4.52209 37.6239C3.4202 38.6157 3.42021 40.2236 4.52209 41.2154C5.62397 42.2071 7.41048 42.2071 8.51236 41.2154L15.0913 35.294Z" fill="current"/>
<path d="M20.7344 36.7816C21.8363 37.7733 21.8363 39.3813 20.7344 40.373L17.491 43.2923C16.3891 44.284 14.6026 44.284 13.5007 43.2923C12.3988 42.3005 12.3988 40.6926 13.5007 39.7008L16.7442 36.7816C17.846 35.7898 19.6326 35.7898 20.7344 36.7816Z" fill="current"/>
<path fill-rule="evenodd" clip-rule="evenodd" d="M8.16837 17.0665L15.5926 23.7942L17.8844 25.8551L29.7093 15.2121C30.7163 14.3058 32.3489 14.3058 33.3559 15.2121C34.3629 16.1185 34.3629 17.588 33.3559 18.4943L21.5328 29.1358L23.4265 30.8387C24.4358 31.7462 24.4362 33.2184 23.4274 34.1264C22.4213 35.0319 20.791 35.0344 19.7816 34.1319L18.5808 33.0584C16.5226 31.2185 15.8784 30.6399 13.6357 28.6077L1.86272 17.9392C0.355087 16.5823 0.672197 14.4646 2.46551 13.9137L45.8976 0.57264C48.1024 -0.104631 50.5198 2.07109 49.7673 4.05558L34.9447 43.1466C34.3326 44.7607 31.9798 45.0461 30.4722 43.6892L27.1022 40.6765C26.0894 39.771 26.0866 38.2973 27.096 37.3888C28.1006 36.4846 29.7285 36.4821 30.7365 37.3832L31.4418 38.0137L43.4997 6.21375L8.16837 17.0665Z" fill="current"/>

</symbol>
<symbol id="settings" viewBox="0 0 97 96">
<path fill-rule="evenodd" clip-rule="evenodd" d="M48.7155 16.0001C47.8719 16.0001 47.0352 16.0329 46.2066 16.0972C44.0041 16.2683 42.3573 18.1925 42.5284 20.395C42.5359 20.4907 42.5466 20.5853 42.5605 20.6788C39.3856 21.3909 36.4145 22.6423 33.7484 24.3318C33.6924 24.2561 33.6333 24.1818 33.5711 24.109C32.1356 22.4299 29.6107 22.2323 27.9315 23.6678C26.6583 24.7563 25.4716 25.9429 24.3831 27.2162C22.9476 28.8953 23.1452 31.4203 24.8244 32.8558C24.8971 32.918 24.9714 32.9771 25.0471 33.0331C23.3577 35.6992 22.1063 38.6703 21.3941 41.8452C21.3006 41.8313 21.206 41.8205 21.1104 41.8131C18.9079 41.642 16.9837 43.2888 16.8126 45.4913C16.7482 46.3198 16.7155 47.1566 16.7155 48.0001C16.7155 48.8437 16.7482 49.6804 16.8126 50.509C16.9837 52.7115 18.9079 54.3582 21.1104 54.1871C21.206 54.1797 21.3006 54.169 21.3941 54.155C22.1063 57.33 23.3577 60.3011 25.0471 62.9671C24.9714 63.0232 24.8971 63.0823 24.8244 63.1444C23.1452 64.5799 22.9476 67.1049 24.3831 68.7841C25.4716 70.0573 26.6583 71.244 27.9315 72.3324C29.6107 73.7679 32.1356 73.5704 33.5711 71.8912C33.6333 71.8185 33.6924 71.7442 33.7484 71.6684C36.4145 73.3579 39.3856 74.6093 42.5605 75.3215C42.5466 75.4149 42.5359 75.5096 42.5284 75.6052C42.3573 77.8077 44.0041 79.7319 46.2066 79.903C47.0352 79.9674 47.8719 80.0001 48.7155 80.0001C49.559 80.0001 50.3957 79.9674 51.2243 79.903C53.4268 79.7319 55.0736 77.8077 54.9025 75.6052C54.895 75.5096 54.8843 75.4149 54.8704 75.3215C58.0453 74.6093 61.0164 73.3579 63.6825 71.6684C63.7385 71.7442 63.7976 71.8185 63.8598 71.8912C65.2953 73.5704 67.8202 73.7679 69.4994 72.3324C70.7726 71.244 71.9593 70.0573 73.0478 68.7841C74.4833 67.1049 74.2857 64.5799 72.6065 63.1445C72.5338 63.0823 72.4595 63.0232 72.3838 62.9671C74.0732 60.3011 75.3247 57.33 76.0368 54.155C76.1303 54.169 76.2249 54.1797 76.3206 54.1871C78.5231 54.3582 80.4472 52.7115 80.6184 50.509C80.6827 49.6804 80.7155 48.8437 80.7155 48.0001C80.7155 47.1566 80.6827 46.3198 80.6184 45.4913C80.4472 43.2888 78.5231 41.642 76.3206 41.8131C76.2249 41.8205 76.1303 41.8313 76.0368 41.8452C75.3247 38.6703 74.0732 35.6992 72.3838 33.0331C72.4595 32.9771 72.5338 32.918 72.6065 32.8558C74.2857 31.4203 74.4833 28.8953 73.0478 27.2162C71.9593 25.9429 70.7726 24.7563 69.4994 23.6678C67.8202 22.2323 65.2953 22.4299 63.8598 24.109C63.7976 24.1818 63.7385 24.2561 63.6825 24.3318C61.0164 22.6423 58.0453 21.3909 54.8704 20.6788C54.8843 20.5853 54.895 20.4907 54.9025 20.395C55.0736 18.1925 53.4268 16.2683 51.2243 16.0972C50.3957 16.0329 49.559 16.0001 48.7155 16.0001ZM68.7155 48.0001C68.7155 59.0458 59.7611 68.0001 48.7155 68.0001C37.6698 68.0001 28.7155 59.0458 28.7155 48.0001C28.7155 36.9544 37.6698 28.0001 48.7155 28.0001C59.7611 28.0001 68.7155 36.9544 68.7155 48.0001Z" fill="current"/>

</symbol>
<symbol id="share" viewBox="0 0 50 45">
<path d="M33.2808 11.6924V7.37526L36.2157 10.4827C36.5438 10.8302 37.0941 10.8381 37.4321 10.5001L39.783 8.1492C40.1076 7.82462 40.1151 7.30073 39.7999 6.96702L34.763 1.63379C32.4242 -0.842559 28.2611 0.812623 28.2611 4.21881V9.31353C23.9258 9.75231 18.3694 11.3656 13.3532 15.223C7.22115 19.9386 2.12201 27.8373 0.921041 40.4033C0.708767 42.6244 2.34649 43.9619 3.67441 44.37C4.98652 44.7733 6.93472 44.5996 8.12271 42.9544C11.6438 38.0782 18.2767 31.2707 28.2611 30.2717V35.1112C28.2611 38.5173 32.4242 40.1725 34.763 37.6962L48.5372 23.1117C50.3643 21.1771 50.3643 18.1529 48.5372 16.2183L44.4133 11.8518C44.0851 11.5043 43.5348 11.4964 43.1968 11.8344L40.8459 14.1853C40.5213 14.5099 40.5139 15.0338 40.829 15.3675L44.8878 19.665L33.2808 31.9547V27.6375C33.2808 26.2514 32.1571 25.1277 30.7709 25.1277C19.2128 25.1277 11.1947 31.5289 6.45333 36.987C8.08893 28.0206 12.0803 22.5343 16.4132 19.2023C21.4229 15.3498 27.1213 14.2023 30.7709 14.2023C32.1571 14.2023 33.2808 13.0786 33.2808 11.6924Z" fill="current"/>

</symbol>
<symbol id="speaker" viewBox="0 0 14 21">
<path d="M6.99997 0.800049C5.34314 0.800049 4.00002 2.14318 4.00002 3.80001V9.80009C4.00002 11.4569 5.34314 12.8 6.99997 12.8C8.6568 12.8 9.99993 11.4569 9.99993 9.80009V3.80001C9.99993 2.14318 8.6568 0.800049 6.99997 0.800049Z" fill="current"/>
<path d="M2.03809 8.68933C2.03809 8.13705 1.59037 7.68933 1.03809 7.68933C0.485801 7.68933 0.0380859 8.13705 0.0380859 8.68933V9.50522C0.0380859 13.0106 2.6288 15.9109 5.99997 16.3958L5.99995 19.8C5.99995 20.3523 6.44766 20.8 6.99994 20.8C7.55223 20.8 7.99995 20.3523 7.99995 19.8L7.99997 16.3958C11.3711 15.9109 13.9619 13.0106 13.9619 9.50522V8.68933C13.9619 8.13705 13.5141 7.68933 12.9619 7.68933C12.4096 7.68933 11.9619 8.13705 11.9619 8.68933V9.50522C11.9619 12.2456 9.74035 14.4671 6.99997 14.4671C4.2596 14.4671 2.03809 12.2456 2.03809 9.50522V8.68933Z" fill="current"/>

</symbol>
<symbol id="star_fill" viewBox="0 0 42 40">
<path d="M16.242 3.02442C17.9192 -1.00814 23.6318 -1.00814 25.309 3.02443L28.5678 10.8595L37.0264 11.5376C41.3799 11.8866 43.1452 17.3196 39.8283 20.1609L33.3837 25.6813L35.3526 33.9355C36.366 38.1837 31.7444 41.5415 28.0172 39.2649L20.7755 34.8417L13.5338 39.2649C9.80656 41.5415 5.185 38.1837 6.19836 33.9355L8.16728 25.6813L1.72272 20.1609C-1.59418 17.3196 0.171108 11.8866 4.5246 11.5376L12.9832 10.8595L16.242 3.02442Z" fill="current"/>

</symbol>
<symbol id="study" viewBox="0 0 74 74">
<path fill-rule="evenodd" clip-rule="evenodd" d="M41.5349 9.0676C38.7191 7.50868 35.2809 7.50868 32.4651 9.0676L10.8217 21.0499C9.85082 21.5874 9.25 22.5985 9.25 23.6949C9.25 24.7913 9.85082 25.8024 10.8217 26.3399L32.4651 38.3222C35.2809 39.8811 38.7191 39.8811 41.5349 38.3222L63.1783 26.3399C64.1492 25.8024 64.75 24.7913 64.75 23.6949C64.75 22.5985 64.1492 21.5874 63.1783 21.0499L41.5349 9.0676ZM35.4884 14.3575C36.427 13.8379 37.573 13.8379 38.5116 14.3575L55.3775 23.6949L38.5116 33.0323C37.573 33.5519 36.427 33.5519 35.4884 33.0323L18.6225 23.6949L35.4884 14.3575Z" fill="current"/>
<path d="M24.6667 40.3857C24.6667 38.7097 23.2862 37.351 21.5833 37.351C19.8805 37.351 18.5 38.7097 18.5 40.3857V55.9667C18.5 56.1249 18.5126 56.2828 18.5376 56.4391C19.2604 60.9534 24.5649 67.1057 36.8579 67.6641C49.5902 68.2424 54.8068 61.1941 55.4719 56.3752C55.4906 56.2398 55.5 56.1033 55.5 55.9667V40.3857C55.5 38.7097 54.1195 37.351 52.4167 37.351C50.7138 37.351 49.3333 38.7097 49.3333 40.3857V55.7196C49.0076 57.3002 46.67 62.0339 37.1421 61.6012C27.3625 61.1569 25.0004 56.8189 24.6667 55.6563V40.3857Z" fill="current"/>

</symbol>
<symbol id="user" viewBox="0 0 38 38">
<path fill-rule="evenodd" clip-rule="evenodd" d="M19.0003 37.1333C29.1255 37.1333 37.3337 28.9252 37.3337 18.8C37.3337 8.67479 29.1255 0.466675 19.0003 0.466675C8.8751 0.466675 0.666992 8.67479 0.666992 18.8C0.666992 28.9252 8.8751 37.1333 19.0003 37.1333ZM19.0003 33.4667C22.9534 33.4667 26.5413 31.9027 29.1789 29.3598C23.816 23.3158 14.2369 23.2695 8.82912 29.3668C11.466 31.9056 15.0509 33.4667 19.0003 33.4667ZM22.6091 21.5187C25.9029 22.2119 29.0247 23.8651 31.504 26.4701C32.8758 24.2385 33.667 21.6116 33.667 18.8C33.667 10.6998 27.1005 4.13334 19.0003 4.13334C10.9001 4.13334 4.33366 10.6998 4.33366 18.8C4.33366 21.6155 5.12699 24.2457 6.5023 26.4793C8.99026 23.8625 12.1086 22.2119 15.3928 21.5194C13.1683 20.2601 11.667 17.872 11.667 15.1333C11.667 11.0833 14.9502 7.80001 19.0003 7.80001C23.0504 7.80001 26.3337 11.0833 26.3337 15.1333C26.3337 17.8715 24.8329 20.2592 22.6091 21.5187ZM22.667 15.1333C22.667 17.1584 21.0254 18.8 19.0003 18.8C16.9753 18.8 15.3337 17.1584 15.3337 15.1333C15.3337 13.1083 16.9753 11.4667 19.0003 11.4667C21.0254 11.4667 22.667 13.1083 22.667 15.1333Z" fill="current"/>

</symbol>
<symbol id="work" viewBox="0 0 74 68">
<path fill-rule="evenodd" clip-rule="evenodd" d="M21.5837 9.06179C21.5837 7.5292 22.9641 6.28679 24.667 6.28679H49.3337C51.0365 6.28679 52.417 7.5292 52.417 9.06179V17.3868H61.667C65.0727 17.3868 67.8337 19.8716 67.8337 22.9368V32.5853C67.8348 32.6283 67.8348 32.6713 67.8337 32.714V53.4618C67.8337 56.527 65.0727 59.0118 61.667 59.0118H12.3337C8.92791 59.0118 6.16699 56.527 6.16699 53.4618V22.9368C6.16699 19.8716 8.9279 17.3868 12.3337 17.3868H21.5837V9.06179ZM61.667 30.6492V22.9368H12.3337V31.5523L36.9426 38.0665L61.667 30.6492ZM12.3337 37.3374L36.1303 43.6365C36.7343 43.7964 37.3781 43.7861 37.9754 43.6069L61.667 36.4994V53.4618H12.3337V37.3374ZM46.2503 11.8368V17.3868H27.7503V11.8368H46.2503Z" fill="current"/>

</symbol>
<symbol id="world" viewBox="0 0 21 21">
<path fill-rule="evenodd" clip-rule="evenodd" d="M10.7209 20.436C5.97376 20.436 0.720932 16.1875 0.720932 10.436C0.720932 -2.55522 19.6684 -2.96795 20.679 9.39131C20.7242 9.9433 20.2711 10.3994 19.7173 10.3994C19.1662 10.3994 18.7255 9.95227 18.6552 9.40574C18.5482 8.57367 18.3134 7.78162 17.9711 7.04991C17.3386 7.18122 16.7033 7.29517 16.0661 7.39174C16.1098 7.57674 16.1493 7.76418 16.1844 7.95401C16.4954 9.63664 16.4525 11.469 15.897 13.4021C16.6056 13.4905 17.3126 13.5971 18.0171 13.7219C18.1012 13.5355 18.1783 13.3454 18.2482 13.1517C18.4053 12.7164 18.8025 12.3994 19.2653 12.3994C19.9082 12.3994 20.3891 12.9945 20.1735 13.6001C18.7389 17.6309 14.7049 20.436 10.7209 20.436ZM15.4354 5.46282C15.0969 4.65954 14.6864 3.91873 14.2359 3.24752C15.2236 3.7314 16.0969 4.41285 16.8044 5.24038C16.3492 5.32399 15.8928 5.39814 15.4354 5.46282ZM13.3429 5.69226C12.696 4.36897 11.824 3.26371 10.9613 2.43952C10.8815 2.43716 10.8013 2.43597 10.7209 2.43597C10.6866 2.43597 10.6523 2.43619 10.6181 2.43662C9.73773 3.24853 8.83462 4.35776 8.15927 5.69692C9.88467 5.82856 11.6177 5.82701 13.3429 5.69226ZM7.40817 7.64034C9.62281 7.84691 11.852 7.84588 14.0665 7.63727C14.1244 7.85996 14.175 8.08678 14.2177 8.31751C14.4849 9.76333 14.4464 11.4053 13.868 13.1993C11.76 13.0402 9.64282 13.0412 7.53487 13.2022C6.99384 11.4562 6.96309 9.85635 7.2242 8.4437C7.27473 8.1703 7.33647 7.90241 7.40817 7.64034ZM8.33264 15.1524C9.90239 15.0581 11.4763 15.0568 13.0462 15.1486C12.4961 16.2045 11.7529 17.3028 10.7762 18.4358L10.7209 18.436C10.666 18.436 10.6112 18.4354 10.5565 18.4343C9.5962 17.3027 8.86844 16.2061 8.33264 15.1524ZM5.25751 8.08019C4.95304 9.72742 4.98776 11.5182 5.51052 13.4064C4.81338 13.494 4.11789 13.5991 3.42474 13.7219C2.97257 12.7194 2.72093 11.6071 2.72093 10.436C2.72093 9.22571 2.98968 8.07822 3.47075 7.04991C4.11303 7.18324 4.75807 7.29867 5.40513 7.39619C5.34969 7.62056 5.30031 7.8486 5.25751 8.08019ZM6.20671 15.3373C5.66175 15.3995 5.11776 15.4729 4.57508 15.5577C5.37696 16.5188 6.40009 17.289 7.56622 17.7899C7.01433 16.9605 6.56465 16.1419 6.20671 15.3373ZM16.8668 15.5577C16.3062 15.4701 15.7442 15.3946 15.1811 15.3312C14.8063 16.1541 14.3354 16.9914 13.7571 17.8397C14.9725 17.3408 16.0378 16.5513 16.8668 15.5577ZM6.05738 5.46998C6.41826 4.63745 6.85606 3.87348 7.3341 3.18615C6.29371 3.67302 5.37536 4.37724 4.63749 5.24038C5.1095 5.32709 5.58291 5.40362 6.05738 5.46998Z" fill="current"/>

</symbol>
<symbol id="youtube" viewBox="0 0 43 34">
<path d="M41.4372 5.18808C40.958 3.39641 39.5455 1.98391 37.7539 1.50474C34.5039 0.633912 21.4747 0.633911 21.4747 0.633911C21.4747 0.633911 8.44552 0.633912 5.19552 1.50474C3.40386 1.98391 1.99136 3.39641 1.51219 5.18808C0.641357 8.43808 0.641357 17.3006 0.641357 17.3006C0.641357 17.3006 0.641357 26.1631 1.51219 29.4131C1.99136 31.2047 3.40386 32.6172 5.19552 33.0964C8.44552 33.9672 21.4747 33.9672 21.4747 33.9672C21.4747 33.9672 34.5039 33.9672 37.7539 33.0964C39.5476 32.6172 40.958 31.2047 41.4372 29.4131C42.308 26.1631 42.308 17.3006 42.308 17.3006C42.308 17.3006 42.308 8.43808 41.4372 5.18808ZM17.308 22.7131V11.8881C17.308 11.086 18.1768 10.586 18.8705 10.986L28.2455 16.3985C28.9393 16.7985 28.9393 17.8027 28.2455 18.2027L18.8705 23.6152C18.1768 24.0172 17.308 23.5152 17.308 22.7131Z" fill="current"/>

</symbol></svg>