<?xml version="1.0" encoding="utf-8"?>
<svg xmlns="http://www.w3.org/2000/svg">
<symbol viewBox="0 0 24 24">
<path fill-rule="evenodd" clip-rule="evenodd" d="M12 4.5C7.85786 4.5 4.5 7.85786 4.5 12C4.5 16.1421 7.85786 19.5 12 19.5C16.1421 19.5 19.5 16.1421 19.5 12C19.5 7.85786 16.1421 4.5 12 4.5ZM3.5 12C3.5 7.30558 7.30558 3.5 12 3.5C16.6944 3.5 20.5 7.30558 20.5 12C20.5 16.6944 16.6944 20.5 12 20.5C7.30558 20.5 3.5 16.6944 3.5 12Z" fill="current"/>
<path fill-rule="evenodd" clip-rule="evenodd" d="M12 5.5C12.2761 5.5 12.5 5.72386 12.5 6V7.26429C13.6411 7.49593 14.5 8.50481 14.5 9.71429V9.85714C14.5 10.1333 14.2761 10.3571 14 10.3571C13.7239 10.3571 13.5 10.1333 13.5 9.85714V9.71429C13.5 9.06118 13.0826 8.50556 12.5 8.29964V11.6476L12.7778 11.7468C13.8106 12.1157 14.5 13.094 14.5 14.1907V14.2857C14.5 15.4952 13.6411 16.5041 12.5 16.7357V18C12.5 18.2761 12.2761 18.5 12 18.5C11.7239 18.5 11.5 18.2761 11.5 18V16.7357C10.3589 16.5041 9.5 15.4952 9.5 14.2857V14.1429C9.5 13.8667 9.72386 13.6429 10 13.6429C10.2761 13.6429 10.5 13.8667 10.5 14.1429V14.2857C10.5 14.9388 10.9174 15.4944 11.5 15.7004V12.3524L11.2222 12.2532C10.1894 11.8843 9.5 10.906 9.5 9.80931V9.71429C9.5 8.50481 10.3589 7.49593 11.5 7.26429V6C11.5 5.72386 11.7239 5.5 12 5.5ZM11.5 8.29964C10.9174 8.50556 10.5 9.06118 10.5 9.71429V9.80931C10.5 10.4624 10.8978 11.0473 11.5 11.2892V8.29964ZM12.5 12.7108V15.7004C13.0826 15.4944 13.5 14.9388 13.5 14.2857V14.1907C13.5 13.5376 13.1022 12.9527 12.5 12.7108Z" fill="current"/>

</symbol>
<symbol id="_fill" viewBox="0 0 24 24">
<path d="M10.5 9.71429C10.5 9.06118 10.9174 8.50556 11.5 8.29964V11.2892C10.8978 11.0473 10.5 10.4624 10.5 9.80931V9.71429Z" fill="current"/>
<path d="M12.5 15.7004V12.7108C13.1022 12.9527 13.5 13.5376 13.5 14.1907V14.2857C13.5 14.9388 13.0826 15.4944 12.5 15.7004Z" fill="current"/>
<path fill-rule="evenodd" clip-rule="evenodd" d="M12 20C16.4183 20 20 16.4183 20 12C20 7.58172 16.4183 4 12 4C7.58172 4 4 7.58172 4 12C4 16.4183 7.58172 20 12 20ZM12.5 6C12.5 5.72386 12.2761 5.5 12 5.5C11.7239 5.5 11.5 5.72386 11.5 6V7.26429C10.3589 7.49593 9.5 8.50481 9.5 9.71429V9.80931C9.5 10.906 10.1894 11.8843 11.2222 12.2532L11.5 12.3524V15.7004C10.9174 15.4944 10.5 14.9388 10.5 14.2857V14.1429C10.5 13.8667 10.2761 13.6429 10 13.6429C9.72386 13.6429 9.5 13.8667 9.5 14.1429V14.2857C9.5 15.4952 10.3589 16.5041 11.5 16.7357V18C11.5 18.2761 11.7239 18.5 12 18.5C12.2761 18.5 12.5 18.2761 12.5 18V16.7357C13.6411 16.5041 14.5 15.4952 14.5 14.2857V14.1907C14.5 13.094 13.8106 12.1157 12.7778 11.7468L12.5 11.6476V8.29964C13.0826 8.50556 13.5 9.06118 13.5 9.71429V9.85714C13.5 10.1333 13.7239 10.3571 14 10.3571C14.2761 10.3571 14.5 10.1333 14.5 9.85714V9.71429C14.5 8.50481 13.6411 7.49593 12.5 7.26429V6Z" fill="current"/>

</symbol>
<symbol id="add_image" viewBox="0 0 24 24">
<path fill-rule="evenodd" clip-rule="evenodd" d="M18 3.5C18.2761 3.5 18.5 3.72386 18.5 4V5.5H20C20.2761 5.5 20.5 5.72386 20.5 6C20.5 6.27614 20.2761 6.5 20 6.5H18.5V8C18.5 8.27614 18.2761 8.5 18 8.5C17.7239 8.5 17.5 8.27614 17.5 8V6.5H16C15.7239 6.5 15.5 6.27614 15.5 6C15.5 5.72386 15.7239 5.5 16 5.5H17.5V4C17.5 3.72386 17.7239 3.5 18 3.5ZM4.99771 6.5C4.72306 6.5 4.5 6.72237 4.5 7V17.9179L8.18934 14.2286C8.77513 13.6428 9.72487 13.6428 10.3107 14.2286L10.6083 14.5261C10.8108 14.7287 11.1418 14.72 11.3335 14.5071L13.812 11.7531C14.4135 11.0848 15.4638 11.0921 16.0558 11.7688L17.5 13.4193V11C17.5 10.7239 17.7239 10.5 18 10.5C18.2761 10.5 18.5 10.7239 18.5 11V19C18.5 19.8284 17.8284 20.5 17 20.5H4.875C4.11561 20.5 3.5 19.8844 3.5 19.125V7C3.5 6.17306 4.1678 5.5 4.99771 5.5H13C13.2761 5.5 13.5 5.72386 13.5 6C13.5 6.27614 13.2761 6.5 13 6.5H4.99771ZM17.5 14.9379L15.3033 12.4273C15.1059 12.2017 14.7558 12.1993 14.5553 12.4221L12.0767 15.176C11.5018 15.8148 10.5088 15.8409 9.90114 15.2333L9.60355 14.9357C9.40829 14.7404 9.09171 14.7404 8.89645 14.9357L4.53947 19.2926C4.60101 19.4156 4.72815 19.5 4.875 19.5H17C17.2761 19.5 17.5 19.2761 17.5 19V14.9379ZM8 8.5C7.17157 8.5 6.5 9.17157 6.5 10C6.5 10.8284 7.17157 11.5 8 11.5C8.82843 11.5 9.5 10.8284 9.5 10C9.5 9.17157 8.82843 8.5 8 8.5ZM5.5 10C5.5 8.61929 6.61929 7.5 8 7.5C9.38071 7.5 10.5 8.61929 10.5 10C10.5 11.3807 9.38071 12.5 8 12.5C6.61929 12.5 5.5 11.3807 5.5 10Z" fill="current"/>

</symbol>
<symbol id="add_image_fill" viewBox="0 0 24 24">
<path d="M18.5 4C18.5 3.72386 18.2761 3.5 18 3.5C17.7239 3.5 17.5 3.72474 17.5 4.00089V5.5H16C15.7239 5.5 15.5 5.72386 15.5 6C15.5 6.27614 15.7239 6.5 16 6.5H17.5V8C17.5 8.27614 17.7239 8.5 18 8.5C18.2761 8.5 18.5 8.27614 18.5 8V6.5H20C20.2761 6.5 20.5 6.27614 20.5 6C20.5 5.72386 20.2761 5.5 20 5.5L18.5 5.49938V4Z" fill="current"/>
<path fill-rule="evenodd" clip-rule="evenodd" d="M18.4988 10.9648C18.4996 10.9765 18.5 10.9882 18.5 11V19C18.5 19.8284 17.8284 20.5 17 20.5H4.875C4.11561 20.5 3.5 19.8844 3.5 19.125V7C3.5 6.17306 4.1678 5.5 4.99771 5.5H13C13.0298 5.5 13.0589 5.5026 13.0873 5.50759C13.6629 5.5 14 5.5 14 5.5V6.99993C14 7.55222 14.4477 7.99993 15 7.99993H16V8.99993C16 9.55222 16.4477 9.99993 17 9.99993H18.5C18.5 10.3614 18.5 10.68 18.4988 10.9648ZM15.3033 12.4273L17.5 14.9379V19C17.5 19.2761 17.2761 19.5 17 19.5H4.875C4.72815 19.5 4.60101 19.4156 4.53947 19.2926L8.89645 14.9357C9.09171 14.7404 9.40829 14.7404 9.60355 14.9357L9.90114 15.2333C10.5088 15.8409 11.5018 15.8148 12.0767 15.176L14.5553 12.4221C14.7558 12.1993 15.1059 12.2017 15.3033 12.4273ZM10 9.99993C10 11.1045 9.10457 11.9999 8 11.9999C6.89543 11.9999 6 11.1045 6 9.99993C6 8.89536 6.89543 7.99993 8 7.99993C9.10457 7.99993 10 8.89536 10 9.99993Z" fill="current"/>

</symbol>
<symbol id="arrow_down" viewBox="0 0 24 24">
<path fill-rule="evenodd" clip-rule="evenodd" d="M12 17.5C11.8516 17.5 11.7109 17.4341 11.6159 17.3201L6.61588 11.3201C6.43909 11.108 6.46776 10.7927 6.6799 10.6159C6.89203 10.4391 7.20732 10.4678 7.3841 10.6799L11.5 15.619V6C11.5 5.72386 11.7238 5.5 12 5.5C12.2761 5.5 12.5 5.72386 12.5 6V15.619L16.6159 10.6799C16.7927 10.4678 17.1079 10.4391 17.3201 10.6159C17.5322 10.7927 17.5609 11.108 17.3841 11.3201L12.3841 17.3201C12.2891 17.4341 12.1484 17.5 12 17.5Z" fill="current"/>

</symbol>
<symbol id="arrow_down_fill" viewBox="0 0 24 24">
<path fill-rule="evenodd" clip-rule="evenodd" d="M12 21C16.9706 21 21 16.9706 21 12C21 7.02944 16.9706 3 12 3C7.02944 3 3 7.02944 3 12C3 16.9706 7.02944 21 12 21ZM11.6068 15.3089C11.7016 15.4296 11.8466 15.5 12 15.5C12.1534 15.5 12.2984 15.4296 12.3932 15.3089L15.3932 11.4907C15.5638 11.2736 15.526 10.9593 15.3089 10.7887C15.0918 10.6181 14.7774 10.6558 14.6068 10.8729L12.5 13.5543V8C12.5 7.72386 12.2761 7.5 12 7.5C11.7239 7.5 11.5 7.72386 11.5 8V13.5543L9.39316 10.8729C9.22255 10.6558 8.90822 10.6181 8.69109 10.7887C8.47395 10.9593 8.43623 11.2736 8.60684 11.4907L11.6068 15.3089Z" fill="current"/>

</symbol>
<symbol id="arrow_right" viewBox="0 0 24 24">
<path fill-rule="evenodd" clip-rule="evenodd" d="M18.5 12C18.5 12.1484 18.4341 12.2891 18.3201 12.3841L12.3201 17.3841C12.108 17.5609 11.7927 17.5322 11.6159 17.3201C11.4391 17.108 11.4678 16.7927 11.6799 16.6159L16.619 12.5L7 12.5C6.72386 12.5 6.5 12.2762 6.5 12C6.5 11.7239 6.72386 11.5 7 11.5L16.619 11.5L11.6799 7.38412C11.4678 7.20734 11.4391 6.89206 11.6159 6.67992C11.7927 6.46778 12.108 6.43912 12.3201 6.6159L18.3201 11.6159C18.4341 11.7109 18.5 11.8516 18.5 12Z" fill="current"/>

</symbol>
<symbol id="arrow_right_fill" viewBox="0 0 24 24">
<path fill-rule="evenodd" clip-rule="evenodd" d="M12 21C16.9706 21 21 16.9706 21 12C21 7.02944 16.9706 3 12 3C7.02944 3 3 7.02944 3 12C3 16.9706 7.02944 21 12 21ZM16.3089 12.3932C16.4296 12.2984 16.5 12.1534 16.5 12C16.5 11.8466 16.4296 11.7016 16.3089 11.6068L12.4907 8.60684C12.2736 8.43623 11.9593 8.47395 11.7887 8.69109C11.6181 8.90823 11.6558 9.22255 11.8729 9.39316L14.5543 11.5H9C8.72386 11.5 8.5 11.7239 8.5 12C8.5 12.2761 8.72386 12.5 9 12.5H14.5543L11.8729 14.6068C11.6558 14.7774 11.6181 15.0918 11.7887 15.3089C11.9593 15.526 12.2736 15.5638 12.4907 15.3932L16.3089 12.3932Z" fill="current"/>

</symbol>
<symbol id="arrow_up" viewBox="0 0 24 24">
<path fill-rule="evenodd" clip-rule="evenodd" d="M12 5.5C12.1484 5.5 12.2891 5.56591 12.3841 5.67991L17.3841 11.6799C17.5609 11.892 17.5322 12.2073 17.3201 12.3841C17.108 12.5609 16.7927 12.5322 16.6159 12.3201L12.5 7.38102V17C12.5 17.2761 12.2762 17.5 12 17.5C11.7239 17.5 11.5 17.2761 11.5 17V7.38102L7.38412 12.3201C7.20734 12.5322 6.89206 12.5609 6.67992 12.3841C6.46778 12.2073 6.43912 11.892 6.6159 11.6799L11.6159 5.67991C11.7109 5.56591 11.8516 5.5 12 5.5Z" fill="current"/>

</symbol>
<symbol id="arrow_up_fill" viewBox="0 0 24 24">
<path fill-rule="evenodd" clip-rule="evenodd" d="M12 21C16.9706 21 21 16.9706 21 12C21 7.02944 16.9706 3 12 3C7.02944 3 3 7.02944 3 12C3 16.9706 7.02944 21 12 21ZM12.3932 7.69109C12.2984 7.57044 12.1534 7.5 12 7.5C11.8466 7.5 11.7016 7.57044 11.6068 7.69109L8.60684 11.5093C8.43623 11.7264 8.47395 12.0407 8.69109 12.2113C8.90823 12.3819 9.22255 12.3442 9.39316 12.1271L11.5 9.44566V15C11.5 15.2761 11.7239 15.5 12 15.5C12.2761 15.5 12.5 15.2761 12.5 15V9.44566L14.6068 12.1271C14.7774 12.3442 15.0918 12.3819 15.3089 12.2113C15.526 12.0407 15.5638 11.7264 15.3932 11.5093L12.3932 7.69109Z" fill="current"/>

</symbol>
<symbol id="bell" viewBox="0 0 24 24">
<path fill-rule="evenodd" clip-rule="evenodd" d="M6.5 9C6.5 5.96243 8.96243 3.5 12 3.5C15.0376 3.5 17.5 5.96243 17.5 9V15.5H19C19.2761 15.5 19.5 15.7239 19.5 16C19.5 16.2761 19.2761 16.5 19 16.5H5C4.72386 16.5 4.5 16.2761 4.5 16C4.5 15.7239 4.72386 15.5 5 15.5H6.5V9ZM7.5 15.5H16.5V9C16.5 6.51472 14.4853 4.5 12 4.5C9.51472 4.5 7.5 6.51472 7.5 9V15.5ZM9.5 18C9.5 17.7239 9.72386 17.5 10 17.5H14C14.2761 17.5 14.5 17.7239 14.5 18C14.5 18.3283 14.4353 18.6534 14.3097 18.9567C14.1841 19.26 13.9999 19.5356 13.7678 19.7678C13.5356 19.9999 13.26 20.1841 12.9567 20.3097C12.6534 20.4353 12.3283 20.5 12 20.5C11.6717 20.5 11.3466 20.4353 11.0433 20.3097C10.74 20.1841 10.4644 19.9999 10.2322 19.7678C10.0001 19.5356 9.81594 19.26 9.6903 18.9567C9.56466 18.6534 9.5 18.3283 9.5 18ZM10.5858 18.5C10.5946 18.5249 10.6041 18.5496 10.6142 18.574C10.6896 18.756 10.8001 18.9214 10.9393 19.0607C11.0786 19.1999 11.244 19.3104 11.426 19.3858C11.608 19.4612 11.803 19.5 12 19.5C12.197 19.5 12.392 19.4612 12.574 19.3858C12.756 19.3104 12.9214 19.1999 13.0607 19.0607C13.1999 18.9214 13.3104 18.756 13.3858 18.574C13.3959 18.5496 13.4054 18.5249 13.4142 18.5H10.5858Z" fill="current"/>

</symbol>
<symbol id="bell_fill" viewBox="0 0 24 24">
<path d="M6.5 9C6.5 5.96243 8.96243 3.5 12 3.5C15.0376 3.5 17.5 5.96243 17.5 9V15.5H19C19.2761 15.5 19.5 15.7239 19.5 16C19.5 16.2761 19.2761 16.5 19 16.5H5C4.72386 16.5 4.5 16.2761 4.5 16C4.5 15.7239 4.72386 15.5 5 15.5H6.5V9Z" fill="current"/>
<path d="M10.1522 18.7654C10.0517 18.5227 10 18.2626 10 18H14C14 18.2626 13.9483 18.5227 13.8478 18.7654C13.7472 19.008 13.5999 19.2285 13.4142 19.4142C13.2285 19.5999 13.008 19.7472 12.7654 19.8478C12.5227 19.9483 12.2626 20 12 20C11.7374 20 11.4773 19.9483 11.2346 19.8478C10.992 19.7472 10.7715 19.5999 10.5858 19.4142C10.4001 19.2285 10.2528 19.008 10.1522 18.7654Z" fill="current"/>

</symbol>
<symbol id="bell_with_alert" viewBox="0 0 24 24">
<path fill-rule="evenodd" clip-rule="evenodd" d="M17.5 9C17.5 8.6026 17.4579 8.21504 17.3778 7.84156C17.1047 7.94398 16.8089 8 16.5 8C16.4624 8 16.4251 7.99917 16.3879 7.99753C16.4613 8.3199 16.5 8.65543 16.5 9V15.5H7.5V9C7.5 6.51472 9.51472 4.5 12 4.5C12.7389 4.5 13.4362 4.67808 14.0513 4.99367C14.1205 4.65715 14.2574 4.34531 14.447 4.07299C13.71 3.70625 12.8791 3.5 12 3.5C8.96243 3.5 6.5 5.96243 6.5 9V15.5H5C4.72386 15.5 4.5 15.7239 4.5 16C4.5 16.2761 4.72386 16.5 5 16.5H7H17H19C19.2761 16.5 19.5 16.2761 19.5 16C19.5 15.7239 19.2761 15.5 19 15.5H17.5V9ZM10 17.5C9.72386 17.5 9.5 17.7239 9.5 18C9.5 18.3283 9.56466 18.6534 9.6903 18.9567C9.81594 19.26 10.0001 19.5356 10.2322 19.7678C10.4644 19.9999 10.74 20.1841 11.0433 20.3097C11.3466 20.4353 11.6717 20.5 12 20.5C12.3283 20.5 12.6534 20.4353 12.9567 20.3097C13.26 20.1841 13.5356 19.9999 13.7678 19.7678C13.9999 19.5356 14.1841 19.26 14.3097 18.9567C14.4353 18.6534 14.5 18.3283 14.5 18C14.5 17.7239 14.2761 17.5 14 17.5H10ZM10.6142 18.574C10.6041 18.5496 10.5946 18.5249 10.5858 18.5H13.4142C13.4054 18.5249 13.3959 18.5496 13.3858 18.574C13.3104 18.756 13.1999 18.9214 13.0607 19.0607C12.9214 19.1999 12.756 19.3104 12.574 19.3858C12.392 19.4612 12.197 19.5 12 19.5C11.803 19.5 11.608 19.4612 11.426 19.3858C11.244 19.3104 11.0786 19.1999 10.9393 19.0607C10.8001 18.9214 10.6896 18.756 10.6142 18.574Z" fill="current"/>
<path d="M18 5.5C18 6.32843 17.3284 7 16.5 7C15.6716 7 15 6.32843 15 5.5C15 4.67157 15.6716 4 16.5 4C17.3284 4 18 4.67157 18 5.5Z" fill="current"/>

</symbol>
<symbol id="bell_with_alert_fill" viewBox="0 0 24 24">
<path d="M17.5 15.5V9C17.5 8.61197 17.4597 8.2328 17.383 7.86662C17.3283 7.60581 17.0787 7.4337 16.8155 7.47533C16.713 7.49154 16.6077 7.5 16.5 7.5C15.3954 7.5 14.5 6.60457 14.5 5.5C14.5 5.21787 14.5581 4.95063 14.6626 4.70855C14.7681 4.46386 14.6633 4.17938 14.4241 4.06178C13.6922 3.70189 12.869 3.5 12 3.5C8.96243 3.5 6.5 5.96243 6.5 9V15.5H5C4.72386 15.5 4.5 15.7239 4.5 16C4.5 16.2761 4.72386 16.5 5 16.5H19C19.2761 16.5 19.5 16.2761 19.5 16C19.5 15.7239 19.2761 15.5 19 15.5H17.5Z" fill="current"/>
<path d="M10.1522 18.7654C10.0517 18.5227 10 18.2626 10 18H14C14 18.2626 13.9483 18.5227 13.8478 18.7654C13.7472 19.008 13.5999 19.2285 13.4142 19.4142C13.2285 19.5999 13.008 19.7472 12.7654 19.8478C12.5227 19.9483 12.2626 20 12 20C11.7374 20 11.4773 19.9483 11.2346 19.8478C10.992 19.7472 10.7715 19.5999 10.5858 19.4142C10.4001 19.2285 10.2528 19.008 10.1522 18.7654Z" fill="current"/>
<circle cx="16.5" cy="5.5" r="1.5" fill="current"/>

</symbol>
<symbol id="calander" viewBox="0 0 24 24">
<path fill-rule="evenodd" clip-rule="evenodd" d="M7 3.5C7.27614 3.5 7.5 3.72386 7.5 4V5.5H16.5V4C16.5 3.72386 16.7239 3.5 17 3.5C17.2761 3.5 17.5 3.72386 17.5 4V5.5H19C19.8284 5.5 20.5 6.17157 20.5 7V19C20.5 19.8284 19.8284 20.5 19 20.5H5C4.17157 20.5 3.5 19.8284 3.5 19V7C3.5 6.17157 4.17157 5.5 5 5.5H6.5V4C6.5 3.72386 6.72386 3.5 7 3.5ZM5 6.5C4.72386 6.5 4.5 6.72386 4.5 7V19C4.5 19.2761 4.72386 19.5 5 19.5H19C19.2761 19.5 19.5 19.2761 19.5 19V7C19.5 6.72386 19.2761 6.5 19 6.5H5Z" fill="current"/>
<path fill-rule="evenodd" clip-rule="evenodd" d="M12.2443 9.54032C12.4283 9.61904 12.5476 9.79988 12.5476 10V14.5H13C13.2761 14.5 13.5 14.7239 13.5 15C13.5 15.2761 13.2761 15.5 13 15.5H11.0952C10.8191 15.5 10.5952 15.2761 10.5952 15C10.5952 14.7239 10.8191 14.5 11.0952 14.5H11.5476V11.1685L11.3452 11.3617C11.1455 11.5523 10.829 11.545 10.6383 11.3452C10.4477 11.1455 10.455 10.829 10.6548 10.6383L11.7024 9.63832C11.8471 9.50015 12.0603 9.46159 12.2443 9.54032Z" fill="current"/>

</symbol>
<symbol id="calander_fill" viewBox="0 0 24 24">
<path fill-rule="evenodd" clip-rule="evenodd" d="M7.5 4C7.5 3.72386 7.27614 3.5 7 3.5C6.72386 3.5 6.5 3.72386 6.5 4V6H5C4.44772 6 4 6.44772 4 7V19C4 19.5523 4.44772 20 5 20H19C19.5523 20 20 19.5523 20 19V7C20 6.44772 19.5523 6 19 6H17.5V4C17.5 3.72386 17.2761 3.5 17 3.5C16.7239 3.5 16.5 3.72386 16.5 4V6H7.5V4ZM12.2443 9.54033C12.4283 9.61905 12.5476 9.7999 12.5476 10V14.5H13C13.2761 14.5 13.5 14.7239 13.5 15C13.5 15.2762 13.2761 15.5 13 15.5H11.0952C10.8191 15.5 10.5952 15.2762 10.5952 15C10.5952 14.7239 10.8191 14.5 11.0952 14.5H11.5476V11.1685L11.3452 11.3617C11.1455 11.5524 10.829 11.545 10.6383 11.3453C10.4477 11.1455 10.455 10.829 10.6548 10.6383L11.7024 9.63833C11.8471 9.50016 12.0603 9.4616 12.2443 9.54033Z" fill="current"/>

</symbol>
<symbol id="camera" viewBox="0 0 24 24">
<path fill-rule="evenodd" clip-rule="evenodd" d="M8.5 6.75C8.5 6.05964 9.05964 5.5 9.75 5.5H14.25C14.9404 5.5 15.5 6.05964 15.5 6.75C15.5 6.88807 15.6119 7 15.75 7H19C19.8284 7 20.5 7.67157 20.5 8.5V17C20.5 17.8284 19.8284 18.5 19 18.5H5C4.17157 18.5 3.5 17.8284 3.5 17V8.5C3.5 7.67157 4.17157 7 5 7H8.25C8.38807 7 8.5 6.88807 8.5 6.75ZM9.75 6.5C9.61193 6.5 9.5 6.61193 9.5 6.75C9.5 7.44036 8.94036 8 8.25 8H5C4.72386 8 4.5 8.22386 4.5 8.5V17C4.5 17.2761 4.72386 17.5 5 17.5H19C19.2761 17.5 19.5 17.2761 19.5 17V8.5C19.5 8.22386 19.2761 8 19 8H15.75C15.0596 8 14.5 7.44036 14.5 6.75C14.5 6.61193 14.3881 6.5 14.25 6.5H9.75Z" fill="current"/>
<path fill-rule="evenodd" clip-rule="evenodd" d="M12 9.79941C10.6193 9.79941 9.5 10.9187 9.5 12.2994C9.5 13.6801 10.6193 14.7994 12 14.7994C13.3807 14.7994 14.5 13.6801 14.5 12.2994C14.5 10.9187 13.3807 9.79941 12 9.79941ZM8.5 12.2994C8.5 10.3664 10.067 8.79941 12 8.79941C13.933 8.79941 15.5 10.3664 15.5 12.2994C15.5 14.2324 13.933 15.7994 12 15.7994C10.067 15.7994 8.5 14.2324 8.5 12.2994Z" fill="current"/>

</symbol>
<symbol id="camera_fill" viewBox="0 0 24 24">
<path fill-rule="evenodd" clip-rule="evenodd" d="M14.25 6C14.6642 6 15 6.33579 15 6.75C15 7.16421 15.3358 7.5 15.75 7.5H19C19.5523 7.5 20 7.94772 20 8.5V17C20 17.5523 19.5523 18 19 18H5C4.44772 18 4 17.5523 4 17V8.5C4 7.94772 4.44772 7.5 5 7.5H8.25C8.66421 7.5 9 7.16421 9 6.75C9 6.33579 9.33579 6 9.75 6H14.25ZM12 15.7006C13.6569 15.7006 15 14.3574 15 12.7006C15 11.0437 13.6569 9.70059 12 9.70059C10.3431 9.70059 9 11.0437 9 12.7006C9 14.3574 10.3431 15.7006 12 15.7006Z" fill="current"/>

</symbol>
<symbol id="chat" viewBox="0 0 24 24">
<path fill-rule="evenodd" clip-rule="evenodd" d="M3.5 6C3.5 5.17157 4.17157 4.5 5 4.5H19C19.8284 4.5 20.5 5.17157 20.5 6V16C20.5 16.8284 19.8284 17.5 19 17.5H12.1667L8.3 20.4C8.14849 20.5136 7.94579 20.5319 7.77639 20.4472C7.607 20.3625 7.5 20.1894 7.5 20V17.5H5C4.17157 17.5 3.5 16.8284 3.5 16V6ZM5 5.5C4.72386 5.5 4.5 5.72386 4.5 6V16C4.5 16.2761 4.72386 16.5 5 16.5H8C8.27614 16.5 8.5 16.7239 8.5 17V19L11.7 16.6C11.7865 16.5351 11.8918 16.5 12 16.5H19C19.2761 16.5 19.5 16.2761 19.5 16V6C19.5 5.72386 19.2761 5.5 19 5.5H5Z" fill="current"/>
<path d="M9.5 11C9.5 11.2761 9.27614 11.5 9 11.5C8.72386 11.5 8.5 11.2761 8.5 11C8.5 10.7239 8.72386 10.5 9 10.5C9.27614 10.5 9.5 10.7239 9.5 11Z" fill="current"/>
<path fill-rule="evenodd" clip-rule="evenodd" d="M8 11C8 10.4477 8.44772 10 9 10C9.55228 10 10 10.4477 10 11C10 11.5523 9.55228 12 9 12C8.44772 12 8 11.5523 8 11Z" fill="current"/>
<path d="M12.5 11C12.5 11.2761 12.2761 11.5 12 11.5C11.7239 11.5 11.5 11.2761 11.5 11C11.5 10.7239 11.7239 10.5 12 10.5C12.2761 10.5 12.5 10.7239 12.5 11Z" fill="current"/>
<path fill-rule="evenodd" clip-rule="evenodd" d="M11 11C11 10.4477 11.4477 10 12 10C12.5523 10 13 10.4477 13 11C13 11.5523 12.5523 12 12 12C11.4477 12 11 11.5523 11 11Z" fill="current"/>
<path d="M15.5 11C15.5 11.2761 15.2761 11.5 15 11.5C14.7239 11.5 14.5 11.2761 14.5 11C14.5 10.7239 14.7239 10.5 15 10.5C15.2761 10.5 15.5 10.7239 15.5 11Z" fill="current"/>
<path fill-rule="evenodd" clip-rule="evenodd" d="M14 11C14 10.4477 14.4477 10 15 10C15.5523 10 16 10.4477 16 11C16 11.5523 15.5523 12 15 12C14.4477 12 14 11.5523 14 11Z" fill="current"/>

</symbol>
<symbol id="chat_fill" viewBox="0 0 24 24">
<path fill-rule="evenodd" clip-rule="evenodd" d="M5 5C4.44772 5 4 5.44772 4 6V16C4 16.5523 4.44772 17 5 17H8V20L12 17H19C19.5523 17 20 16.5523 20 16V6C20 5.44772 19.5523 5 19 5H5ZM9 10C8.44772 10 8 10.4477 8 11C8 11.5523 8.44772 12 9 12C9.55228 12 10 11.5523 10 11C10 10.4477 9.55228 10 9 10ZM12 10C11.4477 10 11 10.4477 11 11C11 11.5523 11.4477 12 12 12C12.5523 12 13 11.5523 13 11C13 10.4477 12.5523 10 12 10ZM15 10C14.4477 10 14 10.4477 14 11C14 11.5523 14.4477 12 15 12C15.5523 12 16 11.5523 16 11C16 10.4477 15.5523 10 15 10Z" fill="current"/>

</symbol>
<symbol id="clock" viewBox="0 0 24 24">
<path fill-rule="evenodd" clip-rule="evenodd" d="M12 4.5C7.85786 4.5 4.5 7.85786 4.5 12C4.5 16.1421 7.85786 19.5 12 19.5C16.1421 19.5 19.5 16.1421 19.5 12C19.5 7.85786 16.1421 4.5 12 4.5ZM3.5 12C3.5 7.30558 7.30558 3.5 12 3.5C16.6944 3.5 20.5 7.30558 20.5 12C20.5 16.6944 16.6944 20.5 12 20.5C7.30558 20.5 3.5 16.6944 3.5 12Z" fill="current"/>
<path fill-rule="evenodd" clip-rule="evenodd" d="M12 5.99995C12.2761 5.99995 12.5 6.22381 12.5 6.49995V11.5H16C16.2761 11.5 16.5 11.7239 16.5 12C16.5 12.2761 16.2761 12.5 16 12.5H12C11.7239 12.5 11.5 12.2761 11.5 12V6.49995C11.5 6.22381 11.7239 5.99995 12 5.99995Z" fill="current"/>

</symbol>
<symbol id="clock_fill" viewBox="0 0 24 24">
<path fill-rule="evenodd" clip-rule="evenodd" d="M12 20C16.4183 20 20 16.4183 20 12C20 7.58172 16.4183 4 12 4C7.58172 4 4 7.58172 4 12C4 16.4183 7.58172 20 12 20ZM12.5 6.5C12.5 6.22386 12.2761 6 12 6C11.7239 6 11.5 6.22386 11.5 6.5V12C11.5 12.2762 11.7239 12.5 12 12.5H16C16.2761 12.5 16.5 12.2762 16.5 12C16.5 11.7239 16.2761 11.5 16 11.5H12.5V6.5Z" fill="current"/>

</symbol>
<symbol id="dark_mode" viewBox="0 0 24 24">
<path fill-rule="evenodd" clip-rule="evenodd" d="M9.27819 3.64646C9.42532 3.79359 9.46595 4.01646 9.38021 4.20605C8.93373 5.19331 8.68494 6.28955 8.68494 7.44525C8.68494 11.7916 12.2084 15.3151 16.5548 15.3151C17.7105 15.3151 18.8067 15.0663 19.794 14.6198C19.9836 14.5341 20.2064 14.5747 20.3536 14.7219C20.5007 14.869 20.5413 15.0919 20.4556 15.2814C19.0643 18.3578 15.9678 20.5 12.3698 20.5C7.47117 20.5 3.5 16.5289 3.5 11.6302C3.5 8.03223 5.6422 4.9357 8.71861 3.54444C8.90819 3.4587 9.13106 3.49933 9.27819 3.64646ZM8.00348 5.08159C5.89057 6.49324 4.5 8.8997 4.5 11.6302C4.5 15.9766 8.02345 19.5 12.3698 19.5C15.1003 19.5 17.5068 18.1095 18.9184 15.9966C18.1656 16.2042 17.3729 16.3151 16.5548 16.3151C11.6561 16.3151 7.68494 12.3439 7.68494 7.44525C7.68494 6.62717 7.79581 5.83446 8.00348 5.08159Z" fill="current"/>

</symbol>
<symbol id="dark_mode_fill" viewBox="0 0 24 24">
<path d="M20 15.0754C18.9493 15.5506 17.7829 15.8151 16.5548 15.8151C11.9322 15.8151 8.18494 12.0678 8.18494 7.44524C8.18494 6.21709 8.44946 5.05072 8.92463 4C6.02062 5.3133 4 8.23576 4 11.6302C4 16.2527 7.74731 20 12.3698 20C15.7642 20 18.6867 17.9794 20 15.0754Z" fill="current"/>

</symbol>
<symbol id="delete" viewBox="0 0 24 24">
<path fill-rule="evenodd" clip-rule="evenodd" d="M10 4.5C9.72386 4.5 9.5 4.72386 9.5 5V5.5H14.5V5C14.5 4.72386 14.2761 4.5 14 4.5H10ZM15.5 5.5V5C15.5 4.17157 14.8284 3.5 14 3.5H10C9.17157 3.5 8.5 4.17157 8.5 5V5.5H4C3.72386 5.5 3.5 5.72386 3.5 6C3.5 6.27614 3.72386 6.5 4 6.5H5.53444L6.43493 19.1069C6.491 19.8918 7.14416 20.5 7.93112 20.5H16.0689C16.8558 20.5 17.509 19.8918 17.5651 19.1069L18.4656 6.5H20C20.2761 6.5 20.5 6.27614 20.5 6C20.5 5.72386 20.2761 5.5 20 5.5H15.5ZM17.463 6.5H6.53699L7.43239 19.0356C7.45108 19.2973 7.6688 19.5 7.93112 19.5H16.0689C16.3312 19.5 16.5489 19.2973 16.5676 19.0356L17.463 6.5Z" fill="current"/>
<path fill-rule="evenodd" clip-rule="evenodd" d="M10 8.5C10.2761 8.5 10.5 8.72386 10.5 9V17C10.5 17.2761 10.2761 17.5 10 17.5C9.72386 17.5 9.5 17.2761 9.5 17V9C9.5 8.72386 9.72386 8.5 10 8.5Z" fill="current"/>
<path fill-rule="evenodd" clip-rule="evenodd" d="M14 8.5C14.2761 8.5 14.5 8.72386 14.5 9V17C14.5 17.2761 14.2761 17.5 14 17.5C13.7239 17.5 13.5 17.2761 13.5 17V9C13.5 8.72386 13.7239 8.5 14 8.5Z" fill="current"/>

</symbol>
<symbol id="delete_fill" viewBox="0 0 24 24">
<path fill-rule="evenodd" clip-rule="evenodd" d="M10 3.5C9.17157 3.5 8.5 4.17157 8.5 5V5.5H4C3.72386 5.5 3.5 5.72386 3.5 6C3.5 6.27614 3.72386 6.5 4 6.5H5.53444L6.43493 19.1069C6.491 19.8918 7.14416 20.5 7.93112 20.5H16.0689C16.8558 20.5 17.509 19.8918 17.5651 19.1069L18.4656 6.5H20C20.2761 6.5 20.5 6.27614 20.5 6C20.5 5.72386 20.2761 5.5 20 5.5H15.5V5C15.5 4.17157 14.8284 3.5 14 3.5H10ZM14.5 5.5V5C14.5 4.72386 14.2761 4.5 14 4.5H10C9.72386 4.5 9.5 4.72386 9.5 5V5.5H14.5ZM10 8.5C10.2761 8.5 10.5 8.72386 10.5 9V17C10.5 17.2761 10.2761 17.5 10 17.5C9.72386 17.5 9.5 17.2761 9.5 17V9C9.5 8.72386 9.72386 8.5 10 8.5ZM14 8.5C14.2761 8.5 14.5 8.72386 14.5 9V17C14.5 17.2761 14.2761 17.5 14 17.5C13.7239 17.5 13.5 17.2761 13.5 17V9C13.5 8.72386 13.7239 8.5 14 8.5Z" fill="current"/>

</symbol>
<symbol id="exclamation_mark" viewBox="0 0 24 24">
<path d="M11.36 13.575L11.18 6.99995H12.725L12.545 13.575H11.36ZM11.96 17.68C11.7 17.68 11.475 17.59 11.285 17.41C11.095 17.22 11 16.995 11 16.735C11 16.475 11.095 16.255 11.285 16.075C11.475 15.885 11.7 15.79 11.96 15.79C12.22 15.79 12.44 15.885 12.62 16.075C12.81 16.255 12.905 16.475 12.905 16.735C12.905 16.995 12.81 17.22 12.62 17.41C12.44 17.59 12.22 17.68 11.96 17.68Z" fill="current"/>
<path fill-rule="evenodd" clip-rule="evenodd" d="M12 3.5C7.30558 3.5 3.5 7.30558 3.5 12C3.5 16.6944 7.30558 20.5 12 20.5C16.6944 20.5 20.5 16.6944 20.5 12C20.5 7.30558 16.6944 3.5 12 3.5ZM2.5 12C2.5 6.75329 6.75329 2.5 12 2.5C17.2467 2.5 21.5 6.75329 21.5 12C21.5 17.2467 17.2467 21.5 12 21.5C6.75329 21.5 2.5 17.2467 2.5 12Z" fill="current"/>

</symbol>
<symbol id="exclamation_mark_fill" viewBox="0 0 24 24">
<path fill-rule="evenodd" clip-rule="evenodd" d="M12 21C16.9706 21 21 16.9706 21 12C21 7.02944 16.9706 3 12 3C7.02944 3 3 7.02944 3 12C3 16.9706 7.02944 21 12 21ZM11.18 7L11.36 13.575H12.545L12.725 7H11.18ZM11.285 17.41C11.475 17.59 11.7 17.68 11.96 17.68C12.22 17.68 12.44 17.59 12.62 17.41C12.81 17.22 12.905 16.995 12.905 16.735C12.905 16.475 12.81 16.255 12.62 16.075C12.44 15.885 12.22 15.79 11.96 15.79C11.7 15.79 11.475 15.885 11.285 16.075C11.095 16.255 11 16.475 11 16.735C11 16.995 11.095 17.22 11.285 17.41Z" fill="current"/>

</symbol>
<symbol id="exit" viewBox="0 0 24 24">
<path fill-rule="evenodd" clip-rule="evenodd" d="M3.5 5C3.5 4.17157 4.17157 3.5 5 3.5H13C13.2761 3.5 13.5 3.72386 13.5 4C13.5 4.27614 13.2761 4.5 13 4.5H5C4.72386 4.5 4.5 4.72386 4.5 5V19C4.5 19.2761 4.72386 19.5 5 19.5H13C13.2761 19.5 13.5 19.7239 13.5 20C13.5 20.2761 13.2761 20.5 13 20.5H5C4.17157 20.5 3.5 19.8284 3.5 19V5ZM16.6464 8.64645C16.8417 8.45118 17.1583 8.45118 17.3536 8.64645L20.3536 11.6464C20.5488 11.8417 20.5488 12.1583 20.3536 12.3536L17.3536 15.3536C17.1583 15.5488 16.8417 15.5488 16.6464 15.3536C16.4512 15.1583 16.4512 14.8417 16.6464 14.6464L18.7929 12.5H12C11.7239 12.5 11.5 12.2761 11.5 12C11.5 11.7239 11.7239 11.5 12 11.5H18.7929L16.6464 9.35355C16.4512 9.15829 16.4512 8.84171 16.6464 8.64645Z" fill="current"/>

</symbol>
<symbol id="explore" viewBox="0 0 24 24">
<path fill-rule="evenodd" clip-rule="evenodd" d="M9.87869 9.87877L7.05031 16.9497L14.1213 14.1213L16.9497 7.05028L9.87869 9.87877ZM12.3419 13.756L8.84537 15.1547L10.244 11.6581L12.3419 13.756Z" fill="current"/>
<path fill-rule="evenodd" clip-rule="evenodd" d="M3.5 12C3.5 7.30558 7.30558 3.5 12 3.5C16.6944 3.5 20.5 7.30558 20.5 12C20.5 16.6944 16.6944 20.5 12 20.5C7.30558 20.5 3.5 16.6944 3.5 12ZM12 4.5C7.85786 4.5 4.5 7.85786 4.5 12C4.5 16.1421 7.85786 19.5 12 19.5C16.1421 19.5 19.5 16.1421 19.5 12C19.5 7.85786 16.1421 4.5 12 4.5Z" fill="current"/>

</symbol>
<symbol id="eye_closed" viewBox="0 0 24 24">
<path d="M12.0001 21.5005C11.7201 21.5005 11.5001 21.2805 11.5001 21.0005V17.4805C10.2101 17.3805 8.89011 16.9005 7.56011 16.0405L4.35011 19.2505C4.15011 19.4505 3.84011 19.4505 3.64011 19.2505C3.44011 19.0505 3.44011 18.7405 3.64011 18.5405L6.73011 15.4505C4.85011 14.0305 3.65011 12.3705 3.59011 12.2905C3.43011 12.0705 3.48011 11.7505 3.71011 11.5905C3.93011 11.4305 4.25011 11.4805 4.41011 11.7105C4.42011 11.7305 5.77011 13.5905 7.78011 14.9805C7.78011 14.9805 7.79011 14.9805 7.80011 14.9905C10.6901 16.9905 13.3201 16.9905 16.2201 14.9905C16.2201 14.9905 16.2201 14.9905 16.2401 14.9805C18.2501 13.5905 19.6001 11.7205 19.6101 11.7105C19.7701 11.4905 20.0801 11.4405 20.3101 11.6005C20.5301 11.7605 20.5901 12.0705 20.4301 12.3005C20.3801 12.3805 19.1801 14.0405 17.2901 15.4705L20.3801 18.5605C20.5801 18.7605 20.5801 19.0705 20.3801 19.2705C20.1801 19.4705 19.8701 19.4705 19.6701 19.2705L16.4601 16.0605C15.1301 16.9205 13.8101 17.4005 12.5201 17.5005V21.0205C12.5201 21.3005 12.3001 21.5205 12.0201 21.5205L12.0001 21.5005Z" fill="current"/>

</symbol>
<symbol id="eye_open" viewBox="0 0 24 24">
<path fill-rule="evenodd" clip-rule="evenodd" d="M7.60861 9.13607C6.33922 10.0488 5.35469 11.1241 4.82574 11.7594C4.70604 11.9032 4.70604 12.0968 4.82574 12.2406C5.35469 12.8759 6.33922 13.9512 7.60861 14.8639C8.8827 15.7801 10.3983 16.5 12 16.5C13.6017 16.5 15.1174 15.7801 16.3914 14.8639C17.6608 13.9512 18.6454 12.8759 19.1743 12.2406C19.294 12.0968 19.294 11.9032 19.1743 11.7594C18.6454 11.1241 17.6608 10.0488 16.3914 9.13607C15.1174 8.21991 13.6017 7.5 12 7.5C10.3983 7.5 8.88269 8.21991 7.60861 9.13607ZM7.0248 8.32418C8.38374 7.34701 10.1038 6.5 12 6.5C13.8962 6.5 15.6163 7.34701 16.9752 8.32418C18.3389 9.30472 19.3847 10.4492 19.9428 11.1196C20.3712 11.6341 20.3712 12.3659 19.9428 12.8804C19.3847 13.5508 18.3389 14.6953 16.9752 15.6758C15.6163 16.653 13.8962 17.5 12 17.5C10.1038 17.5 8.38374 16.653 7.0248 15.6758C5.66117 14.6953 4.61537 13.5508 4.05724 12.8804C3.62887 12.3659 3.62887 11.6341 4.05724 11.1196C4.61537 10.4492 5.66117 9.30472 7.0248 8.32418ZM12 10.5C11.1716 10.5 10.5 11.1716 10.5 12C10.5 12.8284 11.1716 13.5 12 13.5C12.8285 13.5 13.5 12.8284 13.5 12C13.5 11.1716 12.8285 10.5 12 10.5ZM9.50003 12C9.50003 10.6193 10.6193 9.5 12 9.5C13.3807 9.5 14.5 10.6193 14.5 12C14.5 13.3807 13.3807 14.5 12 14.5C10.6193 14.5 9.50003 13.3807 9.50003 12Z" fill="current"/>

</symbol>
<symbol id="filter" viewBox="0 0 24 24">
<path fill-rule="evenodd" clip-rule="evenodd" d="M4.5 7C4.5 6.72386 4.72386 6.5 5 6.5H19C19.2761 6.5 19.5 6.72386 19.5 7C19.5 7.27614 19.2761 7.5 19 7.5H5C4.72386 7.5 4.5 7.27614 4.5 7ZM6.5 12.5C6.5 12.2239 6.72386 12 7 12H17.1C17.3761 12 17.6 12.2239 17.6 12.5C17.6 12.7761 17.3761 13 17.1 13H7C6.72386 13 6.5 12.7761 6.5 12.5ZM9.5 17.5C9.5 17.2239 9.72386 17 10 17H14C14.2761 17 14.5 17.2239 14.5 17.5C14.5 17.7761 14.2761 18 14 18H10C9.72386 18 9.5 17.7761 9.5 17.5Z" fill="current"/>

</symbol>
<symbol id="folder" viewBox="0 0 24 24">
<path fill-rule="evenodd" clip-rule="evenodd" d="M3.5 6C3.5 5.17157 4.17157 4.5 5 4.5H8.31085C8.93326 4.5 9.491 4.88437 9.71258 5.46601L9.88858 5.928C9.96243 6.12188 10.1483 6.25 10.3558 6.25H19C19.8284 6.25 20.5 6.92157 20.5 7.75V18C20.5 18.8284 19.8284 19.5 19 19.5H5C4.17157 19.5 3.5 18.8284 3.5 18V6ZM5 5.5C4.72386 5.5 4.5 5.72386 4.5 6V9.75H19.5V7.75C19.5 7.47386 19.2761 7.25 19 7.25H10.3558C9.73341 7.25 9.17566 6.86563 8.95409 6.28399L8.77809 5.822C8.70423 5.62812 8.51832 5.5 8.31085 5.5H5ZM19.5 10.75H4.5V18C4.5 18.2761 4.72386 18.5 5 18.5H19C19.2761 18.5 19.5 18.2761 19.5 18V10.75Z" fill="current"/>

</symbol>
<symbol id="folder_fill" viewBox="0 0 24 24">
<path d="M5 5H8.31085C8.72579 5 9.09762 5.25625 9.24534 5.644L9.42133 6.106C9.56905 6.49375 9.94088 6.75 10.3558 6.75H19C19.5523 6.75 20 7.19772 20 7.75V9.75H4V6C4 5.44772 4.44772 5 5 5Z" fill="current"/>
<path d="M4 10.75V18C4 18.5523 4.44772 19 5 19H19C19.5523 19 20 18.5523 20 18V10.75H4Z" fill="current"/>

</symbol>
<symbol id="heart" viewBox="0 0 24 24">
<path fill-rule="evenodd" clip-rule="evenodd" d="M10.4262 5.69622C8.87518 4.53274 6.70207 4.69876 5.34575 6.08436C3.87531 7.58655 3.87531 9.98859 5.34575 11.4908L12 18.2887L18.6589 11.486C20.1268 9.98648 20.1268 7.58866 18.6589 6.08911C17.3016 4.70252 15.1256 4.53985 13.5773 5.70923L12.7335 6.3465C12.3085 6.66749 11.7223 6.66845 11.2963 6.34885L10.4262 5.69622ZM12.0959 19.4815C11.93 19.5135 11.7516 19.4645 11.6242 19.3344L4.63113 12.1903C2.78018 10.2994 2.78018 7.27576 4.63113 5.38484C6.33842 3.64069 9.07387 3.43171 11.0263 4.89627L11.8963 5.5489C11.9658 5.60104 12.0615 5.60089 12.1308 5.54852L12.9746 4.91124C14.9243 3.43873 17.6644 3.64356 19.3735 5.38959C21.2219 7.27787 21.2219 10.2973 19.3735 12.1856L12.3724 19.3378C12.2974 19.4144 12.2003 19.4644 12.0959 19.4815Z" fill="current"/>

</symbol>
<symbol id="heart_fill" viewBox="0 0 24 24">
<path d="M10.7263 5.29624C8.97452 3.98222 6.52024 4.16972 4.98844 5.73459C3.32775 7.43115 3.32774 10.144 4.98844 11.8405L11.9815 18.9846C11.9898 18.9931 12.0034 18.9931 12.0117 18.9846L12.0151 18.9881L19.0162 11.8358C20.6743 10.1419 20.6743 7.43326 19.0162 5.73934C17.483 4.17303 15.025 3.98929 13.2759 5.31023L12.4321 5.9475C12.185 6.13418 11.8441 6.13474 11.5963 5.94887L10.7263 5.29624Z" fill="current"/>

</symbol>
<symbol id="home" viewBox="0 0 24 24">
<path fill-rule="evenodd" clip-rule="evenodd" d="M10.9575 4.31238C11.5389 3.75036 12.4612 3.75036 13.0426 4.31239L18.3476 9.44053L20.3444 11.3375C20.5446 11.5277 20.5527 11.8442 20.3625 12.0444C20.1723 12.2446 19.8558 12.2527 19.6556 12.0625L18.5001 10.9647V19C18.5001 19.8285 17.8285 20.5 17.0001 20.5H14C13.7239 20.5 13.5 20.2762 13.5 20V14.5H10.5V20C10.5 20.2762 10.2762 20.5 10 20.5H7.00006C6.17164 20.5 5.50007 19.8285 5.50006 19L5.50001 10.9647L4.34438 12.0625C4.14417 12.2527 3.82769 12.2446 3.6375 12.0444C3.44731 11.8442 3.45542 11.5277 3.65563 11.3375L5.65407 9.43901L10.9575 4.31238ZM6.5 10.0121L6.50006 19C6.50007 19.2762 6.72392 19.5 7.00006 19.5H9.50005V14C9.50005 13.7239 9.7239 13.5 10 13.5H14C14.2762 13.5 14.5 13.7239 14.5 14V19.5H17.0001C17.2762 19.5 17.5001 19.2762 17.5001 19V10.0121L12.3476 5.03137C12.1538 4.84403 11.8464 4.84403 11.6526 5.03137L6.5 10.0121Z" fill="current"/>

</symbol>
<symbol id="home_fill" viewBox="0 0 24 24">
<path d="M13.0426 4.31239C12.4612 3.75037 11.5389 3.75036 10.9575 4.31238L5.65453 9.43851L3.85664 11.1365C3.65588 11.3261 3.64684 11.6426 3.83645 11.8433C4.02605 12.0441 4.34251 12.0531 4.54326 11.8635L5.49996 10.96L5.50001 19C5.50002 19.8285 6.17159 20.5 7.00001 20.5H9.99999C10.2761 20.5 10.5 20.2762 10.5 20V14.5001H13.5V20C13.5 20.2762 13.7239 20.5 14 20.5H17C17.8284 20.5 18.5 19.8285 18.5 19V10.9183L19.5665 11.8726C19.7723 12.0568 20.0884 12.0392 20.2726 11.8334C20.4567 11.6276 20.4391 11.3116 20.2334 11.1274L18.3406 9.43384L13.0426 4.31239Z" fill="current"/>

</symbol>
<symbol id="image" viewBox="0 0 24 24">
<path fill-rule="evenodd" clip-rule="evenodd" d="M3.5 5C3.5 4.17157 4.17157 3.5 5 3.5H19C19.8284 3.5 20.5 4.17157 20.5 5V19C20.5 19.8284 19.8284 20.5 19 20.5H5C4.17157 20.5 3.5 19.8284 3.5 19V5ZM5 4.5C4.72386 4.5 4.5 4.72386 4.5 5V17.7929L8.93934 13.3536C9.52513 12.7678 10.4749 12.7678 11.0607 13.3536L11.6083 13.9011C11.8108 14.1037 12.1418 14.095 12.3335 13.8821L15.3745 10.5031C15.976 9.8348 17.0263 9.84214 17.6183 10.5188L19.5 12.6693V5C19.5 4.72386 19.2761 4.5 19 4.5H5ZM19.5 14.1879L16.8658 11.1773C16.6684 10.9517 16.3183 10.9493 16.1178 11.1721L13.0767 14.551C12.5018 15.1898 11.5088 15.2159 10.9011 14.6083L10.3536 14.0607C10.1583 13.8654 9.84171 13.8654 9.64645 14.0607L4.53165 19.1755C4.60271 19.365 4.7856 19.5 5 19.5H19C19.2761 19.5 19.5 19.2761 19.5 19V14.1879ZM8.50002 7C7.67159 7 7.00002 7.67157 7.00002 8.5C7.00002 9.32843 7.67159 10 8.50002 10C9.32844 10 10 9.32843 10 8.5C10 7.67157 9.32844 7 8.50002 7ZM6.00002 8.5C6.00002 7.11929 7.1193 6 8.50002 6C9.88073 6 11 7.11929 11 8.5C11 9.88071 9.88073 11 8.50002 11C7.1193 11 6.00002 9.88071 6.00002 8.5Z" fill="current"/>

</symbol>
<symbol id="image_fill" viewBox="0 0 24 24">
<path fill-rule="evenodd" clip-rule="evenodd" d="M5 3.5C4.17157 3.5 3.5 4.17157 3.5 5V19C3.5 19.8284 4.17157 20.5 5 20.5H19C19.8284 20.5 20.5 19.8284 20.5 19V5C20.5 4.17157 19.8284 3.5 19 3.5H5ZM16.8658 11.1773L19.5 14.1879V19C19.5 19.2761 19.2761 19.5 19 19.5H5C4.7856 19.5 4.60271 19.365 4.53165 19.1755L9.64645 14.0607C9.84171 13.8654 10.1583 13.8654 10.3536 14.0607L10.9011 14.6083C11.5088 15.2159 12.5018 15.1898 13.0767 14.551L16.1178 11.1721C16.3183 10.9493 16.6684 10.9517 16.8658 11.1773ZM8.5 10.5C9.60457 10.5 10.5 9.60457 10.5 8.5C10.5 7.39543 9.60457 6.5 8.5 6.5C7.39543 6.5 6.5 7.39543 6.5 8.5C6.5 9.60457 7.39543 10.5 8.5 10.5Z" fill="current"/>

</symbol>
<symbol id="inbox" viewBox="0 0 24 24">
<path fill-rule="evenodd" clip-rule="evenodd" d="M7.74403 4.5C7.52323 4.5 7.32857 4.64483 7.26512 4.85633L4.67202 13.5H10C10.2761 13.5 10.5 13.7239 10.5 14C10.5 14.8284 11.1716 15.5 12 15.5C12.8284 15.5 13.5 14.8284 13.5 14C13.5 13.7239 13.7239 13.5 14 13.5H19.328L16.7349 4.85633C16.6714 4.64483 16.4768 4.5 16.256 4.5H7.74403ZM19.5 14.5H14.45C14.2184 15.6411 13.2095 16.5 12 16.5C10.7905 16.5 9.78164 15.6411 9.55001 14.5H4.5V19C4.5 19.2761 4.72386 19.5 5 19.5H19C19.2761 19.5 19.5 19.2761 19.5 19V14.5ZM6.30729 4.56898C6.49763 3.9345 7.08162 3.5 7.74403 3.5H16.256C16.9184 3.5 17.5024 3.9345 17.6927 4.56898L20.4789 13.8563C20.4929 13.9029 20.5 13.9513 20.5 14V19C20.5 19.8284 19.8284 20.5 19 20.5H5C4.17157 20.5 3.5 19.8284 3.5 19V14C3.5 13.9513 3.5071 13.9029 3.52109 13.8563L6.30729 4.56898Z" fill="current"/>

</symbol>
<symbol id="inbox_fill" viewBox="0 0 24 24">
<path d="M6.7862 4.71265C6.9131 4.28967 7.30242 4 7.74403 4H16.256C16.6976 4 17.0869 4.28967 17.2138 4.71265L19.85 13.5H14C13.7239 13.5 13.5 13.7239 13.5 14C13.5 14.8284 12.8284 15.5 12 15.5C11.1716 15.5 10.5 14.8284 10.5 14C10.5 13.7239 10.2761 13.5 10 13.5H4.15L6.7862 4.71265Z" fill="current"/>
<path d="M4 14.5V19C4 19.5523 4.44772 20 5 20H19C19.5523 20 20 19.5523 20 19V14.5H14.45C14.2184 15.6411 13.2095 16.5 12 16.5C10.7905 16.5 9.78164 15.6411 9.55001 14.5H4Z" fill="current"/>

</symbol>
<symbol id="left_right" viewBox="0 0 24 24">
<path fill-rule="evenodd" clip-rule="evenodd" d="M6.5 12C6.5 12.1484 6.56591 12.2891 6.67991 12.3841L12.6799 17.3841C12.892 17.5609 13.2073 17.5322 13.3841 17.3201C13.5609 17.108 13.5322 16.7927 13.3201 16.6159L8.38102 12.5L18 12.5C18.2761 12.5 18.5 12.2762 18.5 12C18.5 11.7239 18.2761 11.5 18 11.5L8.38103 11.5L13.3201 7.38412C13.5322 7.20734 13.5609 6.89206 13.3841 6.67992C13.2073 6.46778 12.892 6.43912 12.6799 6.6159L6.67991 11.6159C6.56591 11.7109 6.5 11.8516 6.5 12Z" fill="current"/>

</symbol>
<symbol id="left_right_fill" viewBox="0 0 24 24">
<path fill-rule="evenodd" clip-rule="evenodd" d="M13 21C17.9706 21 22 16.9706 22 12C22 7.02944 17.9706 3 13 3C8.02944 3 4 7.02944 4 12C4 16.9706 8.02944 21 13 21ZM8.69109 12.3932C8.57044 12.2984 8.5 12.1534 8.5 12C8.5 11.8466 8.57044 11.7016 8.69109 11.6068L12.5093 8.60684C12.7264 8.43623 13.0407 8.47395 13.2113 8.69109C13.3819 8.90823 13.3442 9.22255 13.1271 9.39316L10.4457 11.5H16C16.2761 11.5 16.5 11.7239 16.5 12C16.5 12.2761 16.2761 12.5 16 12.5H10.4457L13.1271 14.6068C13.3442 14.7774 13.3819 15.0918 13.2113 15.3089C13.0407 15.526 12.7264 15.5638 12.5093 15.3932L8.69109 12.3932Z" fill="current"/>

</symbol>
<symbol id="letter" viewBox="0 0 24 24">
<path fill-rule="evenodd" clip-rule="evenodd" d="M3.5 7C3.5 6.17157 4.17157 5.5 5 5.5H19C19.8284 5.5 20.5 6.17157 20.5 7V17C20.5 17.8284 19.8284 18.5 19 18.5H5C4.17157 18.5 3.5 17.8284 3.5 17V7ZM5 6.5C4.72386 6.5 4.5 6.72386 4.5 7V8.69098L11.7764 12.3292C11.9172 12.3996 12.0828 12.3996 12.2236 12.3292L19.5 8.69098V7C19.5 6.72386 19.2761 6.5 19 6.5H5ZM19.5 9.80902L12.6708 13.2236C12.2485 13.4348 11.7515 13.4348 11.3292 13.2236L4.5 9.80902V17C4.5 17.2761 4.72386 17.5 5 17.5H19C19.2761 17.5 19.5 17.2761 19.5 17V9.80902Z" fill="current"/>

</symbol>
<symbol id="letter_fill" viewBox="0 0 24 24">
<path d="M5 6H19C19.5523 6 20 6.44772 20 7V7.98358L12.1932 12.3207C12.0559 12.397 11.8908 12.4043 11.7473 12.3405L4 8.89729V7C4 6.44772 4.44772 6 5 6Z" fill="current"/>
<path d="M4 9.9916V17C4 17.5523 4.44772 18 5 18H19C19.5523 18 20 17.5523 20 17V9.12753L12.6788 13.1949C12.267 13.4236 11.7716 13.4457 11.3412 13.2543L4 9.9916Z" fill="current"/>

</symbol>
<symbol id="light_mode" viewBox="0 0 24 24">
<path fill-rule="evenodd" clip-rule="evenodd" d="M13 2.5C13.2761 2.5 13.5 2.72386 13.5 3V4C13.5 4.27614 13.2761 4.5 13 4.5C12.7239 4.5 12.5 4.27614 12.5 4V3C12.5 2.72386 12.7239 2.5 13 2.5ZM6.13607 5.13619C6.33133 4.94093 6.64792 4.94093 6.84318 5.13619L7.65574 5.94876C7.851 6.14402 7.851 6.4606 7.65574 6.65586C7.46048 6.85113 7.1439 6.85113 6.94863 6.65586L6.13607 5.8433C5.94081 5.64804 5.94081 5.33145 6.13607 5.13619ZM18.8639 5.13619C19.0592 5.33145 19.0592 5.64804 18.8639 5.8433L18.1126 6.5946C17.9174 6.78986 17.6008 6.78986 17.4055 6.5946C17.2103 6.39934 17.2103 6.08276 17.4055 5.88749L18.1568 5.13619C18.3521 4.94093 18.6687 4.94093 18.8639 5.13619ZM12.5 6.5C9.73858 6.5 7.5 8.73858 7.5 11.5C7.5 14.2614 9.73858 16.5 12.5 16.5C15.2614 16.5 17.5 14.2614 17.5 11.5C17.5 8.73858 15.2614 6.5 12.5 6.5ZM6.5 11.5C6.5 8.18629 9.18629 5.5 12.5 5.5C15.8137 5.5 18.5 8.18629 18.5 11.5C18.5 14.8137 15.8137 17.5 12.5 17.5C9.18629 17.5 6.5 14.8137 6.5 11.5ZM3.5 11C3.5 10.7239 3.72386 10.5 4 10.5H5C5.27614 10.5 5.5 10.7239 5.5 11C5.5 11.2761 5.27614 11.5 5 11.5H4C3.72386 11.5 3.5 11.2761 3.5 11ZM19.5 11C19.5 10.7239 19.7239 10.5 20 10.5H21C21.2761 10.5 21.5 10.7239 21.5 11C21.5 11.2761 21.2761 11.5 21 11.5H20C19.7239 11.5 19.5 11.2761 19.5 11ZM17.3443 16.3441C17.5395 16.1489 17.8561 16.1489 18.0514 16.3441L18.8639 17.1567C19.0592 17.352 19.0592 17.6685 18.8639 17.8638C18.6687 18.0591 18.3521 18.0591 18.1568 17.8638L17.3443 17.0512C17.149 16.856 17.149 16.5394 17.3443 16.3441ZM7.59448 16.4054C7.78974 16.6007 7.78974 16.9172 7.59448 17.1125L6.84318 17.8638C6.64792 18.0591 6.33133 18.0591 6.13607 17.8638C5.94081 17.6685 5.94081 17.352 6.13607 17.1567L6.88737 16.4054C7.08263 16.2101 7.39922 16.2101 7.59448 16.4054ZM13 18.5C13.2761 18.5 13.5 18.7239 13.5 19V20C13.5 20.2761 13.2761 20.5 13 20.5C12.7239 20.5 12.5 20.2761 12.5 20V19C12.5 18.7239 12.7239 18.5 13 18.5Z" fill="current"/>

</symbol>
<symbol id="light_mode_fill" viewBox="0 0 24 24">
<path fill-rule="evenodd" clip-rule="evenodd" d="M13 2.5C13.2761 2.5 13.5 2.72386 13.5 3V4C13.5 4.27614 13.2761 4.5 13 4.5C12.7239 4.5 12.5 4.27614 12.5 4V3C12.5 2.72386 12.7239 2.5 13 2.5Z" fill="current"/>
<path fill-rule="evenodd" clip-rule="evenodd" d="M13 20.5C12.7239 20.5 12.5 20.2761 12.5 20V19C12.5 18.7239 12.7239 18.5 13 18.5C13.2761 18.5 13.5 18.7239 13.5 19V20C13.5 20.2761 13.2761 20.5 13 20.5Z" fill="current"/>
<path fill-rule="evenodd" clip-rule="evenodd" d="M3.5 11C3.5 10.7239 3.72386 10.5 4 10.5H5C5.27614 10.5 5.5 10.7239 5.5 11C5.5 11.2761 5.27614 11.5 5 11.5H4C3.72386 11.5 3.5 11.2761 3.5 11Z" fill="current"/>
<path fill-rule="evenodd" clip-rule="evenodd" d="M21.5 11C21.5 11.2761 21.2761 11.5 21 11.5H20C19.7239 11.5 19.5 11.2761 19.5 11C19.5 10.7239 19.7239 10.5 20 10.5H21C21.2761 10.5 21.5 10.7239 21.5 11Z" fill="current"/>
<path fill-rule="evenodd" clip-rule="evenodd" d="M6.13607 5.13619C6.33133 4.94093 6.64792 4.94093 6.84318 5.13619L7.65574 5.94876C7.851 6.14402 7.851 6.4606 7.65574 6.65586C7.46048 6.85113 7.1439 6.85113 6.94864 6.65586L6.13607 5.8433C5.94081 5.64804 5.94081 5.33145 6.13607 5.13619Z" fill="current"/>
<path fill-rule="evenodd" clip-rule="evenodd" d="M18.8639 17.8638C18.6687 18.0591 18.3521 18.0591 18.1568 17.8638L17.3443 17.0512C17.149 16.856 17.149 16.5394 17.3443 16.3441C17.5395 16.1489 17.8561 16.1489 18.0514 16.3441L18.8639 17.1567C19.0592 17.352 19.0592 17.6685 18.8639 17.8638Z" fill="current"/>
<path fill-rule="evenodd" clip-rule="evenodd" d="M6.13607 17.8638C5.94081 17.6685 5.94081 17.352 6.13607 17.1567L6.88737 16.4054C7.08263 16.2101 7.39922 16.2101 7.59448 16.4054C7.78974 16.6007 7.78974 16.9172 7.59448 17.1125L6.84318 17.8638C6.64792 18.0591 6.33133 18.0591 6.13607 17.8638Z" fill="current"/>
<path fill-rule="evenodd" clip-rule="evenodd" d="M18.8639 5.13619C19.0592 5.33145 19.0592 5.64804 18.8639 5.8433L18.1126 6.5946C17.9174 6.78986 17.6008 6.78986 17.4055 6.5946C17.2103 6.39934 17.2103 6.08276 17.4055 5.88749L18.1568 5.13619C18.3521 4.94093 18.6687 4.94093 18.8639 5.13619Z" fill="current"/>
<path d="M18 11.5C18 14.5376 15.5376 17 12.5 17C9.46243 17 7 14.5376 7 11.5C7 8.46243 9.46243 6 12.5 6C15.5376 6 18 8.46243 18 11.5Z" fill="current"/>

</symbol>
<symbol id="link" viewBox="0 0 24 24">
<path fill-rule="evenodd" clip-rule="evenodd" d="M11.6464 5.9896C13.4038 4.23224 16.2531 4.23224 18.0104 5.9896C19.7678 7.74696 19.7678 10.5962 18.0104 12.3536L16.5962 13.7678C16.4009 13.963 16.0844 13.963 15.8891 13.7678C15.6938 13.5725 15.6938 13.2559 15.8891 13.0607L17.3033 11.6465C18.6701 10.2796 18.6701 8.06354 17.3033 6.6967C15.9365 5.32987 13.7204 5.32987 12.3536 6.6967L10.9393 8.11092C10.7441 8.30618 10.4275 8.30618 10.2322 8.11092C10.037 7.91566 10.037 7.59907 10.2322 7.40381L11.6464 5.9896ZM14.4749 9.52513C14.6701 9.72039 14.6701 10.037 14.4749 10.2322L9.52513 15.182C9.32987 15.3772 9.01328 15.3772 8.81802 15.182C8.62276 14.9867 8.62276 14.6701 8.81802 14.4749L13.7678 9.52513C13.963 9.32987 14.2796 9.32987 14.4749 9.52513ZM8.11092 10.2322C8.30618 10.4275 8.30618 10.7441 8.11092 10.9393L6.6967 12.3536C5.32987 13.7204 5.32987 15.9365 6.6967 17.3033C8.06354 18.6701 10.2796 18.6701 11.6464 17.3033L13.0607 15.8891C13.2559 15.6938 13.5725 15.6938 13.7678 15.8891C13.963 16.0844 13.963 16.4009 13.7678 16.5962L12.3536 18.0104C10.5962 19.7678 7.74695 19.7678 5.9896 18.0104C4.23224 16.2531 4.23224 13.4038 5.9896 11.6465L7.40381 10.2322C7.59907 10.037 7.91565 10.037 8.11092 10.2322Z" fill="current"/>

</symbol>
<symbol id="lock" viewBox="0 0 24 24">
<path fill-rule="evenodd" clip-rule="evenodd" d="M12.0332 11.5C11.0206 11.5 10.1998 12.3208 10.1998 13.3333C10.1998 13.8744 10.4345 14.3604 10.8062 14.6955L10.5368 16.9404C10.5197 17.0824 10.5643 17.2249 10.6592 17.3318C10.7541 17.4388 10.8902 17.5 11.0332 17.5H13.0332C13.1762 17.5 13.3123 17.4388 13.4072 17.3318C13.5021 17.2249 13.5467 17.0824 13.5296 16.9404L13.2602 14.6955C13.6319 14.3603 13.8665 13.8744 13.8665 13.3333C13.8665 12.3208 13.0457 11.5 12.0332 11.5ZM11.1998 13.3333C11.1998 12.8731 11.5729 12.5 12.0332 12.5C12.4934 12.5 12.8665 12.8731 12.8665 13.3333C12.8665 13.6335 12.7082 13.8971 12.4681 14.0444C12.3016 14.1465 12.2099 14.3362 12.2332 14.5301L12.4696 16.5H11.5968L11.8332 14.5302C11.8565 14.3363 11.7648 14.1466 11.5983 14.0444C11.3582 13.8971 11.1998 13.6335 11.1998 13.3333Z" fill="current"/>
<path fill-rule="evenodd" clip-rule="evenodd" d="M7.5 8V8.5H5C4.17157 8.5 3.5 9.17157 3.5 10V19C3.5 19.8284 4.17157 20.5 5 20.5H19C19.8284 20.5 20.5 19.8284 20.5 19V10C20.5 9.17157 19.8284 8.5 19 8.5H16.5V8C16.5 5.51472 14.4853 3.5 12 3.5C9.51472 3.5 7.5 5.51472 7.5 8ZM12 4.5C10.067 4.5 8.5 6.067 8.5 8V8.5H15.5V8C15.5 6.067 13.933 4.5 12 4.5ZM5 9.5H19C19.2761 9.5 19.5 9.72386 19.5 10V19C19.5 19.2761 19.2761 19.5 19 19.5H5C4.72386 19.5 4.5 19.2761 4.5 19V10C4.5 9.72386 4.72386 9.5 5 9.5Z" fill="current"/>

</symbol>
<symbol id="lock_fill" viewBox="0 0 24 24">
<path fill-rule="evenodd" clip-rule="evenodd" d="M7.5 9V8C7.5 5.51472 9.51472 3.5 12 3.5C14.4853 3.5 16.5 5.51472 16.5 8V9H19C19.5523 9 20 9.44772 20 10V19C20 19.5523 19.5523 20 19 20H5C4.44772 20 4 19.5523 4 19V10C4 9.44771 4.44772 9 5 9H7.5ZM8.5 8C8.5 6.067 10.067 4.5 12 4.5C13.933 4.5 15.5 6.067 15.5 8V9H8.5V8ZM12.7296 14.4705C13.1117 14.2361 13.3665 13.8145 13.3665 13.3333C13.3665 12.597 12.7695 12 12.0332 12C11.2968 12 10.6998 12.597 10.6998 13.3333C10.6998 13.8145 10.9547 14.2361 11.3368 14.4706L11.0332 17H13.0332L12.7296 14.4705Z" fill="current"/>

</symbol>
<symbol id="multiple_images" viewBox="0 0 24 24">
<path fill-rule="evenodd" clip-rule="evenodd" d="M5.5 5.49951C5.5 4.67108 6.17157 3.99951 7 3.99951H19C19.8284 3.99951 20.5 4.67108 20.5 5.49951V12.6245V16.4995C20.5 17.3279 19.8284 17.9995 19 17.9995H6.8125C6.08763 17.9995 5.5 17.4119 5.5 16.687V10.9995V5.49951ZM7 4.99951C6.72386 4.99951 6.5 5.22337 6.5 5.49951V10.9995V15.5404L10.2293 12.0775C10.8048 11.543 11.6952 11.543 12.2707 12.0775L12.6229 12.4046C12.8222 12.5896 13.1329 12.5815 13.3222 12.3862L15.8502 9.77789C16.4453 9.16387 17.4326 9.17082 18.019 9.79315L19.5 11.3648V5.49951C19.5 5.22337 19.2761 4.99951 19 4.99951H7ZM19.5 12.823L17.2912 10.479C17.0957 10.2715 16.7667 10.2692 16.5683 10.4739L14.0403 13.0821C13.4724 13.668 12.5404 13.6926 11.9425 13.1374L11.5902 12.8103C11.3984 12.6321 11.1016 12.6321 10.9098 12.8103L6.5508 16.8579C6.6066 16.9432 6.70297 16.9995 6.8125 16.9995H19C19.2761 16.9995 19.5 16.7757 19.5 16.4995V12.823ZM10.5 7.5C9.94772 7.5 9.5 7.94772 9.5 8.5C9.5 9.05228 9.94772 9.5 10.5 9.5C11.0523 9.5 11.5 9.05228 11.5 8.5C11.5 7.94772 11.0523 7.5 10.5 7.5ZM8.5 8.5C8.5 7.39543 9.39543 6.5 10.5 6.5C11.6046 6.5 12.5 7.39543 12.5 8.5C12.5 9.60457 11.6046 10.5 10.5 10.5C9.39543 10.5 8.5 9.60457 8.5 8.5ZM4.5 6.49951C4.5 6.22337 4.27614 5.99951 4 5.99951C3.72386 5.99951 3.5 6.22337 3.5 6.49951V17.4995C3.5 18.8802 4.61929 19.9995 6 19.9995H18C18.2761 19.9995 18.5 19.7757 18.5 19.4995C18.5 19.2234 18.2761 18.9995 18 18.9995H6C5.17157 18.9995 4.5 18.3279 4.5 17.4995V6.49951Z" fill="current"/>

</symbol>
<symbol id="multiple_images_fill" viewBox="0 0 24 24">
<path fill-rule="evenodd" clip-rule="evenodd" d="M5.5 5.49951C5.5 4.67108 6.17157 3.99951 7 3.99951H19C19.8284 3.99951 20.5 4.67108 20.5 5.49951V16.4995C20.5 17.3279 19.8284 17.9995 19 17.9995H6.8125C6.08763 17.9995 5.5 17.4119 5.5 16.687V5.49951ZM19.5 12.823L17.2912 10.479C17.0957 10.2715 16.7667 10.2692 16.5683 10.4739L14.0403 13.0821C13.4724 13.668 12.5404 13.6926 11.9425 13.1374L11.5902 12.8103C11.3984 12.6321 11.1016 12.6321 10.9098 12.8103L6.5508 16.8579C6.6066 16.9432 6.70297 16.9995 6.8125 16.9995H19C19.2761 16.9995 19.5 16.7757 19.5 16.4995V12.823ZM12 8.00049C12 8.82892 11.3284 9.50049 10.5 9.50049C9.67157 9.50049 9 8.82892 9 8.00049C9 7.17206 9.67157 6.50049 10.5 6.50049C11.3284 6.50049 12 7.17206 12 8.00049Z" fill="current"/>
<path d="M4 5.99951C4.27614 5.99951 4.5 6.22337 4.5 6.49951V17.4995C4.5 18.3279 5.17157 18.9995 6 18.9995H18C18.2761 18.9995 18.5 19.2234 18.5 19.4995C18.5 19.7757 18.2761 19.9995 18 19.9995H6C4.61929 19.9995 3.5 18.8802 3.5 17.4995V6.49951C3.5 6.22337 3.72386 5.99951 4 5.99951Z" fill="current"/>

</symbol>
<symbol id="pencil" viewBox="0 0 24 24">
<path fill-rule="evenodd" clip-rule="evenodd" d="M16.424 4.05384C17.0098 3.46806 17.9595 3.46806 18.5453 4.05384L19.9595 5.46804C20.5453 6.05383 20.5453 7.00358 19.9595 7.58937L7.88258 19.6663C7.67861 19.8703 7.42015 20.0111 7.13818 20.0719L5.33507 20.4608C4.26977 20.6906 3.32275 19.7436 3.55253 18.6783L3.94144 16.8752C4.00226 16.5932 4.14309 16.3348 4.34706 16.1308L16.424 4.05384ZM17.8382 4.76095C17.643 4.56569 17.3264 4.56569 17.1311 4.76095L16.0705 5.8216L18.1918 7.94292L19.2524 6.88226C19.4477 6.687 19.4477 6.37041 19.2524 6.17515L17.8382 4.76095ZM17.4847 8.65002L15.3633 6.52871L5.05417 16.8379C4.98618 16.9059 4.93923 16.992 4.91896 17.086L4.53005 18.8891C4.45346 19.2442 4.76913 19.5599 5.12423 19.4833L6.92734 19.0944C7.02133 19.0741 7.10748 19.0272 7.17547 18.9592L17.4847 8.65002Z" fill="current"/>
<path fill-rule="evenodd" clip-rule="evenodd" d="M9.50003 19.9999C9.50003 19.7238 9.72389 19.4999 10 19.4999H19C19.2762 19.4999 19.5 19.7238 19.5 19.9999C19.5 20.276 19.2762 20.4999 19 20.4999H10C9.72389 20.4999 9.50003 20.276 9.50003 19.9999Z" fill="current"/>

</symbol>
<symbol id="pencil_fill" viewBox="0 0 24 24">
<path d="M16.7775 4.4074C17.168 4.01687 17.8012 4.01687 18.1917 4.4074L19.6059 5.8216C19.9964 6.21212 19.9964 6.84529 19.6059 7.23581L7.52894 19.3128C7.39296 19.4487 7.22065 19.5426 7.03267 19.5832L5.22956 19.9721C4.51937 20.1253 3.88802 19.4939 4.0412 18.7837L4.43012 16.9806C4.47066 16.7926 4.56455 16.6203 4.70053 16.4843L16.7775 4.4074Z" fill="current"/>
<path fill-rule="evenodd" clip-rule="evenodd" d="M9.49994 19.9999C9.49994 19.7238 9.7238 19.4999 9.99994 19.4999H18.9999C19.2761 19.4999 19.4999 19.7238 19.4999 19.9999C19.4999 20.276 19.2761 20.4999 18.9999 20.4999H9.99994C9.7238 20.4999 9.49994 20.276 9.49994 19.9999Z" fill="current"/>

</symbol>
<symbol id="phone" viewBox="0 0 24 24">
<path fill-rule="evenodd" clip-rule="evenodd" d="M8.26711 4.94223C7.67537 4.35259 6.71524 4.35259 6.12351 4.94223C4.71324 6.34749 4.16971 8.39868 4.69922 10.3137L5.09809 11.7563C6.0891 15.3403 8.93289 18.1209 12.55 19.0399L13.6754 19.3259C15.6016 19.8153 17.6437 19.2565 19.0486 17.8566C19.6505 17.2568 19.6505 16.2852 19.0486 15.6854L17.7931 14.4344C17.095 13.7388 15.976 13.6968 15.2272 14.3385L13.3635 15.9359C12.7658 16.4481 11.8735 16.4149 11.3159 15.8592L8.42003 12.9736C7.86138 12.417 7.79463 11.5362 8.26363 10.9021L9.80811 8.81367C10.38 8.04039 10.2991 6.96698 9.61706 6.28738L8.26711 4.94223ZM8.97296 4.23386L8.63009 4.57796L8.97296 4.23386L10.3229 5.57902C11.3558 6.60827 11.479 8.23607 10.6121 9.40828L9.06765 11.4967C8.89367 11.7319 8.91814 12.0583 9.12588 12.2653L12.0217 15.1509C12.2095 15.338 12.5111 15.3494 12.7127 15.1766L14.5765 13.5792C15.7213 12.5981 17.431 12.6619 18.499 13.726L19.7544 14.9771C20.7485 15.9676 20.7485 17.5744 19.7544 18.5649C18.0997 20.2138 15.6958 20.871 13.4291 20.2951L12.3037 20.0091C8.33997 19.002 5.22133 15.9542 4.13426 12.0228L3.73538 10.5802C3.10955 8.31682 3.75234 5.89327 5.41766 4.23386C6.39963 3.25538 7.99099 3.25538 8.97296 4.23386Z" fill="current"/>

</symbol>
<symbol id="phone_fill" viewBox="0 0 24 24">
<path d="M18.146 14.0802L19.4015 15.3313C20.1995 16.1264 20.1995 17.4156 19.4015 18.2108C17.8717 19.7352 15.6487 20.3431 13.5522 19.8105L12.4268 19.5245C8.63642 18.5615 5.6552 15.6473 4.61616 11.8895L4.21728 10.4469C3.63961 8.35775 4.23277 6.12038 5.77057 4.58805C6.55742 3.80398 7.83317 3.80398 8.62002 4.58805L9.96997 5.9332C10.8274 6.78763 10.9295 8.13823 10.2101 9.11097L8.66562 11.1994C8.34414 11.6341 8.38974 12.2376 8.77294 12.6195L11.6688 15.505C12.0415 15.8764 12.6385 15.8988 13.0381 15.5563L14.9018 13.9589C15.8486 13.1474 17.263 13.2003 18.146 14.0802Z" fill="current"/>

</symbol>
<symbol id="pin" viewBox="0 0 24 24">
<path fill-rule="evenodd" clip-rule="evenodd" d="M12 4.5C9.00541 4.5 6.5 7.18076 6.5 10.5882C6.5 12.6437 7.43084 14.5108 8.57793 16.0269C9.72244 17.5396 11.0502 18.6601 11.7674 19.2114C11.9078 19.3193 12.0922 19.3193 12.2326 19.2114C12.9498 18.6601 14.2776 17.5396 15.4221 16.0269C16.5692 14.5108 17.5 12.6437 17.5 10.5882C17.5 7.18076 14.9946 4.5 12 4.5ZM5.5 10.5882C5.5 6.71855 8.36717 3.5 12 3.5C15.6328 3.5 18.5 6.71855 18.5 10.5882C18.5 12.9461 17.4357 15.0229 16.2195 16.6303C15.0008 18.241 13.5973 19.4237 12.8421 20.0042C12.3423 20.3884 11.6577 20.3884 11.1579 20.0042C10.4027 19.4237 8.99918 18.241 7.78046 16.6303C6.56431 15.0229 5.5 12.9461 5.5 10.5882ZM12 7.5C10.6193 7.5 9.5 8.61929 9.5 10C9.5 11.3807 10.6193 12.5 12 12.5C13.3807 12.5 14.5 11.3807 14.5 10C14.5 8.61929 13.3807 7.5 12 7.5ZM8.5 10C8.5 8.067 10.067 6.5 12 6.5C13.933 6.5 15.5 8.067 15.5 10C15.5 11.933 13.933 13.5 12 13.5C10.067 13.5 8.5 11.933 8.5 10Z" fill="current"/>

</symbol>
<symbol id="pin_fill" viewBox="0 0 24 24">
<path fill-rule="evenodd" clip-rule="evenodd" d="M12.5373 19.6078C14.0097 18.476 18 15.0016 18 10.5882C18 6.94965 15.3137 4 12 4C8.68629 4 6 6.94965 6 10.5882C6 15.0016 9.99029 18.476 11.4627 19.6078C11.7827 19.8538 12.2173 19.8538 12.5373 19.6078ZM12 13C13.6569 13 15 11.6569 15 10C15 8.34315 13.6569 7 12 7C10.3431 7 9 8.34315 9 10C9 11.6569 10.3431 13 12 13Z" fill="current"/>

</symbol>
<symbol id="plus" viewBox="0 0 24 24">
<path fill-rule="evenodd" clip-rule="evenodd" d="M12 3.5C12.2761 3.5 12.5 3.72386 12.5 4V11.5H20C20.2761 11.5 20.5 11.7239 20.5 12C20.5 12.2761 20.2761 12.5 20 12.5H12.5V20C12.5 20.2761 12.2761 20.5 12 20.5C11.7239 20.5 11.5 20.2761 11.5 20V12.5H4C3.72386 12.5 3.5 12.2761 3.5 12C3.5 11.7239 3.72386 11.5 4 11.5H11.5V4C11.5 3.72386 11.7239 3.5 12 3.5Z" fill="current"/>

</symbol>
<symbol id="plus_button" viewBox="0 0 24 24">
<path fill-rule="evenodd" clip-rule="evenodd" d="M12 4.5C7.85786 4.5 4.5 7.85786 4.5 12C4.5 16.1421 7.85786 19.5 12 19.5C16.1421 19.5 19.5 16.1421 19.5 12C19.5 7.85786 16.1421 4.5 12 4.5ZM3.5 12C3.5 7.30558 7.30558 3.5 12 3.5C16.6944 3.5 20.5 7.30558 20.5 12C20.5 16.6944 16.6944 20.5 12 20.5C7.30558 20.5 3.5 16.6944 3.5 12ZM12 7.5C12.2761 7.5 12.5 7.72386 12.5 8V11.5H16C16.2761 11.5 16.5 11.7239 16.5 12C16.5 12.2761 16.2761 12.5 16 12.5H12.5V16C12.5 16.2761 12.2761 16.5 12 16.5C11.7239 16.5 11.5 16.2761 11.5 16V12.5H8C7.72386 12.5 7.5 12.2761 7.5 12C7.5 11.7239 7.72386 11.5 8 11.5H11.5V8C11.5 7.72386 11.7239 7.5 12 7.5Z" fill="current"/>

</symbol>
<symbol id="plus_button_fill" viewBox="0 0 24 24">
<path fill-rule="evenodd" clip-rule="evenodd" d="M12 20C16.4183 20 20 16.4183 20 12C20 7.58172 16.4183 4 12 4C7.58172 4 4 7.58172 4 12C4 16.4183 7.58172 20 12 20ZM12.5 8C12.5 7.72386 12.2761 7.5 12 7.5C11.7239 7.5 11.5 7.72386 11.5 8V11.5H8C7.72386 11.5 7.5 11.7239 7.5 12C7.5 12.2761 7.72386 12.5 8 12.5H11.5V16C11.5 16.2761 11.7239 16.5 12 16.5C12.2761 16.5 12.5 16.2761 12.5 16V12.5H16C16.2761 12.5 16.5 12.2761 16.5 12C16.5 11.7239 16.2761 11.5 16 11.5H12.5V8Z" fill="current"/>

</symbol>
<symbol id="question_mark" viewBox="0 0 24 24">
<path d="M11.3849 12.4199C11.2049 12.6799 10.9049 13.5 11.0099 14.2049H12.379C12.2399 13.2562 12.7599 12.7699 13.1099 12.5399L13.5749 12.2099C14.0349 11.8899 14.3949 11.5999 14.6549 11.3399C14.9149 11.0699 15.0999 10.7949 15.2099 10.5149C15.3199 10.2349 15.3749 9.9249 15.3749 9.5849C15.3749 9.0649 15.2249 8.6049 14.9249 8.2049C14.6349 7.8049 14.2399 7.4899 13.7399 7.2599C13.2399 7.0199 12.6699 6.8999 12.0299 6.8999C11.5199 6.8999 11.0399 6.9799 10.5899 7.1399C10.1399 7.2899 9.7249 7.5149 9.3449 7.8149C8.9749 8.1149 8.6599 8.4749 8.3999 8.8949L9.5999 9.5099C9.8799 9.0899 10.2249 8.7649 10.6349 8.5349C11.0449 8.3049 11.4849 8.1899 11.9549 8.1899C12.3249 8.1899 12.6549 8.2549 12.9449 8.3849C13.2349 8.5149 13.4649 8.6849 13.6349 8.8949C13.8149 9.1049 13.9049 9.3499 13.9049 9.6299C13.9049 9.9199 13.8249 10.1849 13.6649 10.4249C13.5049 10.6549 13.2299 10.9099 12.8399 11.1899L12.1349 11.6849C11.8249 11.9149 11.5749 12.1599 11.3849 12.4199Z" fill="current"/>
<path d="M10.9049 17.3999C11.0949 17.5799 11.3199 17.6699 11.5799 17.6699C11.8399 17.6699 12.0599 17.5799 12.2399 17.3999C12.4299 17.2099 12.5249 16.9849 12.5249 16.7249C12.5249 16.4649 12.4299 16.2449 12.2399 16.0649C12.0599 15.8749 11.8399 15.7799 11.5799 15.7799C11.3199 15.7799 11.0949 15.8749 10.9049 16.0649C10.7249 16.2449 10.6349 16.4649 10.6349 16.7249C10.6349 16.9849 10.7249 17.2099 10.9049 17.3999Z" fill="current"/>
<path fill-rule="evenodd" clip-rule="evenodd" d="M12 2.5C6.75329 2.5 2.5 6.75329 2.5 12C2.5 17.2467 6.75329 21.5 12 21.5C17.2467 21.5 21.5 17.2467 21.5 12C21.5 6.75329 17.2467 2.5 12 2.5ZM3.5 12C3.5 7.30558 7.30558 3.5 12 3.5C16.6944 3.5 20.5 7.30558 20.5 12C20.5 16.6944 16.6944 20.5 12 20.5C7.30558 20.5 3.5 16.6944 3.5 12Z" fill="current"/>

</symbol>
<symbol id="question_mark_fill" viewBox="0 0 24 24">
<path fill-rule="evenodd" clip-rule="evenodd" d="M12 21C16.9706 21 21 16.9706 21 12C21 7.02944 16.9706 3 12 3C7.02944 3 3 7.02944 3 12C3 16.9706 7.02944 21 12 21ZM11.3849 12.4199C11.2049 12.6799 10.9049 13.5 11.0099 14.2049H12.379C12.2399 13.2562 12.7599 12.7699 13.1099 12.5399L13.5749 12.2099C14.0349 11.8899 14.3949 11.5999 14.6549 11.3399C14.9149 11.0699 15.0999 10.7949 15.2099 10.5149C15.3199 10.2349 15.3749 9.9249 15.3749 9.5849C15.3749 9.0649 15.2249 8.6049 14.9249 8.2049C14.6349 7.8049 14.2399 7.4899 13.7399 7.2599C13.2399 7.0199 12.6699 6.8999 12.0299 6.8999C11.5199 6.8999 11.0399 6.9799 10.5899 7.1399C10.1399 7.2899 9.7249 7.5149 9.3449 7.8149C8.9749 8.1149 8.6599 8.4749 8.3999 8.8949L9.5999 9.5099C9.8799 9.0899 10.2249 8.7649 10.6349 8.5349C11.0449 8.3049 11.4849 8.1899 11.9549 8.1899C12.3249 8.1899 12.6549 8.2549 12.9449 8.3849C13.2349 8.5149 13.4649 8.6849 13.6349 8.8949C13.8149 9.1049 13.9049 9.3499 13.9049 9.6299C13.9049 9.9199 13.8249 10.1849 13.6649 10.4249C13.5049 10.6549 13.2299 10.9099 12.8399 11.1899L12.1349 11.6849C11.8249 11.9149 11.5749 12.1599 11.3849 12.4199ZM10.9049 17.3999C11.0949 17.5799 11.3199 17.6699 11.5799 17.6699C11.8399 17.6699 12.0599 17.5799 12.2399 17.3999C12.4299 17.2099 12.5249 16.9849 12.5249 16.7249C12.5249 16.4649 12.4299 16.2449 12.2399 16.0649C12.0599 15.8749 11.8399 15.7799 11.5799 15.7799C11.3199 15.7799 11.0949 15.8749 10.9049 16.0649C10.7249 16.2449 10.6349 16.4649 10.6349 16.7249C10.6349 16.9849 10.7249 17.2099 10.9049 17.3999Z" fill="current"/>

</symbol>
<symbol id="search" viewBox="0 0 24 24">
<path fill-rule="evenodd" clip-rule="evenodd" d="M10.125 4.5C7.02138 4.5 4.5 7.03283 4.5 10.1639C4.5 13.295 7.02138 15.8278 10.125 15.8278C11.698 15.8278 13.12 15.1783 14.1418 14.1289C15.1368 13.1071 15.75 11.7084 15.75 10.1639C15.75 7.03283 13.2286 4.5 10.125 4.5ZM3.5 10.1639C3.5 6.48653 6.46313 3.5 10.125 3.5C13.7869 3.5 16.75 6.48653 16.75 10.1639C16.75 11.8007 16.1628 13.3008 15.1889 14.4609L20.3543 19.6472C20.5491 19.8428 20.5485 20.1594 20.3528 20.3543C20.1572 20.5491 19.8406 20.5485 19.6457 20.3528L14.4904 15.1767C13.3252 16.204 11.7974 16.8278 10.125 16.8278C6.46313 16.8278 3.5 13.8413 3.5 10.1639Z" fill="current"/>

</symbol>
<symbol id="search_fill" viewBox="0 0 24 24">
<path d="M16.25 10.1639C16.25 11.8434 15.5825 13.366 14.5 14.4778C13.3883 15.6195 11.8389 16.3278 10.125 16.3278C6.74226 16.3278 4 13.5682 4 10.1639C4 6.75968 6.74226 4 10.125 4C13.5077 4 16.25 6.75968 16.25 10.1639Z" fill="current"/>
<path fill-rule="evenodd" clip-rule="evenodd" d="M10.125 4.5C7.02138 4.5 4.5 7.03283 4.5 10.1639C4.5 13.295 7.02138 15.8278 10.125 15.8278C11.698 15.8278 13.12 15.1783 14.1418 14.1289C15.1368 13.1071 15.75 11.7084 15.75 10.1639C15.75 7.03283 13.2286 4.5 10.125 4.5ZM3.5 10.1639C3.5 6.48653 6.46313 3.5 10.125 3.5C13.7869 3.5 16.75 6.48653 16.75 10.1639C16.75 11.8007 16.1628 13.3008 15.1889 14.4609L20.3543 19.6472C20.5491 19.8428 20.5485 20.1594 20.3528 20.3543C20.1572 20.5491 19.8406 20.5485 19.6457 20.3528L14.4904 15.1767C13.3252 16.204 11.7974 16.8278 10.125 16.8278C6.46313 16.8278 3.5 13.8413 3.5 10.1639Z" fill="current"/>

</symbol>
<symbol id="send" viewBox="0 0 24 24">
<path fill-rule="evenodd" clip-rule="evenodd" d="M3.5 5.61815C3.5 4.50307 4.67347 3.77783 5.67082 4.27651L18.4348 10.6585C19.5403 11.2113 19.5403 12.789 18.4348 13.3418L5.67082 19.7237C4.67347 20.2224 3.5 19.4972 3.5 18.3821V5.61815ZM5.22361 5.17093C4.89116 5.00471 4.5 5.24646 4.5 5.61815V11.5001H12C12.2761 11.5001 12.5 11.724 12.5 12.0001C12.5 12.2763 12.2761 12.5001 12 12.5001H4.5V18.3821C4.5 18.7538 4.89116 18.9955 5.22361 18.8293L17.9875 12.4473C18.3561 12.2631 18.3561 11.7372 17.9875 11.5529L5.22361 5.17093Z" fill="current"/>

</symbol>
<symbol id="send_fill" viewBox="0 0 24 24">
<path d="M5.44721 19.2763L18.2111 12.8944C18.9482 12.5259 18.9482 11.4741 18.2111 11.1055L5.44721 4.72356C4.78231 4.39111 4 4.87461 4 5.61799V11.5H12C12.2761 11.5 12.5 11.7238 12.5 12C12.5 12.2761 12.2761 12.5 12 12.5H4V18.3819C4 19.1253 4.78231 19.6088 5.44721 19.2763Z" fill="current"/>

</symbol>
<symbol id="settings" viewBox="0 0 24 24">
<path fill-rule="evenodd" clip-rule="evenodd" d="M11 3.5C10.7239 3.5 10.5 3.72386 10.5 4V5.66275L10.1426 5.76911C9.71065 5.89767 9.29742 6.06998 8.90806 6.28096L8.58007 6.45869L7.40383 5.28245C7.20857 5.08718 6.89198 5.08718 6.69672 5.28245L5.28251 6.69666C5.08725 6.89192 5.08725 7.2085 5.28251 7.40377L6.45874 8.57999L6.28101 8.90798C6.07 9.29737 5.89768 9.71062 5.76911 10.1426L5.66275 10.5H4C3.72386 10.5 3.5 10.7239 3.5 11V13C3.5 13.2761 3.72386 13.5 4 13.5H5.66274L5.7691 13.8574C5.89768 14.2894 6.07 14.7026 6.281 15.092L6.45874 15.42L5.28245 16.5963C5.08718 16.7916 5.08718 17.1081 5.28245 17.3034L6.69666 18.7176C6.89192 18.9129 7.2085 18.9129 7.40377 18.7176L8.58007 17.5413L8.90805 17.719C9.29742 17.93 9.71064 18.1023 10.1426 18.2309L10.5 18.3373V20C10.5 20.2761 10.7239 20.5 11 20.5H13C13.2761 20.5 13.5 20.2761 13.5 20V18.3373L13.8574 18.2309C14.2894 18.1023 14.7026 17.93 15.092 17.719L15.42 17.5413L16.5962 18.7175C16.7915 18.9127 17.1081 18.9127 17.3033 18.7175L18.7175 17.3033C18.9128 17.108 18.9128 16.7914 18.7175 16.5962L17.5413 15.4199L17.719 15.0919C17.93 14.7026 18.1023 14.2894 18.2309 13.8574L18.3373 13.5H20C20.2761 13.5 20.5 13.2761 20.5 13V11C20.5 10.7239 20.2761 10.5 20 10.5H18.3373L18.2309 10.1426C18.1023 9.71064 17.93 9.29742 17.719 8.90805L17.5413 8.58007L18.7175 7.4039C18.9127 7.20864 18.9127 6.89206 18.7175 6.6968L17.3033 5.28258C17.108 5.08732 16.7914 5.08732 16.5962 5.28258L15.42 6.45874L15.092 6.281C14.7026 6.07 14.2894 5.89768 13.8574 5.76911L13.5 5.66275V4C13.5 3.72386 13.2761 3.5 13 3.5H11ZM9.5 4C9.5 3.17157 10.1716 2.5 11 2.5H13C13.8284 2.5 14.5 3.17157 14.5 4V4.92691C14.7509 5.0156 14.9957 5.11724 15.2335 5.23103L15.889 4.57548C16.4748 3.98969 17.4246 3.98969 18.0104 4.57548L19.4246 5.98969C20.0104 6.57548 20.0104 7.52522 19.4246 8.11101L18.769 8.76659C18.8828 9.00437 18.9844 9.24911 19.0731 9.5H20C20.8284 9.5 21.5 10.1716 21.5 11V13C21.5 13.8284 20.8284 14.5 20 14.5H19.0731C18.9844 14.7509 18.8828 14.9956 18.769 15.2334L19.4246 15.889C20.0104 16.4748 20.0104 17.4246 19.4246 18.0104L18.0104 19.4246C17.4246 20.0104 16.4749 20.0104 15.8891 19.4246L15.2335 18.769C14.9957 18.8828 14.7509 18.9844 14.5 19.0731V20C14.5 20.8284 13.8284 21.5 13 21.5H11C10.1716 21.5 9.5 20.8284 9.5 20V19.0731C9.24911 18.9844 9.00437 18.8828 8.76659 18.769L8.11087 19.4247C7.52509 20.0105 6.57534 20.0105 5.98955 19.4247L4.57534 18.0105C3.98955 17.4247 3.98955 16.475 4.57534 15.8892L5.23103 15.2335C5.11724 14.9957 5.0156 14.7509 4.92691 14.5H4C3.17157 14.5 2.5 13.8284 2.5 13V11C2.5 10.1716 3.17157 9.5 4 9.5H4.92691C5.0156 9.24908 5.11724 9.00432 5.23104 8.7665L4.5754 8.11087C3.98962 7.52509 3.98962 6.57534 4.5754 5.98955L5.98962 4.57534C6.5754 3.98955 7.52515 3.98955 8.11094 4.57534L8.76659 5.23099C9.00438 5.11722 9.24911 5.01559 9.5 4.92691V4ZM12 9.5C10.6193 9.5 9.5 10.6193 9.5 12C9.5 13.3807 10.6193 14.5 12 14.5C13.3807 14.5 14.5 13.3807 14.5 12C14.5 10.6193 13.3807 9.5 12 9.5ZM8.5 12C8.5 10.067 10.067 8.5 12 8.5C13.933 8.5 15.5 10.067 15.5 12C15.5 13.933 13.933 15.5 12 15.5C10.067 15.5 8.5 13.933 8.5 12Z" fill="current"/>

</symbol>
<symbol id="settings_fill" viewBox="0 0 24 24">
<path fill-rule="evenodd" clip-rule="evenodd" d="M11 3C10.4477 3 10 3.44772 10 4V5.28988C9.53448 5.42843 9.08925 5.61409 8.66985 5.84136L7.75738 4.92889C7.36686 4.53837 6.73369 4.53837 6.34317 4.92889L4.92896 6.34311C4.53843 6.73363 4.53843 7.3668 4.92896 7.75732L5.8414 8.66976C5.61412 9.08919 5.42843 9.53445 5.28988 10H4C3.44772 10 3 10.4477 3 11V13C3 13.5523 3.44772 14 4 14H5.28988C5.42843 14.4656 5.61412 14.9108 5.8414 15.3302L4.92889 16.2427C4.53837 16.6333 4.53837 17.2664 4.92889 17.657L6.34311 19.0712C6.73363 19.4617 7.3668 19.4617 7.75732 19.0712L8.66984 18.1586C9.08925 18.3859 9.53448 18.5716 10 18.7101V20C10 20.5523 10.4477 21 11 21H13C13.5523 21 14 20.5523 14 20V18.7101C14.4656 18.5716 14.9108 18.3859 15.3302 18.1586L16.2427 19.071C16.6332 19.4616 17.2664 19.4616 17.6569 19.071L19.0711 17.6568C19.4616 17.2663 19.4616 16.6331 19.0711 16.2426L18.1586 15.3302C18.3859 14.9108 18.5716 14.4655 18.7101 14H20C20.5523 14 21 13.5523 21 13V11C21 10.4477 20.5523 10 20 10H18.7101C18.5716 9.53448 18.3859 9.08925 18.1586 8.66984L19.071 7.75746C19.4616 7.36693 19.4616 6.73377 19.071 6.34324L17.6568 4.92903C17.2663 4.53851 16.6331 4.53851 16.2426 4.92903L15.3302 5.8414C14.9108 5.61412 14.4656 5.42843 14 5.28988V4C14 3.44772 13.5523 3 13 3H11ZM12 15C13.6569 15 15 13.6569 15 12C15 10.3431 13.6569 9 12 9C10.3431 9 9 10.3431 9 12C9 13.6569 10.3431 15 12 15Z" fill="current"/>

</symbol>
<symbol id="settings_hamburger" viewBox="0 0 24 24">
<path fill-rule="evenodd" clip-rule="evenodd" d="M8 4.5C8.27614 4.5 8.5 4.72386 8.5 5V6H20C20.2761 6 20.5 6.22386 20.5 6.5C20.5 6.77614 20.2761 7 20 7H8.5V8C8.5 8.27614 8.27614 8.5 8 8.5C7.72386 8.5 7.5 8.27614 7.5 8V5C7.5 4.72386 7.72386 4.5 8 4.5ZM3.5 6.5C3.5 6.22386 3.72386 6 4 6H6C6.27614 6 6.5 6.22386 6.5 6.5C6.5 6.77614 6.27614 7 6 7H4C3.72386 7 3.5 6.77614 3.5 6.5ZM16 10C16.2761 10 16.5 10.2239 16.5 10.5V13.5C16.5 13.7761 16.2761 14 16 14C15.7239 14 15.5 13.7761 15.5 13.5V12.5H4C3.72386 12.5 3.5 12.2761 3.5 12C3.5 11.7238 3.72386 11.5 4 11.5H15.5V10.5C15.5 10.2239 15.7239 10 16 10ZM17.5 12C17.5 11.7238 17.7239 11.5 18 11.5H20C20.2761 11.5 20.5 11.7238 20.5 12C20.5 12.2761 20.2761 12.5 20 12.5H18C17.7239 12.5 17.5 12.2761 17.5 12ZM12 15.5C12.2761 15.5 12.5 15.7239 12.5 16V19C12.5 19.2761 12.2761 19.5 12 19.5C11.7239 19.5 11.5 19.2761 11.5 19V18H4C3.72386 18 3.5 17.7761 3.5 17.5C3.5 17.2239 3.72386 17 4 17H11.5V16C11.5 15.7239 11.7239 15.5 12 15.5ZM13.5 17.5C13.5 17.2239 13.7239 17 14 17H20C20.2761 17 20.5 17.2239 20.5 17.5C20.5 17.7761 20.2761 18 20 18H14C13.7239 18 13.5 17.7761 13.5 17.5Z" fill="current"/>

</symbol>
<symbol id="side_arrow_right" viewBox="0 0 24 24">
<path fill-rule="evenodd" clip-rule="evenodd" d="M16.1317 7.64645C16.0268 7.54152 15.8807 7.48862 15.7329 7.50206L7.95475 8.20916C7.67975 8.23416 7.47707 8.47737 7.50208 8.75238C7.52708 9.02739 7.77028 9.23006 8.04529 9.20506L14.4481 8.62298L7.64647 15.4246C7.45121 15.6199 7.45121 15.9365 7.64647 16.1317C7.84173 16.327 8.15831 16.327 8.35357 16.1317L15.1552 9.33009L14.5731 15.7329C14.5481 16.0079 14.7508 16.2511 15.0258 16.2761C15.3008 16.3011 15.544 16.0985 15.569 15.8234L16.2761 8.04527C16.2896 7.89749 16.2367 7.75138 16.1317 7.64645Z" fill="current"/>

</symbol>
<symbol id="side_arrow_right_fill" viewBox="0 0 24 24">
<path fill-rule="evenodd" clip-rule="evenodd" d="M12 21C16.9706 21 21 16.9706 21 12C21 7.02944 16.9706 3 12 3C7.02944 3 3 7.02944 3 12C3 16.9706 7.02944 21 12 21ZM14.9547 8.50205C15.1025 8.48862 15.2486 8.54152 15.3536 8.64645C15.4585 8.75137 15.5114 8.89749 15.4979 9.04527L14.9834 14.7053C14.9584 14.9803 14.7152 15.1829 14.4402 15.1579C14.1652 15.1329 13.9625 14.8897 13.9875 14.6147L14.377 10.3301L9.69355 15.0136C9.49829 15.2088 9.18171 15.2088 8.98645 15.0136C8.79118 14.8183 8.79118 14.5017 8.98645 14.3064L13.6699 9.62298L9.38527 10.0125C9.11026 10.0375 8.86705 9.83482 8.84205 9.55981C8.81705 9.2848 9.01972 9.0416 9.29473 9.0166L14.9547 8.50205Z" fill="current"/>

</symbol>
<symbol id="side_arrow_down_left" viewBox="0 0 24 24">
<path fill-rule="evenodd" clip-rule="evenodd" d="M7.64645 16.1316C7.75138 16.2366 7.89749 16.2895 8.04527 16.276L15.8234 15.5689C16.0985 15.5439 16.3011 15.3007 16.2761 15.0257C16.2511 14.7507 16.0079 14.548 15.7329 14.573L9.33009 15.1551L16.1317 8.35345C16.327 8.15819 16.327 7.84161 16.1317 7.64635C15.9365 7.45108 15.6199 7.45108 15.4246 7.64635L8.62298 14.448L9.20506 8.04517C9.23006 7.77016 9.02739 7.52695 8.75238 7.50195C8.47737 7.47695 8.23416 7.67962 8.20916 7.95463L7.50206 15.7328C7.48862 15.8806 7.54152 16.0267 7.64645 16.1316Z" fill="current"/>

</symbol>
<symbol id="side_arrow_down_left_fill" viewBox="0 0 24 24">
<path fill-rule="evenodd" clip-rule="evenodd" d="M12 21C16.9706 21 21 16.9706 21 12C21 7.02944 16.9706 3 12 3C7.02944 3 3 7.02944 3 12C3 16.9706 7.02944 21 12 21ZM9.04527 15.4979C8.89749 15.5114 8.75137 15.4585 8.64645 15.3536C8.54152 15.2486 8.48862 15.1025 8.50205 14.9547L9.0166 9.29473C9.0416 9.01972 9.2848 8.81705 9.55981 8.84205C9.83482 8.86705 10.0375 9.11026 10.0125 9.38527L9.62298 13.6699L14.3064 8.98645C14.5017 8.79118 14.8183 8.79118 15.0136 8.98645C15.2088 9.18171 15.2088 9.49829 15.0136 9.69355L10.3301 14.377L14.6147 13.9875C14.8897 13.9625 15.1329 14.1652 15.1579 14.4402C15.1829 14.7152 14.9803 14.9584 14.7053 14.9834L9.04527 15.4979Z" fill="current"/>

</symbol>
<symbol id="side_arrow_down_right" viewBox="0 0 24 24">
<path fill-rule="evenodd" clip-rule="evenodd" d="M16.1317 16.1316C16.0268 16.2366 15.8807 16.2895 15.7329 16.276L7.95475 15.5689C7.67975 15.5439 7.47707 15.3007 7.50208 15.0257C7.52708 14.7507 7.77028 14.548 8.04529 14.573L14.4481 15.1551L7.64647 8.35345C7.45121 8.15819 7.45121 7.84161 7.64647 7.64635C7.84173 7.45108 8.15831 7.45108 8.35357 7.64635L15.1552 14.448L14.5731 8.04517C14.5481 7.77016 14.7508 7.52695 15.0258 7.50195C15.3008 7.47695 15.544 7.67962 15.569 7.95463L16.2761 15.7328C16.2896 15.8806 16.2367 16.0267 16.1317 16.1316Z" fill="current"/>

</symbol>
<symbol id="side_arrow_down_right_fill" viewBox="0 0 24 24">
<path fill-rule="evenodd" clip-rule="evenodd" d="M12 21C16.9706 21 21 16.9706 21 12C21 7.02944 16.9706 3 12 3C7.02944 3 3 7.02944 3 12C3 16.9706 7.02944 21 12 21ZM14.9547 15.4979C15.1025 15.5114 15.2486 15.4585 15.3536 15.3536C15.4585 15.2486 15.5114 15.1025 15.4979 14.9547L14.9834 9.29473C14.9584 9.01972 14.7152 8.81705 14.4402 8.84205C14.1652 8.86705 13.9625 9.11026 13.9875 9.38527L14.377 13.6699L9.69355 8.98645C9.49829 8.79118 9.18171 8.79118 8.98645 8.98645C8.79118 9.18171 8.79118 9.49829 8.98645 9.69355L13.6699 14.377L9.38527 13.9875C9.11026 13.9625 8.86705 14.1652 8.84205 14.4402C8.81705 14.7152 9.01972 14.9584 9.29473 14.9834L14.9547 15.4979Z" fill="current"/>

</symbol>
<symbol id="side_arrow_left" viewBox="0 0 24 24">
<path fill-rule="evenodd" clip-rule="evenodd" d="M7.64645 7.64645C7.75138 7.54152 7.89749 7.48862 8.04527 7.50206L15.8234 8.20916C16.0985 8.23416 16.3011 8.47737 16.2761 8.75238C16.2511 9.02739 16.0079 9.23006 15.7329 9.20506L9.33009 8.62298L16.1317 15.4246C16.327 15.6199 16.327 15.9365 16.1317 16.1317C15.9365 16.327 15.6199 16.327 15.4246 16.1317L8.62298 9.33009L9.20506 15.7329C9.23006 16.0079 9.02739 16.2511 8.75238 16.2761C8.47737 16.3011 8.23416 16.0985 8.20916 15.8234L7.50206 8.04527C7.48862 7.89749 7.54152 7.75138 7.64645 7.64645Z" fill="current"/>

</symbol>
<symbol id="side_arrow_left_fill" viewBox="0 0 24 24">
<path fill-rule="evenodd" clip-rule="evenodd" d="M12 21C16.9706 21 21 16.9706 21 12C21 7.02944 16.9706 3 12 3C7.02944 3 3 7.02944 3 12C3 16.9706 7.02944 21 12 21ZM9.04527 8.50205C8.89749 8.48862 8.75137 8.54152 8.64645 8.64645C8.54152 8.75137 8.48862 8.89749 8.50205 9.04527L9.0166 14.7053C9.0416 14.9803 9.2848 15.1829 9.55981 15.1579C9.83482 15.1329 10.0375 14.8897 10.0125 14.6147L9.62298 10.3301L14.3064 15.0136C14.5017 15.2088 14.8183 15.2088 15.0136 15.0136C15.2088 14.8183 15.2088 14.5017 15.0136 14.3064L10.3301 9.62298L14.6147 10.0125C14.8897 10.0375 15.1329 9.83482 15.1579 9.55981C15.1829 9.2848 14.9803 9.0416 14.7053 9.0166L9.04527 8.50205Z" fill="current"/>

</symbol>
<symbol id="star" viewBox="0 0 24 24">
<path fill-rule="evenodd" clip-rule="evenodd" d="M10.6684 5.48123C11.2282 4.40209 12.7718 4.40209 13.3315 5.48123L14.8425 8.39432C14.9126 8.52944 15.0404 8.62528 15.1897 8.65469L18.3687 9.28063C19.511 9.50556 19.9727 10.8895 19.1943 11.7553L16.9165 14.2886C16.8197 14.3962 16.7743 14.5405 16.792 14.6841L17.2122 18.0893C17.3588 19.2768 16.1242 20.1495 15.0537 19.6152L12.2233 18.2025C12.0827 18.1323 11.9173 18.1323 11.7767 18.2025L8.94628 19.6152C7.87572 20.1495 6.64115 19.2768 6.78769 18.0893L7.20792 14.6841C7.22565 14.5405 7.18026 14.3962 7.08349 14.2886L4.80566 11.7553C4.0272 10.8895 4.48894 9.50556 5.63128 9.28063L8.81022 8.65469C8.95957 8.62528 9.08739 8.52944 9.15748 8.39432L10.6684 5.48123ZM12.4438 5.94166C12.2572 5.58195 11.7427 5.58195 11.5561 5.94166L10.0452 8.85475C9.83492 9.26011 9.45146 9.54763 9.00342 9.63585L5.82447 10.2618C5.44369 10.3368 5.28978 10.7981 5.54927 11.0867L7.8271 13.62C8.11741 13.9428 8.25358 14.3757 8.2004 14.8066L7.78016 18.2118C7.73132 18.6077 8.14284 18.8985 8.49969 18.7204L11.3301 17.3077C11.7519 17.0972 12.2481 17.0972 12.6698 17.3077L15.5002 18.7204C15.8571 18.8985 16.2686 18.6077 16.2198 18.2118L15.7995 14.8066C15.7464 14.3757 15.8825 13.9428 16.1728 13.62L18.4507 11.0867C18.7102 10.7981 18.5562 10.3368 18.1755 10.2618L14.9965 9.63585C14.5485 9.54763 14.165 9.26011 13.9548 8.85475L12.4438 5.94166Z" fill="current"/>

</symbol>
<symbol id="star_fill" viewBox="0 0 24 24">
<path d="M11.1123 5.71145C11.4855 4.99202 12.5146 4.99202 12.8877 5.71145L14.3987 8.62454C14.5388 8.89478 14.7945 9.08645 15.0932 9.14527L18.2721 9.77121C19.0337 9.92116 19.3415 10.8438 18.8225 11.421L16.5447 13.9543C16.3511 14.1695 16.2604 14.4581 16.2958 14.7454L16.7161 18.1506C16.8138 18.9422 15.9907 19.524 15.277 19.1678L12.4466 17.7551C12.1654 17.6147 11.8346 17.6147 11.5534 17.7551L8.72303 19.1678C8.00932 19.524 7.18628 18.9422 7.28397 18.1506L7.7042 14.7454C7.73966 14.4581 7.64888 14.1695 7.45534 13.9543L5.17751 11.421C4.65854 10.8438 4.96636 9.92116 5.72792 9.77121L8.90686 9.14527C9.20556 9.08645 9.4612 8.89478 9.60137 8.62453L11.1123 5.71145Z" fill="current"/>

</symbol>
<symbol id="study" viewBox="0 0 24 24">
<path fill-rule="evenodd" clip-rule="evenodd" d="M11.8244 4.53184C11.9376 4.48939 12.0624 4.48939 12.1756 4.53184L20.1756 7.53184C20.3707 7.60502 20.5 7.79158 20.5 8C20.5 8.20842 20.3707 8.39498 20.1756 8.46816L12.1756 11.4682C12.0624 11.5106 11.9376 11.5106 11.8244 11.4682L3.82444 8.46816C3.62929 8.39498 3.5 8.20842 3.5 8C3.5 7.79158 3.62929 7.60502 3.82444 7.53184L11.8244 4.53184ZM5.424 8L12 10.466L18.576 8L12 5.534L5.424 8Z" fill="current"/>
<path fill-rule="evenodd" clip-rule="evenodd" d="M7 8.70301C7.27614 8.70301 7.5 8.92687 7.5 9.20301V18.5222C10.2707 20.1773 13.7293 20.1773 16.5 18.5222V9.20307C16.5 8.92693 16.7239 8.70307 17 8.70307C17.2761 8.70307 17.5 8.92693 17.5 9.20307V18.7924C17.5026 18.96 17.421 19.125 17.2695 19.2219C14.0571 21.2773 9.94286 21.2773 6.73052 19.2219C6.62488 19.1543 6.55321 19.0537 6.52039 18.9421C6.50613 18.8937 6.4992 18.8432 6.5 18.7924V9.20301C6.5 8.92687 6.72386 8.70301 7 8.70301Z" fill="current"/>

</symbol>
<symbol id="study_fill" viewBox="0 0 24 24">
<path d="M4.60413 7.77345L12.0062 11.6385L19.6368 7.86379L12 5L4.60413 7.77345Z" fill="current"/>
<path d="M17 10.2838L12.2218 12.6475C12.0787 12.7183 11.9103 12.7165 11.7687 12.6425L7 10.1526V18.8008C10.0481 20.7511 13.9519 20.7511 17 18.8008V10.2838Z" fill="current"/>

</symbol>
<symbol id="user" viewBox="0 0 24 24">
<path fill-rule="evenodd" clip-rule="evenodd" d="M3.5 12C3.5 7.30558 7.30558 3.5 12 3.5C16.6944 3.5 20.5 7.30558 20.5 12C20.5 16.6944 16.6944 20.5 12 20.5C7.30558 20.5 3.5 16.6944 3.5 12ZM12 4.5C7.85786 4.5 4.5 7.85786 4.5 12C4.5 13.5006 4.94073 14.8984 5.69981 16.0707C6.46708 15.2546 7.38915 14.5971 8.41379 14.1374C9.31005 13.7354 10.2672 13.4926 11.2424 13.4178C9.67361 13.0716 8.5 11.6729 8.5 10C8.5 8.067 10.067 6.5 12 6.5C13.933 6.5 15.5 8.067 15.5 10C15.5 11.6948 14.2954 13.1083 12.6956 13.4309C13.7526 13.5312 14.7834 13.8288 15.7337 14.3102C16.6708 14.7849 17.5101 15.4282 18.2104 16.2062C19.0244 15.0067 19.5 13.5589 19.5 12C19.5 7.85786 16.1421 4.5 12 4.5ZM12 19.5C9.72397 19.5 7.68473 18.4862 6.30926 16.8854C7.00911 16.1051 7.86531 15.4795 8.82308 15.0498C9.84297 14.5923 10.9522 14.3686 12.0697 14.395C13.1872 14.4213 14.2847 14.6972 15.2818 15.2023C16.1612 15.6477 16.943 16.2616 17.5835 17.0076C16.2104 18.5376 14.2176 19.5 12 19.5ZM9.5 10C9.5 8.61929 10.6193 7.5 12 7.5C13.3807 7.5 14.5 8.61929 14.5 10C14.5 11.3807 13.3807 12.5 12 12.5C10.6193 12.5 9.5 11.3807 9.5 10Z" fill="current"/>

</symbol>
<symbol id="user_fill" viewBox="0 0 24 24">
<path fill-rule="evenodd" clip-rule="evenodd" d="M12 3.5C7.30558 3.5 3.5 7.30558 3.5 12C3.5 16.6944 7.30558 20.5 12 20.5C12.1824 20.5 12.3635 20.4942 12.5432 20.4829C16.9847 20.2025 20.5 16.512 20.5 12C20.5 7.30558 16.6944 3.5 12 3.5ZM9.5 10C9.5 8.61929 10.6193 7.5 12 7.5C13.3807 7.5 14.5 8.61929 14.5 10C14.5 11.3807 13.3807 12.5 12 12.5C10.6193 12.5 9.5 11.3807 9.5 10ZM8.82313 15.0498C9.84302 14.5923 10.9523 14.3685 12.0698 14.3949C13.1873 14.4213 14.2847 14.6971 15.2819 15.2022C15.8616 15.4959 16.3989 15.8627 16.8813 16.2924C15.6895 17.6466 13.9445 18.5 12 18.5C10.005 18.5 8.21981 17.6016 7.02681 16.1856C7.56709 15.725 8.17161 15.3421 8.82313 15.0498Z" fill="current"/>

</symbol>
<symbol id="user_with_alert" viewBox="0 0 24 24">
<path fill-rule="evenodd" clip-rule="evenodd" d="M12 4.5C7.85786 4.5 4.5 7.85786 4.5 12C4.5 13.5007 4.94074 14.8984 5.69984 16.0708C6.46713 15.2546 7.38924 14.5971 8.41391 14.1374C9.31012 13.7354 10.2672 13.4926 11.2424 13.4178C9.67363 13.0715 8.50007 11.6728 8.50007 10C8.50007 8.067 10.0671 6.5 12.0001 6.5C13.9331 6.5 15.5001 8.067 15.5001 10C15.5001 11.6948 14.2955 13.1082 12.6959 13.4308C13.7528 13.5311 14.7835 13.8288 15.7338 14.3101C16.6709 14.7848 17.5102 15.4282 18.2104 16.2061C19.0244 15.0066 19.5 13.5588 19.5 12C19.5 10.8075 19.2217 9.68004 18.7265 8.67897C19.0296 8.50799 19.2935 8.27559 19.5012 7.99866C20.1386 9.19113 20.5 10.5534 20.5 12C20.5 16.6944 16.6944 20.5 12 20.5C7.30558 20.5 3.5 16.6944 3.5 12C3.5 7.30558 7.30558 3.5 12 3.5C13.4466 3.5 14.8089 3.86139 16.0013 4.49882C15.7244 4.70654 15.492 4.97039 15.321 5.2735C14.32 4.7783 13.1925 4.5 12 4.5ZM17.5835 17.0075C16.9431 16.2615 16.1614 15.6477 15.282 15.2022C14.2848 14.6971 13.1873 14.4213 12.0698 14.3949C10.9523 14.3685 9.84309 14.5923 8.8232 15.0498C7.8654 15.4795 7.00916 16.1051 6.30931 16.8855C7.68477 18.4862 9.72399 19.5 12 19.5C14.2176 19.5 16.2105 18.5375 17.5835 17.0075ZM9.50007 10C9.50007 8.61929 10.6194 7.5 12.0001 7.5C13.3808 7.5 14.5001 8.61929 14.5001 10C14.5001 11.3807 13.3808 12.5 12.0001 12.5C10.6194 12.5 9.50007 11.3807 9.50007 10Z" fill="current"/>
<circle cx="17.5" cy="6.5" r="1.5" fill="current"/>

</symbol>
<symbol id="user_with_alert_fill" viewBox="0 0 24 24">
<path d="M18 5.5C18 6.32843 17.3284 7 16.5 7C15.6716 7 15 6.32843 15 5.5C15 4.67157 15.6716 4 16.5 4C17.3284 4 18 4.67157 18 5.5Z" fill="current"/>
<path fill-rule="evenodd" clip-rule="evenodd" d="M12 3.5C7.30558 3.5 3.5 7.30558 3.5 12C3.5 16.6944 7.30558 20.5 12 20.5C12.1824 20.5 12.3635 20.4942 12.5432 20.4829C16.9847 20.2025 20.5 16.512 20.5 12C20.5 10.0676 19.8546 8.28455 18.7678 6.85659C18.6772 6.73763 18.5382 6.66542 18.3888 6.65977C18.2394 6.65411 18.0953 6.71561 17.996 6.8274C17.6289 7.24075 17.0951 7.5 16.5 7.5C15.3954 7.5 14.5 6.60457 14.5 5.5C14.5 5.16168 14.5836 4.84436 14.7309 4.56613C14.8009 4.43376 14.8079 4.27695 14.75 4.13884C14.6921 4.00073 14.5753 3.89586 14.4318 3.85308C13.6607 3.62325 12.8443 3.5 12 3.5ZM9.5 10C9.5 8.61929 10.6193 7.5 12 7.5C13.3807 7.5 14.5 8.61929 14.5 10C14.5 11.3807 13.3807 12.5 12 12.5C10.6193 12.5 9.5 11.3807 9.5 10ZM8.82313 15.0498C9.84302 14.5923 10.9523 14.3685 12.0698 14.3949C13.1873 14.4213 14.2847 14.6971 15.2819 15.2022C15.8616 15.4959 16.3989 15.8627 16.8813 16.2924C15.6895 17.6466 13.9445 18.5 12 18.5C10.005 18.5 8.21981 17.6016 7.02681 16.1856C7.56709 15.725 8.17161 15.3421 8.82313 15.0498Z" fill="current"/>

</symbol>
<symbol id="v" viewBox="0 0 24 24">
<path fill-rule="evenodd" clip-rule="evenodd" d="M20.9706 5.94967C21.1658 6.14493 21.1658 6.46151 20.9706 6.65678L10.364 17.2634C9.77817 17.8492 8.82843 17.8492 8.24264 17.2634L3.64645 12.6672C3.45118 12.4719 3.45118 12.1553 3.64645 11.9601C3.84171 11.7648 4.15829 11.7648 4.35355 11.9601L8.94975 16.5563C9.14501 16.7515 9.46159 16.7515 9.65685 16.5563L20.2635 5.94967C20.4587 5.75441 20.7753 5.75441 20.9706 5.94967Z" fill="current"/>

</symbol>
<symbol id="v_fill" viewBox="0 0 24 24">
<path fill-rule="evenodd" clip-rule="evenodd" d="M12 21C16.9706 21 21 16.9706 21 12C21 7.02944 16.9706 3 12 3C7.02944 3 3 7.02944 3 12C3 16.9706 7.02944 21 12 21ZM16.3564 9.35067C16.5501 9.15383 16.5475 8.83726 16.3507 8.64359C16.1538 8.44992 15.8373 8.45249 15.6436 8.64933L9.89891 14.4881C9.89007 14.4971 9.88117 14.5 9.87234 14.5C9.86351 14.5 9.85461 14.4971 9.84578 14.4881L7.35641 11.958C7.16274 11.7611 6.84617 11.7586 6.64933 11.9522C6.45249 12.1459 6.44992 12.4625 6.64359 12.6593L9.13295 15.1894C9.54036 15.6035 10.2043 15.6035 10.6117 15.1894L16.3564 9.35067Z" fill="current"/>

</symbol>
<symbol id="voice_fill" viewBox="0 0 24 24">
<path d="M12 3C10.3431 3 9 4.34315 9 6V11C9 12.6569 10.3431 14 12 14C13.6569 14 15 12.6569 15 11V6C15 4.34315 13.6569 3 12 3Z" fill="current"/>
<path d="M7.5 10C7.5 9.72386 7.27614 9.5 7 9.5C6.72386 9.5 6.5 9.72386 6.5 10V11C6.5 13.869 8.69675 16.225 11.5 16.4776V19.5H8C7.72386 19.5 7.5 19.7239 7.5 20C7.5 20.2761 7.72386 20.5 8 20.5H16C16.2761 20.5 16.5 20.2761 16.5 20C16.5 19.7239 16.2761 19.5 16 19.5H12.5V16.4776C15.3033 16.225 17.5 13.869 17.5 11V10C17.5 9.72386 17.2761 9.5 17 9.5C16.7239 9.5 16.5 9.72386 16.5 10V11C16.5 13.4853 14.4853 15.5 12 15.5C9.51472 15.5 7.5 13.4853 7.5 11V10Z" fill="current"/>

</symbol>
<symbol id="web" viewBox="0 0 24 24">
<path fill-rule="evenodd" clip-rule="evenodd" d="M4.5164 11.5H7C7.82843 11.5 8.5 12.1716 8.5 13V14.2597C8.5 14.3924 8.60759 14.5 8.74031 14.5C8.79488 14.5 8.84782 14.4814 8.89043 14.4473L13.3123 10.9098C13.431 10.8149 13.5 10.6713 13.5 10.5194V8C13.5 7.72386 13.2761 7.5 13 7.5C12.1716 7.5 11.5 6.82843 11.5 6V4.5164C7.75625 4.76282 4.76282 7.75625 4.5164 11.5ZM12.5 4.5164V6C12.5 6.27614 12.7239 6.5 13 6.5C13.8284 6.5 14.5 7.17157 14.5 8V10.5194C14.5 10.9751 14.2929 11.406 13.937 11.6907L9.51513 15.2282C9.29521 15.4041 9.02195 15.5 8.74031 15.5C8.05531 15.5 7.5 14.9447 7.5 14.2597V13C7.5 12.7239 7.27614 12.5 7 12.5H4.5164C4.7737 16.409 8.02588 19.5 12 19.5C14.4532 19.5 16.6318 18.3224 18.0006 16.5H17.4142C17.0164 16.5 16.6349 16.342 16.3536 16.0607L15.6985 15.4056C15.2118 14.9189 15.1188 14.1635 15.473 13.5732L16.28 12.2283C16.551 11.7764 17.0393 11.5 17.5662 11.5H19.4836C19.2372 7.75625 16.2438 4.76282 12.5 4.5164ZM19.4836 12.5H17.5662C17.3906 12.5 17.2278 12.5921 17.1374 12.7428L16.3305 14.0877C16.2124 14.2845 16.2434 14.5363 16.4056 14.6985L17.0607 15.3536C17.1544 15.4473 17.2816 15.5 17.4142 15.5H18.6351C19.1139 14.5943 19.4127 13.5787 19.4836 12.5ZM3.5 12C3.5 7.30558 7.30558 3.5 12 3.5C16.6944 3.5 20.5 7.30558 20.5 12C20.5 13.5474 20.0861 14.9996 19.3625 16.2504C17.8936 18.7897 15.1468 20.5 12 20.5C7.30558 20.5 3.5 16.6944 3.5 12Z" fill="current"/>

</symbol>
<symbol id="web_fill" viewBox="0 0 24 24">
<path fill-rule="evenodd" clip-rule="evenodd" d="M12 3.5C7.30558 3.5 3.5 7.30558 3.5 12C3.5 16.6944 7.30558 20.5 12 20.5C15.1468 20.5 17.8936 18.7897 19.3625 16.2504C20.0861 14.9996 20.5 13.5474 20.5 12C20.5 7.30558 16.6944 3.5 12 3.5ZM7 11.5H4.5164C4.76282 7.75625 7.75625 4.76282 11.5 4.5164V6C11.5 6.82843 12.1716 7.5 13 7.5C13.2761 7.5 13.5 7.72386 13.5 8V10.5194C13.5 10.6713 13.431 10.8149 13.3123 10.9098L8.89043 14.4473C8.84782 14.4814 8.79488 14.5 8.74031 14.5C8.60759 14.5 8.5 14.3924 8.5 14.2597V13C8.5 12.1716 7.82843 11.5 7 11.5ZM17.5662 12.5H19.4836C19.4127 13.5787 19.1139 14.5943 18.6351 15.5H17.4142C17.2816 15.5 17.1544 15.4473 17.0607 15.3536L16.4056 14.6985C16.2434 14.5363 16.2124 14.2845 16.3305 14.0877L17.1374 12.7428C17.2278 12.5921 17.3906 12.5 17.5662 12.5Z" fill="current"/>

</symbol>
<symbol id="work" viewBox="0 0 24 24">
<path fill-rule="evenodd" clip-rule="evenodd" d="M3.5 9C3.5 8.17157 4.17157 7.5 5 7.5H19C19.8284 7.5 20.5 8.17157 20.5 9V18C20.5 18.8284 19.8284 19.5 19 19.5H5C4.17157 19.5 3.5 18.8284 3.5 18V9ZM5 8.5C4.72386 8.5 4.5 8.72386 4.5 9V10.3731L11.8623 12.4821C11.9523 12.5079 12.0477 12.5079 12.1377 12.4821L19.5 10.3731V9C19.5 8.72386 19.2761 8.5 19 8.5H5ZM19.5 11.4133L12.4131 13.4434C12.1431 13.5208 11.8569 13.5208 11.5869 13.4434L4.5 11.4133V18C4.5 18.2761 4.72386 18.5 5 18.5H19C19.2761 18.5 19.5 18.2761 19.5 18V11.4133Z" fill="current"/>
<path fill-rule="evenodd" clip-rule="evenodd" d="M7.5 5C7.5 4.72386 7.72386 4.5 8 4.5H16C16.2761 4.5 16.5 4.72386 16.5 5V8C16.5 8.27614 16.2761 8.5 16 8.5C15.7239 8.5 15.5 8.27614 15.5 8V5.5H8.5V8C8.5 8.27614 8.27614 8.5 8 8.5C7.72386 8.5 7.5 8.27614 7.5 8V5Z" fill="current"/>

</symbol>
<symbol id="work_fill" viewBox="0 0 24 24">
<path fill-rule="evenodd" clip-rule="evenodd" d="M8 4.5C7.72386 4.5 7.5 4.72386 7.5 5V8H5C4.44772 8 4 8.44772 4 9V10.8333L11.8283 13.6965C11.9392 13.737 12.0608 13.737 12.1717 13.6965L20 10.8333V9C20 8.44772 19.5523 8 19 8H16.5V5C16.5 4.72386 16.2761 4.5 16 4.5H8ZM15.5 8V5.5H8.5V8H15.5Z" fill="current"/>
<path d="M12.5152 14.6356L20 11.8981V18C20 18.5523 19.5523 19 19 19H5C4.44772 19 4 18.5523 4 18V11.8981L11.4848 14.6356C11.8175 14.7573 12.1825 14.7573 12.5152 14.6356Z" fill="current"/>

</symbol>
<symbol id="x" viewBox="0 0 24 24">
<path fill-rule="evenodd" clip-rule="evenodd" d="M18.0104 5.98971C18.2057 6.18497 18.2057 6.50155 18.0104 6.69682L12.7071 12.0001L18.0104 17.3034C18.2057 17.4987 18.2057 17.8153 18.0104 18.0105C17.8151 18.2058 17.4986 18.2058 17.3033 18.0105L12 12.7072L6.69669 18.0105C6.50143 18.2058 6.18485 18.2058 5.98959 18.0105C5.79432 17.8153 5.79432 17.4987 5.98959 17.3034L11.2929 12.0001L5.98959 6.69682C5.79432 6.50155 5.79432 6.18497 5.98959 5.98971C6.18485 5.79445 6.50143 5.79445 6.69669 5.98971L12 11.293L17.3033 5.98971C17.4986 5.79445 17.8151 5.79445 18.0104 5.98971Z" fill="current"/>

</symbol>
<symbol id="x_fill" viewBox="0 0 24 24">
<path fill-rule="evenodd" clip-rule="evenodd" d="M12 21C16.9706 21 21 16.9706 21 12C21 7.02944 16.9706 3 12 3C7.02944 3 3 7.02944 3 12C3 16.9706 7.02944 21 12 21ZM8.35355 7.64645C8.15829 7.45118 7.84171 7.45118 7.64645 7.64645C7.45118 7.84171 7.45118 8.15829 7.64645 8.35355L11.2929 12L7.64645 15.6464C7.45118 15.8417 7.45118 16.1583 7.64645 16.3536C7.84171 16.5488 8.15829 16.5488 8.35355 16.3536L12 12.7071L15.6464 16.3536C15.8417 16.5488 16.1583 16.5488 16.3536 16.3536C16.5488 16.1583 16.5488 15.8417 16.3536 15.6464L12.7071 12L16.3536 8.35355C16.5488 8.15829 16.5488 7.84171 16.3536 7.64645C16.1583 7.45118 15.8417 7.45118 15.6464 7.64645L12 11.2929L8.35355 7.64645Z" fill="current"/>

</symbol></svg>