<svg width="34" height="33" viewBox="0 0 34 33" fill="none" xmlns="http://www.w3.org/2000/svg">
<path d="M6.68443 17.6354C7.5607 18.5117 7.5607 19.9324 6.68443 20.8087L4.82558 22.6675C3.94931 23.5438 2.52859 23.5438 1.65232 22.6675C0.77605 21.7912 0.77605 20.3705 1.65232 19.4943L3.51117 17.6354C4.38744 16.7591 5.80816 16.7591 6.68443 17.6354Z" fill="#C22A23"/>
<path d="M11.1721 22.1231C12.0484 22.9993 12.0484 24.4201 11.1721 25.2963L4.82558 31.6428C3.94931 32.5191 2.52859 32.5191 1.65232 31.6428C0.776049 30.7666 0.77605 29.3459 1.65232 28.4696L7.99884 22.1231C8.87511 21.2468 10.2958 21.2468 11.1721 22.1231Z" fill="#C22A23"/>
<path d="M15.6598 29.784C16.536 28.9077 16.536 27.487 15.6598 26.6107C14.7835 25.7345 13.3628 25.7345 12.4865 26.6107L10.6276 28.4696C9.75138 29.3459 9.75138 30.7666 10.6276 31.6428C11.5039 32.5191 12.9246 32.5191 13.8009 31.6428L15.6598 29.784Z" fill="#C22A23"/>
<path fill-rule="evenodd" clip-rule="evenodd" d="M6.46546 10.6101C6.63156 9.86144 7.16851 9.24944 7.88922 8.98736L30.8084 0.653101C31.6277 0.355176 32.5454 0.558767 33.1619 1.17521C33.7783 1.79166 33.9819 2.70936 33.684 3.52865L25.3497 26.4479C25.0876 27.1686 24.4756 27.7055 23.727 27.8716C22.9783 28.0377 22.1966 27.8099 21.6544 27.2677L7.06941 12.6827C6.52714 12.1405 6.29937 11.3588 6.46546 10.6101ZM12.734 12.0008L22.3363 21.6031L27.8233 6.51375L12.734 12.0008Z" fill="#C22A23"/>
</svg>
