<svg width="48" height="48" viewBox="0 0 48 48" fill="none" xmlns="http://www.w3.org/2000/svg">
<path fill-rule="evenodd" clip-rule="evenodd" d="M38.4756 15.9643C39.3996 14.1163 39.0374 11.8845 37.5764 10.4236C36.1155 8.96262 33.8837 8.60044 32.0357 9.52441L19.8903 15.5971C18.0325 16.526 16.526 18.0325 15.5971 19.8903L9.5244 32.0357C8.60043 33.8837 8.96261 36.1155 10.4235 37.5765C11.8845 39.0374 14.1163 39.3996 15.9643 38.4756L28.1096 32.4029C29.9675 31.474 31.474 29.9675 32.4029 28.1097L38.4756 15.9643ZM14.4885 32.8407C14.2736 33.2705 14.7295 33.7264 15.1593 33.5115L25.963 28.1097C26.126 28.0282 26.2836 27.9378 26.4351 27.8391C26.898 27.5378 26.8939 26.8939 26.5034 26.5034L21.4966 21.4966C21.1061 21.1061 20.4622 21.102 20.1609 21.5649C20.0622 21.7164 19.9718 21.874 19.8903 22.037L14.4885 32.8407Z" fill="#C22A23"/>
<path d="M43.2 24C43.2 34.6039 34.6039 43.2 24 43.2C13.3961 43.2 4.8 34.6039 4.8 24C4.8 18.2892 7.29324 13.1608 11.2506 9.6438C12.1885 8.81029 12.5075 7.43599 11.8802 6.34937C11.178 5.13311 9.58271 4.76013 8.51039 5.66706C3.3051 10.0695 0 16.6488 0 24C0 37.2548 10.7452 48 24 48C37.2548 48 48 37.2548 48 24C48 10.7452 37.2548 0 24 0C21.7237 0 19.5214 0.316896 17.4349 0.908979C16.0168 1.31137 15.4631 2.95518 16.2001 4.23174C16.7975 5.2664 18.0527 5.69952 19.2099 5.40234C20.7411 5.00911 22.3461 4.8 24 4.8C34.6039 4.8 43.2 13.3961 43.2 24Z" fill="#C22A23"/>
</svg>
