<svg width="48" height="48" viewBox="0 0 48 48" fill="none" xmlns="http://www.w3.org/2000/svg">
<path d="M24 4.8C13.3961 4.8 4.8 13.3961 4.8 24C4.8 27.2487 5.60683 30.3089 7.03104 32.9912C7.58041 34.0259 7.47088 35.3178 6.64251 36.1462C5.58133 37.2073 3.81454 37.0743 3.07768 35.7669C1.11803 32.29 0 28.2756 0 24C0 10.7452 10.7452 0 24 0C37.2548 0 48 10.7452 48 24C48 37.2548 37.2548 48 24 48C18.6821 48 13.7682 46.2704 9.79008 43.3431C8.68106 42.527 8.65008 40.9268 9.62371 39.9532C10.5281 39.0488 11.9728 39.0215 13.0216 39.7537C16.1328 41.9259 19.9176 43.2 24 43.2C34.6039 43.2 43.2 34.6039 43.2 24C43.2 13.3961 34.6039 4.8 24 4.8Z" fill="#C22A23"/>
<path fill-rule="evenodd" clip-rule="evenodd" d="M15.12 18.96C15.12 14.851 18.451 11.52 22.56 11.52H22.8V9.6C22.8 8.93726 23.3373 8.4 24 8.4C24.6627 8.4 25.2 8.93726 25.2 9.6V11.52H28.6286C29.9541 11.52 31.0286 12.5945 31.0286 13.92C31.0286 15.2455 29.9541 16.32 28.6286 16.32H25.2V21.6H25.44C29.549 21.6 32.88 24.931 32.88 29.04C32.88 33.149 29.549 36.48 25.44 36.48H25.2V38.4C25.2 39.0627 24.6627 39.6 24 39.6C23.3373 39.6 22.8 39.0627 22.8 38.4V36.48H19.3714C18.0459 36.48 16.9714 35.4055 16.9714 34.08C16.9714 32.7545 18.0459 31.68 19.3714 31.68H22.8V26.4H22.56C18.451 26.4 15.12 23.069 15.12 18.96ZM22.56 16.32H22.8V21.6H22.56C21.102 21.6 19.92 20.418 19.92 18.96C19.92 17.502 21.102 16.32 22.56 16.32ZM25.2 31.68V26.4H25.44C26.898 26.4 28.08 27.582 28.08 29.04C28.08 30.498 26.898 31.68 25.44 31.68H25.2Z" fill="#C22A23"/>
</svg>
