<svg width="38" height="34" viewBox="0 0 38 34" fill="none" xmlns="http://www.w3.org/2000/svg">
<path fill-rule="evenodd" clip-rule="evenodd" d="M3.70137 3.42713C7.77136 -0.742316 14.3889 -0.742307 18.4589 3.42713L19.0003 3.98182L19.5418 3.42713C23.6118 -0.742307 30.2293 -0.742316 34.2993 3.42713C38.3451 7.57183 38.3451 14.2738 34.2993 18.4185L20.3122 32.7473C19.9672 33.1008 19.4942 33.3 19.0003 33.3C18.5064 33.3 18.0334 33.1008 17.6884 32.7473L3.70137 18.4185C-0.344469 14.2738 -0.344468 7.57183 3.70137 3.42713ZM15.835 5.98838C13.2038 3.29283 8.95645 3.29283 6.3252 5.98837C3.66981 8.70865 3.66981 13.137 6.3252 15.8573L19.0003 28.8421L31.6754 15.8573C34.3308 13.137 34.3308 8.70865 31.6754 5.98837C29.0442 3.29283 24.7969 3.29283 22.1656 5.98838L20.3122 7.88703C19.9672 8.24047 19.4942 8.43975 19.0003 8.43975C18.5064 8.43975 18.0334 8.24047 17.6884 7.88703L15.835 5.98838Z" fill="#C22A23"/>
</svg>
