<svg width="20" height="20" viewBox="0 0 20 20" fill="none" xmlns="http://www.w3.org/2000/svg">
<path fill-rule="evenodd" clip-rule="evenodd" d="M0 3C0 1.34315 1.34315 0 3 0H17C18.6569 0 20 1.34315 20 3V17C20 18.6569 18.6569 20 17 20H3C1.34315 20 0 18.6569 0 17V3ZM3 2C2.44772 2 2 2.44772 2 3V11H6C6.94427 11 7.83344 11.4446 8.4 12.2L9.2 13.2667C9.6 13.8 10.4 13.8 10.8 13.2667L11.6 12.2C12.1666 11.4446 13.0557 11 14 11H18V3C18 2.44772 17.5523 2 17 2H3ZM18 13H14C13.6852 13 13.3889 13.1482 13.2 13.4L12.4 14.4667C11.2 16.0667 8.8 16.0667 7.6 14.4667L6.8 13.4C6.61115 13.1482 6.31476 13 6 13H2V17C2 17.5523 2.44772 18 3 18H17C17.5523 18 18 17.5523 18 17V13Z" fill="#DC693F"/>
</svg>
