<svg width="34" height="34" viewBox="0 0 34 34" fill="none" xmlns="http://www.w3.org/2000/svg">
<path fill-rule="evenodd" clip-rule="evenodd" d="M6.08116 23.976L4.91634 29.8L11.438 28.6143C13.0781 29.3753 14.9059 29.8 16.833 29.8C23.9207 29.8 29.6663 24.0543 29.6663 16.9667C29.6663 9.87902 23.9207 4.13334 16.833 4.13334C9.74535 4.13334 3.99967 9.87902 3.99967 16.9667C3.99967 19.5532 4.76484 21.9609 6.08116 23.976ZM16.833 33.4667C14.7954 33.4667 12.8375 33.0957 11.0282 32.4156L5.57225 33.4076C4.37727 33.6248 3.15224 33.2363 2.30098 32.3699C1.44971 31.5036 1.08268 30.2719 1.32088 29.0809L2.21289 24.6209C1.01215 22.331 0.333008 19.7243 0.333008 16.9667C0.333008 7.85398 7.72031 0.466675 16.833 0.466675C25.9457 0.466675 33.333 7.85398 33.333 16.9667C33.333 26.0794 25.9457 33.4667 16.833 33.4667ZM11.333 18.8C12.3455 18.8 13.1663 17.9792 13.1663 16.9667C13.1663 15.9542 12.3455 15.1333 11.333 15.1333C10.3205 15.1333 9.49967 15.9542 9.49967 16.9667C9.49967 17.9792 10.3205 18.8 11.333 18.8ZM18.6663 16.9667C18.6663 17.9792 17.8455 18.8 16.833 18.8C15.8205 18.8 14.9997 17.9792 14.9997 16.9667C14.9997 15.9542 15.8205 15.1333 16.833 15.1333C17.8455 15.1333 18.6663 15.9542 18.6663 16.9667ZM22.333 18.8C23.3455 18.8 24.1663 17.9792 24.1663 16.9667C24.1663 15.9542 23.3455 15.1333 22.333 15.1333C21.3205 15.1333 20.4997 15.9542 20.4997 16.9667C20.4997 17.9792 21.3205 18.8 22.333 18.8Z" fill="#C22A23"/>
</svg>
