<svg width="47" height="46" viewBox="0 0 47 46" fill="none" xmlns="http://www.w3.org/2000/svg">
<path d="M12.2453 38.8267C12.3054 38.8182 12.3631 38.7977 12.4212 38.7798C12.5911 38.7273 12.7785 38.7581 12.9259 38.8638C20.6177 44.3791 31.3901 43.6809 38.3019 36.7691C45.9904 29.0806 45.9904 16.6151 38.3019 8.92664C30.6134 1.23816 18.148 1.23816 10.4595 8.92664C3.54768 15.8384 2.84946 26.6108 8.3648 34.3026C8.48851 34.4752 8.50961 34.7026 8.41467 34.8925L5.89956 39.7229L12.2453 38.8267Z" fill="#C22A23"/>
<path fill-rule="evenodd" clip-rule="evenodd" d="M0.880859 43.2722L5.30147 34.7821C-0.143147 26.0929 0.911421 14.4974 8.47096 6.9379C17.2578 -1.84893 31.5041 -1.84893 40.2909 6.9379C49.0777 15.7247 49.0777 29.971 40.2909 38.7578C32.6238 46.425 20.805 47.4007 12.0775 41.6909L0.880859 43.2722ZM8.41467 34.8925L5.89956 39.7229L12.2453 38.8267C12.2949 38.8197 12.3431 38.8045 12.3909 38.7893C12.4011 38.7861 12.411 38.7829 12.4212 38.7798C12.5911 38.7273 12.7785 38.7581 12.9259 38.8638C20.6177 44.3791 31.3901 43.6809 38.3019 36.7691C45.9904 29.0806 45.9904 16.6151 38.3019 8.92664C30.6134 1.23816 18.148 1.23816 10.4595 8.92664C3.54768 15.8384 2.84946 26.6108 8.3648 34.3026C8.48851 34.4752 8.50961 34.7026 8.41467 34.8925Z" fill="#C22A23"/>
<path d="M22.8537 14.9167C23.7654 13.3516 26.0269 13.3516 26.9386 14.9167L28.1925 17.0691C28.5265 17.6424 29.0862 18.049 29.7347 18.1894L32.1697 18.7166C33.9402 19.0999 34.639 21.2502 33.432 22.6008L31.772 24.4583C31.3299 24.953 31.1161 25.6108 31.1829 26.2709L31.4339 28.7492C31.6164 30.5512 29.7869 31.8802 28.1292 31.1498L25.8493 30.1453C25.242 29.8778 24.5503 29.8778 23.943 30.1453L21.6631 31.1498C20.0054 31.8802 18.1759 30.5512 18.3584 28.7492L18.6094 26.2709C18.6762 25.6108 18.4624 24.953 18.0203 24.4583L16.3603 22.6008C15.1533 21.2502 15.8521 19.0999 17.6226 18.7166L20.0576 18.1894C20.7061 18.049 21.2658 17.6424 21.5998 17.0691L22.8537 14.9167Z" fill="#F7F7F7"/>
</svg>
