<svg width="17" height="16" viewBox="0 0 17 16" fill="none" xmlns="http://www.w3.org/2000/svg">
<path d="M0.462825 0.156531C0.751101 -0.0270611 1.11318 -0.0507124 1.42289 0.093819L16.4229 7.09382C16.775 7.25812 17 7.61148 17 8C17 8.38853 16.775 8.74188 16.4229 8.90619L1.42289 15.9062C1.11318 16.0507 0.751101 16.0271 0.462825 15.8435C0.174548 15.6599 0 15.3418 0 15V10C0 9.44771 0.447715 9 1 9L7 9C7.55229 9 8 8.55229 8 8C8 7.44772 7.55229 7 7 7L1 7C0.447715 7 0 6.55228 0 6V1C0 0.658228 0.174548 0.340124 0.462825 0.156531Z" fill="#DC693F"/>
</svg>
