<svg width="300" height="300" viewBox="0 0 300 300" fill="none" xmlns="http://www.w3.org/2000/svg">
<path d="M212.66 84.11L53.2679 126.819C46.9074 128.523 41.5363 132.046 37.5394 136.662C32.2622 142.77 29.3526 150.794 29.7638 159.176C29.7832 159.249 29.7978 159.303 29.7896 159.344C29.7779 159.445 29.7842 159.54 29.7905 159.636C29.79 159.85 29.8075 160.06 29.8431 160.265C29.9638 161.868 30.2023 163.479 30.5948 165.088C30.6824 165.415 30.7652 165.724 30.8528 166.051L36.6956 187.857C36.7979 188.238 36.9001 188.62 36.9975 188.983L57.7687 266.503C58.7966 270.122 60.3752 273.419 62.4083 276.322C66.1578 281.666 71.4311 285.707 77.3995 287.944L77.4175 287.939C79.9118 288.888 82.5312 289.51 85.2169 289.803C85.793 289.863 86.3642 289.905 86.9486 289.924C88.204 289.996 89.4532 289.973 90.7188 289.868C90.8006 289.885 90.8956 289.879 90.9857 289.855C91.3524 289.854 91.7274 289.812 92.0975 289.751C93.6383 289.592 95.1811 289.295 96.7126 288.885L256.087 246.181C273.078 241.628 283.129 224.074 278.538 206.939L251.724 106.869C247.133 89.7333 229.651 79.5571 212.66 84.11ZM139.033 148.945L137.636 143.73C137.28 142.403 138.069 141.023 139.385 140.671L146.628 138.73C147.943 138.377 149.317 139.178 149.672 140.504L151.07 145.72C164.736 143.966 177.158 148.74 181.913 157.691C182.88 159.496 181.966 161.708 180.02 162.23L167.857 165.488C166.56 165.836 165.214 165.281 164.469 164.157C163.048 162.025 160.417 160.568 157.21 159.986C156.074 159.784 155.111 160.802 155.413 161.928L159.459 177.029C159.658 177.774 160.365 178.247 161.115 178.163C166.312 177.666 171.44 178.064 176.005 179.392C184.404 181.836 190.267 187.14 192.093 193.954C195.107 205.202 186.304 217.611 171.948 223.639L173.34 228.836C173.696 230.162 172.907 231.542 171.592 231.895L164.348 233.835C163.033 234.188 161.659 233.387 161.304 232.061L159.911 226.864C148.123 228.347 137.104 224.99 131.311 218.148C129.867 216.431 130.591 213.803 132.711 213.137C136.482 211.932 142.031 210.153 144.88 209.253C145.947 208.909 147.071 209.212 147.927 209.956C149.436 211.266 151.49 212.157 153.843 212.578C154.938 212.771 155.846 211.691 155.559 210.618L151.517 195.536C151.318 194.791 150.612 194.318 149.862 194.402C144.647 194.904 139.555 194.496 134.989 193.168C126.595 190.743 120.732 185.439 118.901 178.606C115.887 167.358 124.672 154.955 139.033 148.945Z" fill="#BFD537"/>
<path d="M189.964 87.483L190.617 89.918L167.193 96.1945L166.54 93.7595C161.437 74.7159 141.914 63.334 123.031 68.3938C104.148 73.4536 92.931 93.0721 98.0337 112.116L98.6862 114.551L75.2621 120.827L74.6096 118.392C66.0158 86.3197 84.8986 53.2925 116.701 44.771C148.504 36.2495 181.371 55.4105 189.964 87.483Z" fill="#EAF1BC"/>
<path d="M176.005 179.392C171.439 178.064 166.312 177.665 161.114 178.162C160.365 178.246 159.658 177.773 159.459 177.028L155.413 161.928C155.111 160.801 156.074 159.783 157.21 159.986C160.417 160.567 163.048 162.024 164.468 164.156C165.214 165.281 166.56 165.835 167.857 165.488L180.02 162.229C181.966 161.707 182.879 159.495 181.913 157.69C177.158 148.739 164.736 143.966 151.069 145.719L149.672 140.504C149.317 139.177 147.943 138.377 146.628 138.729L139.385 140.67C138.069 141.022 137.28 142.402 137.636 143.729L139.033 148.944C124.672 154.954 115.887 167.357 118.901 178.606C120.732 185.438 126.595 190.742 134.989 193.167C139.555 194.495 144.646 194.903 149.862 194.402C150.612 194.317 151.318 194.79 151.517 195.535L155.559 210.618C155.846 211.69 154.938 212.771 153.843 212.577C151.49 212.156 149.436 211.265 147.927 209.956C147.07 209.211 145.947 208.909 144.88 209.253C142.031 210.152 136.482 211.931 132.711 213.137C130.591 213.802 129.867 216.431 131.311 218.147C137.104 224.989 148.123 228.347 159.911 226.863L161.304 232.06C161.659 233.387 163.033 234.187 164.348 233.835L171.591 231.894C172.907 231.541 173.696 230.161 173.34 228.835L171.948 223.638C186.304 217.61 195.107 205.201 192.093 193.953C190.267 187.139 184.404 181.835 176.005 179.392ZM146.824 178.018C147.125 179.145 146.162 180.163 145.026 179.96C140.906 179.214 137.745 177.004 136.883 173.787C136.022 170.571 137.659 167.094 140.854 164.388C141.736 163.645 143.079 164.044 143.381 165.171L146.824 178.018ZM170.127 208.194C169.245 208.937 167.897 208.519 167.6 207.411L164.148 194.527C163.851 193.419 164.814 192.401 165.95 192.603C170.065 193.331 173.244 195.537 174.111 198.772C174.977 202.006 173.322 205.488 170.127 208.194Z" fill="#EAF1BC"/>
<path d="M165.95 192.604C170.065 193.332 173.244 195.537 174.111 198.772C174.978 202.007 173.323 205.488 170.127 208.195C169.245 208.937 167.897 208.52 167.6 207.411L164.148 194.528C163.851 193.419 164.814 192.401 165.95 192.604Z" fill="#BFD537"/>
<path d="M143.381 165.17L146.823 178.017C147.125 179.144 146.162 180.162 145.026 179.96C140.906 179.213 137.745 177.003 136.883 173.786C136.022 170.57 137.658 167.093 140.854 164.387C141.736 163.644 143.079 164.044 143.381 165.17Z" fill="#BFD537"/>
<g style="mix-blend-mode:overlay">
<path d="M224.242 249.356C224.242 249.356 224.278 249.346 224.296 249.341C224.213 249.247 224.116 249.175 224.082 249.048C224.07 249.194 224.123 249.297 224.242 249.356Z" fill="#565C2D"/>
<path d="M216.509 253.433C216.335 253.363 216.18 253.288 216.038 253.189C216.072 253.317 216.263 253.382 216.509 253.433Z" fill="#565C2D"/>
<path d="M217.703 253.64C217.389 253.549 216.895 253.506 216.509 253.435C216.897 253.584 217.301 253.651 217.703 253.64Z" fill="#565C2D"/>
<path d="M239.672 246.039C239.421 245.969 239.153 245.905 238.872 245.864C238.873 245.941 238.834 246.01 238.858 246.101L239.672 246.039Z" fill="#565C2D"/>
<path d="M71.671 263.321L71.8161 262.854C71.6783 262.989 71.6632 263.148 71.671 263.321Z" fill="#565C2D"/>
<path d="M83.9097 273.753C83.9097 273.753 83.9963 273.788 84.0421 273.815C83.9963 273.788 83.9554 273.78 83.9097 273.753Z" fill="#565C2D"/>
<path d="M84.3613 273.925C84.2517 273.876 84.1471 273.846 84.0424 273.815C84.1748 273.877 84.2892 273.944 84.3613 273.925Z" fill="#565C2D"/>
<path d="M240.799 247.724C241.248 247.019 242.629 246.552 242.524 245.801L239.672 246.039C240.77 246.388 241.434 247.066 240.799 247.724Z" fill="#565C2D"/>
<path d="M198.193 261.692L197.166 261.967C197.279 261.742 197.321 261.537 197.303 261.327C197.776 261.22 198.056 261.398 198.193 261.692Z" fill="#565C2D"/>
<path d="M35.9033 184.972C36.0337 185.17 36.115 185.402 36.0834 185.644L35.9033 184.972Z" fill="#565C2D"/>
<path d="M223.04 255.034L219.437 256C219.322 255.933 219.185 255.853 219.03 255.778C218.883 255.953 218.764 256.083 218.662 256.207L201.076 260.92C201.463 260.056 197.948 261.427 198.753 260.179C197.592 260.314 196.394 260.889 195.443 260.871C197.239 261.305 196.005 261.889 195.094 262.522L96.6944 288.888C95.1628 289.299 93.6201 289.595 92.0793 289.755C91.9156 289.721 91.752 289.687 91.5884 289.653C91.5523 289.663 91.5343 289.667 91.4886 289.641C91.2709 289.621 91.1219 289.642 91.0595 289.697C90.9923 289.735 90.966 289.781 90.9675 289.858C90.8774 289.882 90.7824 289.888 90.7006 289.871C90.7089 289.83 90.7123 289.771 90.7157 289.711C90.7542 289.351 90.7386 289.004 90.8015 288.734C91.6367 287.887 94.4013 288.042 95.1585 287.625C93.7863 286.396 92.5609 288.165 90.8064 287.311C90.4285 287.919 89.0376 288.35 87.976 288.712C87.2699 288.96 86.7225 289.223 86.7984 289.651C86.8179 289.724 86.8651 289.828 86.9304 289.927C86.346 289.908 85.7748 289.867 85.1987 289.807C85.0925 289.699 84.9995 289.568 84.8885 289.442C84.6567 289.154 84.4478 288.878 84.1225 288.674C83.1894 288.651 82.0027 288.618 80.908 288.425C80.4219 288.341 79.9359 288.257 79.4908 288.181C78.941 288.075 78.4322 287.978 78.046 287.906C77.8429 287.941 77.635 287.958 77.3993 287.943L77.3813 287.948C71.4129 285.71 66.1396 281.67 62.39 276.326C62.4889 276.046 62.6321 275.715 62.6837 275.331C62.7402 274.966 62.7412 274.537 62.5197 274.071C62.2275 272.98 61.1236 271.095 59.9131 269.316C59.6847 268.968 59.4383 268.625 59.2148 268.295C58.7269 267.628 58.2306 267.001 57.7505 266.506C57.2558 265.957 56.7639 265.563 56.3028 265.356C56.6223 264.53 57.1409 265.384 57.6385 266.088C57.9877 266.599 58.3353 267.031 58.5998 266.649C58.6018 266.512 58.5808 266.362 58.5419 266.216L58.464 265.926C58.464 265.926 58.4771 265.903 58.4591 265.907L58.425 265.78C58.0754 264.764 57.2296 263.841 56.767 262.836C56.5975 262.492 56.4953 262.11 56.4651 261.709L36.9793 188.987C36.8819 188.624 36.7797 188.242 36.6774 187.861C36.5426 187.429 36.3897 187.003 36.2187 186.581C36.2645 186.608 36.3103 186.635 36.3561 186.661C36.6945 186.843 37.0037 186.916 37.2643 186.807C37.4576 186.736 37.6217 186.556 37.7747 186.262C37.4372 186.372 37.1888 186.165 37.0014 185.826C36.5203 185.04 36.27 183.529 35.5965 183.826L35.3141 182.773C35.6219 182.768 35.9155 183.215 36.1882 182.791C36.3246 182.58 36.4566 182.135 36.5716 181.267C36.2235 178.887 35.664 176.583 34.9409 174.965L34.4597 176.341L34.3609 176.62L33.3081 175.286L33.1328 174.632C33.4011 174.696 33.797 174.804 34.041 174.778C34.3751 174.727 34.4642 174.411 33.6744 173.338C33.6695 173.319 33.6515 173.324 33.6466 173.306C33.2892 172.837 32.9668 172.787 32.6605 172.869L31.5504 168.726C31.6848 168.651 31.8226 168.517 31.9229 168.315C31.9118 167.48 31.4365 167.004 30.9515 166.491L30.8346 166.055C30.747 165.728 30.6642 165.419 30.5766 165.092C31.5091 164.608 30.6672 163.412 30.9667 162.728C31.0836 162.443 31.3836 162.266 32.0712 162.237C31.6647 161.08 31.1845 160.586 30.6693 160.393C30.3912 160.292 30.1146 160.269 29.8249 160.268C29.7893 160.064 29.7718 159.854 29.7723 159.64C29.7937 159.576 29.8054 159.475 29.7713 159.348C29.7796 159.307 29.765 159.252 29.7455 159.179C29.3344 150.798 32.244 142.773 37.5212 136.666C37.6765 136.741 37.827 136.798 37.9643 136.878C40.8472 138.267 43.0084 139.558 43.0084 139.558C49.5515 160.806 54.6592 188.301 58.5025 210.428C60.5122 221.965 64.6666 233.433 66.1704 245.027C66.1699 245.962 65.6479 245.167 65.4302 245.148C66.6432 247.296 66.0762 248.928 67.3501 250.944L66.6454 250.548C68.3668 253.008 69.4419 256.732 70.1747 259.107C69.8016 260.453 69.7942 262.948 71.4733 263.881L71.653 263.326C71.725 264.028 72.7852 265.029 73.6018 265.843C74.379 266.725 74.8995 267.442 73.7746 268.289C75.4127 270.655 76.3468 267.366 77.2048 270.136C79.3679 272.01 81.5485 272.653 83.887 273.74C83.7545 273.678 83.586 273.626 83.3927 273.697C83.5821 274.62 84.5887 274.701 85.5592 274.792C86.6184 274.78 87.7205 274.641 88.6593 274.974C88.2605 275.431 87.6859 274.728 87.4112 275.289C87.8251 275.392 88.5882 275.285 89.402 275.223C90.2075 275.202 91.1162 275.133 91.9426 275.263C91.3007 275.318 90.7387 275.527 91.3499 276.006C91.9942 275.599 92.767 275.529 94.075 275.509L94.5522 276.569C96.5893 276.316 99.9505 275.454 102.783 274.637C103.885 275.218 102.269 274.735 102.645 275.492C103.95 274.811 105.082 274.137 106.982 274.018C107.334 275.189 104.436 274.895 105.119 276.075C107.063 274.756 106.619 276.413 108.832 275.879C108.91 275.234 108.787 274.917 107.861 275.282C108.516 274.483 109.636 273.618 111.834 273.029C112.154 273.43 113.112 274.265 114.814 273.555C115.588 273.056 114.156 272.972 114.014 272.659C118.685 271.856 123.525 269.955 128.394 268.884C128.283 270.199 132.331 267.79 131.121 270.413C133.129 269.329 131.778 267.53 135.659 266.879C137.538 267.33 138.569 268.514 136.918 269.775C138.614 269.905 141.156 269.302 143.085 269.077C143.557 268.171 142.759 266.418 144.889 266.295L142.261 265.714C145.731 265.33 149.471 264.152 152.688 264.556C154.856 263.78 152.958 263.763 153.984 262.904L157.275 262.431C156.845 262.916 154.837 264 156.944 263.863L158.737 263.13C156.907 264.302 157.89 264.077 157.958 265.267L159.929 264.622C159.142 264.93 159.1 265.35 159.438 265.747C160.444 265.321 161.943 265.582 162.785 264.616C162.274 264.149 162.704 263.664 161.758 263.45C164.688 262.782 166.838 262.225 170.129 261.752C168.968 262.103 165.068 262.972 167.083 263.718L169.447 263.026L169.257 264.985C170.804 262.759 175.435 262.239 177.547 262.121C177.989 263.483 180.422 261.896 179.685 263.827C179.918 263.258 181.729 262.306 183.087 262.039C181.177 262.045 181.68 260.897 182.742 259.814C183.737 261.222 184.53 258.848 185.321 258.772C185.481 259.08 183.418 260.607 185.955 259.985C187.25 258.548 186.475 256.593 189.466 255.286C190.136 256.275 192.556 254.925 193.488 255.162C192.641 256.11 190.178 255.854 190.259 257.021C194.816 257.163 194.293 254.849 197.425 253.854C198.494 254.814 201.822 253.903 202.449 253.287L202.179 254.08L205.114 253.43C204.843 254.223 202.516 254.691 203.603 255.217L207.682 254.436C207.27 254.702 206.146 254.614 206.287 255.141L213.515 253.36C212.828 254.615 216.101 254.362 217.623 254.421C218.194 253.957 218.064 253.758 217.686 253.645C220.158 253.645 222.968 251.45 223.987 253.593C222.881 253.285 222.272 253.682 221.308 253.687C220.302 254.327 221.211 254.765 221.137 255.427C221.933 255.155 222.533 255.014 223.022 255.039L223.04 255.034Z" fill="#565C2D"/>
<path d="M240.313 244.972L242.064 244.445C242.148 245.552 238.922 244.683 238.872 245.865C238.314 245.8 237.721 245.822 237.163 245.972L237.563 247.754L239.693 247.417C240.825 248.828 240.217 248.796 239.815 250.539L224.301 254.696C225.279 253.733 228.364 253.569 227.43 251.813C227.928 252.517 229.359 251.588 230.127 251.499C227.448 251.594 229.849 250.464 227.756 250.362L226.521 251.375C228.41 249.778 225.201 250.268 224.296 249.342C227.131 248.68 225.967 247.219 226.613 246.384C226.643 248.012 231.188 246.521 230.936 247.095C233.071 246.27 232.434 247.064 233.768 246.278C232.64 247.184 234.822 248.119 234.413 248.54C235.401 248.333 236.813 247.624 236.695 246.896C234.172 247.28 236.45 245.403 236.131 244.788C238.673 244.185 241.129 242.397 242.573 243.315C241.37 243.871 239.226 244.231 240.313 244.972Z" fill="#565C2D"/>
</g>
</svg>
