<svg width="300" height="300" viewBox="0 0 300 300" fill="none" xmlns="http://www.w3.org/2000/svg">
<path d="M220.211 41.923L264.768 208.212C266.385 214.245 266.092 220.333 264.251 225.825C264.11 226.259 263.963 226.675 263.799 227.096C263.776 227.162 263.736 227.232 263.714 227.297C263.62 227.541 263.54 227.76 263.437 227.967C263.335 228.252 263.209 228.524 263.084 228.795C263.07 228.819 263.057 228.842 263.048 228.884C262.783 229.451 262.514 229.999 262.207 230.557C261.761 231.411 261.274 232.255 260.734 233.054C260.417 232.167 260.087 231.304 259.719 230.45C259.689 230.339 259.646 230.252 259.608 230.183C259.583 230.09 259.558 229.998 259.515 229.91C259.398 229.624 259.287 229.356 259.157 229.094C259.108 228.909 259.021 228.733 258.939 228.577C258.329 227.114 257.668 225.684 256.962 224.307C256.736 223.832 256.491 223.362 256.251 222.911C255.848 222.146 255.449 221.4 255.033 220.659C254.984 220.553 254.936 220.446 254.869 220.345C254.759 220.157 254.673 219.982 254.544 219.798C254.117 219.02 253.654 218.251 253.181 217.525C252.651 216.656 252.102 215.791 251.539 214.95C251.234 214.477 250.934 214.022 250.596 213.577C250.334 213.191 250.049 212.791 249.768 212.41C249.496 211.987 249.187 211.574 248.864 211.184C248.555 210.771 248.251 210.377 247.942 209.964C247.311 209.161 246.684 208.377 246.039 207.598C245.569 207.03 245.1 206.461 244.598 205.921C244.091 205.363 243.608 204.818 243.107 204.278C242.936 204.086 242.765 203.893 242.581 203.725C242.25 203.377 241.924 203.048 241.593 202.7C241.006 202.064 240.382 201.438 239.749 200.854C239.083 200.219 238.441 199.598 237.766 199.005C237.606 198.85 237.445 198.694 237.271 198.563C236.921 198.22 236.54 197.906 236.163 197.61C236.078 197.514 235.974 197.423 235.857 197.355C235.522 197.068 235.187 196.781 234.834 196.498C234.668 196.325 234.489 196.174 234.273 196.034C234.268 196.015 234.263 195.997 234.221 195.988C233.787 195.628 233.325 195.236 232.86 194.905C232.676 194.736 232.478 194.591 232.285 194.464C231.55 193.868 230.812 193.332 230.031 192.787C229.415 192.337 228.785 191.911 228.137 191.49C227.361 190.964 226.567 190.443 225.759 189.945C225.256 189.624 224.754 189.302 224.238 189.004C223.74 188.701 223.224 188.403 222.689 188.11L221.75 187.568C220.094 186.643 218.416 185.784 216.697 184.995C215.901 184.613 215.109 184.25 214.304 183.911C213.855 183.714 213.406 183.517 212.943 183.343C212.175 182.994 211.403 182.705 210.631 182.416C209.653 182.023 208.667 181.673 207.667 181.345C206.924 181.088 206.162 180.836 205.41 180.621C204.976 180.48 204.541 180.338 204.093 180.221C203.126 179.944 202.141 179.672 201.142 179.424C199.588 179.028 198.049 178.686 196.483 178.392C195.872 178.258 195.247 178.148 194.627 178.056C193.667 177.877 192.717 177.735 191.771 177.612C191.086 177.498 190.411 177.421 189.717 177.349C189.391 177.317 189.084 177.28 188.758 177.249C187.739 177.145 186.724 177.06 185.696 176.998C185.515 176.987 185.333 176.976 185.17 176.96C184.324 176.91 183.459 176.864 182.622 176.85C179.102 176.742 177.543 172.479 180.167 170.13C195.512 156.339 202.169 134.106 194.647 112.916C185.944 88.4323 160.101 73.7776 134.627 78.858C104.331 84.8932 85.8831 115.085 93.7473 144.435C99.0926 164.383 115.155 178.584 134.085 182.537C137.466 183.237 138.104 187.767 135.156 189.569C133.435 190.625 131.772 191.745 130.142 192.915C129.793 193.167 129.425 193.425 129.081 193.695C127.856 194.599 126.64 195.539 125.476 196.526C125.132 196.796 124.793 197.085 124.454 197.375C123.904 197.839 123.36 198.323 122.815 198.806C122.595 199.023 122.352 199.227 122.128 199.426C121.538 199.961 120.952 200.515 120.39 201.082C120.23 201.224 120.088 201.361 119.951 201.517C119.306 202.146 118.685 202.788 118.064 203.431C117.85 203.667 117.63 203.884 117.416 204.12C117.247 204.304 117.06 204.493 116.896 204.696C116.371 205.253 115.869 205.824 115.386 206.389C115.367 206.394 115.354 206.418 115.34 206.441C114.775 207.069 114.237 207.729 113.7 208.388C113.099 209.105 112.526 209.853 111.966 210.578C110.739 212.216 109.559 213.881 108.43 215.592C107.95 216.315 107.493 217.053 107.036 217.79C106.755 218.222 106.479 218.673 106.227 219.137C105.296 220.696 104.449 222.272 103.63 223.879C103.243 224.657 102.857 225.435 102.494 226.227C102.332 226.587 102.153 226.953 101.991 227.313C101.27 228.915 100.591 230.525 99.9771 232.157C99.6609 232.976 99.3632 233.789 99.089 234.616C98.7913 235.43 98.5171 236.257 98.2664 237.098C97.9836 237.967 97.7242 238.85 97.4884 239.746C97.0976 241.1 96.7487 242.463 96.4603 243.83C96.3166 244.404 96.1964 244.991 96.0762 245.579C95.8822 246.484 95.7118 247.402 95.5648 248.334C95.4631 248.916 95.3614 249.499 95.2831 250.095C95.1913 250.715 95.1044 251.353 95.0176 251.991C95.0004 252.075 94.9882 252.177 94.9895 252.256C94.8954 253.016 94.8013 253.775 94.7442 254.524C94.6586 255.241 94.6151 255.967 94.5715 256.692C94.558 256.716 94.5444 256.739 94.5729 256.771C94.5375 257.158 94.5072 257.562 94.4903 257.944C94.46 258.349 94.4481 258.748 94.4362 259.148C94.4026 259.911 94.3825 260.65 94.3674 261.408C94.3398 263.081 94.3591 264.782 94.4574 266.481C94.4716 267.053 94.5229 267.614 94.5557 268.18C94.5348 268.325 94.5461 268.441 94.5808 268.57C94.5928 269.281 94.6702 270.014 94.7376 270.71C94.8352 271.814 94.9698 272.909 95.1229 273.998C95.2575 275.093 95.4291 276.177 95.6242 277.276C88.046 273.495 82.0796 266.624 79.7144 257.797L35.1574 91.508C35.0582 91.1379 34.959 90.7678 34.8783 90.3927C34.3722 88.2078 34.1215 86.0139 34.0992 83.8579C34.1128 83.8345 34.1078 83.816 34.1029 83.7975C34.1101 83.6765 34.0989 83.5605 34.1061 83.4396C34.103 81.8735 34.2443 80.3283 34.493 78.8138C34.6093 77.9892 34.7675 77.1733 34.9677 76.366C34.9849 76.282 35.0156 76.1746 35.0328 76.0907C35.0671 75.9228 35.12 75.75 35.1778 75.5957C35.1679 75.5587 35.158 75.5216 35.19 75.4932C36.0182 72.5144 37.281 69.6769 38.9242 67.0747C42.909 60.8502 49.1341 56.0285 56.8324 53.9658L182.669 20.248C199.028 15.8647 215.828 25.5642 220.211 41.923Z" fill="#EAF1BC"/>
<path d="M260.734 233.053C260.34 233.655 259.922 234.243 259.476 234.799C259.449 234.846 259.435 234.869 259.417 234.874C259.199 235.17 258.976 235.448 258.734 235.731C258.511 236.009 258.269 236.292 258.023 236.557C257.763 236.844 257.498 237.114 257.238 237.402L257.219 237.407C256.895 237.751 256.566 238.077 256.218 238.409C255.871 238.74 255.523 239.071 255.166 239.365C254.795 239.683 254.437 239.977 254.061 240.276C253.685 240.575 253.286 240.861 252.905 241.141C252.822 241.203 252.739 241.265 252.652 241.308C252.284 241.565 251.898 241.827 251.507 242.071C251.167 242.281 250.845 242.486 250.505 242.696C249.851 243.07 249.174 243.43 248.469 243.758C248.118 243.931 247.763 244.086 247.408 244.24C247.352 244.255 247.283 244.294 247.228 244.308C246.91 244.453 246.586 244.579 246.245 244.711C246.083 244.774 245.903 244.842 245.741 244.905C245.331 245.075 244.91 245.207 244.489 245.34C244.032 245.482 243.574 245.625 243.093 245.754L117.256 279.471C109.725 281.489 102.105 280.516 95.6238 277.275C95.4287 276.177 95.2571 275.092 95.1225 273.998C94.9694 272.908 94.8534 271.809 94.7373 270.709C94.6698 270.013 94.6159 269.294 94.5804 268.569C94.5457 268.44 94.5345 268.324 94.5553 268.179C94.5225 267.613 94.4713 267.052 94.457 266.48C94.3587 264.781 94.3394 263.081 94.367 261.407C94.3822 260.649 94.4023 259.91 94.4408 259.166C94.4478 258.747 94.4596 258.348 94.49 257.943C94.5068 257.561 94.5372 257.157 94.5725 256.77C94.5441 256.738 94.5576 256.715 94.5712 256.691C94.6147 255.966 94.6583 255.24 94.7438 254.523C94.8009 253.774 94.895 253.015 94.9892 252.256C94.9878 252.177 95 252.074 95.0172 251.99C95.1041 251.352 95.1909 250.714 95.2827 250.094C95.361 249.498 95.4627 248.916 95.5645 248.333C95.7115 247.401 95.8819 246.483 96.0758 245.578C96.196 244.99 96.3163 244.403 96.46 243.829C96.7483 242.462 97.0972 241.099 97.488 239.745C97.7239 238.849 97.9832 237.966 98.266 237.097C98.5168 236.256 98.791 235.429 99.0887 234.616C99.3629 233.788 99.6605 232.975 99.9767 232.156C100.591 230.524 101.27 228.914 101.991 227.312C102.152 226.952 102.332 226.586 102.493 226.226C102.856 225.434 103.243 224.656 103.63 223.878C104.448 222.271 105.296 220.695 106.227 219.136C106.479 218.672 106.755 218.221 107.036 217.789C107.493 217.052 107.95 216.315 108.43 215.591C109.554 213.862 110.734 212.197 111.966 210.577C112.525 209.852 113.098 209.104 113.7 208.387C114.237 207.728 114.774 207.068 115.34 206.44C115.354 206.417 115.367 206.393 115.386 206.388C115.869 205.823 116.37 205.252 116.895 204.695C117.059 204.492 117.247 204.303 117.415 204.119C117.63 203.883 117.849 203.666 118.064 203.43C118.685 202.787 119.306 202.145 119.951 201.516C120.088 201.36 120.229 201.223 120.39 201.081C120.952 200.514 121.537 199.96 122.128 199.425C122.352 199.226 122.595 199.022 122.814 198.805C123.359 198.322 123.904 197.838 124.454 197.374C124.793 197.085 125.132 196.795 125.476 196.525C126.64 195.538 127.855 194.598 129.081 193.694C129.425 193.424 129.793 193.167 130.141 192.914C131.772 191.744 133.435 190.624 135.155 189.568C138.104 187.766 137.465 183.236 134.084 182.536C115.155 178.584 99.0922 164.382 93.747 144.434C85.8828 115.084 104.331 84.8923 134.627 78.8571C160.101 73.7767 185.944 88.4314 194.647 112.915C202.169 134.105 195.512 156.338 180.166 170.129C177.543 172.478 179.102 176.741 182.622 176.849C183.482 176.876 184.323 176.909 185.17 176.96C185.333 176.975 185.514 176.986 185.696 176.997C186.724 177.059 187.738 177.144 188.758 177.248C189.084 177.279 189.391 177.316 189.717 177.348C190.411 177.42 191.086 177.497 191.771 177.611C192.716 177.734 193.667 177.876 194.627 178.055C195.247 178.147 195.871 178.257 196.482 178.391C198.044 178.667 199.606 179.022 201.142 179.423C202.141 179.672 203.126 179.943 204.093 180.22C204.541 180.338 204.975 180.479 205.41 180.62C206.162 180.835 206.923 181.087 207.667 181.345C208.667 181.672 209.653 182.022 210.631 182.415C211.403 182.704 212.174 182.993 212.942 183.342C213.405 183.516 213.855 183.713 214.304 183.91C215.109 184.249 215.901 184.612 216.697 184.994C218.416 185.783 220.094 186.642 221.75 187.567L222.689 188.109C223.223 188.402 223.74 188.7 224.237 189.003C224.753 189.301 225.256 189.623 225.759 189.944C226.566 190.442 227.361 190.963 228.136 191.489C228.785 191.91 229.414 192.336 230.031 192.786C230.793 193.336 231.555 193.885 232.285 194.463C232.478 194.59 232.675 194.735 232.859 194.904C233.33 195.254 233.782 195.609 234.221 195.987C234.263 195.996 234.268 196.014 234.273 196.033C234.489 196.173 234.668 196.324 234.833 196.497C235.187 196.78 235.521 197.067 235.856 197.354C235.974 197.422 236.077 197.513 236.163 197.609C236.544 197.923 236.908 198.242 237.271 198.562C237.445 198.693 237.606 198.849 237.766 199.004C238.441 199.597 239.102 200.213 239.749 200.853C240.382 201.437 241.006 202.063 241.593 202.699C241.924 203.047 242.25 203.376 242.581 203.724C242.765 203.892 242.936 204.085 243.106 204.277C243.608 204.817 244.091 205.362 244.598 205.92C245.099 206.46 245.569 207.029 246.039 207.597C246.684 208.376 247.31 209.16 247.942 209.963C248.251 210.376 248.555 210.77 248.864 211.184C249.187 211.573 249.496 211.986 249.768 212.409C250.048 212.79 250.334 213.19 250.596 213.576C250.933 214.021 251.234 214.476 251.539 214.949C252.102 215.79 252.651 216.655 253.181 217.524C253.653 218.25 254.117 219.019 254.544 219.797C254.672 219.981 254.759 220.156 254.869 220.344C254.936 220.446 254.984 220.552 255.032 220.658C255.449 221.399 255.847 222.145 256.251 222.91C256.49 223.361 256.735 223.831 256.962 224.306C257.668 225.683 258.329 227.113 258.934 228.557C259.021 228.732 259.089 228.913 259.157 229.093C259.287 229.355 259.398 229.623 259.514 229.909C259.558 229.997 259.583 230.089 259.607 230.182C259.646 230.251 259.689 230.338 259.714 230.431C260.086 231.303 260.417 232.166 260.734 233.053Z" fill="#BFD537"/>
<g style="mix-blend-mode:overlay">
<path d="M244.619 234.497C244.619 234.497 244.656 234.487 244.693 234.477C244.594 234.405 244.472 234.318 244.405 234.217C244.392 234.366 244.465 234.466 244.624 234.516L244.619 234.497Z" fill="#565C2D"/>
<path d="M235.354 239.815C235.144 239.772 234.948 239.706 234.751 239.64C234.786 239.769 235.033 239.802 235.354 239.815Z" fill="#565C2D"/>
<path d="M236.814 239.861C236.423 239.807 235.814 239.831 235.335 239.82C235.82 239.928 236.294 239.92 236.814 239.861Z" fill="#565C2D"/>
<path d="M263.349 228.823C263.042 228.787 262.716 228.755 262.363 228.77C262.365 228.849 262.324 228.92 262.367 229.007L263.349 228.823Z" fill="#565C2D"/>
<path d="M34.5854 76.5662C34.7285 76.508 34.8246 76.4227 34.9158 76.3189C34.78 76.2562 34.6789 76.3229 34.5854 76.5662Z" fill="#565C2D"/>
<path d="M85.605 227.817L85.8178 227.205C85.6711 227.323 85.6146 227.557 85.605 227.817Z" fill="#565C2D"/>
<path d="M94.0039 256.646C93.9543 256.461 93.9097 256.294 93.8651 256.127C93.9246 256.349 93.9421 256.563 94.0039 256.646Z" fill="#565C2D"/>
<path d="M256.776 229.533C256.542 229.695 256.34 229.829 256.151 229.939C256.293 229.802 256.495 229.668 256.776 229.533Z" fill="#565C2D"/>
<path d="M264.252 225.825C264.11 226.259 263.964 226.675 263.799 227.096C263.735 227.153 263.694 227.224 263.714 227.298C263.621 227.541 263.541 227.761 263.437 227.967C262.845 228.125 262.389 228.347 262.382 228.765C261.713 228.786 260.966 228.887 260.278 229.131L260.852 230.901L262.202 230.539C261.762 231.411 261.274 232.255 260.734 233.054C260.34 233.656 259.923 234.244 259.476 234.8C259.449 234.847 259.436 234.87 259.417 234.875C259.199 235.172 258.976 235.449 258.735 235.732C258.512 236.01 258.27 236.293 258.024 236.558C257.764 236.845 257.499 237.115 257.238 237.403L257.22 237.408C255.224 238.101 253.447 238.796 252.099 239.613C251.991 241.209 254.664 239.639 252.697 241.178L252.9 241.124C252.9 241.124 252.74 241.266 252.652 241.309C251.846 241.188 250.944 241.152 249.863 241.779C249.361 242.35 252.156 242.196 249.555 242.853L249.594 242.406C246.552 243.34 244.844 244.81 242.612 245.884L241.336 246.226C240.546 244.315 246.428 242.58 249.522 240.284L248.753 240.45C249.84 240.139 247.547 240.019 249.027 239.623C245.167 240.538 246.017 241.937 240.969 243.23C239.836 242.7 239.87 242.235 238.52 241.863C237.507 242.967 237.745 243.042 235.793 244.121C236.713 244.37 238.681 242.831 238.373 243.905C237.852 244.7 236.464 244.774 236.391 245.686C238.213 245.971 237.76 245.835 239.907 245.041C239.858 245.67 239.013 246.293 239.818 246.632L233.859 248.229C230.754 248.704 227.743 249.015 225.384 250.5C225.145 250.643 224.892 250.81 224.663 250.991C224.688 250.865 224.663 250.772 224.588 250.713C223.889 250.028 218.899 251.464 221.956 249.772L222.389 250.35C225.423 250.053 228.418 247.168 228.706 246.317C223.417 248.786 222.302 248.251 216.365 250.298C218.372 248.313 212.849 250.943 213.896 249.373C212.488 249.671 211.046 250.434 209.873 250.57C213.316 250.838 207.871 252.574 208.737 253.512C210.612 253.109 212.346 251.732 212.162 250.75C213.355 250.391 213.515 251.359 213.462 252.048L219.106 250.833C217.072 251.458 216.972 252.119 217.149 252.706L207.489 255.295C207.478 254.881 207.364 254.456 205.615 254.964C204.395 255.37 204.017 255.809 203.955 256.242L117.257 279.472C109.725 281.491 102.106 280.517 95.6244 277.276C88.0463 273.495 82.0799 266.624 79.7147 257.797L71.6076 227.541C71.662 226.634 71.2895 225.762 70.8935 224.876L45.5655 130.351C45.9148 130.396 46.1997 130.201 46.4088 129.649C45.6193 129.96 45.2174 128.163 44.7226 127.205L44.2961 125.614C44.5232 125.573 44.725 125.142 44.828 123.527C44.2914 120.636 43.5747 117.814 42.7233 115.82L42.2321 117.836L42.2172 117.781L41.6086 115.584C42.0739 115.618 42.297 115.34 41.2906 113.804C41.2189 113.685 41.1336 113.589 41.0533 113.511L37.741 101.149C37.7416 100.634 37.9769 100.253 38.9061 100.242C38.2523 98.3944 37.557 97.946 36.8485 97.8185L35.7378 93.6733C35.7909 92.6872 35.7822 91.6185 35.9034 90.8125C35.607 90.5944 35.2378 90.4751 34.8786 90.3929C34.3725 88.2079 34.1218 86.014 34.0995 83.8581C34.113 83.8346 34.1081 83.8161 34.1031 83.7976C34.1153 83.6952 34.1276 83.5927 34.1398 83.4903C34.1348 83.4718 34.1114 83.4582 34.1064 83.4397C34.1033 81.8737 34.2446 80.3284 34.4933 78.8139C35.2006 79.9731 36.008 81.284 36.4592 82.968C36.0239 81.121 36.488 79.1521 36.088 78.0296C35.5533 77.7365 36.0076 79.8759 35.2665 78.3687L35.6773 78.1991C35.6518 77.5118 35.3064 76.5928 34.968 76.3661C34.963 76.3476 34.9395 76.3341 34.9161 76.3205C34.9752 76.2452 35.0159 76.1748 35.033 76.0909C35.1328 75.9451 35.1672 75.7772 35.1781 75.5958C35.1682 75.5588 35.1582 75.5218 35.1903 75.4934C36.0185 72.5145 37.2813 69.6771 38.9244 67.0749C43.8462 69.3064 48.7224 72.7005 48.7224 72.7005C56.9072 98.7312 64.0398 132.382 69.4726 159.468C72.3501 173.612 77.4093 187.608 79.7367 201.919C79.8121 203.089 79.205 202.081 78.9766 202.043C80.3893 204.799 79.9215 206.828 81.3156 209.588L80.5671 209.015C82.4999 212.306 83.723 217.611 84.3641 221.188C83.9763 222.997 83.6954 226.464 85.3479 228.56L85.6049 227.817C85.5433 229.956 89.6055 235.789 86.8469 236.449C87.7732 241.239 89.8406 237.333 89.722 242.442C90.3558 245.029 91.1263 247.461 91.836 249.591C92.5321 251.745 93.2256 253.741 93.8008 255.887C93.7128 255.633 93.6014 255.366 93.3704 255.17C92.9585 256.371 93.6043 257.745 94.4365 259.148C95.197 260.432 96.097 261.718 96.4748 262.906C95.8687 262.791 95.9697 261.614 95.3243 261.648C95.8601 262.833 97.6421 264.894 98.4883 266.572C98.0186 266.003 97.4813 265.552 97.4823 266.444C98.2553 266.812 98.8905 267.555 99.6655 268.596L99.1164 269.656C99.8997 270.358 100.918 271.196 101.991 271.722C103.028 272.337 104.133 272.537 104.982 272.745C105.101 273.189 105.049 273.144 104.891 273.146C104.774 273.079 104.578 273.012 104.468 273.418C105.581 273.279 106.303 273.086 107.382 273.411C107.309 274.026 106.868 274.084 106.441 274.12C106.051 274.145 105.629 274.198 105.579 274.826C106.416 274.543 106.581 274.717 106.795 274.997C106.995 275.3 107.216 275.677 108.057 275.71C108.288 275.092 108.241 274.768 107.555 274.872C108.191 274.285 109.078 273.671 110.826 273.46C111.011 273.926 111.742 274.881 113.378 274.324C114.133 273.883 112.791 273.687 112.697 273.336C117.027 272.989 122.171 270.5 128.219 268.641C128.125 269.995 132.981 266.949 131.608 269.816C134.024 268.395 132.314 266.751 137.019 265.51C139.332 265.703 140.628 266.764 138.678 268.298C140.754 268.198 143.837 267.194 146.198 266.68C146.744 265.681 145.698 263.997 148.274 263.545L145.045 263.339C149.287 262.441 153.816 260.692 157.747 260.63C160.382 259.508 158.053 259.774 159.281 258.731L163.285 257.758C162.778 258.31 160.362 259.731 162.943 259.297L165.105 258.262C162.904 259.744 164.097 259.385 164.238 260.577L166.62 259.621C165.665 260.055 165.626 260.502 166.06 260.862C167.268 260.261 169.109 260.323 170.117 259.2C169.45 258.783 169.957 258.231 168.803 258.144C172.358 257.052 174.973 256.153 178.977 255.18C177.549 255.701 172.825 257.165 175.333 257.643L178.182 256.582L178.035 258.625C179.843 256.118 185.487 254.903 188.069 254.469C188.663 255.797 191.566 253.829 190.737 255.916C191.005 255.289 193.192 254.048 194.829 253.57C192.506 253.855 193.066 252.614 194.308 251.329C195.608 252.627 196.476 250.094 197.411 249.883C197.63 250.181 195.194 252.044 198.258 251.045C199.773 249.369 198.765 247.458 202.355 245.682C203.221 246.621 206.124 244.871 207.283 244.977C206.27 246.081 203.255 246.155 203.401 247.366C208.992 246.839 208.238 244.543 212.042 243.047C213.376 243.88 217.418 242.459 218.159 241.745L217.871 242.596L221.422 241.486C221.115 242.342 218.285 243.179 219.653 243.547L224.616 242.157C224.129 242.486 222.722 242.565 222.917 243.069L231.702 240.179C230.908 241.582 234.897 240.85 236.753 240.67C237.454 240.106 237.27 239.937 236.814 239.861C239.828 239.489 243.18 236.826 244.525 238.885C243.138 238.741 242.417 239.232 241.243 239.368C240.035 240.188 241.169 240.498 241.097 241.192C242.796 240.499 243.731 240.288 244.618 240.784C244.273 239.052 250.102 238.601 248.622 236.558C249.27 237.197 250.984 236.044 251.924 235.852C248.642 236.334 251.525 234.808 248.969 235.037L247.506 236.242C249.751 234.331 245.845 235.299 244.674 234.482C248.127 233.378 246.66 232.046 247.401 231.113C247.527 232.765 253.011 230.582 252.719 231.196C255.251 230.061 254.587 230.913 256.05 230.006C254.911 231.084 257.496 231.701 257.048 232.178C258.07 231.845 259.484 231.128 259.719 230.451C259.764 230.32 259.781 230.236 259.756 230.143L259.608 230.183C257.363 230.685 258.549 229.415 258.94 228.577C259.02 228.357 259.072 228.184 258.982 228.07C260.863 227.466 262.695 226.381 264.252 225.825Z" fill="#565C2D"/>
</g>
</svg>
