<svg width="300" height="300" viewBox="0 0 300 300" fill="none" xmlns="http://www.w3.org/2000/svg">
<path d="M277.707 263.247L269.969 271.022L263.255 277.711C262.899 278.066 262.502 278.4 262.084 278.714C261.059 279.487 259.909 280.093 258.737 280.47H258.717C254.847 281.661 250.497 280.741 247.443 277.711L217.807 248.093L210.759 241.049L208.249 238.541L202.497 232.793L200.113 230.452L199.883 230.202L191.434 221.757C185.117 215.445 175.496 213.648 167.381 217.452C150.712 225.269 132.433 228.446 114.446 226.962C113.358 226.878 112.271 226.774 111.183 226.648C87.0267 223.889 63.6648 212.644 45.8244 192.997C20.7894 165.449 13.3646 127.429 23.2783 93.6103C27.7331 78.3732 35.6598 64.0138 47.1421 51.8492C87.6123 8.89663 155.293 8.10237 196.746 49.5291C228.662 81.4248 235.543 128.871 217.389 167.455C213.582 175.565 215.381 185.138 221.697 191.471L277.707 247.445C282.078 251.814 282.078 258.899 277.707 263.268V263.247Z" fill="#BFD537"/>
<g style="mix-blend-mode:overlay">
<path d="M226.738 248.009C226.675 247.842 226.738 247.696 226.842 247.57C226.696 247.528 226.591 247.466 226.424 247.424L226.738 248.009Z" fill="#565C2D"/>
<path d="M263.778 265.86C263.778 265.86 263.799 265.881 263.84 265.902C263.903 265.756 263.966 265.589 264.091 265.442C263.896 265.54 263.792 265.672 263.778 265.84V265.86Z" fill="#565C2D"/>
<path d="M254.722 260.843C254.722 260.613 254.722 260.383 254.784 260.153C254.638 260.279 254.659 260.55 254.722 260.843Z" fill="#565C2D"/>
<path d="M229.917 252.212C229.77 251.773 229.645 251.271 229.498 250.77C229.268 251.208 229.31 251.877 229.917 252.212Z" fill="#565C2D"/>
<path d="M255.077 262.263C255.035 261.845 254.826 261.302 254.721 260.842C254.721 261.364 254.868 261.824 255.077 262.263Z" fill="#565C2D"/>
<path d="M80.9401 203.574L80.7519 202.968C80.7309 203.239 80.8146 203.428 80.9401 203.574Z" fill="#565C2D"/>
<path d="M103.549 206.103C103.382 206.103 103.235 206.061 103.068 206.04C103.277 206.082 103.445 206.145 103.549 206.103Z" fill="#565C2D"/>
<path d="M219.877 247.779C219.71 247.738 219.563 247.738 219.375 247.675C219.563 247.758 219.731 247.779 219.877 247.779Z" fill="#565C2D"/>
<path d="M269.948 271.022L263.234 277.711C262.878 278.066 262.481 278.4 262.063 278.714C261.121 277.732 260.159 276.916 259.155 276.415C257.148 277.397 259.72 278.797 257.336 278.003L258.716 280.47H258.695C255.767 280.47 258.549 277.209 255.956 275.809C255.182 275.746 255.976 278.233 254.554 276.289L255.14 276.018C252.965 273.447 250.246 273.133 248.259 271.231C250.35 268.681 254.094 273.133 257.733 274.471L257.399 273.948C257.921 274.534 257.712 272.778 258.298 273.363C256.374 270.625 254.805 272.276 252.003 268.577C252.4 267.114 252.986 266.842 253.09 265.316C251.438 265.149 251.438 265.421 249.576 264.396C249.514 265.421 251.919 266.152 250.518 266.633C249.43 266.716 248.949 265.483 247.841 266.068C247.987 267.971 248.008 267.469 249.556 268.869C248.719 269.308 247.631 268.89 247.548 270.165C243.49 266.988 242.988 260.488 238.115 259.255C239.767 258.565 235.438 254.196 238.701 255.848L238.136 256.684C239.516 259.192 243.762 259.777 244.912 259.422C240.374 256.37 240.625 254.949 236.233 251.103C239.286 251.333 234.183 248.428 236.4 248.093C235.543 247.027 234.1 246.337 233.514 245.355C234.497 248.783 230.46 245.209 229.707 246.818C230.9 248.198 233.054 248.616 234.162 247.654C235.02 248.428 233.932 249.389 233.137 249.912C234.288 251.291 235.459 252.65 236.526 254.071C233.263 250.915 233.284 257.373 231.067 253.883C230.481 252.942 232.949 252.148 230.418 250.622C230.063 250.288 229.686 250.476 229.519 250.852C229.164 249.535 228.578 248.26 226.842 247.633C227.26 247.111 228.494 246.735 226.842 245.292C224.5 243.39 223.935 246.588 223.119 246.609L223.433 247.194C222.115 246.63 222.115 248.344 219.877 247.863C220.63 247.863 220.735 246.965 219.522 246.296C218.372 246.045 218.1 247.299 217.786 248.135L210.738 241.091C210.8 240.861 210.842 240.61 210.821 240.255C208.751 237.705 213.645 238.917 210.298 237.204C209.817 238.04 209.064 238.395 208.228 238.583L202.476 232.835C203.083 232.501 203.982 232.501 205.467 233.232C204.881 230.013 201.431 231.309 199.193 229.491L199.862 230.243L191.412 221.799C185.096 215.487 175.475 213.689 167.36 217.493C150.691 225.311 132.412 228.488 114.425 227.004C114.404 226.648 114.404 226.314 114.425 226.021C115.241 224.537 118.294 224.6 119.089 223.889C117.499 222.238 116.265 224.83 114.278 223.91C113.923 224.976 112.208 225.812 111.141 226.669C86.9846 223.91 63.6227 212.665 45.7824 193.018C20.7891 165.449 13.3644 127.429 23.278 93.6104C24.5956 95.0108 25.8296 96.5157 27.0218 97.9161C30.7446 102.243 34.0073 106.068 34.0073 106.068C32.0413 116.372 30.9956 127.951 32.0831 139.447C33.108 150.943 36.3707 162.084 41.1393 171.134C43.6281 175.92 47.3719 180.017 51.3666 183.717C55.3614 187.416 59.6071 190.698 63.6227 194.314C64.1456 195.087 63.1835 195.003 62.9534 195.212C65.4632 195.568 65.8606 197.512 68.3704 197.7L67.4501 198.18C70.671 198.18 74.1429 200.062 76.4853 201.337C77.0919 202.904 78.8696 205.287 81.1493 204.326L80.8984 203.594C82.0905 204.973 87.8003 202.591 86.6499 206.604C90.1218 207.67 88.7205 203.03 91.7741 205.6C95.727 206.207 99.0524 205.6 102.859 206.019C102.608 206.019 102.357 206.019 102.127 206.269C102.859 207.335 104.135 207.189 105.536 206.834C106.937 206.437 108.464 205.83 109.782 206.102C109.426 206.834 108.443 205.998 108.192 206.917C109.384 206.855 112.082 205.684 114.258 205.851C113.421 206.039 112.71 206.416 113.588 207.022C114.362 206.332 115.387 206.039 117.081 205.935L117.771 207.482C120.365 206.875 124.589 205.58 128.208 204.681C129.546 205.621 127.538 204.764 127.957 205.935C129.693 204.994 131.094 204.179 133.52 204.263C133.771 206.06 130.257 205.203 130.968 207.064C133.457 205.391 132.788 207.732 135.507 207.377C135.737 206.437 135.612 205.956 134.419 206.29C135.34 205.287 136.825 204.137 139.648 203.803C139.962 204.472 141.029 205.872 143.204 205.308C144.228 204.785 142.534 204.284 142.43 203.761C148.411 203.824 154.456 202.653 160.835 203.03C160.5 203.949 161.776 203.928 162.843 204.116C163.909 204.305 164.746 204.702 163.491 206.29C166.377 205.642 165.457 202.423 170.56 203.322C172.694 204.89 173.279 207.043 170.707 207.983C172.673 209.007 175.956 209.405 178.403 210.303C179.491 209.321 179.575 206.478 182.231 207.565L179.344 205.245C181.645 205.977 184.071 206.541 186.393 207.398C188.693 208.234 190.952 209.07 192.584 210.575C195.637 211.223 193.483 209.802 195.323 209.467L199.444 211.432C198.544 211.662 195.449 211.516 197.875 212.937C198.774 213.083 199.548 213.292 200.427 213.501C197.499 213.418 198.712 213.94 197.833 215.466L200.406 216.281C199.339 216.009 198.921 216.511 198.942 217.264C200.343 217.535 201.598 219.082 203.313 218.643C203.208 217.64 204.087 217.41 203.313 216.386C205.132 217.159 206.638 217.953 208.186 218.789C209.734 219.646 211.323 220.524 213.059 221.778C211.658 221.047 207.057 218.643 208.312 221.277L211.198 222.531L209.127 224.579C212.641 223.471 217.368 227.15 219.166 229.073C218.1 230.891 221.676 231.581 219.062 232.856C219.836 232.522 222.366 233.19 223.621 234.277C222.22 232.438 223.788 231.769 225.775 231.727C225.022 234.11 228.202 232.563 228.913 233.274C228.683 233.713 225.441 233.19 228.055 235.092C230.607 234.988 232.301 232.292 235.94 234.173C235.271 235.803 238.575 237.057 238.952 238.228C237.237 238.207 235.794 235.427 234.497 236.597C237.571 241.384 239.809 238.75 243.135 241.175C242.716 243.098 245.875 245.815 246.962 245.982L245.875 246.337L248.447 248.887C247.297 249.243 245.31 247.215 245.352 248.804C246.502 249.995 247.652 251.208 248.698 252.42C248.133 252.232 247.61 250.936 247.046 251.521C249.116 253.569 251.25 255.597 253.257 257.666C251.333 257.938 253.362 261.178 254.094 262.808C254.993 263.059 255.161 262.745 255.098 262.285C256.395 264.856 260.515 266.173 258.319 268.848C258.152 267.448 257.378 267.114 256.897 266.11C255.558 265.546 255.474 266.842 254.596 267.281C255.893 268.347 256.353 269.099 255.997 270.27C258.068 268.723 260.034 273.886 262.209 271.085C261.561 272.151 263.38 272.966 263.861 273.718C262.481 270.959 265.074 272.652 264.196 270.395L262.355 269.831C265.263 270.604 263.129 267.615 263.861 265.943C266.078 268.451 267.354 266.131 268.734 266.215C266.978 267.281 269.759 270.207 269.989 271.043L269.948 271.022Z" fill="#565C2D"/>
<path d="M216.343 248.051C216.343 248.051 216.217 247.884 216.134 247.759C216.196 247.884 216.259 247.968 216.343 248.051Z" fill="#565C2D"/>
<path d="M115.847 228.676L116.893 228.509C116.433 228.509 116.119 228.571 115.847 228.676Z" fill="#565C2D"/>
</g>
<path d="M168.887 168.938C143.622 194.187 102.525 194.187 77.2595 168.938C51.9944 143.689 51.9944 102.617 77.2595 77.3684C102.525 52.1194 143.622 52.1194 168.887 77.3684C194.153 102.617 194.153 143.689 168.887 168.938Z" fill="#EAF1BC"/>
</svg>
