<svg width="300" height="300" viewBox="0 0 300 300" fill="none" xmlns="http://www.w3.org/2000/svg">
<path d="M202.61 19.914L41.3397 62.8486C33.2877 64.9922 27.0463 70.5051 23.7409 77.4622C21.0586 83.1228 20.2917 89.7221 22.052 96.2493L52.2786 208.332C52.7098 209.931 53.2806 211.457 53.9535 212.903L54.0697 213.137C54.363 213.766 54.7058 214.381 55.0442 214.98C57.4533 219.126 60.872 222.491 64.8858 224.85C65.9121 225.442 66.9746 225.972 68.0732 226.439C72.146 228.164 76.6444 228.909 81.2169 228.487C82.0984 228.411 82.9666 228.286 83.8379 228.107C84.4992 228.002 85.1472 227.847 85.7907 227.676L104.419 222.716C105.244 222.497 106.076 222.434 106.861 222.525C107.077 222.539 107.297 222.568 107.505 222.619C108.042 222.706 108.567 222.884 109.069 223.104C109.884 223.505 110.627 224.031 111.232 224.701C112.484 226.063 113.193 227.906 113.015 229.932L113.57 233.565L113.784 234.886L117.331 257.544C117.87 260.986 120.576 263.022 123.479 263.291C123.952 263.342 124.429 263.339 124.909 263.282C125.322 263.242 125.723 263.153 126.114 263.031C126.494 262.93 126.876 262.775 127.234 262.592C128.351 262.012 129.329 261.115 130.048 259.846L156.351 213.113C158.162 209.928 161.162 207.61 164.71 206.665L247.061 184.741C261.647 180.858 270.278 165.911 266.349 151.34L236.122 39.258C232.193 24.6873 217.196 16.0309 202.61 19.914ZM161.696 170.899L135.032 177.997L130.169 159.965L156.833 152.867L161.696 170.899ZM161.667 126.529C145.851 133.655 153.384 144.404 153.384 144.404L129.03 150.888C129.03 150.888 120.329 129.708 144.333 117.205C168.337 104.702 157.979 77.3747 135.119 83.0367C112.254 88.6822 114.271 105.67 114.271 105.67L94.3226 110.981C94.3226 110.981 84.8689 78.0241 131.069 65.7244C183.984 51.637 198.246 110.095 161.667 126.529Z" fill="#BFD537"/>
<path d="M131.114 65.7688C184.032 51.6805 198.295 110.142 161.714 126.577C145.897 133.703 153.43 144.453 153.43 144.453L129.075 150.937C129.075 150.937 120.374 129.756 144.379 117.253C168.384 104.749 158.025 77.4198 135.164 83.0821C112.298 88.7279 114.315 105.717 114.315 105.717L94.3659 111.028C94.3659 111.028 84.9116 78.0692 131.114 65.7688Z" fill="#EAF1BC"/>
<path d="M156.806 152.852L130.134 159.953L134.999 177.992L161.67 170.891L156.806 152.852Z" fill="#EAF1BC"/>
<g style="mix-blend-mode:overlay">
<path d="M116.405 237.194C116.414 237.032 116.5 236.957 116.573 236.902C116.509 236.795 116.466 236.701 116.402 236.594L116.405 237.194Z" fill="#565C2D"/>
<path d="M127.797 255.732C127.849 255.594 127.921 255.469 128.01 255.339C127.895 255.37 127.831 255.528 127.797 255.732Z" fill="#565C2D"/>
<path d="M116.897 241.721C116.962 241.439 117.028 240.962 117.099 240.573C116.846 240.746 116.678 241.303 116.897 241.721Z" fill="#565C2D"/>
<path d="M127.599 256.702C127.685 256.432 127.719 256.035 127.78 255.736C127.637 256.057 127.58 256.372 127.599 256.702Z" fill="#565C2D"/>
<path d="M53.8806 176.109L54.068 175.688C53.9371 175.794 53.8857 175.931 53.8806 176.109Z" fill="#565C2D"/>
<path d="M60.8754 193.634C60.8444 193.519 60.7969 193.408 60.7494 193.297C60.7893 193.445 60.8247 193.577 60.8754 193.634Z" fill="#565C2D"/>
<path d="M124.729 263.222C124.25 263.279 123.773 263.283 123.3 263.232C122.645 262.047 121.845 261.112 121.421 259.866C122.801 259.216 123.658 261.283 124.729 263.222Z" fill="#565C2D"/>
<path d="M126.464 239.105C126.834 239.624 127.108 239.922 127.339 240.584C126.465 241.47 127.316 244.103 127.867 244.574L127.148 244.395L127.769 246.701C127.033 246.526 126.606 244.681 126.126 245.585L126.855 248.816C126.609 248.493 126.684 247.59 126.206 247.717L127.849 253.423C126.71 252.932 126.952 255.533 126.908 256.745C127.33 257.198 127.51 257.079 127.604 256.772C127.623 258.743 129.611 260.879 127.674 261.819C127.956 260.897 127.599 260.427 127.59 259.67C126.992 258.894 126.608 259.632 126.02 259.612C126.453 260.697 126.531 261.312 126.02 261.907C126.495 261.833 126.811 262.155 127.072 262.597C126.715 262.781 126.333 262.936 125.953 263.036C125.396 262.214 124.655 261.758 124.239 259.557C124.834 258.816 125.227 258.834 125.691 257.934C124.827 257.282 124.747 257.444 123.987 256.199C123.671 256.795 124.824 258.059 123.927 257.875C123.292 257.55 123.362 256.631 122.579 256.61C122.146 257.82 122.31 257.511 122.774 258.906C122.186 258.886 121.715 258.252 121.318 259.011C119.886 255.597 121.423 251.534 119.121 249.023C120.23 249.204 119.182 245.052 120.455 247.22L119.902 247.526C119.871 249.511 122.096 251.408 122.794 251.575C121.172 248.176 121.763 247.419 120.567 243.571C122.109 244.837 120.356 241.28 121.626 241.93C121.572 241.468 121.41 240.999 121.258 240.563C121.068 239.925 120.886 239.25 120.843 238.696C120.493 241.985 119.144 236.783 118.321 237.727C118.46 238.572 118.814 239.36 119.239 239.953C119.663 240.546 120.176 240.939 120.604 240.825C120.796 241.604 119.925 241.712 119.336 241.692L119.804 245.328C119.001 242.347 117.064 246.04 116.974 243.152C116.968 242.341 118.536 242.983 117.655 240.958C117.551 240.509 117.29 240.455 117.09 240.632C117.257 239.546 117.312 238.243 116.576 236.956C116.936 236.718 117.696 237.046 117.217 235.073C116.498 232.404 115.363 234.878 114.943 234.566L114.929 235.17C114.565 234.473 114.186 235.033 113.641 234.913L113.427 233.593L112.873 229.963C113.051 227.939 112.343 226.097 111.098 224.752C111.104 222.35 112.559 224.275 111.67 221.828C110.956 223.307 110.295 222.954 109.7 222.777C109.546 222.73 109.413 222.695 109.268 222.68C109.158 222.798 109.045 222.969 108.932 223.14C108.431 222.921 107.907 222.743 107.371 222.656C107.51 222.319 107.649 221.982 107.804 221.64C108.107 220.995 108.423 220.399 108.812 219.942C109.011 219.695 109.261 219.575 109.468 219.361C109.692 219.143 109.925 218.957 110.199 218.796C110.226 218.436 110.196 218.196 110.128 218.073C110.077 218.016 110.035 217.992 109.965 217.993C109.881 217.945 109.798 217.896 109.69 217.89C109.292 217.855 108.739 218.161 108.185 218.467C107.428 219.393 106.644 220.22 105.898 220.665C106.203 220.549 106.511 220.449 106.808 220.37C106.528 220.709 106.168 220.946 106.088 220.844C105.061 222.866 106.928 221.538 106.728 222.563C105.944 222.472 105.113 222.534 104.289 222.754L85.6825 227.711C85.0398 227.882 84.3926 228.037 83.7322 228.142C83.7537 227.96 83.6764 227.804 83.4792 227.663C81.8933 227.414 81.6189 228.035 81.1143 228.522C76.5474 228.945 72.0545 228.2 67.9869 226.477L68.1923 226.387C67.6738 226.101 67.1432 225.837 66.6367 225.53L65.1325 224.537C65.5407 224.675 65.4805 224.32 65.8443 224.294C65.4025 223.9 64.9835 223.394 64.5854 222.899C64.2279 222.359 63.8583 221.84 63.4659 221.432L62.796 222.158C65.296 223.504 63.0737 223.32 64.8036 224.889C60.7949 222.532 57.3807 219.17 54.9749 215.027C55.4395 214.851 55.7697 214.569 55.544 213.534C55.2638 213.15 54.3478 212.635 54.0018 213.186C53.9733 213.211 53.9492 213.253 53.9295 213.311C53.8985 213.196 53.9004 213.072 53.8858 212.952C53.8172 211.911 53.8945 211.149 53.8672 210.327C53.8342 209.418 53.6307 208.466 53.0861 206.969C52.7171 206.256 52.4744 207.256 51.9736 207.036L52.4846 207.818C52.3071 207.618 52.1398 207.521 51.9692 207.479L51.7695 206.737C52.449 206.768 53.0074 206.284 53.4885 206.103C54.5629 206.223 55.5386 208.205 56.2187 208.5C56.5317 207.04 54.7462 206.968 54.5774 205.424C53.4783 205.541 51.7382 203.41 51.0195 203.954L22.0339 96.3888C20.2764 89.8667 21.0429 83.2723 23.7225 77.6156C24.4103 77.8737 24.8274 78.045 24.8274 78.045C31.4682 94.2988 37.0089 115.647 41.2247 132.865C43.4533 141.856 47.5886 150.516 49.3317 159.672C49.3621 160.441 48.8791 159.828 48.668 159.832C49.8408 161.496 49.3813 162.872 50.5585 164.553L49.9278 164.244C51.5367 166.217 52.4959 169.58 52.9842 171.85C52.609 173.08 52.3068 175.367 53.695 176.586L53.9302 176.082C53.8479 177.481 57.2741 180.822 54.8484 181.521C55.5769 184.487 57.4567 181.762 57.2547 185.011C58.3167 188.1 59.7557 190.294 60.6991 193.008C60.6306 192.885 60.5456 192.766 60.3872 192.703C60.0373 193.502 60.5242 194.325 61.1607 195.18C61.8092 196.013 62.6028 196.861 62.8678 197.779C62.3455 197.741 62.516 196.866 61.9379 196.95C62.3455 197.741 63.7946 199.12 64.3696 200.468C64.0013 200.019 63.5772 199.69 63.5196 200.394C64.1205 200.658 64.6397 201.208 65.1785 202.159L64.5726 202.991C65.7105 204.329 67.7117 206.25 69.3389 207.635C69.282 208.603 69.0854 207.349 68.6284 207.947C69.6521 208.469 70.5522 208.794 71.3047 209.882C70.5207 210.709 69.7485 208.761 69.1001 209.763C70.7539 210.329 69.381 210.871 70.5632 211.916C71.0671 211.622 71.249 211.38 70.6589 211.025C71.4778 210.983 72.5009 211.24 73.6673 212.095C73.4625 212.449 73.2763 213.593 74.2512 213.934C74.8153 213.995 74.4419 213.265 74.6238 213.023C76.5059 214.763 79.1903 215.548 81.587 216.445C80.9672 217.423 83.675 216.984 82.1069 218.637C83.4501 218.509 83.5178 216.531 85.3807 217.218C86.059 218.096 86.2898 219.411 85.0919 220.013C85.5026 220.292 86.0738 220.51 86.669 220.687C87.2794 220.789 87.9063 220.887 88.4267 221.049C88.8405 220.356 88.7352 218.654 89.7462 218.932C89.3507 218.578 88.9938 218.303 88.6223 217.907C90.2723 218.262 92.0217 217.937 93.3985 218.524C93.9436 218.449 93.9259 218.383 94.1357 218.309C94.2796 218.253 94.4234 218.197 94.5344 218.15C94.7727 218.051 94.9318 217.921 95.0459 217.82C95.262 217.639 95.2728 217.548 95.2461 217.449C95.224 217.366 95.1314 217.285 95.1618 217.136C95.1815 217.078 95.2296 216.994 95.3019 216.869C95.4027 216.719 95.5396 216.506 95.7665 216.233L100.789 211.93C99.9333 213.146 96.7712 216.619 99.7888 214.314C100.631 213.507 101.823 212.095 102.898 210.909C99.356 215.33 101.104 213.558 100.7 215.272L103.996 211.834C102.627 213.311 102.363 214.034 102.678 214.286C104.366 212.424 106.28 211.331 108.361 208.306C107.897 208.023 108.978 206.464 107.595 207.362C110.144 204.759 112.375 202.488 114.647 200.17C114.978 201.07 115.309 201.971 115.674 202.932C115.753 203.159 115.836 203.401 115.915 203.628L116.092 204.022C116.2 204.293 116.313 204.581 116.426 204.868C116.315 204.721 116.146 204.484 115.967 204.214L115.815 204.043C115.815 204.043 115.73 203.924 115.648 203.752C115.502 203.473 115.349 203.231 115.204 203.022C114.638 202.167 114.166 202.187 114.205 204.295L114.888 205.455C115.009 205.705 115.092 205.753 115.164 205.822L115.4 206.042L113.927 208.835C114.438 208.24 114.868 208.002 115.269 207.983C115.464 207.984 115.66 208.056 115.827 208.152C115.873 208.193 115.918 208.163 115.966 208.274L116.059 208.62L116.296 209.369C116.863 211.407 117.279 213.803 117.488 215.3C116.592 217.022 118.073 219.24 116.606 219.631C117.061 219.615 118.009 221.428 118.4 223.142C118.133 220.512 119.042 220.411 120.078 221.371C119.137 223.581 121.131 223.509 121.338 224.672C121.113 225.014 119.561 222.797 120.441 226.129C121.818 227.368 123.316 225.522 124.989 229.895C124.232 231.085 125.83 234.525 125.79 235.948C124.791 234.732 124.617 231.071 123.609 231.393C123.9 234.704 124.525 236.038 125.292 237.246C125.663 237.836 126.079 238.396 126.48 239.101L126.464 239.105Z" fill="#565C2D"/>
<path d="M52.3912 207.844L52.8293 208.486C52.6791 208.191 52.539 207.999 52.3912 207.844Z" fill="#565C2D"/>
</g>
</svg>
